<svg width="31" height="32" viewBox="0 0 31 32" fill="none" xmlns="http://www.w3.org/2000/svg">
<path d="M15.4617 3.18279C19.5894 3.18279 20.079 3.19825 21.7087 3.27297C23.3938 3.35027 25.1292 3.73419 26.3569 4.96195C27.5963 6.2013 27.9686 7.91991 28.0459 9.61018C28.1206 11.2399 28.1361 11.7295 28.1361 15.8572C28.1361 19.985 28.1206 20.4745 28.0459 22.1042C27.9699 23.7803 27.577 25.5324 26.3569 26.7525C25.1176 27.9918 23.4003 28.3641 21.7087 28.4414C20.079 28.5162 19.5894 28.5316 15.4617 28.5316C11.3339 28.5316 10.8444 28.5162 9.21467 28.4414C7.55146 28.3654 5.77617 27.9635 4.56644 26.7525C3.33353 25.5195 2.95476 23.7842 2.87747 22.1042C2.80274 20.4745 2.78728 19.985 2.78728 15.8572C2.78728 11.7295 2.80274 11.2399 2.87747 9.61018C2.95348 7.94053 3.35028 6.17812 4.56644 4.96195C5.80322 3.72517 7.52827 3.35027 9.21467 3.27297C10.8444 3.19825 11.3339 3.18279 15.4617 3.18279ZM15.4617 0.397461C11.2631 0.397461 10.7362 0.415497 9.08713 0.490219C6.69731 0.599726 4.32424 1.26449 2.59661 2.99212C0.862545 4.72619 0.204218 7.09411 0.0947116 9.48263C0.0199895 11.1317 0.00195312 11.6586 0.00195312 15.8572C0.00195312 20.0558 0.0199895 20.5827 0.0947116 22.2318C0.204218 24.619 0.871564 26.9985 2.59661 28.7223C4.32939 30.4551 6.70117 31.1147 9.08713 31.2242C10.7362 31.2989 11.2631 31.3169 15.4617 31.3169C19.6603 31.3169 20.1872 31.2989 21.8363 31.2242C24.2248 31.1147 26.6004 30.4486 28.3268 28.7223C30.0621 26.9869 30.7192 24.6203 30.8287 22.2318C30.9034 20.5827 30.9214 20.0558 30.9214 15.8572C30.9214 11.6586 30.9034 11.1317 30.8287 9.48263C30.7192 7.09282 30.0531 4.71846 28.3268 2.99212C26.5966 1.26192 24.2183 0.598438 21.8363 0.490219C20.1872 0.415497 19.6603 0.397461 15.4617 0.397461Z" fill="#465DF1"/>
<path d="M15.4623 8.12744C11.1934 8.12744 7.73242 11.5884 7.73242 15.8573C7.73242 20.1262 11.1934 23.5872 15.4623 23.5872C19.7312 23.5872 23.1922 20.1262 23.1922 15.8573C23.1922 11.5884 19.7312 8.12744 15.4623 8.12744ZM15.4623 20.8751C12.6912 20.8751 10.4445 18.6284 10.4445 15.8573C10.4445 13.0862 12.6912 10.8395 15.4623 10.8395C18.2334 10.8395 20.4801 13.0862 20.4801 15.8573C20.4801 18.6284 18.2334 20.8751 15.4623 20.8751Z" fill="#465DF1"/>
<path d="M23.577 9.67304C24.6443 9.67304 25.5095 8.80785 25.5095 7.74057C25.5095 6.6733 24.6443 5.80811 23.577 5.80811C22.5097 5.80811 21.6445 6.6733 21.6445 7.74057C21.6445 8.80785 22.5097 9.67304 23.577 9.67304Z" fill="#465DF1"/>
</svg>
