<svg width="33" height="33" viewBox="0 0 33 33" fill="none" xmlns="http://www.w3.org/2000/svg">
<path d="M27.3741 27.5969H22.6445V20.1903C22.6445 18.424 22.613 16.1512 20.1845 16.1512C17.7214 16.1512 17.3439 18.0748 17.3439 20.0629V27.5969H12.6159V12.3654H17.1568V14.4463H17.2197C18.1461 12.864 19.8668 11.9187 21.6992 11.9863C26.4933 11.9863 27.3756 15.1399 27.3756 19.2403L27.3741 27.5969ZM7.2792 10.2829C5.76296 10.2829 4.53456 9.05449 4.53456 7.53825C4.53456 6.02201 5.76296 4.7936 7.2792 4.7936C8.79544 4.7936 10.0238 6.02201 10.0238 7.53825C10.0238 9.05449 8.79544 10.2829 7.2792 10.2829ZM9.64321 27.5969H4.9089V12.3654H9.64321V27.5969ZM29.7318 0.402178H2.53231C1.24728 0.388023 0.193463 1.41825 0.177734 2.70327V30.0144C0.193463 31.301 1.24728 32.3312 2.53231 32.3171H29.7318C31.02 32.3328 32.0785 31.3026 32.0958 30.0144V2.7017C32.0769 1.41353 31.0184 0.383304 29.7318 0.400605" fill="#465DF1"/>
</svg>
