<svg width="32" height="32" viewBox="0 0 32 32" fill="none" xmlns="http://www.w3.org/2000/svg">
<path fill-rule="evenodd" clip-rule="evenodd" d="M15.8074 0.397461C7.26976 0.397461 0.347656 7.31956 0.347656 15.8572C0.347656 24.3948 7.26976 31.3169 15.8074 31.3169C24.345 31.3169 31.2671 24.3948 31.2671 15.8572C31.2671 7.31956 24.345 0.397461 15.8074 0.397461ZM22.973 10.9114C22.7411 13.3553 21.7336 19.288 21.2222 22.0256C21.0057 23.1851 20.578 23.5729 20.1658 23.6103C19.2678 23.6927 18.5863 23.0163 17.7167 22.4469C16.3562 21.5554 15.5871 21.0001 14.2666 20.1292C12.7399 19.1231 13.7294 18.5704 14.599 17.6673C14.827 17.4302 18.7821 13.832 18.8594 13.506C18.8684 13.4648 18.8787 13.3128 18.7873 13.2329C18.6958 13.153 18.5631 13.1801 18.4678 13.202C18.3312 13.2329 16.1578 14.6694 11.9463 17.5114C11.3292 17.9352 10.7701 18.1414 10.2689 18.1311C9.71755 18.1195 8.65598 17.8193 7.86624 17.5616C6.89872 17.2473 6.12831 17.0798 6.1953 16.5464C6.23009 16.2682 6.61272 15.9835 7.34448 15.6923C11.851 13.7289 14.8566 12.4342 16.3601 11.808C20.654 10.0224 21.5455 9.71196 22.1279 9.70165C22.857 9.69134 23.0322 10.293 22.973 10.9114Z" fill="#465DF1"/>
</svg>
