<?xml version="1.0" standalone="no"?>
<!DOCTYPE svg PUBLIC "-//W3C//DTD SVG 20010904//EN"
 "http://www.w3.org/TR/2001/REC-SVG-20010904/DTD/svg10.dtd">
<svg version="1.0" xmlns="http://www.w3.org/2000/svg"
 width="608.000000pt" height="608.000000pt" viewBox="0 0 608.000000 608.000000"
 preserveAspectRatio="xMidYMid meet">
<metadata>
Created by potrace 1.14, written by Peter Selinger 2001-2017
</metadata>
<g transform="translate(0.000000,608.000000) scale(0.100000,-0.100000)"
fill="#000000" stroke="none">
<path d="M5701 5855 c-156 -91 -286 -165 -289 -165 -2 0 -16 -8 -30 -19 -15
-10 -47 -29 -72 -43 -94 -52 -215 -123 -220 -129 -3 -3 -10 -8 -15 -10 -6 -2
-66 -35 -133 -74 -68 -38 -139 -79 -160 -90 -20 -11 -39 -22 -42 -25 -5 -5
-18 -13 -89 -52 -20 -11 -61 -35 -92 -54 -31 -19 -60 -34 -63 -34 -4 0 -19 -8
-34 -19 -36 -25 -201 -121 -207 -121 -3 0 -24 -12 -48 -27 -23 -15 -62 -39
-87 -53 -25 -14 -112 -63 -193 -110 -81 -47 -160 -91 -175 -99 -15 -8 -29 -17
-32 -20 -3 -3 -23 -15 -45 -26 -22 -11 -42 -22 -45 -26 -3 -3 -30 -19 -60 -35
-79 -41 -153 -121 -181 -191 -21 -55 -22 -72 -24 -364 -1 -272 1 -306 15 -301
24 9 83 44 103 60 9 8 17 11 17 7 0 -4 8 -2 18 6 9 8 34 24 55 34 20 11 37 23
37 27 0 5 4 8 10 8 5 0 110 58 232 129 320 184 538 311 573 331 78 45 282 163
295 171 96 58 452 259 459 259 5 0 11 3 13 8 3 7 174 107 298 175 30 17 57 33
60 36 3 3 31 20 64 36 102 52 195 160 211 246 3 13 10 49 17 79 7 30 13 60 14
65 0 6 4 17 7 25 6 16 57 242 62 275 2 11 10 48 19 83 9 34 21 82 26 105 4 23
11 52 14 65 2 12 4 22 3 22 -1 -1 -130 -75 -286 -165z"/>
<path d="M101 5978 c4 -18 17 -73 29 -123 20 -87 26 -113 36 -165 3 -14 14
-59 24 -100 10 -41 21 -86 24 -100 51 -274 87 -339 241 -427 44 -26 163 -95
265 -153 102 -59 230 -133 285 -165 55 -32 114 -66 130 -75 17 -10 102 -59
190 -110 88 -51 179 -103 202 -116 56 -32 264 -152 283 -163 8 -5 96 -56 195
-112 99 -57 182 -107 183 -111 2 -5 7 -8 12 -8 5 0 48 -23 97 -51 48 -29 111
-65 138 -81 28 -16 61 -34 75 -41 14 -6 27 -14 30 -18 3 -3 32 -21 65 -39 33
-18 69 -39 80 -46 11 -8 22 -14 25 -14 9 0 5 591 -4 630 -13 55 -43 108 -89
155 -36 36 -422 268 -757 453 -25 14 -56 32 -70 41 -52 33 -65 41 -80 48 -8 3
-47 26 -87 50 -39 24 -74 43 -76 43 -2 0 -46 25 -96 55 -51 30 -96 55 -101 55
-6 0 -10 5 -10 10 0 6 -4 10 -9 10 -5 0 -49 23 -98 51 -48 29 -108 63 -133 77
-25 14 -132 76 -239 139 -107 62 -198 113 -201 113 -4 0 -18 8 -31 19 -13 10
-46 30 -74 45 -27 15 -65 36 -84 47 -35 21 -272 158 -329 190 -45 26 -51 24
-41 -13z"/>
<path d="M490 4280 c0 -6 9 -48 21 -93 12 -45 23 -91 25 -102 2 -11 7 -38 13
-60 5 -22 14 -62 20 -90 5 -27 15 -65 20 -82 5 -18 8 -33 6 -33 -3 0 -1 -10 4
-23 5 -13 12 -41 15 -61 3 -21 10 -46 16 -55 5 -10 7 -20 5 -22 -8 -9 33 -140
59 -182 37 -65 82 -97 346 -249 129 -75 251 -145 270 -157 19 -11 41 -24 49
-28 8 -3 64 -35 125 -71 61 -36 125 -72 141 -82 17 -9 86 -49 153 -89 68 -39
127 -71 132 -71 6 0 10 -3 10 -8 0 -4 13 -13 28 -19 15 -7 49 -26 74 -42 l46
-29 0 -1081 c1 -1042 1 -1082 20 -1123 10 -24 30 -56 43 -70 20 -22 327 -205
534 -319 l51 -28 -1 1437 -1 1437 -26 59 c-14 32 -45 78 -68 103 -40 39 -169
123 -191 123 -5 0 -9 5 -9 10 0 6 -4 10 -8 10 -5 0 -76 39 -158 86 -82 48
-169 98 -194 112 -25 14 -57 33 -72 43 -14 11 -29 19 -32 19 -3 0 -43 22 -88
49 -131 77 -657 380 -718 414 -30 16 -62 36 -71 43 -8 8 -19 14 -23 14 -4 0
-46 23 -94 51 -48 29 -101 60 -117 69 -17 9 -86 49 -153 89 -68 39 -127 71
-132 71 -6 0 -10 4 -10 9 0 5 -8 11 -17 15 -10 3 -24 9 -30 12 -7 3 -13 0 -13
-6z"/>
<path d="M5530 4261 c-25 -15 -65 -38 -90 -52 -25 -13 -47 -26 -50 -29 -3 -3
-43 -28 -90 -54 -47 -27 -98 -56 -115 -66 -188 -109 -279 -160 -286 -160 -5 0
-9 -4 -9 -9 0 -5 -10 -13 -22 -17 -13 -4 -47 -22 -76 -40 -29 -19 -55 -34 -57
-34 -3 0 -24 -12 -46 -26 -23 -14 -62 -37 -87 -51 -26 -15 -60 -34 -77 -44
-28 -16 -200 -115 -305 -175 -25 -14 -62 -37 -82 -50 -21 -13 -40 -24 -42 -24
-3 0 -40 -20 -82 -45 -41 -25 -78 -45 -80 -45 -3 0 -17 -8 -32 -19 -15 -10
-103 -63 -197 -116 -93 -54 -187 -110 -207 -124 -34 -24 -108 -124 -114 -153
-2 -7 -6 -24 -10 -38 -8 -30 -12 -2880 -4 -2880 4 0 10 4 16 9 5 5 32 21 59
37 66 37 139 78 200 115 28 16 59 34 70 40 11 5 29 15 40 22 11 7 47 27 80 46
96 55 123 80 151 136 l26 53 0 1081 c0 813 2 1082 11 1089 10 8 220 131 367
214 19 11 67 39 105 61 75 44 96 56 177 101 29 15 60 34 69 42 8 8 18 14 21
14 5 0 207 114 248 140 8 5 44 26 80 46 165 94 231 138 260 172 49 59 50 60
50 75 0 7 4 17 9 23 8 8 46 150 57 214 3 14 7 33 10 42 3 10 7 30 10 45 3 16
15 66 26 113 12 47 22 92 23 100 1 8 5 22 7 30 3 8 13 51 23 95 9 44 19 90 22
103 7 28 -1 27 -57 -7z"/>
</g>
</svg>
