<svg width="299" height="101" viewBox="0 0 299 101" fill="none" xmlns="http://www.w3.org/2000/svg">
<g clip-path="url(#clip0_233_6057)">
<path d="M66.2443 57.7673V92.5884C66.244 93.2578 66.0675 93.9154 65.7325 94.4951C65.3975 95.0748 64.9157 95.5561 64.3356 95.8908L55.6172 100.945V63.9044L66.2443 57.7673Z" fill="url(#paint0_linear_233_6057)"/>
<path d="M92.1984 30.6255L89.5004 42.3692C89.3273 43.1233 89.0004 43.8335 88.5399 44.4555C88.0795 45.0774 87.4956 45.5977 86.8246 45.9836L70.9398 55.1558L66.2394 57.8655L55.6123 64.0025V54.973C55.6131 53.9858 55.8736 53.0162 56.3674 52.1613C56.8613 51.3063 57.5713 50.5961 58.4263 50.1017L66.2394 45.5959L92.1984 30.6255Z" fill="url(#paint1_linear_233_6057)"/>
<path d="M98.6734 2.36035L95.9977 14.0996C95.8247 14.8543 95.4978 15.5652 95.0374 16.1879C94.577 16.8106 93.993 17.3316 93.3219 17.7185L66.257 33.3173L55.6299 39.4499V30.4516C55.6304 29.4638 55.8906 28.4934 56.3845 27.6377C56.8783 26.782 57.5885 26.071 58.4439 25.5759L66.257 21.07L98.6734 2.36035Z" fill="url(#paint2_linear_233_6057)"/>
<path d="M34.3584 57.7673V92.5884C34.3586 93.2578 34.5351 93.9154 34.8702 94.4951C35.2052 95.0748 35.687 95.5561 36.2671 95.8908L44.981 100.945V63.9044L34.3584 57.7673Z" fill="url(#paint3_linear_233_6057)"/>
<path d="M8.4043 30.6252L11.1023 42.3689C11.2759 43.1228 11.603 43.8329 12.0634 44.4547C12.5238 45.0766 13.1075 45.597 13.778 45.9834L29.6674 55.1555L34.3678 57.8653L44.9904 64.0023V54.9728C44.9904 53.9854 44.7304 53.0154 44.2365 52.1603C43.7425 51.3052 43.032 50.5952 42.1764 50.1015L34.3678 45.5957L8.4043 30.6252Z" fill="url(#paint4_linear_233_6057)"/>
<path d="M1.92871 2.36035L4.60444 14.0996C4.77867 14.8538 5.10608 15.5642 5.56635 16.1867C6.02663 16.8092 6.60995 17.3306 7.28016 17.7185L34.3407 33.3173L44.9722 39.4499V30.4516C44.9717 29.4638 44.7115 28.4934 44.2176 27.6377C43.7238 26.782 43.0136 26.071 42.1583 25.5759L34.3407 21.07L1.92871 2.36035Z" fill="url(#paint5_linear_233_6057)"/>
<path d="M139.34 2.02588L128.668 21.4754L117.934 2.02588H109.711L125.029 28.4993V45.9432H132.249V28.4993L147.564 2.02588H139.34Z" fill="white"/>
<path d="M157.516 13.7565C153.726 13.7945 150.066 15.143 147.158 17.5726C144.25 20.0023 142.273 23.3633 141.564 27.0845C140.855 30.8057 141.457 34.6575 143.268 37.9854C145.079 41.3133 147.986 43.9119 151.497 45.3396C155.008 46.7674 158.905 46.9362 162.527 45.8174C166.148 44.6986 169.27 42.3612 171.362 39.2024C173.454 36.0435 174.388 32.2582 174.003 28.4897C173.619 24.7211 171.941 21.2018 169.254 18.5297C167.727 16.9752 165.898 15.7497 163.88 14.9287C161.861 14.1078 159.695 13.7088 157.516 13.7565V13.7565ZM164.482 37.3464C162.616 39.1588 160.116 40.1727 157.514 40.1727C154.912 40.1727 152.412 39.1588 150.546 37.3464C148.734 35.4307 147.724 32.8943 147.724 30.2578C147.724 27.6214 148.734 25.085 150.546 23.1693C152.414 21.36 154.913 20.3482 157.514 20.3482C160.115 20.3482 162.614 21.36 164.482 23.1693C166.298 25.0834 167.31 27.6204 167.31 30.2578C167.31 32.8952 166.298 35.4322 164.482 37.3464V37.3464Z" fill="white"/>
<path d="M201.403 31.3875C201.403 34.3587 200.693 36.6064 199.272 38.1306C197.851 39.6549 195.903 40.4185 193.43 40.4214C191.254 40.4214 189.538 39.7945 188.283 38.5407C187.029 37.2868 186.402 35.4877 186.402 33.1435V14.5764H179.623V33.8343C179.623 37.8098 180.722 40.9577 182.919 43.2782C185.116 45.5988 188.034 46.759 191.673 46.759C196.07 46.759 199.313 45.1486 201.403 41.9278V45.939H208.182V14.5764H201.403V31.3875Z" fill="white"/>
<path d="M221.347 19.8311V14.5765H214.568V45.9435H221.347V30.1352C221.347 26.9115 222.31 24.6103 224.237 23.2316C226.197 21.811 228.603 21.1434 231.015 21.3509V14.0105C226.288 14.0105 223.065 15.9507 221.347 19.8311Z" fill="white"/>
<path d="M162.351 67.9202C157.954 67.9202 154.71 69.5305 152.62 72.7513V68.7402H145.842V100.112H152.62V83.2917C152.62 80.3205 153.331 78.0728 154.752 76.5485C156.173 75.0243 158.12 74.2607 160.594 74.2577C162.767 74.2577 164.483 74.8847 165.74 76.1385C166.998 77.3924 167.625 79.1914 167.622 81.5357V100.107H174.401V80.8449C174.401 76.8754 173.304 73.7288 171.11 71.4054C168.915 69.0819 165.996 67.9202 162.351 67.9202Z" fill="white"/>
<path d="M215.272 67.9199C210.37 67.9199 206.393 69.5095 203.343 72.6887C200.242 75.8708 198.693 79.7809 198.696 84.419C198.696 89.1878 200.266 93.141 203.406 96.2786C206.545 99.4162 210.667 100.972 215.772 100.945C221.881 100.945 226.464 98.6645 229.521 94.1037L223.933 90.8413C222.093 93.4173 219.393 94.7053 215.834 94.7053C213.2 94.7053 210.993 94.0576 209.212 92.7622C207.419 91.443 206.196 89.4908 205.791 87.3026H230.765C230.921 86.37 231.004 85.4268 231.015 84.4814C231.015 79.876 229.528 75.9644 226.555 72.7466C223.582 69.5288 219.821 67.9199 215.272 67.9199ZM205.729 81.7806C206.088 79.5769 207.224 77.5741 208.931 76.1338C210.605 74.7552 212.698 74.0658 215.21 74.0658C217.342 74.0087 219.424 74.7206 221.074 76.0714C222.689 77.4114 223.729 79.3145 224.196 81.7806H205.729Z" fill="white"/>
<path d="M256.546 92.985C255.026 93.8464 253.303 94.2864 251.556 94.2596C250.263 94.2893 248.977 94.0539 247.778 93.5679C246.579 93.0819 245.493 92.3557 244.586 91.434C242.811 89.524 241.825 87.0141 241.825 84.4078C241.825 81.8015 242.811 79.2917 244.586 77.3817C245.493 76.46 246.579 75.7337 247.778 75.2477C248.977 74.7618 250.263 74.5264 251.556 74.556C253.306 74.5231 255.031 74.9684 256.546 75.8441C257.963 76.6739 259.092 77.9184 259.779 79.4095L265.621 76.0134C264.355 73.5385 262.39 71.4886 259.971 70.1171C257.437 68.6475 254.553 67.8885 251.623 67.9199C246.89 67.9199 242.934 69.5095 239.756 72.6886C236.578 75.8678 235.009 79.7779 235.051 84.419C235.008 86.5904 235.402 88.7483 236.21 90.7643C237.018 92.7803 238.224 94.6132 239.756 96.1537C242.937 99.33 246.891 100.927 251.618 100.945C254.54 100.958 257.412 100.189 259.935 98.7164C262.397 97.3229 264.408 95.2555 265.733 92.7577L259.895 89.4284C259.162 90.9233 257.995 92.1627 256.546 92.985V92.985Z" fill="white"/>
<path d="M295.905 71.4052C293.708 69.0817 290.789 67.92 287.147 67.92C282.753 67.92 279.509 69.5303 277.416 72.7511V56.1941H270.638V100.111H277.416V83.2915C277.416 80.3203 278.128 78.0726 279.552 76.5483C280.976 75.0241 282.922 74.2605 285.39 74.2575C287.566 74.2575 289.282 74.8845 290.536 76.1383C291.791 77.3922 292.42 79.1912 292.423 81.5355V100.107H299.201V80.8447C299.201 76.8752 298.103 73.7286 295.905 71.4052Z" fill="white"/>
<path d="M137.261 63.7133C139.33 63.3777 140.735 61.4295 140.399 59.3619C140.063 57.2943 138.114 55.8902 136.045 56.2258C133.976 56.5614 132.571 58.5096 132.907 60.5773C133.243 62.6449 135.192 64.0489 137.261 63.7133Z" fill="white"/>
<path d="M126.483 56.1897C123.356 56.1886 120.352 57.4084 118.112 59.5888C115.872 61.7693 114.573 64.738 114.491 67.8621V68.7534H109.72V75.2782H114.491V100.125H121.27V75.2604H128.815V68.7356H121.261V68.174C121.261 67.4891 121.396 66.8109 121.659 66.1782C121.921 65.5455 122.306 64.9708 122.791 64.4869C123.276 64.003 123.852 63.6194 124.485 63.3581C125.119 63.0968 125.798 62.9629 126.483 62.9641H128.815V56.1897H126.483Z" fill="white"/>
<path d="M133.258 75.2601V80.5103V100.107H140.036V68.7354H133.258V75.2601Z" fill="white"/>
<path d="M186.902 56.1941H180.123V88.4346C180.204 91.5587 181.504 94.5274 183.744 96.7079C185.984 98.8883 188.988 100.108 192.115 100.107H194.447V93.3326H192.115C191.43 93.3326 190.752 93.1979 190.12 92.9361C189.487 92.6742 188.913 92.2905 188.428 91.8067C187.944 91.3229 187.56 90.7485 187.298 90.1164C187.036 89.4843 186.902 88.8068 186.902 88.1226V75.2603H194.447V68.7355H186.902V56.1941Z" fill="white"/>
</g>
<defs>
<linearGradient id="paint0_linear_233_6057" x1="44.9723" y1="72.1717" x2="67.8628" y2="82.473" gradientUnits="userSpaceOnUse">
<stop offset="0.31" stop-color="#4881EF"/>
<stop offset="0.74" stop-color="#3F28F0"/>
</linearGradient>
<linearGradient id="paint1_linear_233_6057" x1="51.1929" y1="60.7802" x2="92.7871" y2="36.0404" gradientUnits="userSpaceOnUse">
<stop offset="0.08" stop-color="#4881EF"/>
<stop offset="1" stop-color="#3F28F0"/>
</linearGradient>
<linearGradient id="paint2_linear_233_6057" x1="52.8828" y1="34.8861" x2="100.019" y2="7.70576" gradientUnits="userSpaceOnUse">
<stop stop-color="#4881EF"/>
<stop offset="1" stop-color="#3F28F0"/>
</linearGradient>
<linearGradient id="paint3_linear_233_6057" x1="55.626" y1="72.1717" x2="32.7354" y2="82.473" gradientUnits="userSpaceOnUse">
<stop offset="0.31" stop-color="#4881EF"/>
<stop offset="0.74" stop-color="#3F28F0"/>
</linearGradient>
<linearGradient id="paint4_linear_233_6057" x1="49.4098" y1="60.78" x2="7.81561" y2="36.0401" gradientUnits="userSpaceOnUse">
<stop offset="0.08" stop-color="#4881EF"/>
<stop offset="1" stop-color="#3F28F0"/>
</linearGradient>
<linearGradient id="paint5_linear_233_6057" x1="47.7193" y1="34.8861" x2="0.582992" y2="7.70576" gradientUnits="userSpaceOnUse">
<stop stop-color="#4881EF"/>
<stop offset="1" stop-color="#3F28F0"/>
</linearGradient>
<clipPath id="clip0_233_6057">
<rect width="299" height="101" fill="white"/>
</clipPath>
</defs>
</svg>
