<svg width="243" height="68" viewBox="0 0 243 68" fill="none" xmlns="http://www.w3.org/2000/svg">
<path d="M0.96 0.799995H51.36V17.408H34.752V68H17.568V17.408H0.96V0.799995ZM74.7765 41.984V51.872H100.792V68H57.5925V0.799995H100.312V16.832H74.7765V26.144H97.9125V41.984H74.7765ZM169.425 68H150.897L148.017 58.304H125.649L122.769 68H104.145L126.321 0.799995H147.249L169.425 68ZM136.785 20.672L130.065 43.52H143.601L136.785 20.672ZM225.767 0.799995H242.855V68H225.767V31.808L209.447 58.784H207.719L191.495 31.904V68H174.311V0.799995H191.495L208.583 29.504L225.767 0.799995Z" fill="white"/>
</svg>
