<svg width="688" height="505" viewBox="0 0 688 505" fill="none" xmlns="http://www.w3.org/2000/svg">
<path fill-rule="evenodd" clip-rule="evenodd" d="M91.5243 57.7782C91.5243 57.7782 160.508 -29.0207 253.434 10.1559C346.361 49.3325 414.668 99.8281 512.271 91.3419C653.277 79.0828 755.452 252.689 634.044 388.488C512.636 524.287 244.239 446.383 197.237 421.938C113.891 378.587 -34.3742 226.136 91.5243 57.7782Z" fill="#E3E8F9"/>
<path d="M352.316 501.771C459.496 501.435 546.366 496.067 546.347 489.782C546.327 483.497 459.424 478.675 352.244 479.012C245.064 479.349 158.194 484.716 158.213 491.001C158.233 497.286 245.136 502.108 352.316 501.771Z" fill="#E3E8F9"/>
<path d="M386.276 379.787H329.43V482.046H386.276V379.787Z" fill="#2E315E"/>
<path d="M323.436 455.919H393.907C402.887 455.919 411.499 459.486 417.849 465.836C424.199 472.186 427.766 480.798 427.766 489.779H289.572C289.572 485.332 290.448 480.928 292.15 476.82C293.852 472.712 296.346 468.979 299.491 465.835C302.636 462.691 306.369 460.197 310.477 458.495C314.586 456.794 318.989 455.918 323.436 455.919Z" fill="#2E315E"/>
<path d="M525.502 157.598H161.233C152.716 157.598 145.812 164.502 145.812 173.018V414.092C145.812 422.608 152.716 429.512 161.233 429.512H525.502C534.018 429.512 540.922 422.608 540.922 414.092V173.018C540.922 164.502 534.018 157.598 525.502 157.598Z" fill="#5967A8"/>
<path d="M529.054 169.752H155.594V411.835H529.054V169.752Z" fill="#E0D4C9"/>
<path d="M329.43 429.512H386.276V450.067L329.43 429.512Z" fill="#222449"/>
<path d="M346.363 88.6669L349.172 94.3405C349.357 94.7165 349.631 95.0417 349.969 95.2881C350.308 95.5345 350.702 95.6947 351.117 95.7549L357.398 96.6667C357.875 96.7358 358.324 96.937 358.692 97.2476C359.061 97.5582 359.335 97.9658 359.484 98.4243C359.633 98.8828 359.651 99.3738 359.535 99.8417C359.419 100.31 359.174 100.736 358.829 101.072L354.282 105.501C353.983 105.794 353.759 106.155 353.629 106.553C353.5 106.951 353.47 107.375 353.54 107.787L354.598 114.057C354.68 114.532 354.628 115.021 354.446 115.468C354.265 115.915 353.962 116.302 353.572 116.585C353.181 116.869 352.72 117.037 352.238 117.072C351.757 117.106 351.276 117.005 350.849 116.78L345.232 113.826C344.862 113.632 344.449 113.531 344.031 113.531C343.612 113.531 343.2 113.632 342.829 113.826L337.212 116.78C336.786 117.004 336.305 117.104 335.825 117.069C335.344 117.034 334.883 116.866 334.493 116.582C334.104 116.299 333.801 115.912 333.62 115.466C333.439 115.019 333.386 114.531 333.468 114.057L334.554 107.799C334.626 107.387 334.595 106.963 334.466 106.565C334.337 106.166 334.112 105.805 333.812 105.514L329.269 101.088C328.924 100.753 328.679 100.328 328.563 99.8606C328.447 99.3935 328.463 98.9033 328.611 98.4451C328.758 97.9869 329.031 97.5792 329.398 97.2678C329.765 96.9564 330.212 96.7538 330.688 96.683L336.969 95.7711C337.383 95.7107 337.776 95.5503 338.115 95.3039C338.453 95.0574 338.726 94.7324 338.91 94.3567L341.719 88.6831C341.929 88.2465 342.258 87.8779 342.667 87.6194C343.077 87.3609 343.551 87.2229 344.036 87.2212C344.52 87.2195 344.996 87.3542 345.407 87.6099C345.819 87.8655 346.15 88.2318 346.363 88.6669Z" fill="#F79F54"/>
<path d="M384.424 88.6673L387.232 94.3409C387.418 94.7164 387.692 95.0413 388.031 95.2876C388.369 95.534 388.763 95.6944 389.177 95.7553L395.459 96.6671C395.936 96.7361 396.384 96.9374 396.753 97.248C397.122 97.5586 397.396 97.9662 397.545 98.4247C397.694 98.8832 397.711 99.3742 397.595 99.8421C397.48 100.31 397.235 100.736 396.89 101.072L392.347 105.502C392.046 105.794 391.821 106.154 391.691 106.552C391.561 106.951 391.53 107.375 391.601 107.787L392.691 114.057C392.773 114.532 392.72 115.02 392.539 115.466C392.358 115.913 392.055 116.299 391.665 116.583C391.276 116.866 390.815 117.035 390.334 117.07C389.854 117.105 389.373 117.004 388.946 116.78L383.33 113.826C382.958 113.632 382.545 113.531 382.126 113.531C381.707 113.531 381.294 113.632 380.922 113.826L375.305 116.78C374.879 117.004 374.398 117.105 373.918 117.07C373.437 117.035 372.976 116.866 372.586 116.583C372.197 116.299 371.894 115.913 371.713 115.466C371.532 115.02 371.479 114.532 371.561 114.057L372.618 107.8C372.689 107.387 372.658 106.963 372.528 106.565C372.399 106.166 372.173 105.806 371.873 105.514L367.33 101.084C366.985 100.747 366.742 100.319 366.628 99.8505C366.514 99.3817 366.533 98.8903 366.684 98.432C366.836 97.9738 367.112 97.567 367.483 97.2579C367.853 96.9489 368.303 96.7498 368.781 96.6833L375.062 95.7715C375.477 95.7107 375.87 95.5502 376.209 95.3038C376.548 95.0575 376.822 94.7326 377.007 94.3571L379.816 88.6835C380.029 88.2553 380.357 87.8948 380.762 87.6423C381.168 87.3898 381.637 87.2551 382.115 87.2534C382.593 87.2518 383.062 87.3831 383.47 87.6328C383.878 87.8825 384.208 88.2406 384.424 88.6673Z" fill="#F79F54"/>
<path d="M422.489 88.6674L425.297 94.3411C425.481 94.7167 425.755 95.0418 426.093 95.2882C426.431 95.5346 426.824 95.695 427.238 95.7554L433.52 96.6673C433.997 96.7363 434.445 96.9375 434.814 97.2481C435.182 97.5588 435.457 97.9664 435.605 98.4249C435.754 98.8833 435.772 99.3743 435.656 99.8422C435.54 100.31 435.296 100.736 434.95 101.072L430.407 105.502C430.107 105.794 429.883 106.155 429.753 106.553C429.624 106.951 429.594 107.375 429.666 107.788L430.736 114.041C430.817 114.516 430.765 115.004 430.583 115.45C430.402 115.896 430.099 116.283 429.71 116.567C429.32 116.85 428.859 117.019 428.379 117.054C427.898 117.088 427.417 116.988 426.991 116.764L421.374 113.81C421.003 113.616 420.591 113.515 420.172 113.515C419.754 113.515 419.342 113.616 418.971 113.81L413.358 116.78C412.931 117.006 412.45 117.107 411.969 117.072C411.488 117.038 411.026 116.869 410.636 116.586C410.245 116.302 409.942 115.915 409.761 115.468C409.58 115.021 409.527 114.532 409.609 114.057L410.683 107.804C410.754 107.391 410.723 106.968 410.594 106.57C410.465 106.172 410.241 105.811 409.942 105.518L405.395 101.089C405.049 100.753 404.805 100.326 404.689 99.8585C404.573 99.3905 404.591 98.8995 404.74 98.4411C404.888 97.9826 405.163 97.575 405.531 97.2643C405.9 96.9537 406.348 96.7525 406.825 96.6835L413.107 95.7717C413.521 95.7115 413.915 95.5513 414.254 95.3049C414.593 95.0584 414.867 94.7332 415.052 94.3573L417.86 88.6836C418.072 88.2514 418.401 87.887 418.809 87.6316C419.217 87.3762 419.688 87.24 420.169 87.2383C420.651 87.2366 421.123 87.3695 421.533 87.6221C421.943 87.8746 422.274 88.2367 422.489 88.6674Z" fill="#F79F54"/>
<path d="M460.552 88.6674L463.361 94.3411C463.546 94.717 463.82 95.0422 464.159 95.2886C464.498 95.5351 464.892 95.6953 465.306 95.7554L471.584 96.6673C472.061 96.7363 472.509 96.9375 472.878 97.2481C473.246 97.5588 473.52 97.9664 473.669 98.4249C473.818 98.8833 473.836 99.3743 473.72 99.8422C473.604 100.31 473.36 100.736 473.014 101.072L468.475 105.518C468.175 105.81 467.951 106.171 467.821 106.569C467.692 106.967 467.662 107.391 467.734 107.804L468.804 114.057C468.885 114.532 468.833 115.02 468.651 115.466C468.47 115.913 468.168 116.299 467.778 116.583C467.388 116.866 466.927 117.035 466.447 117.07C465.966 117.105 465.485 117.004 465.059 116.78L459.442 113.826C459.071 113.633 458.659 113.531 458.24 113.531C457.822 113.531 457.41 113.633 457.039 113.826L451.422 116.78C450.995 117.006 450.514 117.107 450.033 117.072C449.552 117.038 449.09 116.869 448.7 116.586C448.309 116.302 448.006 115.915 447.825 115.468C447.644 115.021 447.591 114.532 447.673 114.057L448.747 107.804C448.818 107.391 448.787 106.968 448.658 106.57C448.529 106.172 448.305 105.811 448.006 105.518L443.459 101.089C443.113 100.752 442.869 100.326 442.753 99.8576C442.637 99.3893 442.655 98.8981 442.805 98.4395C442.954 97.981 443.229 97.5734 443.598 97.263C443.967 96.9527 444.416 96.7519 444.893 96.6835L451.171 95.7717C451.585 95.7115 451.979 95.5513 452.318 95.3049C452.657 95.0584 452.931 94.7332 453.116 94.3573L455.924 88.6836C456.136 88.2514 456.465 87.887 456.873 87.6316C457.281 87.3762 457.752 87.24 458.233 87.2383C458.715 87.2366 459.187 87.3695 459.597 87.6221C460.007 87.8746 460.338 88.2367 460.552 88.6674Z" fill="#F79F54"/>
<path d="M498.614 88.6674L501.422 94.3411C501.607 94.717 501.881 95.0422 502.22 95.2886C502.559 95.535 502.953 95.6952 503.367 95.7554L509.645 96.6673C510.122 96.7363 510.57 96.9375 510.939 97.2481C511.307 97.5587 511.582 97.9664 511.73 98.4248C511.879 98.8833 511.897 99.3743 511.781 99.8422C511.665 100.31 511.421 100.736 511.075 101.072L506.532 105.502C506.232 105.794 506.008 106.155 505.878 106.553C505.749 106.951 505.719 107.375 505.791 107.788L506.865 114.041C506.947 114.516 506.894 115.005 506.713 115.452C506.532 115.899 506.229 116.286 505.838 116.57C505.448 116.853 504.986 117.022 504.505 117.056C504.024 117.09 503.543 116.989 503.116 116.764L497.499 113.81C497.128 113.616 496.716 113.515 496.297 113.515C495.879 113.515 495.467 113.616 495.096 113.81L489.479 116.764C489.052 116.988 488.571 117.088 488.091 117.052C487.611 117.017 487.149 116.849 486.76 116.566C486.37 116.282 486.067 115.896 485.885 115.45C485.703 115.004 485.65 114.516 485.73 114.041L486.804 107.788C486.876 107.375 486.846 106.951 486.717 106.553C486.587 106.155 486.363 105.794 486.063 105.502L481.52 101.072C481.174 100.736 480.93 100.31 480.814 99.8422C480.698 99.3743 480.716 98.8833 480.865 98.4248C481.013 97.9664 481.288 97.5587 481.656 97.2481C482.025 96.9375 482.473 96.7363 482.95 96.6673L489.228 95.7554C489.642 95.6952 490.036 95.535 490.375 95.2886C490.714 95.0422 490.988 94.717 491.173 94.3411L493.981 88.6674C494.194 88.2348 494.524 87.8706 494.933 87.6158C495.343 87.3611 495.815 87.2261 496.297 87.2261C496.78 87.2261 497.252 87.3611 497.661 87.6158C498.071 87.8706 498.401 88.2348 498.614 88.6674Z" fill="#F79F54"/>
<path d="M608.87 190.351C612.375 190.351 615.216 187.51 615.216 184.005C615.216 180.5 612.375 177.659 608.87 177.659C605.365 177.659 602.523 180.5 602.523 184.005C602.523 187.51 605.365 190.351 608.87 190.351Z" stroke="#2D4973" stroke-width="2" stroke-linecap="round" stroke-linejoin="round"/>
<path d="M213.436 99.8241C216.941 99.8241 219.783 96.9828 219.783 93.4777C219.783 89.9727 216.941 87.1313 213.436 87.1313C209.931 87.1313 207.09 89.9727 207.09 93.4777C207.09 96.9828 209.931 99.8241 213.436 99.8241Z" stroke="#2D4973" stroke-width="2" stroke-linecap="round" stroke-linejoin="round"/>
<path d="M100.366 149.266C103.871 149.266 106.712 146.425 106.712 142.92C106.712 139.415 103.871 136.573 100.366 136.573C96.8609 136.573 94.0195 139.415 94.0195 142.92C94.0195 146.425 96.8609 149.266 100.366 149.266Z" stroke="#2D4973" stroke-width="2" stroke-linecap="round" stroke-linejoin="round"/>
<path d="M510.274 72.1934H333.713C316.622 72.1934 302.768 86.0483 302.768 103.139C302.768 120.23 316.622 134.085 333.713 134.085H510.274C527.364 134.085 541.219 120.23 541.219 103.139C541.219 86.0483 527.364 72.1934 510.274 72.1934Z" stroke="#2D4973" stroke-width="2" stroke-linecap="round" stroke-linejoin="round"/>
<path d="M180.821 411.834L510.48 411.834V240.239L180.821 240.239V411.834Z" fill="white"/>
<path d="M463.404 304.121C460.369 301.477 457.889 298.256 456.11 294.646C447.255 277.305 463.263 256.089 445.018 243.21C426.773 230.331 399.628 184.812 399.628 184.812L350.187 181.164V181.075L350 181.152L349.007 181.075L348.987 181.553L279.772 209.156C279.772 209.156 272.409 230.331 254.168 243.198C235.927 256.065 251.935 277.292 243.076 294.634C241.298 298.245 238.818 301.466 235.781 304.109L463.404 304.121Z" fill="#6E482F"/>
<path d="M419.511 304.121L396.189 222.837L297.175 183.065C297.175 183.065 306.816 229.2 294.926 269.45C287.06 296.072 271.356 282.69 262.367 304.121H419.511Z" fill="#4F261F"/>
<path d="M307.501 230.189C307.906 223.409 306.788 196.998 309.264 190.323C313.551 178.761 320.639 172.609 329.122 169.955L352.939 168.589C364.221 169.902 373.891 175.924 379.228 190.315C381.704 196.99 380.598 223.4 380.991 230.18C382.268 252.162 384.732 283.314 354.183 283.112C353.778 283.112 353.352 283.112 352.939 283.112V276.332H335.549V283.108C335.144 283.108 334.738 283.108 334.309 283.108C303.76 283.322 306.224 252.17 307.501 230.189Z" fill="#ED8D6D"/>
<path d="M350.869 330.766L313.508 326.961L317.966 243.209L364.976 249.061L370.901 321.372C370.881 330.693 358.18 331.678 350.869 330.766Z" fill="#ED8D6D"/>
<path d="M367.54 280.478C367.54 280.478 352.975 289.924 329.818 284.619C329.818 284.619 369.254 301.304 369.87 308.813L367.54 280.478Z" fill="#BA5236"/>
<path d="M375.998 312.456H334.791L300.518 312.89L287.205 387.125L458.124 385.768C455.825 365.596 446.184 346.975 431.038 333.455C415.892 319.934 396.301 312.46 375.998 312.456Z" fill="#ED8D6D"/>
<path d="M496.927 411.822C485.494 389.938 475.614 373.849 472.976 369.622C467.051 355.033 451.902 329.757 431.481 321.429C405.285 310.75 388.414 312.76 388.414 312.76C388.548 312.862 377.16 368.929 343.993 367.471C310.827 366.012 301.911 313.068 301.911 313.068C301.911 313.068 280.57 314.077 262.414 319.751C244.258 325.425 220.616 370.498 220.616 370.498C220.616 370.498 209.625 384.508 195.137 411.834L496.927 411.822Z" fill="#F79F54"/>
<path d="M420.766 277.973C415.522 272.526 394.302 214.274 391.129 208.612C373.172 176.576 383.571 166.704 391.94 180.941C396.969 189.512 415.534 212.863 429.447 231.671C434.299 238.246 436.445 246.43 435.444 254.539C434.443 262.648 430.37 270.065 424.065 275.261L420.766 277.973Z" fill="#6E482F"/>
<path d="M411.447 288.736C411.447 292.923 411.01 298.345 411.095 303.917H436.626C434.487 287.383 429.182 269.507 429.182 269.507L416.153 232.506L393.247 234.241C393.247 234.241 385.612 249.515 391.002 260.988C396.392 272.461 411.447 275.622 411.447 288.736Z" fill="#6E482F"/>
<path d="M249.497 303.918C253.55 297.64 256.594 292.935 256.594 292.935L277.935 254.184L294.242 249.195C294.242 249.195 294.546 249.969 294.976 251.274C302.631 238.136 308.35 227.704 308.487 225.536C311.259 188.094 348.422 171.17 348.422 171.17L344.645 164.873C344.645 164.873 347.048 145.963 324.426 149.631C301.805 153.298 292.33 177.549 286.867 193.131C283.58 202.509 269.846 228.997 259.815 250.127C254.434 261.475 246.632 287.732 248.963 303.918H249.497Z" fill="#6E482F"/>
<path d="M357.599 219.486C357.233 219.468 356.876 219.36 356.562 219.17C356.248 218.981 355.986 218.716 355.8 218.399C355.395 217.589 355.913 216.705 356.955 216.45C357.275 216.369 364.785 214.558 370.706 217.35C371.69 217.812 372.047 218.776 371.516 219.502C370.985 220.227 369.749 220.446 368.76 219.98C364.509 217.974 358.491 219.408 358.43 219.425C358.158 219.49 357.878 219.511 357.599 219.486Z" fill="#823F33"/>
<path d="M350.085 251.226C350.755 251.235 351.404 250.997 351.909 250.557C352.464 249.986 352.838 249.263 352.982 248.48C353.126 247.696 353.035 246.887 352.719 246.156L350.908 241.633L348.071 234.557C348.071 234.557 345.595 225.325 349.732 222.019" stroke="#B34725" stroke-width="3" stroke-linecap="round" stroke-linejoin="round"/>
<path d="M342.767 251.055L340.092 250.277" stroke="#B34725" stroke-width="3" stroke-linecap="round" stroke-linejoin="round"/>
<path d="M363.711 195.583C385.271 211.145 377.571 229.504 386 228.892C394.43 228.28 414.964 250.326 411.078 263.278C410.559 265.005 430.344 304.757 428.828 287.639C426.077 256.519 412.671 213.638 395.346 174.952C386.272 154.688 365.186 148.338 350.013 147.236C334.84 146.133 327.031 159.499 313.09 180.548C313.082 180.548 334.621 174.583 363.711 195.583Z" fill="#6E482F"/>
<path d="M325.398 176.135L338.557 159.195" stroke="#823E3E" stroke-width="9.1" stroke-linecap="round" stroke-linejoin="round"/>
<path d="M330.913 219.486C331.28 219.469 331.637 219.361 331.951 219.172C332.266 218.982 332.528 218.716 332.713 218.399C333.118 217.589 332.599 216.705 331.558 216.45C331.238 216.369 323.728 214.558 317.807 217.35C316.827 217.812 316.466 218.776 316.997 219.502C317.528 220.227 318.764 220.446 319.748 219.98C324.004 217.974 330.022 219.408 330.079 219.425C330.352 219.49 330.634 219.511 330.913 219.486Z" fill="#823F33"/>
<path d="M312.839 253.246C318.886 249.047 319.18 239.01 313.498 230.827C307.815 222.645 298.307 219.416 292.26 223.615C286.214 227.814 285.919 237.851 291.602 246.034C297.285 254.216 306.793 257.445 312.839 253.246Z" fill="#ED8D6D"/>
<path d="M295.279 228.231C304.195 229.747 306.691 244.271 306.691 244.271C306.691 244.271 302.862 239.688 298.991 240.595" stroke="#B34725" stroke-width="4.41" stroke-linecap="round" stroke-linejoin="round"/>
<path d="M397.203 245.992C402.885 237.81 402.591 227.773 396.544 223.574C390.498 219.374 380.99 222.603 375.307 230.786C369.624 238.968 369.919 249.006 375.965 253.205C382.012 257.404 391.52 254.175 397.203 245.992Z" fill="#ED8D6D"/>
<path d="M393.537 228.231C384.622 229.747 382.121 244.271 382.121 244.271C382.121 244.271 385.951 239.688 389.821 240.595" stroke="#B34725" stroke-width="3" stroke-linecap="round" stroke-linejoin="round"/>
<path d="M333.875 178.55V169.683" stroke="#6B342A" stroke-width="4.2" stroke-linecap="round" stroke-linejoin="round"/>
<path d="M379.626 253.653C375.31 253.394 371.995 250.156 372.218 246.419C372.441 242.683 376.124 239.866 380.44 240.125L379.626 253.653Z" fill="#E07457"/>
<path d="M310.195 253.953C314.511 253.693 317.83 250.496 317.611 246.808C317.392 243.12 313.708 240.324 309.396 240.599L310.195 253.953Z" fill="#E07457"/>
<path d="M324.955 233.524C326.264 233.524 327.326 231.922 327.326 229.946C327.326 227.969 326.264 226.367 324.955 226.367C323.645 226.367 322.584 227.969 322.584 229.946C322.584 231.922 323.645 233.524 324.955 233.524Z" fill="#4F261F"/>
<path d="M364.789 233.524C366.098 233.524 367.16 231.922 367.16 229.946C367.16 227.969 366.098 226.367 364.789 226.367C363.479 226.367 362.418 227.969 362.418 229.946C362.418 231.922 363.479 233.524 364.789 233.524Z" fill="#4F261F"/>
<path d="M344.059 268.639C342.75 268.654 341.45 268.41 340.234 267.922C339.019 267.434 337.911 266.712 336.975 265.796C336.039 264.88 335.292 263.788 334.777 262.584C334.263 261.379 333.991 260.085 333.977 258.775C341.077 260.802 347.691 260.579 353.932 258.561C353.959 261.206 352.934 263.754 351.083 265.644C349.231 267.534 346.705 268.612 344.059 268.639Z" fill="white"/>
<path d="M306.098 256.621C312.101 253.709 313.833 244.884 309.965 236.909C306.098 228.934 298.096 224.829 292.093 227.74C286.089 230.652 284.358 239.477 288.225 247.452C292.092 255.427 300.094 259.532 306.098 256.621Z" fill="white"/>
<path d="M304.75 253.787C304.75 253.787 312.612 276.927 339.566 274.67" stroke="white" stroke-width="10.94" stroke-linecap="round" stroke-linejoin="round"/>
<path d="M340.945 280.843C344.57 280.805 347.487 278.628 347.459 275.981C347.432 273.333 344.47 271.217 340.844 271.255C337.218 271.293 334.302 273.471 334.33 276.118C334.357 278.766 337.319 280.881 340.945 280.843Z" fill="white"/>
<path d="M302.388 239.351C304.503 243.716 303.555 248.547 300.268 250.139C296.981 251.732 292.592 249.487 290.485 245.122C288.378 240.758 289.318 235.923 292.605 234.33C295.891 232.737 300.292 234.987 302.388 239.351Z" fill="#F8EAD0"/>
<path d="M291.527 230.302C291.527 230.302 288.69 163.742 335.701 161.323C382.711 158.903 390.358 202.064 390.358 202.064" stroke="white" stroke-width="7.55" stroke-linecap="round" stroke-linejoin="round"/>
<path d="M182.191 267.509L217.672 287.602C218.118 287.854 218.627 287.974 219.139 287.95C219.651 287.925 220.146 287.756 220.566 287.463C220.986 287.169 221.315 286.763 221.514 286.29C221.714 285.818 221.775 285.299 221.692 284.793L216.999 256.247L182.191 267.509Z" fill="#21946F"/>
<path d="M197.382 271.457L117.517 271.635C92.7721 271.692 72.4807 251.489 72.4239 226.744C72.3672 201.999 92.5695 181.707 117.315 181.651L197.188 181.472C221.933 181.416 242.224 201.618 242.281 226.363C242.338 251.108 222.128 271.4 197.382 271.457Z" fill="#25A87F"/>
<path d="M135.867 223.068C135.959 224.283 135.69 225.498 135.092 226.559C134.494 227.621 133.595 228.481 132.508 229.032C131.421 229.582 130.195 229.798 128.985 229.652C127.776 229.506 126.637 229.004 125.712 228.211C124.788 227.417 124.119 226.367 123.792 225.194C123.464 224.02 123.491 222.776 123.871 221.618C124.25 220.46 124.964 219.441 125.923 218.689C126.882 217.937 128.042 217.487 129.257 217.394C130.886 217.27 132.497 217.798 133.737 218.862C134.976 219.926 135.742 221.439 135.867 223.068Z" fill="white"/>
<path d="M158.187 222.663C158.28 223.878 158.01 225.093 157.412 226.154C156.814 227.216 155.915 228.076 154.828 228.627C153.741 229.177 152.515 229.393 151.306 229.247C150.096 229.101 148.957 228.599 148.033 227.805C147.108 227.012 146.44 225.962 146.112 224.789C145.784 223.615 145.812 222.371 146.191 221.213C146.57 220.055 147.285 219.036 148.243 218.284C149.202 217.532 150.362 217.082 151.577 216.989C152.384 216.927 153.195 217.024 153.964 217.275C154.733 217.527 155.445 217.928 156.059 218.455C156.673 218.982 157.177 219.625 157.542 220.347C157.907 221.069 158.126 221.856 158.187 222.663Z" fill="white"/>
<path d="M181.292 224.352C182.073 221.041 180.021 217.724 176.71 216.943C173.399 216.162 170.082 218.213 169.301 221.525C168.52 224.836 170.571 228.153 173.882 228.934C177.193 229.715 180.511 227.664 181.292 224.352Z" fill="white"/>
<path d="M318.795 354.348C318.795 354.348 341.85 381.476 365.449 358.145" stroke="#401E1E" stroke-width="3" stroke-linecap="round" stroke-linejoin="round"/>
<path d="M588.079 225.439C588.079 225.439 581.834 221.183 579.046 221.256C577.106 221.3 575.225 221.931 573.652 223.068C573.076 223.473 565.79 224.827 566.154 228.089C566.519 231.351 559.265 232.518 560.408 235.647C561.551 238.776 556.821 241.763 560.055 244.255C563.366 246.808 560.347 248.794 563.642 249.677C564.939 250.026 565.34 250.921 566.426 251.614C568.108 252.688 568.926 250.804 570.653 250.046C572.1 249.426 590.34 251.302 589.522 249.276C588.902 247.744 591.175 243.509 592.5 242.362C593.976 241.082 578.774 237.406 580.245 237.199C585.919 236.389 586.697 229.682 586.697 229.682L588.079 225.439Z" fill="#4A2A1A"/>
<path d="M580.011 225.479C580.011 225.479 585.15 221.731 587.647 222.57C590.143 223.409 590.759 223.238 591.294 223.68C591.829 224.122 597.908 226.497 597.373 229.706C596.838 232.916 603.638 233.759 602.37 236.798C601.101 239.838 605.916 244.583 602.37 246.431C598.824 248.279 601.353 250.776 598.196 251.513C595.039 252.251 590.415 254.654 588.672 251.169C587.951 249.726 589.296 237.435 583.975 236.405C578.654 235.376 577.693 229.37 577.693 229.37L580.011 225.479Z" fill="#4A2A1A"/>
<path d="M585.263 492.595C619.246 492.595 646.794 490.695 646.794 488.352C646.794 486.009 619.246 484.109 585.263 484.109C551.281 484.109 523.732 486.009 523.732 488.352C523.732 490.695 551.281 492.595 585.263 492.595Z" fill="#E3E8F9"/>
<path fill-rule="evenodd" clip-rule="evenodd" d="M581.369 479.785C581.369 479.785 585.652 430.307 576.007 409.812L572.096 342.754L549.09 351.264L573.993 480.182L581.369 479.785Z" fill="#874B2B"/>
<path fill-rule="evenodd" clip-rule="evenodd" d="M573.543 478.091L567.314 482.739C566.042 483.902 559.14 486.164 559.14 486.164C558.439 487.61 559.769 488.372 560.903 488.563L581.207 488.133C581.207 488.133 585.904 487.152 581.843 478.038C578.135 479.683 574.475 480.928 573.543 478.091Z" fill="#4A2A1A"/>
<path fill-rule="evenodd" clip-rule="evenodd" d="M546.521 351.455L558.302 412.811L567.251 470.018H586.188C586.188 470.018 584.093 459.7 584.389 456.422C584.685 453.143 585.881 422.088 578.829 407.79L580.045 349.595L546.521 351.455Z" fill="#E3CCB8"/>
<path fill-rule="evenodd" clip-rule="evenodd" d="M579.221 407.799L580.437 349.603L569.211 350.223L569.754 384.605C569.592 392.549 570.18 403.628 572.036 411.474C575.683 426.98 579.618 457.018 580.242 459.644C582.333 468.486 575.379 470.018 575.379 470.018H586.597C586.597 470.018 584.497 459.7 584.797 456.422C585.097 453.143 586.272 422.088 579.221 407.799Z" fill="#C2ADA0"/>
<path fill-rule="evenodd" clip-rule="evenodd" d="M628.698 478.541C628.698 478.541 625.913 427.968 612.949 406.648L598.185 336.894L576.557 345.761L622.323 479.858L628.698 478.541Z" fill="#874B2B"/>
<path fill-rule="evenodd" clip-rule="evenodd" d="M574.25 345.943L595.96 409.768L614.168 469.293H633.106C633.106 469.293 629.341 458.557 629.106 455.153C628.871 451.749 625.054 419.437 615.676 404.572L607.457 344.039L574.25 345.943Z" fill="#E3CCB8"/>
<path fill-rule="evenodd" clip-rule="evenodd" d="M595.5 303.634L551.327 307.026C544.117 309.685 546.537 351.455 546.537 351.455L575.553 352.813C589.045 352.525 604.882 363.196 606.807 340.525C608.988 314.613 595.5 303.634 595.5 303.634Z" fill="#E3CCB8"/>
<path fill-rule="evenodd" clip-rule="evenodd" d="M564.854 250.573L581.093 248.66L585.55 248.834L602.385 254.78C605.126 256.177 607.254 258.538 608.36 261.409C609.466 264.28 609.471 267.459 608.375 270.334L604.026 289.843C602.438 306.969 605.477 320.148 609.493 330.02C585.437 338.997 552.501 338.559 545.057 327.467C546.649 297.154 552.975 270.082 564.854 250.573Z" fill="#7A92E6"/>
<path fill-rule="evenodd" clip-rule="evenodd" d="M573.203 240.068C573.203 240.068 573.981 246.508 574.63 251.821C574.709 252.512 574.971 253.168 575.39 253.723C575.81 254.277 576.37 254.709 577.013 254.974C577.655 255.234 578.356 255.315 579.04 255.209C579.725 255.104 580.369 254.815 580.903 254.374L581.949 253.519C582.693 252.909 583.253 252.103 583.566 251.193C583.879 250.282 583.932 249.303 583.72 248.364C582.605 243.473 580.583 234.553 580.583 234.553L573.203 240.048V240.068Z" fill="#874B2B"/>
<path fill-rule="evenodd" clip-rule="evenodd" d="M573.336 243.61L574.094 247.436L577.308 243.614L573.336 243.61Z" fill="#6B3D26"/>
<path d="M572.223 249.747C572.223 249.747 566.764 263.015 575.785 263.598C584.806 264.182 589.9 250.391 589.9 250.391L583.335 247.437L572.223 249.747Z" fill="#874B2B"/>
<path fill-rule="evenodd" clip-rule="evenodd" d="M583.844 233.155C584.148 232.302 584.102 231.364 583.715 230.546C583.329 229.727 582.633 229.096 581.781 228.79L575.654 226.671C573.891 226.063 572.225 227.149 571.338 228.835C570.292 230.829 569.105 235.319 568.63 238.646C568.363 240.535 569.165 242.638 570.928 243.246C572.809 243.894 579.07 244.008 580.8 240.753C582.118 238.277 582.928 235.809 583.844 233.155Z" fill="#874B2B"/>
<path fill-rule="evenodd" clip-rule="evenodd" d="M589.036 241.977C589.036 241.977 589.093 232.207 586.815 229.009C583.756 224.738 579.115 221.889 572.838 225.605C572.838 225.605 574.961 233.524 586.678 241.661L589.036 241.977Z" fill="#4A2A1A"/>
<path fill-rule="evenodd" clip-rule="evenodd" d="M583.329 240.997C582.357 242.212 580.772 242.553 579.791 241.746C578.811 240.94 578.802 239.29 579.791 238.071C580.78 236.851 582.349 236.514 583.329 237.321C584.31 238.127 584.306 239.773 583.329 240.997Z" fill="#874B2B"/>
<path fill-rule="evenodd" clip-rule="evenodd" d="M569.819 237.54L572.899 238.533C572.899 238.533 572.145 240.669 570.723 240.012C569.3 239.356 569.819 237.54 569.819 237.54Z" fill="white"/>
<path fill-rule="evenodd" clip-rule="evenodd" d="M537.345 247.063C531.862 249.58 530.245 251.29 526.565 245.442L512.268 214.594L517.674 211.392L530.217 233.43L537.345 247.063Z" fill="#D46D4E"/>
<path d="M515.666 216.333L509.83 214.161C508.672 213.732 507.706 212.902 507.107 211.822L504.703 207.47C504.512 207.117 504.411 206.722 504.406 206.321C504.402 205.92 504.496 205.523 504.68 205.166C504.863 204.809 505.131 204.503 505.46 204.273C505.789 204.043 506.169 203.897 506.568 203.847L513.741 206.983C515.395 207.745 516.728 209.065 517.506 210.712L518.9 213.549L515.666 216.333Z" fill="#874B2B"/>
<path d="M568.254 251.42C568.254 251.42 561.409 246.605 554.232 244.101C547.055 241.596 537.288 237.078 537.288 237.078L522.213 215.429L511.027 218.882C511.027 218.882 522.723 247.217 528.332 250.719C541.365 258.852 557.616 266.552 557.616 266.552L568.254 251.42Z" fill="#7A92E6"/>
<path fill-rule="evenodd" clip-rule="evenodd" d="M611.447 300.704C617.437 299.083 623.155 301.166 625.522 307.832L630.174 342.381L623.151 340.881L615.528 315.99L611.447 300.704Z" fill="#874B2B"/>
<path d="M622.945 339.929L624.481 346.061C624.783 347.275 625.524 348.335 626.56 349.035L630.747 351.844C631.1 352.066 631.502 352.2 631.918 352.236C632.334 352.271 632.753 352.207 633.139 352.049C633.525 351.89 633.868 351.642 634.139 351.324C634.41 351.007 634.602 350.629 634.698 350.223L632.331 342.644C631.746 340.896 630.543 339.422 628.947 338.499L626.196 336.837L622.945 339.929Z" fill="#874B2B"/>
<path fill-rule="evenodd" clip-rule="evenodd" d="M608.209 260.685L623.289 295.095L629.988 332.023L618.535 337.348L608.987 300.262L596.963 278.386L608.209 260.685Z" fill="#7A92E6"/>
<path fill-rule="evenodd" clip-rule="evenodd" d="M514.412 218.724L520.293 217.508C522.676 217.017 524.236 214.809 523.758 212.6L520.046 195.579C519.567 193.37 517.209 191.96 514.834 192.45L508.954 193.666C506.571 194.157 505.01 196.361 505.489 198.57L509.201 215.591C509.679 217.804 512.025 219.21 514.412 218.724Z" fill="#4A2A1A"/>
<path fill-rule="evenodd" clip-rule="evenodd" d="M514.56 215.599L519.342 214.622C521.283 214.217 522.551 212.43 522.178 210.631L519.159 196.771C518.754 194.975 516.861 193.833 514.92 194.23L510.138 195.206C508.197 195.612 506.929 197.403 507.301 199.198L510.321 213.058C510.71 214.833 512.618 215.98 514.56 215.599Z" fill="white"/>
<path fill-rule="evenodd" clip-rule="evenodd" d="M622.041 479.193C622.041 479.193 621.263 483.205 621.396 486.435C621.436 486.756 621.546 487.064 621.717 487.337C621.889 487.611 622.118 487.844 622.389 488.02C622.974 488.455 623.687 488.683 624.416 488.668L628.549 488.441C629.119 488.434 629.666 488.219 630.089 487.837L630.839 487.096C632.095 485.88 631.487 484.522 630.693 482.638C630.141 481.278 629.668 479.887 629.279 478.472C625.607 476.267 622.041 479.193 622.041 479.193Z" fill="#4A2A1A"/>
<path d="M604.015 289.843L597.912 277.823L598.727 275.578" stroke="#5266AB" stroke-linecap="round" stroke-linejoin="round"/>
<path d="M557.328 266.07L558.779 263.01" stroke="#5266AB" stroke-linecap="round" stroke-linejoin="round"/>
<path d="M106.463 317.016C106.463 317.016 83.5008 334.782 78.5769 338.288C73.6529 341.793 72.7857 347.888 73.0369 351.532C73.2882 355.175 78.9619 356.261 85.2353 355.584C91.5087 354.908 110.463 321.684 110.463 321.684L106.463 317.016Z" fill="#C95836"/>
<path fill-rule="evenodd" clip-rule="evenodd" d="M77.9567 304.229C77.9567 304.744 87.5695 329.761 87.5695 329.761L95.2978 323.625L104.25 333.165C104.25 333.165 90.8237 360.342 83.7033 355.228C76.5828 350.113 69.2598 316.898 69.2598 316.898L77.9567 304.229Z" fill="#E3CCB8"/>
<path d="M100.208 396.795H16.1934V500.688H100.208V396.795Z" fill="#E3E8F9"/>
<path d="M107.257 504.413C135.886 504.413 159.094 501.635 159.094 498.208C159.094 494.781 135.886 492.003 107.257 492.003C78.6281 492.003 55.4199 494.781 55.4199 498.208C55.4199 501.635 78.6281 504.413 107.257 504.413Z" fill="#E3E8F9"/>
<path fill-rule="evenodd" clip-rule="evenodd" d="M114.775 471.595C116.802 477.471 118.893 482.841 120.806 487.072C121.961 489.625 120.603 488.121 123.724 489.098C127.565 490.314 129.997 494.966 130.021 492.218L130.354 470.488L114.775 471.595Z" fill="#C95836"/>
<path fill-rule="evenodd" clip-rule="evenodd" d="M129.903 487.318L136.671 492.181C138.069 493.397 145.587 495.606 145.587 495.606C146.373 497.134 144.947 497.993 143.723 498.232L121.766 498.39C121.766 498.39 116.667 497.478 120.886 487.586C124.919 489.223 128.947 490.386 129.903 487.318Z" fill="#4A2A1A"/>
<path fill-rule="evenodd" clip-rule="evenodd" d="M70.3786 473.751C69.8847 478.647 69.6426 483.565 69.6532 488.486C69.6897 490.918 69.0089 489.483 71.635 490.411C74.877 491.554 75.2539 495.983 76.4535 493.365L86.0663 472.648L70.3786 473.751Z" fill="#C95836"/>
<path fill-rule="evenodd" clip-rule="evenodd" d="M78.6608 488.628L84.9505 493.515C86.2311 494.731 93.5177 496.96 93.5177 496.96C94.1499 498.5 92.6423 499.363 91.3941 499.602L69.4209 499.765C69.4209 499.765 64.4118 498.849 69.6113 488.887C73.4897 490.549 77.3964 491.716 78.6608 488.628Z" fill="#4A2A1A"/>
<path d="M119.265 401.261C119.265 401.261 118.049 388.52 103.893 382.25C100.497 380.751 66.9902 360.674 65.7987 362.352C64.4735 364.192 43.6512 363.507 44.251 364.674C54.188 384.106 102.795 425.338 102.795 425.338L119.265 401.261Z" fill="#7A92E6"/>
<path d="M118.937 400.642C121.125 405.209 133.445 484.04 133.445 484.04L114.467 484.831C114.467 484.831 85.3975 424.714 101.15 407.758C101.15 407.758 117.81 398.295 118.937 400.642Z" fill="#7A92E6"/>
<path d="M88.3395 413.585C88.3395 413.585 90.7711 404.045 81.0894 394.319C70.3175 383.466 48.5145 367.933 46.9988 369.566C45.3332 371.357 28.0528 394.838 28.916 395.503C41.0739 404.824 65.3896 423.368 65.3896 423.368L88.3395 413.585Z" fill="#7A92E6"/>
<path d="M88.4042 407.162C89.6808 411.081 87.4356 483.606 87.4356 483.606L69.1057 484.287C69.1057 484.287 49.5315 430.489 67.6832 415.952C67.671 415.952 87.7517 405.148 88.4042 407.162Z" fill="#7A92E6"/>
<path d="M23.6107 355.447C23.6107 355.447 19.7242 372.873 24.6319 383.523L37.8759 377.481L70.3778 358.802L23.6107 355.447Z" fill="#8C8073"/>
<path d="M81.0895 400.69C80.1006 398.538 54.3422 373.83 52.7212 372.776L57.791 360.776L58.2327 358.835L54.7313 358.494L49.4629 354.592L48.0445 357.834L23.1614 355.455C23.1614 355.455 17.9781 391.775 29.909 396.346C41.8399 400.917 65.4626 402.319 65.4626 402.319C83.1644 406.372 83.0428 404.941 81.0895 400.69Z" fill="#7A92E6"/>
<path fill-rule="evenodd" clip-rule="evenodd" d="M69.5632 294.313L59.0264 290.896L45.7095 290.572L24.7373 298.637C19.173 301.693 21.1588 306.945 23.5863 312.821L22.7758 332.103C19.0109 346.863 19.5337 357.635 20.9197 372.601C40.9437 379.085 68.8419 377.667 82.0169 370.656C85.8223 368.63 88.1364 363.284 87.3137 359.053C80.7565 325.25 84.9875 326.256 78.5357 305.693C77.5874 302.73 75.1599 296.858 69.5632 294.313Z" fill="#E3CCB8"/>
<path d="M59.027 290.897C59.027 290.897 64.8952 303.808 55.9187 304.757C46.9421 305.705 41.4062 292.275 41.4062 292.275L47.8661 289.065L59.027 290.897Z" fill="#C95836"/>
<path d="M84.4176 358.397C83.907 353.108 78.4238 314.483 78.4238 314.483" stroke="#8A7B72" stroke-linecap="round" stroke-linejoin="round"/>
<path fill-rule="evenodd" clip-rule="evenodd" d="M13.0104 345.627C8.98619 351.986 9.29824 359.536 16.0783 365.019L53.9864 384.528L54.8172 376.313L29.0466 356.63L13.0104 345.627Z" fill="#D46D4E"/>
<path d="M50.8654 376.026L58.5897 375.324C60.1354 375.185 61.6797 375.605 62.9422 376.508L68.0647 380.155C68.4779 380.45 68.8137 380.841 69.0435 381.294C69.2734 381.746 69.3906 382.248 69.385 382.756C69.3794 383.263 69.2513 383.762 69.0115 384.21C68.7718 384.657 68.4275 385.04 68.0079 385.326L58.2492 385.659C55.9592 385.683 53.7333 384.903 51.9596 383.454L48.8066 380.966L50.8654 376.026Z" fill="#D46D4E"/>
<path fill-rule="evenodd" clip-rule="evenodd" d="M48.9927 369.481C48.9927 369.481 39.076 379.207 38.2938 378.599C37.5117 377.992 6.38356 359.718 6.38356 359.718C6.38356 359.718 -2.69835 352.598 0.80311 345.323C6.57403 333.283 12.9002 316.769 12.9002 316.769C12.9002 316.769 19.5789 302.062 24.2475 298.905C34.5776 291.91 37.9007 321.599 37.9007 321.599C37.8724 325.247 23.7895 347.743 24.7824 349.271C31.8664 360.201 48.9927 369.481 48.9927 369.481Z" fill="#E3CCB8"/>
<path d="M43.4453 363.686L21.707 345.7L31.1213 323.135L29.6583 320.89" stroke="#8A7B72" stroke-linecap="round" stroke-linejoin="round"/>
<path d="M88.6481 411.215C88.6481 411.215 88.7981 403.061 86.5732 399.803C84.3483 396.545 71.3191 385.128 71.7528 385.278" stroke="#5266AB" stroke-linecap="round" stroke-linejoin="round"/>
<path fill-rule="evenodd" clip-rule="evenodd" d="M60.4496 280.943C60.4496 280.943 65.3533 277.264 61.0575 271.562C56.7617 265.86 53.8925 276.895 54.0343 277.069C54.1762 277.243 60.4496 280.943 60.4496 280.943Z" fill="#572A22"/>
<path fill-rule="evenodd" clip-rule="evenodd" d="M44.6966 278.739C44.6966 278.739 44.34 284.619 48.652 285.531C52.964 286.443 55.274 273.985 55.274 273.985L44.6966 278.739Z" fill="#572A22"/>
<path fill-rule="evenodd" clip-rule="evenodd" d="M57.3888 283.683C57.3888 283.683 56.2662 289.932 55.3341 295.111C55.1916 295.809 54.8545 296.452 54.3618 296.966C53.8691 297.481 53.2409 297.845 52.55 298.017C51.8066 298.218 51.0262 298.239 50.273 298.079C49.5199 297.919 48.8154 297.582 48.2177 297.097L47.083 296.173C45.4619 294.84 44.7527 292.818 45.312 290.982L49.3646 277.685L57.3888 283.683Z" fill="#C95836"/>
<path fill-rule="evenodd" clip-rule="evenodd" d="M57.0859 287.715L56.0403 291.172L52.6523 287.399L57.0859 287.715Z" fill="#633C1D"/>
<path fill-rule="evenodd" clip-rule="evenodd" d="M48.3411 275.039C48.3379 274.148 48.6874 273.293 49.3132 272.66C49.939 272.026 50.7901 271.666 51.6805 271.659L58.0917 271.639C59.9316 271.639 61.1393 273.162 61.4189 274.998C61.7553 277.166 61.4189 281.669 60.7826 284.911C60.422 286.735 58.9914 288.425 57.1353 288.429C55.1698 288.429 49.2813 286.56 48.718 283.01C48.2884 280.307 48.3128 277.774 48.3128 275.039H48.3411Z" fill="#C95836"/>
<path fill-rule="evenodd" clip-rule="evenodd" d="M43.5918 279.691C43.5918 279.691 43.7417 272.506 46.8987 270.293C51.1378 267.314 56.394 266.151 61.0586 271.561C61.0586 271.561 63.7536 273.851 53.9341 273.588C52.6899 273.551 53.5288 279.667 51.8753 279.942C49.6788 280.295 46.9595 280.283 43.5918 279.691Z" fill="#572A22"/>
<path fill-rule="evenodd" clip-rule="evenodd" d="M46.2839 282.435C46.7985 283.87 48.1724 284.68 49.3476 284.247C50.5229 283.813 51.0659 282.293 50.5634 280.859C50.0609 279.424 48.6789 278.609 47.4996 279.047C46.3203 279.485 45.7854 281 46.2839 282.435Z" fill="#C95836"/>
<path fill-rule="evenodd" clip-rule="evenodd" d="M60.1773 283.338L56.384 283.16C56.384 283.16 56.2746 285.847 58.1145 285.709C59.9544 285.571 60.1773 283.338 60.1773 283.338Z" fill="white"/>
<path fill-rule="evenodd" clip-rule="evenodd" d="M96.9966 332.075L102.322 332.428C104.482 332.574 106.869 331.111 107.623 329.186L113.438 314.272C114.192 312.339 113.033 310.625 110.877 310.495L105.552 310.138C103.392 309.997 101.005 311.46 100.251 313.381L94.4192 328.298C93.6816 330.231 94.8244 331.929 96.9966 332.075Z" fill="#3D2213"/>
<path fill-rule="evenodd" clip-rule="evenodd" d="M108.424 325.344C109.025 325.56 109.683 325.561 110.285 325.346C110.887 325.131 111.395 324.713 111.723 324.165C113.299 321.51 115.593 316.554 112.497 314.155C108.153 310.787 103.674 318.467 104.173 321.668C104.473 323.577 106.685 324.724 108.424 325.344Z" fill="#E3633D"/>
</svg>
