<svg width="656" height="607" viewBox="0 0 656 607" fill="none" xmlns="http://www.w3.org/2000/svg">
<path d="M565.139 93.8251C613.039 151.725 703.772 278.638 602.157 396.779C491.555 525.366 290.172 364.12 241.227 414.163C241.227 414.163 141.688 520.265 37.0758 398.357C-67.5364 276.45 62.1764 81.715 264.308 14.7801C359.523 -16.7444 486.548 -1.1633 565.139 93.8251Z" fill="#EBEDFA"/>
<path d="M654.847 407.691C655.977 403.586 653.561 399.343 649.451 398.214C645.341 397.086 641.093 399.499 639.964 403.605C638.834 407.71 641.25 411.953 645.36 413.082C649.47 414.21 653.717 411.797 654.847 407.691Z" stroke="#2D4973" stroke-width="3.69" stroke-miterlimit="10" stroke-linecap="round"/>
<path d="M422.763 63.6009C423.914 59.5134 421.53 55.2678 417.438 54.1182C413.346 52.9686 409.096 55.3502 407.945 59.4378C406.794 63.5253 409.178 67.7708 413.27 68.9204C417.362 70.07 421.612 67.6884 422.763 63.6009Z" stroke="#2D4973" stroke-width="3.67984" stroke-miterlimit="10" stroke-linecap="round"/>
<path d="M157.21 166.815C159.009 162.955 157.335 158.369 153.471 156.571C149.607 154.774 145.016 156.446 143.217 160.306C141.418 164.165 143.091 168.752 146.955 170.549C150.819 172.346 155.41 170.674 157.21 166.815Z" stroke="#2D4973" stroke-width="3.69" stroke-miterlimit="10" stroke-linecap="round"/>
<path d="M386.227 590.251L433.731 583.481L582.168 463.762C583.454 462.724 584.432 461.354 584.995 459.801C585.559 458.249 585.686 456.571 585.364 454.951C585.043 453.331 584.283 451.83 583.169 450.609C582.054 449.389 580.627 448.497 579.042 448.028L509.63 427.498L386.227 590.251Z" fill="#E4E6F2"/>
<path d="M568.231 216.133C568.207 215.211 568.007 214.302 567.644 213.454C566.608 211.142 564.751 209.295 562.432 208.271C561.944 208.05 561.44 207.867 560.924 207.723C560.743 207.67 560.561 207.623 560.375 207.584L552.128 205.82L543.25 213.058C544.572 213.368 552.586 214.431 553.717 215.184C557.115 216.724 559.922 220.19 559.478 224.071L557.984 249.488C557.468 249.379 551.97 257.322 552.147 257.412L546.744 446.951C546.691 447.814 546.648 450.288 547.45 449.64L552.653 444.595C554.327 442.904 555.357 440.681 555.564 438.311L568.098 218.841C568.155 217.673 568.246 216.705 568.231 216.2C568.237 216.178 568.237 216.155 568.231 216.133Z" fill="#7B90C7"/>
<path d="M557.168 206.84L219.691 134.661L219.185 134.556C218.191 134.294 217.163 134.18 216.135 134.218C215.738 134.239 215.342 134.287 214.952 134.361C213.868 134.567 212.848 135.024 211.973 135.696L206.613 139.944C208.273 140.657 209.979 141.256 211.72 141.736L549.717 214.03L557.168 206.84Z" fill="#89A1DE"/>
<path d="M553.817 211.26L213.348 138.432C208.727 137.446 204.795 139.92 204.556 143.968L193.769 327.527C193.769 327.732 193.769 327.937 193.769 328.138L191.201 369.808C190.963 373.856 195.048 377.818 199.668 378.809L540.157 451.632C544.777 452.624 548.715 450.145 548.948 446.097L560.566 241.25C560.58 241.008 560.58 240.766 560.566 240.525L561.754 220.367C561.988 216.324 558.427 212.247 553.817 211.26Z" fill="#31497D"/>
<path d="M543.886 451.656L533.213 462.656L529.982 457.94L194.964 380.607C190.926 379.677 183.275 381.856 179.013 385.179L46.2309 488.349L46.0638 486.442L25.7743 500.536L22.7148 500.259L23.8651 508.479C24.3424 510.214 25.8029 508.116 27.1727 508.431L375.279 591.982C379.316 592.911 386.127 591.171 390.389 587.843L539.709 471.424C542.038 469.607 543.184 466.913 543.05 465.445L543.886 451.656Z" fill="#7B90C7"/>
<path d="M194.963 380.607C190.925 379.677 183.274 381.856 179.012 385.179L46.2304 488.349L46.0633 486.442L25.7738 500.536L22.5664 497.699L23.1392 507.773C23.1392 509.437 24.509 510.052 25.8788 510.367L375.283 591.982C377.277 592.346 379.325 592.3 381.301 591.848L371.951 507.935C374.252 506.128 194.963 380.607 194.963 380.607Z" fill="#89A1DE"/>
<path d="M372.719 580.954L24.093 500.478C20.06 499.525 20.2413 496.063 24.5035 492.74L180.1 373.627C184.362 370.289 191.741 369.007 195.774 369.937L540.982 449.625C545.016 450.579 544.829 454.04 540.567 457.363L387.787 576.601C383.544 579.924 376.757 581.883 372.719 580.954Z" fill="#DCE0FF"/>
<path d="M218.527 403.049C217.852 403.439 217.055 403.564 216.293 403.397L195.56 398.734C194.811 398.567 194.605 398.133 195.083 397.78L208.528 387.816C209.203 387.424 210 387.3 210.762 387.468L231.486 392.126C232.235 392.297 232.44 392.727 231.963 393.079L218.527 403.049Z" fill="#C6CBF5"/>
<path d="M242.982 426.44C242.305 426.833 241.504 426.957 240.739 426.788L220.03 422.125C219.285 421.958 219.075 421.529 219.552 421.171L233.002 411.202C233.674 410.816 234.465 410.694 235.222 410.858L255.955 415.521C256.714 415.693 256.91 416.122 256.432 416.475L242.982 426.44Z" fill="#C6CBF5"/>
<path d="M231.227 441.687C230.553 442.076 229.758 442.199 228.998 442.03L208.26 437.367C207.525 437.201 207.305 436.771 207.782 436.414L221.228 426.444C221.903 426.06 222.697 425.938 223.456 426.101L244.195 430.764C244.939 430.936 245.149 431.365 244.672 431.718L231.227 441.687Z" fill="#C6CBF5"/>
<path d="M198.728 452.267C198.056 452.655 197.263 452.779 196.504 452.615L175.771 447.947C175.031 447.785 174.816 447.351 175.293 446.993L188.738 437.029C189.414 436.641 190.21 436.515 190.972 436.676L211.706 441.344C212.445 441.51 212.66 441.944 212.183 442.297L198.728 452.267Z" fill="#C6CBF5"/>
<path d="M142.127 459.68C141.452 460.072 140.655 460.196 139.893 460.028L119.16 455.366C118.41 455.194 118.205 454.765 118.682 454.412L134.471 442.712C135.147 442.324 135.943 442.2 136.705 442.364L157.438 447.027C158.183 447.198 158.393 447.632 157.915 447.98L142.127 459.68Z" fill="#C6CBF5"/>
<path d="M177.875 467.719C177.398 468.081 176.2 468.196 175.217 467.972L148.054 461.859C147.1 461.64 146.675 461.168 147.157 460.81L162.946 449.125C163.423 448.772 164.626 448.648 165.599 448.872L192.762 454.984C193.745 455.203 194.136 455.68 193.664 456.033L177.875 467.719Z" fill="#C6CBF5"/>
<path d="M356.335 507.988C355.691 508.316 354.95 508.401 354.249 508.226L333.53 503.563C332.776 503.396 332.489 503.015 332.89 502.714L338.727 498.39C339.376 498.062 340.122 497.979 340.828 498.156L361.547 502.814C362.296 502.986 362.573 503.368 362.172 503.663L356.335 507.988Z" fill="#C6CBF5"/>
<path d="M384.045 514.562C383.401 514.891 382.66 514.976 381.959 514.801L361.24 510.152C360.481 509.985 360.195 509.604 360.6 509.304L366.438 504.974C367.087 504.648 367.832 504.565 368.538 504.741L389.257 509.404C390.001 509.571 390.278 509.952 389.877 510.252L384.045 514.562Z" fill="#C6CBF5"/>
<path d="M413.405 520.856C412.765 521.171 412.034 521.247 411.343 521.07L390.619 516.408C389.874 516.241 389.569 515.869 389.96 515.578L395.583 511.411C396.224 511.096 396.957 511.02 397.649 511.196L418.373 515.859C419.122 516.026 419.414 516.403 419.027 516.684L413.405 520.856Z" fill="#C6CBF5"/>
<path d="M395.113 506.534C394.473 506.848 393.742 506.924 393.051 506.748L372.327 502.085C371.583 501.918 371.277 501.546 371.664 501.256L377.286 497.089C377.93 496.774 378.664 496.698 379.358 496.874L400.082 501.537C400.826 501.704 401.118 502.08 400.736 502.366L395.113 506.534Z" fill="#C6CBF5"/>
<path d="M320.495 499.797C319.816 500.184 319.016 500.306 318.252 500.14L183.332 469.788C182.597 469.621 182.377 469.192 182.855 468.835L198.639 457.134C199.317 456.75 200.114 456.628 200.877 456.791L335.797 487.138C336.546 487.31 336.752 487.748 336.274 488.092L320.495 499.797Z" fill="#C6CBF5"/>
<path d="M174.12 464.415C174.05 464.435 173.976 464.435 173.905 464.415L158.055 460.848C157.969 460.848 157.921 460.791 157.95 460.772L158.933 460.043C159.003 460.022 159.078 460.022 159.148 460.043L174.994 463.609C175.084 463.609 175.132 463.666 175.103 463.685L174.12 464.415Z" fill="#C6D3F5"/>
<path d="M133.45 453.83C133.415 453.854 133.372 453.864 133.331 453.859L126.601 452.343C126.563 452.343 126.558 452.31 126.601 452.286L127.584 451.561C127.601 451.549 127.621 451.541 127.641 451.537C127.662 451.533 127.683 451.533 127.703 451.537L134.433 453.048C134.471 453.048 134.476 453.082 134.433 453.106L133.45 453.83Z" fill="#C6D3F5"/>
<path d="M227.151 458.66C226.475 459.048 225.678 459.171 224.917 459.003L204.183 454.34C203.448 454.174 203.229 453.74 203.706 453.387L217.166 443.403C217.843 443.015 218.641 442.891 219.404 443.055L240.138 447.718C240.887 447.89 241.092 448.319 240.615 448.672L227.151 458.66Z" fill="#C6CBF5"/>
<path d="M255.699 465.073C255.025 465.457 254.233 465.58 253.475 465.416L232.741 460.753C232.001 460.586 231.787 460.153 232.264 459.8L245.714 449.83C246.391 449.441 247.189 449.317 247.952 449.482L268.686 454.145C269.421 454.312 269.64 454.746 269.163 455.099L255.699 465.073Z" fill="#C6CBF5"/>
<path d="M284.249 471.495C283.573 471.88 282.78 472.002 282.02 471.838L261.286 467.176C260.546 467.009 260.332 466.58 260.809 466.222L274.259 456.276C274.934 455.886 275.73 455.761 276.493 455.924L297.226 460.567C297.966 460.734 298.181 461.168 297.703 461.521L284.249 471.495Z" fill="#C6CBF5"/>
<path d="M312.796 477.917C312.122 478.305 311.327 478.428 310.567 478.261L289.833 473.598C289.084 473.431 288.879 472.997 289.356 472.644L302.801 462.675C303.479 462.286 304.276 462.161 305.04 462.327L325.773 466.99C326.518 467.161 326.728 467.59 326.251 467.943L312.796 477.917Z" fill="#C6CBF5"/>
<path d="M341.347 484.339C340.667 484.725 339.868 484.847 339.104 484.683L318.38 480.02C317.64 479.853 317.425 479.419 317.903 479.066L331.348 469.097C332.022 468.708 332.816 468.584 333.577 468.749L354.305 473.412C355.055 473.579 355.26 474.012 354.783 474.365L341.347 484.339Z" fill="#C6CBF5"/>
<path d="M369.898 490.752C369.222 491.138 368.426 491.26 367.665 491.095L346.941 486.432C346.192 486.266 345.986 485.832 346.464 485.479L359.909 475.51C360.586 475.121 361.384 474.997 362.147 475.161L382.876 479.824C383.621 479.991 383.831 480.425 383.353 480.778L369.898 490.752Z" fill="#C6CBF5"/>
<path d="M434.203 505.218C433.527 505.603 432.731 505.725 431.97 505.561L375.483 492.855C374.738 492.688 374.528 492.254 375.005 491.901L388.455 481.932C389.131 481.543 389.927 481.419 390.689 481.584L447.176 494.29C447.921 494.457 448.131 494.891 447.653 495.243L434.203 505.218Z" fill="#C6CBF5"/>
<path d="M259.645 448.066C258.976 448.457 258.183 448.582 257.426 448.414L236.688 443.747C235.943 443.58 235.733 443.155 236.21 442.793L249.66 432.828C250.331 432.44 251.123 432.318 251.88 432.485L272.618 437.148C273.367 437.315 273.573 437.744 273.095 438.102L259.645 448.066Z" fill="#C6CBF5"/>
<path d="M288.191 454.488C287.519 454.879 286.726 455.003 285.967 454.836L265.224 450.169C264.484 450.002 264.269 449.578 264.746 449.215L278.192 439.246C278.863 438.861 279.654 438.737 280.411 438.898L301.168 443.57C301.903 443.737 302.123 444.166 301.646 444.524L288.191 454.488Z" fill="#C6CBF5"/>
<path d="M316.738 460.911C316.064 461.299 315.27 461.423 314.509 461.259L293.776 456.591C293.046 456.429 292.821 456 293.299 455.637L306.749 445.668C307.425 445.285 308.218 445.165 308.978 445.33L329.711 449.992C330.451 450.159 330.666 450.588 330.188 450.946L316.738 460.911Z" fill="#C6CBF5"/>
<path d="M345.286 467.333C344.613 467.724 343.817 467.847 343.057 467.676L322.328 463.013C321.584 462.846 321.374 462.422 321.851 462.06L335.296 452.09C335.971 451.704 336.766 451.584 337.525 451.752L358.254 456.415C358.998 456.581 359.208 457.011 358.731 457.368L345.286 467.333Z" fill="#C6CBF5"/>
<path d="M373.845 473.745C373.172 474.135 372.377 474.26 371.616 474.094L350.873 469.426C350.129 469.259 349.919 468.835 350.396 468.472L363.846 458.503C364.525 458.122 365.321 458.008 366.08 458.183L386.823 462.851C387.562 463.018 387.777 463.447 387.3 463.805L373.845 473.745Z" fill="#C6CBF5"/>
<path d="M402.383 480.168C401.711 480.559 400.917 480.681 400.158 480.511L379.444 475.853C378.69 475.681 378.489 475.257 378.967 474.899L392.417 464.93C393.093 464.543 393.89 464.422 394.65 464.591L415.374 469.254C416.119 469.421 416.329 469.85 415.852 470.208L402.383 480.168Z" fill="#C6CBF5"/>
<path d="M430.93 486.59C430.258 486.979 429.464 487.101 428.706 486.933L407.968 482.27C407.228 482.103 407.013 481.679 407.491 481.317L420.969 471.347C421.639 470.962 422.429 470.84 423.184 471.004L443.927 475.672C444.667 475.839 444.881 476.268 444.404 476.625L430.93 486.59Z" fill="#C6CBF5"/>
<path d="M271.4 432.819C270.723 433.214 269.923 433.34 269.157 433.172L248.424 428.509C247.689 428.342 247.469 427.913 247.946 427.555L261.396 417.586C262.066 417.201 262.856 417.079 263.611 417.243L284.344 421.905C285.094 422.072 285.299 422.506 284.822 422.859L271.4 432.819Z" fill="#C6CBF5"/>
<path d="M299.942 439.241C299.267 439.632 298.471 439.758 297.708 439.594L276.975 434.931C276.23 434.764 276.02 434.335 276.498 433.977L289.943 424.013C290.618 423.627 291.412 423.505 292.172 423.669L312.905 428.332C313.64 428.499 313.86 428.928 313.382 429.286L299.942 439.241Z" fill="#C6CBF5"/>
<path d="M328.494 445.663C327.816 446.056 327.016 446.182 326.25 446.016L305.522 441.353C304.777 441.186 304.567 440.757 305.044 440.4L318.49 430.435C319.161 430.05 319.952 429.927 320.709 430.092L341.442 434.754C342.192 434.921 342.397 435.35 341.92 435.708L328.494 445.663Z" fill="#C6CBF5"/>
<path d="M357.036 452.085C356.361 452.478 355.565 452.604 354.802 452.438L334.069 447.775C333.324 447.604 333.114 447.175 333.591 446.822L347.037 436.852C347.711 436.466 348.506 436.345 349.265 436.514L369.999 441.177C370.748 441.344 370.953 441.773 370.476 442.13L357.036 452.085Z" fill="#C6CBF5"/>
<path d="M385.593 458.498C384.92 458.889 384.125 459.015 383.364 458.851L362.63 454.188C361.881 454.016 361.676 453.592 362.153 453.235L375.627 443.26C376.299 442.872 377.093 442.749 377.851 442.917L398.584 447.58C399.32 447.747 399.539 448.176 399.062 448.533L385.593 458.498Z" fill="#C6CBF5"/>
<path d="M414.148 464.92C413.469 465.313 412.667 465.439 411.9 465.273L391.167 460.606C390.436 460.443 390.212 460.01 390.689 459.652L404.139 449.687C404.811 449.301 405.601 449.177 406.359 449.339L427.092 454.007C427.846 454.174 428.047 454.603 427.569 454.96L414.148 464.92Z" fill="#C6CBF5"/>
<path d="M442.691 471.342C442.016 471.734 441.22 471.86 440.457 471.695L419.719 467.032C418.974 466.861 418.764 466.432 419.242 466.079L432.687 456.114C433.359 455.724 434.153 455.602 434.911 455.771L455.645 460.434C456.389 460.601 456.599 461.03 456.122 461.387L442.691 471.342Z" fill="#C6CBF5"/>
<path d="M214.436 420.041C213.758 420.434 212.958 420.56 212.193 420.394L177.041 412.46C176.291 412.294 176.086 411.864 176.563 411.507L190.013 401.542C190.688 401.156 191.482 401.034 192.242 401.199L227.394 409.109C228.144 409.276 228.349 409.705 227.872 410.062L214.436 420.041Z" fill="#C6CBF5"/>
<path d="M489.75 464.043C489.074 464.431 488.278 464.555 487.516 464.391L452.359 456.481C451.624 456.314 451.405 455.885 451.882 455.528L465.356 445.558C466.031 445.173 466.824 445.049 467.585 445.21L502.742 453.12C503.486 453.287 503.696 453.716 503.219 454.073L489.75 464.043Z" fill="#C6CBF5"/>
<path d="M202.67 435.265C201.996 435.652 201.201 435.775 200.441 435.608L158.531 426.177C157.781 426.011 157.576 425.586 158.053 425.224L171.499 415.274C172.174 414.887 172.968 414.767 173.728 414.935L215.638 424.332C216.392 424.504 216.593 424.933 216.116 425.286L202.67 435.265Z" fill="#C6CBF5"/>
<path d="M170.191 445.844C169.515 446.233 168.719 446.357 167.957 446.192L140.012 439.904C139.267 439.737 139.057 439.308 139.535 438.95L152.98 428.985C153.656 428.594 154.454 428.469 155.218 428.633L183.164 434.921C183.908 435.088 184.118 435.522 183.641 435.875L170.191 445.844Z" fill="#C6CBF5"/>
<path d="M247.068 409.471C246.391 409.861 245.593 409.985 244.83 409.819L224.111 405.156C223.361 404.989 223.156 404.56 223.634 404.203L237.079 394.238C237.754 393.85 238.55 393.725 239.312 393.89L260.032 398.553C260.79 398.725 260.986 399.149 260.509 399.506L247.068 409.471Z" fill="#C6CBF5"/>
<path d="M275.49 415.855C274.814 416.245 274.015 416.368 273.252 416.198L252.519 411.536C251.779 411.369 251.564 410.94 252.041 410.582L265.482 400.617C266.159 400.229 266.957 400.105 267.72 400.269L288.454 404.937C289.198 405.104 289.408 405.533 288.931 405.891L275.49 415.855Z" fill="#C6CBF5"/>
<path d="M304.034 422.272C303.361 422.664 302.565 422.788 301.805 422.621L281.071 417.958C280.332 417.791 280.117 417.362 280.594 417.004L294.034 407.044C294.709 406.652 295.506 406.526 296.268 406.691L317.002 411.359C317.751 411.526 317.956 411.95 317.479 412.313L304.034 422.272Z" fill="#C6CBF5"/>
<path d="M332.584 428.695C331.91 429.088 331.112 429.213 330.35 429.043L309.626 424.385C308.877 424.213 308.672 423.784 309.149 423.431L322.594 413.467C323.271 413.075 324.069 412.951 324.833 413.118L345.557 417.777C346.301 417.943 346.511 418.373 346.034 418.73L332.584 428.695Z" fill="#C6CBF5"/>
<path d="M361.122 435.117C360.451 435.508 359.657 435.633 358.898 435.465L338.169 430.802C337.42 430.635 337.215 430.206 337.692 429.849L351.133 419.884C351.81 419.495 352.608 419.372 353.371 419.541L374.1 424.203C374.854 424.37 375.054 424.795 374.577 425.157L361.122 435.117Z" fill="#C6CBF5"/>
<path d="M389.688 441.53C389.014 441.919 388.22 442.045 387.459 441.882L366.716 437.205C365.976 437.038 365.761 436.609 366.239 436.252L379.679 426.287C380.352 425.895 381.147 425.769 381.908 425.934L402.646 430.602C403.386 430.769 403.601 431.198 403.123 431.555L389.688 441.53Z" fill="#C6CBF5"/>
<path d="M418.234 447.952C417.56 448.345 416.762 448.469 416 448.3L395.267 443.637C394.518 443.47 394.312 443.036 394.79 442.683L408.23 432.719C408.908 432.327 409.708 432.203 410.473 432.371L431.202 437.038C431.951 437.205 432.157 437.634 431.679 437.992L418.234 447.952Z" fill="#C6CBF5"/>
<path d="M446.776 454.369C446.104 454.757 445.311 454.881 444.552 454.717L423.805 450.078C423.069 449.911 422.85 449.482 423.327 449.125L436.768 439.16C437.44 438.772 438.233 438.648 438.992 438.812L459.74 443.48C460.479 443.647 460.694 444.071 460.217 444.433L446.776 454.369Z" fill="#C6CBF5"/>
<path d="M463.447 462.179C463.048 462.106 462.639 462.106 462.24 462.179C461.879 462.222 461.534 462.349 461.232 462.551L447.806 472.487C447.577 472.654 447.477 472.854 447.568 473.04C447.649 473.151 447.753 473.244 447.872 473.314C447.991 473.383 448.123 473.428 448.26 473.445L453.677 474.666L436.041 487.744C435.812 487.911 435.726 488.111 435.822 488.297C435.903 488.409 436.008 488.503 436.129 488.572C436.25 488.641 436.385 488.684 436.523 488.697L450.489 491.839C450.888 491.924 451.299 491.933 451.701 491.868C452.067 491.83 452.418 491.702 452.722 491.496L484.701 467.805C484.925 467.638 485.016 467.442 484.916 467.257C484.834 467.143 484.729 467.048 484.608 466.978C484.487 466.908 484.353 466.865 484.214 466.851L463.447 462.179Z" fill="#C6CBF5"/>
<path d="M166.393 441.263C166.323 441.288 166.247 441.288 166.178 441.263L150.346 437.682C150.255 437.682 150.208 437.63 150.241 437.606L151.22 436.881C151.289 436.858 151.365 436.858 151.434 436.881L167.285 440.447C167.371 440.447 167.419 440.5 167.39 440.524L166.393 441.263Z" fill="#C6D3F5"/>
<path d="M251.207 532.179L175.213 515.549C174.335 515.354 174.335 514.667 175.213 514.019L206.8 490.795C207.729 490.134 208.87 489.839 210.003 489.965L285.992 506.6C286.875 506.791 286.87 507.477 285.992 508.126L254.396 531.35C253.471 532.008 252.336 532.304 251.207 532.179Z" fill="#C6CBF5"/>
<path d="M544.457 227.475L221.81 157.742C217.434 156.788 213.696 158.786 213.439 162.19L211.859 183.855C211.789 184.121 211.741 184.392 211.716 184.666L202.046 339.99C201.798 343.394 206.957 349.769 211.334 350.718L530.669 423.35C535.05 424.304 538.783 422.306 539.045 418.902L540.525 390.567C540.595 390.301 540.642 390.03 540.663 389.756L551.937 235.347C552.185 231.943 548.834 228.419 544.457 227.475Z" fill="#CCCDED"/>
<path d="M424.024 555.851C423.847 555.854 423.672 555.816 423.512 555.74C423.352 555.663 423.212 555.552 423.103 555.413C422.912 555.171 422.826 554.864 422.861 554.558C422.897 554.252 423.053 553.973 423.294 553.782L437.25 542.768C437.368 542.662 437.506 542.581 437.657 542.531C437.807 542.48 437.967 542.461 438.125 542.475C438.283 542.488 438.437 542.534 438.577 542.61C438.716 542.685 438.839 542.788 438.937 542.913C439.036 543.037 439.107 543.181 439.148 543.334C439.188 543.487 439.197 543.647 439.173 543.804C439.149 543.961 439.093 544.111 439.008 544.245C438.924 544.38 438.813 544.495 438.682 544.585L424.726 555.603C424.526 555.762 424.279 555.849 424.024 555.851Z" fill="#372D4F"/>
<path d="M406.587 569.878C406.345 569.881 406.108 569.808 405.909 569.669C405.711 569.531 405.561 569.333 405.48 569.105C405.399 568.877 405.393 568.629 405.46 568.397C405.528 568.164 405.667 567.959 405.857 567.809L419.813 556.791C419.932 556.691 420.07 556.616 420.219 556.57C420.367 556.524 420.524 556.509 420.679 556.525C420.833 556.541 420.983 556.587 421.12 556.663C421.256 556.738 421.376 556.839 421.472 556.962C421.568 557.084 421.639 557.224 421.679 557.374C421.72 557.524 421.73 557.681 421.709 557.835C421.688 557.989 421.636 558.137 421.556 558.271C421.476 558.404 421.37 558.52 421.245 558.612L407.284 569.63C407.084 569.786 406.84 569.873 406.587 569.878Z" fill="#372D4F"/>
<path d="M356.745 287.883L468.149 311.288C473.648 312.442 477.872 317.696 477.538 322.96L473.667 383.511C473.328 388.755 468.555 392.14 463.057 390.986L337.076 364.53C331.578 363.376 327.354 358.122 327.693 352.854L331.564 292.303C331.638 290.956 332.039 289.647 332.733 288.489" stroke="#2A496B" stroke-width="2.85" stroke-miterlimit="10" stroke-linecap="round"/>
<path d="M336.125 285.452C338.016 284.581 340.142 284.358 342.172 284.818L349.255 286.305" stroke="#2A496B" stroke-width="2.85" stroke-miterlimit="10" stroke-linecap="round"/>
<path d="M341.309 341.006L386.89 325.286L404.206 349.65L461.266 329.883" stroke="#ED5F5F" stroke-width="12.38" stroke-linecap="round" stroke-linejoin="round"/>
<path d="M279.565 235.865C285.88 229.889 285.418 219.159 278.533 211.899C271.648 204.638 260.947 203.597 254.632 209.573C248.317 215.549 248.779 226.279 255.664 233.54C262.549 240.8 273.25 241.841 279.565 235.865Z" fill="#ED5F5F"/>
<path d="M261.506 223.366L264.981 229.64L273.973 218.65" stroke="white" stroke-width="3.35" stroke-linecap="round" stroke-linejoin="round"/>
<path d="M276.215 282.32C282.53 276.345 282.068 265.614 275.183 258.354C268.298 251.094 257.597 250.053 251.282 256.029C244.967 262.004 245.429 272.735 252.314 279.995C259.199 287.255 269.9 288.296 276.215 282.32Z" fill="#5A69C7"/>
<path d="M258.156 269.818L261.631 276.093L270.623 265.103" stroke="white" stroke-width="3.35" stroke-linecap="round" stroke-linejoin="round"/>
<path d="M272.864 328.768C279.179 322.792 278.717 312.062 271.832 304.802C264.947 297.541 254.246 296.5 247.931 302.476C241.615 308.452 242.078 319.182 248.963 326.442C255.848 333.703 266.549 334.744 272.864 328.768Z" fill="#5A69C7"/>
<path d="M254.801 316.275L258.28 322.545L267.272 311.56" stroke="white" stroke-width="3.35" stroke-linecap="round" stroke-linejoin="round"/>
<path d="M305.412 207.97L294.754 355.657" stroke="#2A496B" stroke-width="2.85" stroke-miterlimit="10" stroke-linecap="round"/>
<path d="M369.36 210.416C354.779 207.332 342.117 216.49 341.076 230.88L367.48 236.482L369.36 210.416Z" fill="white"/>
<path d="M376.4 216.109C375.923 216.014 375.494 215.933 375.045 215.861L372.763 244.244L346.236 238.632C345.529 253.722 357.104 268.416 372.41 271.654C387.956 274.939 401.453 265.174 402.561 249.836C403.668 234.498 391.946 219.399 376.4 216.109Z" fill="#6984E0"/>
<path d="M355.977 275.354L386.518 281.814" stroke="#2A496B" stroke-width="2.85" stroke-miterlimit="10" stroke-linecap="round"/>
<path fill-rule="evenodd" clip-rule="evenodd" d="M454.723 232.62C439.144 229.325 425.608 239.114 424.511 254.48C423.413 269.847 435.13 284.994 450.704 288.274C466.278 291.555 479.819 281.781 480.917 266.414C482.014 251.047 470.297 235.915 454.723 232.62ZM451.616 275.654C443.106 273.852 436.701 265.584 437.297 257.188C437.894 248.792 445.297 243.443 453.807 245.269C462.317 247.095 468.727 255.334 468.125 263.73C467.524 272.126 460.107 277.451 451.616 275.654Z" fill="#849AE8"/>
<path fill-rule="evenodd" clip-rule="evenodd" d="M454.722 232.62C454.336 232.539 453.959 232.472 453.577 232.405L453.186 245.126L453.811 245.245C462.321 247.042 468.731 255.31 468.129 263.706C467.983 265.993 467.259 268.206 466.025 270.137L477.074 278.185C479.332 274.65 480.656 270.6 480.921 266.414C482.028 251.047 470.296 235.914 454.722 232.62Z" fill="#637DD4"/>
<path fill-rule="evenodd" clip-rule="evenodd" d="M466.019 270.137C463.485 274.057 458.955 276.336 453.791 275.959L454.688 288.832C464.134 289.509 472.429 285.356 477.068 278.181L466.019 270.137Z" fill="white"/>
<path d="M434.93 292.05L465.471 298.511" stroke="#2A496B" stroke-width="2.85" stroke-miterlimit="10" stroke-linecap="round"/>
<g style="mix-blend-mode:multiply" opacity="0.21">
<path d="M81.8142 498.807C100.079 498.737 114.86 492.144 114.829 484.081C114.798 476.019 99.9666 469.539 81.702 469.609C63.4373 469.679 48.656 476.272 48.687 484.335C48.718 492.398 63.5495 498.877 81.8142 498.807Z" fill="#8288D4"/>
</g>
<path d="M102.651 479.977L90.8573 468.615C89.139 467.91 86.0557 467.871 83.612 468.539C83.1202 468.647 82.6861 468.933 82.3941 469.343C82.1021 469.753 81.9731 470.256 82.0322 470.756L81.9606 472.849C81.9606 476.344 81.6265 477.526 83.8984 478.456L97.3675 483.982C100.193 485.779 107.534 484.049 102.651 479.977Z" fill="#27427A"/>
<path d="M89.6354 468.005C89.6354 468.005 97.2338 475.824 96.7613 476.93C95.234 480.53 84.4473 472.973 84.4473 472.973C84.4473 472.973 88.1988 467.767 89.6354 468.005Z" fill="#DE5840"/>
<path d="M83.3687 471.767C84.9724 475.333 90.5281 472.954 91.1247 469.168C92.7331 448.004 98.5417 431.307 100.055 411.516C101.759 389.299 100.169 388.941 102.728 354.885L81.9416 358.499C83.8031 382.929 82.963 413.838 82.963 413.838C75.6557 437.682 81.7173 442.645 83.3687 471.767Z" fill="#DE5840"/>
<path d="M72.0994 489.97L71.6221 475.099C70.9395 473.941 68.9254 473.164 66.8778 473.288C65.9614 473.345 66.9924 472.844 66.2908 474.041L63.8757 471.724C61.6181 475.433 59.9189 475.748 60.2865 479.352C61.5035 485.479 63.4891 489.865 66.0426 492.964C66.7442 495.529 72.7103 495.458 72.0994 489.97Z" fill="#27427A"/>
<path d="M71.5924 475.509C71.5924 475.509 70.676 483.672 68.1654 483.82C64.8244 484.01 63.2637 476.11 63.2637 476.11C63.2637 476.11 70.8048 474.77 71.5924 475.509Z" fill="#DE5840"/>
<path d="M63.2832 476.578C64.715 480.516 70.7527 479.314 71.6119 475.51C74.5949 453.935 79.4346 441.12 82.2363 420.957C85.3816 398.315 76.2702 396.222 81.0431 361.507L59.5078 361.884C59.8753 387.382 65.6792 419.717 65.6792 419.717C56.687 443.117 63.4264 446.264 63.2832 476.578Z" fill="#DE5840"/>
<path d="M107.577 326.216C107.577 326.216 106.784 340.143 104.932 404.989C104.932 404.989 99.854 409.671 85.8408 413.371C72.6295 416.861 74.9014 406.668 64.2149 410.41C64.2149 410.41 59.8477 389.67 58.9313 382.476C58.0149 375.281 53.4568 333.22 65.2697 331.804C77.0826 330.388 107.577 326.216 107.577 326.216Z" fill="#AEAECF"/>
<path d="M56.7981 412.275C56.7981 412.275 56.3208 387.005 55.4044 379.792C54.488 372.578 49.276 329.291 61.1319 327.875C63.8333 327.551 71.3792 331.036 75.0066 330.517C74.2096 337.525 72.6202 349.006 69.408 367.791C65.1602 392.836 73.4268 406.61 81.5216 413.891C70.6395 413.59 66.2818 408.956 56.7981 412.275Z" fill="#9A9AB5"/>
<path d="M91.6248 246.07L90.7084 259.095L80.5469 262.509L80.6376 238.312L91.6248 246.07Z" fill="#24386B"/>
<path d="M179.494 272.908C180.124 275.182 179.136 277.404 177.298 277.847L170.005 277.804C168.168 278.247 166.321 273.346 169.619 271.73L174.869 270.6C175.552 270.443 176.257 270.399 176.955 270.471C178.239 270.624 178.983 271.115 179.494 272.908Z" fill="#DE5840"/>
<path d="M97.7158 257.675L131.651 275.196L168.932 271.964L169.099 279.268C168.88 281.375 140.428 293.185 132.157 295.607C130.243 296.167 128.209 296.167 126.296 295.607C114.149 292.05 83.3398 275.306 83.3398 275.306L97.7158 257.675Z" fill="#6F92F2"/>
<path d="M93.7538 256.282C92.5562 255.995 91.3224 255.887 90.093 255.963C84.3942 256.301 73.722 256.173 73.1302 256.573L65.212 259.882C51.0317 267.162 50.0962 274.185 55.4657 285.003C55.4657 285.003 61.8996 302.473 62.3196 310.449C62.6823 317.348 56.7305 328.29 55.5994 330.555C54.1389 333.492 63.8326 351.056 90.4414 346.818C111.39 343.48 107.853 335.303 107.147 323.899C106.703 316.723 102.818 297.39 102.794 291.688C102.77 285.986 107.037 281.528 103.782 272.507C102.448 268.861 101.305 265.148 100.355 261.384C100.099 260.351 99.5778 259.402 98.8418 258.633C98.1058 257.863 97.181 257.299 96.1594 256.997L93.7538 256.282Z" fill="#6F92F2"/>
<path d="M87.3113 256.03L87.3686 264.559C87.3682 265.367 87.1115 266.153 86.6352 266.805C86.159 267.457 85.488 267.942 84.7186 268.189C83.9492 268.436 83.1212 268.433 82.3538 268.18C81.5863 267.927 80.919 267.437 80.4479 266.781L73.1406 256.454L77.8801 254.247L87.3113 256.03Z" fill="#DE5840"/>
<path d="M75.9707 257.164L78.319 248.315C78.9299 246.218 81.3832 245.202 83.5119 245.684L84.1419 245.827C84.6417 245.936 85.1137 246.147 85.528 246.447C85.9423 246.747 86.2901 247.129 86.5496 247.569C86.8091 248.01 86.9746 248.499 87.0358 249.007C87.0971 249.514 87.0527 250.029 86.9054 250.518L85.3017 262.266C84.6908 264.364 75.9707 257.164 75.9707 257.164Z" fill="#DE5840"/>
<path d="M86.5184 252.316C86.5184 252.316 81.063 252.892 78.457 249.455C78.457 249.455 81.1012 254.699 86.275 254.671L86.5184 252.316Z" fill="#BA4141"/>
<path d="M91.2487 239.762C91.2487 239.762 93.5635 248.559 88.5663 250.866C83.5691 253.174 80.9297 235.047 80.9297 235.047L91.2487 239.762Z" fill="#313363"/>
<path d="M75.702 236.005C76.8332 233.621 78.8187 233.035 80.7947 234.098C82.5607 233.121 84.8708 234.031 86.7513 236.763C89.362 240.577 90.5075 246.914 88.8561 250.361C88.1354 251.867 86.8181 252.316 85.5485 252.478C84.3476 252.62 83.1306 252.529 81.9641 252.211C77.7353 251.1 77.7162 251.71 75.9741 249.178C73.3586 245.369 74.0459 239.433 75.702 236.005Z" fill="#DE5840"/>
<path d="M78.438 237.159C77.2257 241.226 77.641 250.308 77.4834 251.529C77.4834 251.529 69.1929 251.834 69.6702 242.427C70.2621 230.718 77.2687 236.153 77.2687 236.153L78.438 237.159Z" fill="#24386B"/>
<path d="M75.7266 238.942C80.1129 236.782 83.7402 235.061 91.1239 240.458C91.6012 239.428 89.9975 236.201 88.4654 235.214C85.2628 233.173 83.6352 232.067 80.2751 231.561L79.4637 231.528C74.5811 231.318 72.1326 233.349 71.4119 238.079C71.3498 238.499 70.6434 240.425 70.6387 240.768L72.1564 240.148C72.123 242.928 72.9153 238.747 75.7266 238.942Z" fill="#24386B"/>
<path d="M86.0596 249.703C86.9617 249.374 87.6872 247.939 87.6776 246.504L84.4082 247.71C84.4177 249.145 85.1575 250.037 86.0596 249.703Z" fill="white"/>
<path d="M68.4902 368.64C66.2326 369.331 63.9798 368.406 63.4834 366.585L63.3259 359.304C62.8487 357.478 67.6836 355.49 69.3923 358.747L70.6666 363.939C70.8429 364.617 70.9058 365.319 70.8528 366.018C70.7335 367.324 70.2657 368.096 68.4902 368.64Z" fill="#DE5840"/>
<path d="M70.0091 275.044L61.4561 319.098L69.1356 358.06L61.8331 358.432C59.7187 358.27 48.469 330.836 45.8392 322.674C45.2235 320.767 45.1328 315.484 45.2616 313.496C46.2162 299.068 52.6739 272.111 52.6739 272.111L70.0091 275.044Z" fill="#6F92F2"/>
<path d="M79.8032 255.143C79.8032 255.143 80.8961 258.919 82.371 263.472C84.1369 268.922 76.4526 272.331 73.7082 267.286C71.1595 262.619 69.3219 256.135 69.2933 247.133C69.2503 231.962 74.0661 242.58 74.0661 242.58L79.8032 255.143Z" fill="#24386B"/>
<path d="M74.2617 247.162C74.2618 247.635 74.4026 248.097 74.6663 248.49C74.9301 248.882 75.3048 249.188 75.7428 249.367C76.1808 249.547 76.6624 249.592 77.1262 249.497C77.59 249.402 78.0151 249.172 78.3475 248.835C78.6799 248.498 78.9045 248.071 78.9928 247.606C79.081 247.141 79.029 246.661 78.8432 246.226C78.6575 245.791 78.3464 245.421 77.9496 245.163C77.5528 244.905 77.0881 244.771 76.6148 244.778C75.9876 244.787 75.3892 245.042 74.9488 245.488C74.5085 245.934 74.2617 246.535 74.2617 247.162Z" fill="#DE5840"/>
<path d="M65.8222 341.64C65.679 341.077 59.7988 312.695 59.7988 312.695L64.0515 284.407" stroke="#546FB8" stroke-width="2.88" stroke-linecap="round" stroke-linejoin="round"/>
<path d="M104.455 284.531L99.9258 277.942" stroke="#546FB8" stroke-width="2.88" stroke-linecap="round" stroke-linejoin="round"/>
<path d="M168.54 601.374C188.866 601.374 205.344 594.424 205.344 585.85C205.344 577.276 188.866 570.326 168.54 570.326C148.214 570.326 131.736 577.276 131.736 585.85C131.736 594.424 148.214 601.374 168.54 601.374Z" fill="#E4E6F2"/>
<path d="M153.887 577.197L159.433 578.193C163.495 577.602 165.533 576.83 166.85 578.332L167.228 578.761C167.705 579.805 166.946 581.483 165.452 582.098L154.403 586.837C152.245 587.39 149.983 586.589 149.969 584.515C149.969 584.515 149.969 578.713 150.966 578.479C152.942 578.026 152.16 577.635 153.887 577.197Z" fill="#2A3F6B"/>
<path d="M156.771 580.034C156.742 582.465 151.239 582.418 151.268 579.962L151.354 572.057L156.857 572.129L156.771 580.034Z" fill="white"/>
<path d="M159.891 570.86C156.55 575.69 148.331 575.628 146.556 572.338C145.525 553.029 139.468 532.465 146.393 505.919L142.184 436.571L171.833 432.581L164.401 517.595L159.891 570.86Z" fill="#2D54A6"/>
<path d="M140.604 438.659C140.604 438.659 124.295 422.673 122.262 416.451C120.228 410.229 128.424 400.56 128.424 400.56L141.005 406.691L136.757 415.75L146.718 435.775L140.604 438.659Z" fill="#DE5840"/>
<path d="M153.338 470.046L180.548 475.152L183.517 450.483L156.307 445.382L153.338 470.046Z" fill="#2D54A6"/>
<path d="M181.474 583.972L187.025 584.968C191.087 584.377 193.125 583.605 194.442 585.106L194.815 585.536C195.292 586.58 194.533 588.258 193.039 588.873L181.995 593.612C179.837 594.165 177.57 593.364 177.561 591.29C177.561 591.29 177.561 585.488 178.558 585.259C180.534 584.806 179.751 584.41 181.474 583.972Z" fill="#2A3F6B"/>
<path d="M184.357 586.809C184.333 589.24 178.83 589.192 178.854 586.737L178.944 578.832L184.447 578.904L184.357 586.809Z" fill="white"/>
<path d="M187.503 577.635C184.162 582.465 175.943 582.403 174.168 579.113C173.137 559.804 167.08 539.245 174.001 512.694L165.973 432.166L199.445 439.356L192.014 524.37L187.503 577.635Z" fill="#2D54A6"/>
<path d="M174.249 349.955C174.191 355.724 170.874 358.361 166.846 355.853C162.817 353.345 161.81 346.236 161.596 340.477C161.481 337.716 163.056 332.457 167.084 334.965C171.113 337.473 174.311 344.205 174.249 349.955Z" fill="#DE5840"/>
<path d="M181.203 348.114C180.564 353.836 175.399 356.849 171.657 353.883C167.915 350.918 165.381 343.871 166.021 338.15C166.66 332.428 170.211 330.169 173.963 333.129C177.714 336.09 181.848 342.379 181.203 348.114Z" fill="#DE5840"/>
<path d="M166.904 364.735L166.369 364.535C165.475 364.16 164.758 363.456 164.368 362.569C163.977 361.682 163.942 360.679 164.269 359.767L167.911 348.801C168.042 348.351 168.263 347.932 168.56 347.57C168.858 347.207 169.226 346.909 169.642 346.692C170.058 346.476 170.514 346.346 170.982 346.31C171.449 346.274 171.92 346.333 172.364 346.484L172.899 346.684C173.793 347.059 174.509 347.763 174.9 348.65C175.291 349.537 175.326 350.54 174.999 351.452L172.932 362.523C172.302 364.463 168.708 365.398 166.904 364.735Z" fill="#DE5840"/>
<path d="M162.522 351.638C162.522 351.638 163.19 355.6 169.824 355.362C174.826 355.18 172.049 345.745 176.774 343.867C183.165 341.325 181.294 334.665 178.759 332.329C176.225 329.992 172.683 330.898 168.311 332.085C163.71 333.32 157.257 336.538 162.522 351.638Z" fill="#24386B"/>
<path d="M178.057 346.412C177.973 346.87 177.758 347.293 177.436 347.63C177.115 347.967 176.702 348.203 176.249 348.308C175.795 348.413 175.32 348.383 174.883 348.222C174.446 348.062 174.066 347.777 173.789 347.402C173.513 347.028 173.352 346.581 173.326 346.117C173.3 345.652 173.411 345.19 173.645 344.788C173.879 344.386 174.226 344.061 174.642 343.853C175.059 343.645 175.528 343.564 175.99 343.618C176.31 343.664 176.618 343.773 176.896 343.939C177.173 344.105 177.415 344.324 177.608 344.584C177.8 344.844 177.939 345.139 178.016 345.453C178.093 345.767 178.107 346.093 178.057 346.412Z" fill="#DE5840"/>
<path d="M139.277 442.684C139.148 422.363 142.432 419.236 140.709 401.743C139.516 368.216 143.84 361.627 153.916 358.899L160.712 357.765C162.87 358.103 164.893 359.071 167.031 359.529C175.976 361.436 191.373 365.069 197.893 368.473C203.697 371.501 194.729 376.917 195.029 384.283C197.554 405.81 199.463 438.307 200.241 448.953C197.745 464.382 145.133 452.767 139.277 442.684Z" fill="#6F92F2"/>
<path d="M197.559 386.695L192.653 392.946C187.784 419.645 191.774 444.815 182.314 456.538C188.419 456.238 194.046 456.591 198.032 453.13C198.256 453.13 200.084 451.222 200.208 447.928L197.559 386.695Z" fill="#5B78C7"/>
<path d="M159.519 357.374C159.519 357.374 158.087 362.303 163.495 363.867C168.903 365.431 177.551 361.841 177.551 361.841C177.551 361.841 171.389 355.514 159.519 357.374Z" fill="white"/>
<path d="M176.426 347.948C176.319 347.951 176.213 347.933 176.114 347.894C176.014 347.855 175.923 347.797 175.847 347.723C175.77 347.649 175.709 347.56 175.668 347.462C175.626 347.364 175.605 347.258 175.605 347.151L174.65 341.664C174.65 341.187 175.724 341.564 176.159 341.54C176.593 341.511 177.853 341.196 177.872 341.664L177.166 347.056C177.181 347.271 177.112 347.484 176.974 347.65C176.837 347.816 176.64 347.922 176.426 347.948Z" fill="#24386B"/>
<path d="M249.04 395.249C249.04 395.249 236.602 415.183 230.903 418.439C229.047 419.502 227.787 418.439 226.178 417.529C221.739 414.949 205.33 403.02 205.33 403.02L209.902 384.817L227.219 404.699L244.945 389.861L249.04 395.249Z" fill="#DE5840"/>
<path d="M189.698 393.551L207.974 409.481C214.374 416.093 225.543 398.453 225.504 392.221C225.504 391.53 197.884 368.473 197.884 368.473C197.884 368.473 185.551 381.556 189.698 393.551Z" fill="#6F92F2"/>
<path d="M244.744 393.633C244.907 394.03 245.152 394.39 245.461 394.689C245.771 394.987 246.139 395.219 246.543 395.369C246.946 395.518 247.376 395.583 247.806 395.558C248.236 395.533 248.656 395.42 249.04 395.225L252.906 393.208C253.687 392.76 254.273 392.036 254.548 391.179C254.824 390.322 254.769 389.393 254.395 388.574C254.232 388.176 253.988 387.816 253.678 387.516C253.369 387.217 253.001 386.985 252.597 386.835C252.194 386.685 251.763 386.62 251.333 386.644C250.903 386.669 250.483 386.782 250.099 386.977L246.281 389.008C245.492 389.447 244.896 390.165 244.611 391.021C244.327 391.878 244.374 392.809 244.744 393.633Z" fill="#DE5840"/>
<path d="M144.303 365.965L124.758 402.987C124.758 402.987 138.275 415.312 146.069 411.864C153.863 408.417 150.718 368.707 150.718 368.707L144.303 365.965Z" fill="#6F92F2"/>
<path d="M205.945 407.712C205.945 407.712 211.802 407.631 216.88 401.037C221.958 394.443 222.77 389.804 222.77 389.804" stroke="#4B62A3" stroke-width="2.52" stroke-linecap="round" stroke-linejoin="round"/>
<path d="M141.205 411.011L142.441 390.505" stroke="#4B62A3" stroke-width="2.52" stroke-linecap="round" stroke-linejoin="round"/>
<path d="M127.574 397.633C127.574 397.633 130.257 404.307 141.416 407.645" stroke="#4B62A3" stroke-width="2.52" stroke-linecap="round" stroke-linejoin="round"/>
<path d="M194.63 397.642L189.021 392.607" stroke="#4B62A3" stroke-width="2.52" stroke-linecap="round" stroke-linejoin="round"/>
<path d="M170.158 474.17C170.158 474.17 168.053 469.121 156.316 466.599" stroke="#272B47" stroke-width="3.3" stroke-linecap="round" stroke-linejoin="round"/>
<g style="mix-blend-mode:multiply" opacity="0.3">
<path d="M449.916 607L511.009 575.085L629.501 482.385C634.789 478.251 633.119 470.046 626.704 468.658L570.45 456.5L500.289 518.749L449.916 607Z" fill="#9FA3D4"/>
</g>
<path d="M555.192 341.464L587.924 320.09L541.823 309.982L509.41 330.731L555.192 341.464Z" fill="#FF614F"/>
<path d="M587.925 320.09L555.154 341.468L556.09 516.045L587.567 493.608L587.925 320.09Z" fill="#D95243"/>
<path d="M555.321 341.435L509.41 330.731L510.35 505.299L556.256 516.012L555.321 341.435Z" fill="#F25C4B"/>
<path d="M500.04 413.371L532.773 391.997L486.676 381.889L454.264 402.639L500.04 413.371Z" fill="#A1BAFC"/>
<path d="M532.773 391.997L500.002 413.381L500.942 560.486L532.415 538.048L532.773 391.997Z" fill="#5068AD"/>
<path d="M500.174 413.343L454.264 402.639L454.736 451.919L455.199 549.739L501.11 560.452L500.174 413.343Z" fill="#6484DB"/>
<path d="M449.019 509.056L481.751 487.682L435.655 477.574L403.242 498.323L449.019 509.056Z" fill="white"/>
<path d="M449.916 607L481.393 584.563L481.751 487.682L448.98 509.065L449.916 607Z" fill="#BFCEF5"/>
<path d="M450.088 606.967L404.178 596.253L403.242 498.323L449.148 509.032L450.088 606.967Z" fill="#E8ECF7"/>
</svg>
