<svg width="615" height="558" viewBox="0 0 615 558" fill="none" xmlns="http://www.w3.org/2000/svg">
<path d="M603.445 290.53C655.797 141.302 515.218 -19.0541 347.068 1.84613C296.399 8.14378 249.001 31.1872 219.808 85.7068C129.981 253.404 8.29483 208.829 0.445762 303.961C-7.40331 399.094 88.4809 497.333 281.989 349.868C379.052 275.896 526.925 468.344 585.112 336.569C592.173 320.583 598.284 305.237 603.445 290.53Z" fill="#E3E8F9"/>
<path d="M388.5 550.313L426.734 544.859L546.233 448.395C547.271 447.558 548.06 446.454 548.515 445.2C548.971 443.947 549.074 442.593 548.815 441.285C548.556 439.977 547.944 438.765 547.046 437.78C546.147 436.795 544.997 436.074 543.718 435.696L487.847 419.154L388.5 550.313Z" fill="#DEE4F7"/>
<path d="M527.536 249.837C527.487 249.095 527.298 248.368 526.98 247.694C526.067 245.837 524.522 244.365 522.622 243.544C522.227 243.368 521.819 243.222 521.403 243.108C521.255 243.064 521.107 243.028 520.955 242.996L514.265 241.581L507.344 247.386C508.419 247.63 514.901 248.482 515.837 249.09C518.636 250.321 520.975 253.088 520.755 256.211L520.355 276.604C519.955 276.516 515.761 282.881 515.901 282.953L517.5 434.896C517.5 435.588 515.181 440.57 515.809 440.059L522.182 433.009C523.48 431.644 524.242 429.857 524.329 427.975L527.528 252.041C527.528 251.101 527.58 250.325 527.556 249.921C527.54 249.861 527.536 249.849 527.536 249.837Z" fill="#2E315E"/>
<path d="M518.34 242.392L244.442 184.534H244.422L244.023 184.45C243.218 184.24 242.387 184.149 241.556 184.178C241.236 184.194 240.918 184.233 240.604 184.294C239.744 184.456 238.936 184.824 238.249 185.365L234.07 188.768C235.424 189.341 236.814 189.82 238.233 190.204L512.546 248.146L518.34 242.392Z" fill="#2E315E"/>
<path d="M515.781 245.931L239.424 187.553C235.674 186.753 232.587 188.752 232.523 191.991L229.612 339.136C229.612 339.296 229.612 339.46 229.612 339.624L228.856 373.024C228.792 376.266 232.203 379.445 235.954 380.221L512.307 438.599C516.057 439.399 519.152 437.4 519.212 434.161L522.143 269.974C522.145 269.779 522.137 269.584 522.119 269.39L522.439 253.232C522.519 249.994 519.532 246.727 515.781 245.931Z" fill="#2E315E"/>
<path d="M516.357 440.13L506.813 447.488L504.21 443.689L234.547 381.376C231.3 380.624 225.138 382.38 221.707 385.059L114.831 468.188L114.695 466.66L98.3614 478.012L95.9023 477.788L96.83 484.41C97.2298 485.809 98.3894 484.118 99.489 484.374L379.688 551.693C382.935 552.444 388.417 551.041 391.848 548.362L512.039 454.553C513.914 453.089 515.302 450.554 515.198 449.355L516.357 440.13Z" fill="#2E315E"/>
<path d="M234.548 381.376C231.301 380.624 225.139 382.38 221.708 385.059L114.832 468.188L114.696 466.66L98.3623 478.012L95.7793 475.725L96.2431 483.842C96.2631 485.185 97.3467 485.677 98.4463 485.933L379.689 551.693C381.293 551.991 382.942 551.955 384.531 551.589L376.99 483.978C378.862 482.514 234.548 381.376 234.548 381.376Z" fill="#2E315E"/>
<path d="M378.72 542.808L98.105 477.964C94.8582 477.213 95.0062 474.406 98.4369 471.727L223.694 375.763C227.125 373.084 233.063 372.04 236.309 372.792L514.17 437C517.416 437.748 517.268 440.554 513.838 443.237L390.86 539.302C387.453 541.981 381.967 543.56 378.72 542.808Z" fill="#BFC8E6"/>
<path d="M253.503 399.45C252.96 399.765 252.317 399.865 251.704 399.73L235.014 395.971C234.414 395.839 234.242 395.491 234.634 395.199L245.454 387.17C245.999 386.858 246.64 386.759 247.253 386.89L263.943 390.649C264.543 390.785 264.715 391.133 264.343 391.421L253.503 399.45Z" fill="#5967A8"/>
<path d="M273.201 418.307C272.656 418.624 272.012 418.724 271.397 418.587L254.707 414.828C254.108 414.696 253.94 414.348 254.336 414.056L265.16 406.023C265.7 405.713 266.338 405.614 266.947 405.747L283.633 409.506C284.244 409.642 284.408 409.99 284.033 410.274L273.201 418.307Z" fill="#5967A8"/>
<path d="M263.737 430.59C263.194 430.904 262.554 431.003 261.941 430.87L245.252 427.111C244.66 426.975 244.476 426.632 244.852 426.34L255.676 418.307C256.219 417.998 256.857 417.901 257.467 418.035L274.161 421.793C274.761 421.925 274.932 422.273 274.561 422.557L263.737 430.59Z" fill="#5967A8"/>
<path d="M237.581 439.115C237.04 439.428 236.401 439.528 235.79 439.395L219.116 435.636C218.52 435.504 218.348 435.156 218.716 434.868L229.536 426.839C230.081 426.527 230.721 426.426 231.336 426.556L248.025 430.314C248.621 430.45 248.789 430.798 248.401 431.086L237.581 439.115Z" fill="#5967A8"/>
<path d="M192.019 445.093C191.476 445.405 190.835 445.503 190.224 445.368L173.534 441.614C172.93 441.478 172.758 441.13 173.134 440.842L185.841 431.414C186.386 431.101 187.027 431.001 187.641 431.134L204.326 434.892C204.93 435.028 205.094 435.38 204.726 435.66L192.019 445.093Z" fill="#5967A8"/>
<path d="M220.796 451.57C220.396 451.858 219.448 451.97 218.657 451.77L196.789 446.848C195.989 446.672 195.681 446.292 196.069 446L208.776 436.572C209.176 436.288 210.128 436.192 210.912 436.368L232.776 441.294C233.575 441.47 233.883 441.858 233.503 442.142L220.796 451.57Z" fill="#5967A8"/>
<path d="M364.436 484.018C363.918 484.283 363.321 484.349 362.757 484.206L346.083 480.452C345.471 480.316 345.243 480.008 345.567 479.768L350.265 476.281C350.788 476.017 351.389 475.95 351.957 476.093L368.63 479.848C369.234 479.984 369.454 480.292 369.134 480.532L364.436 484.018Z" fill="#5967A8"/>
<path d="M386.741 489.312C386.223 489.578 385.626 489.646 385.061 489.504L368.388 485.749C367.776 485.614 367.548 485.306 367.872 485.062L372.57 481.579C373.092 481.312 373.694 481.245 374.261 481.391L390.935 485.146C391.539 485.282 391.759 485.59 391.439 485.825L386.741 489.312Z" fill="#5967A8"/>
<path d="M410.376 494.382C409.862 494.638 409.273 494.7 408.717 494.558L392.035 490.8C391.435 490.664 391.187 490.364 391.503 490.132L396.025 486.773C396.543 486.521 397.134 486.46 397.693 486.601L414.374 490.356C414.974 490.492 415.21 490.796 414.898 491.024L410.376 494.382Z" fill="#5967A8"/>
<path d="M395.649 482.843C395.135 483.098 394.546 483.16 393.99 483.018L377.308 479.26C376.712 479.124 376.464 478.824 376.776 478.592L381.302 475.233C381.82 474.981 382.411 474.92 382.97 475.061L399.651 478.816C400.251 478.952 400.487 479.256 400.175 479.484L395.649 482.843Z" fill="#5967A8"/>
<path d="M335.592 477.421C335.046 477.736 334.401 477.836 333.785 477.7L225.185 453.242C224.593 453.11 224.409 452.762 224.785 452.474L237.509 443.033C238.055 442.727 238.694 442.629 239.308 442.758L347.903 467.212C348.507 467.348 348.679 467.7 348.303 467.984L335.592 477.421Z" fill="#5967A8"/>
<path d="M217.772 448.903C217.715 448.922 217.653 448.922 217.596 448.903L204.841 446.032C204.773 446.032 204.733 445.988 204.757 445.968L205.557 445.385C205.612 445.365 205.673 445.365 205.729 445.385L218.488 448.255C218.56 448.255 218.596 448.299 218.572 448.319L217.772 448.903Z" fill="#5967A8"/>
<path d="M185.037 440.379C185.008 440.397 184.972 440.404 184.937 440.399L179.531 439.179C179.499 439.179 179.495 439.151 179.531 439.135L180.331 438.547C180.362 438.536 180.396 438.536 180.427 438.547L185.845 439.747C185.873 439.747 185.877 439.775 185.845 439.791L185.037 440.379Z" fill="#5967A8"/>
<path d="M260.456 444.261C259.911 444.573 259.27 444.671 258.656 444.537L241.97 440.778C241.379 440.646 241.199 440.294 241.571 440.011L252.395 431.978C252.941 431.666 253.583 431.567 254.198 431.698L270.884 435.456C271.491 435.592 271.655 435.94 271.284 436.228L260.456 444.261Z" fill="#5967A8"/>
<path d="M283.436 449.431C282.893 449.741 282.256 449.84 281.644 449.711L264.959 445.953C264.359 445.817 264.183 445.469 264.559 445.181L275.379 437.152C275.924 436.838 276.567 436.739 277.182 436.872L293.888 440.635C294.48 440.77 294.651 441.118 294.26 441.406L283.436 449.431Z" fill="#5967A8"/>
<path d="M306.415 454.629C305.873 454.941 305.234 455.041 304.623 454.909L287.934 451.151C287.334 451.015 287.166 450.667 287.534 450.383L298.358 442.35C298.899 442.036 299.538 441.936 300.149 442.07L316.839 445.829C317.439 445.96 317.602 446.308 317.215 446.596L306.415 454.629Z" fill="#5967A8"/>
<path d="M329.395 459.783C328.852 460.097 328.212 460.197 327.6 460.063L310.91 456.305C310.31 456.169 310.138 455.821 310.51 455.533L321.334 447.504C321.878 447.19 322.52 447.09 323.133 447.224L339.823 450.983C340.423 451.119 340.591 451.466 340.223 451.754L329.395 459.783Z" fill="#5967A8"/>
<path d="M352.375 464.961C351.828 465.272 351.186 465.371 350.571 465.237L333.885 461.479C333.29 461.347 333.122 460.999 333.51 460.711L344.33 452.678C344.872 452.364 345.512 452.265 346.125 452.398L362.811 456.153C363.414 456.289 363.586 456.64 363.21 456.928L352.375 464.961Z" fill="#5967A8"/>
<path d="M375.359 470.127C374.813 470.438 374.173 470.536 373.559 470.403L356.878 466.649C356.274 466.513 356.102 466.165 356.478 465.877L367.314 457.828C367.859 457.514 368.502 457.414 369.117 457.548L385.799 461.306C386.398 461.442 386.57 461.79 386.199 462.078L375.359 470.127Z" fill="#5967A8"/>
<path d="M427.114 481.783C426.57 482.094 425.93 482.192 425.318 482.059L379.855 471.823C379.255 471.687 379.084 471.339 379.455 471.051L390.291 463.026C390.835 462.711 391.476 462.61 392.091 462.742L437.558 472.982C438.157 473.118 438.325 473.466 437.958 473.754L427.114 481.783Z" fill="#5967A8"/>
<path d="M286.604 435.732C286.065 436.048 285.426 436.148 284.816 436.012L268.127 432.253C267.527 432.118 267.351 431.778 267.727 431.486L278.571 423.441C279.111 423.13 279.749 423.032 280.358 423.165L297.052 426.923C297.656 427.059 297.815 427.403 297.452 427.687L286.604 435.732Z" fill="#5967A8"/>
<path d="M309.59 440.906C309.049 441.221 308.41 441.32 307.799 441.186L291.089 437.436C290.498 437.3 290.322 436.96 290.713 436.668L301.549 428.639C302.089 428.329 302.725 428.23 303.333 428.363L320.031 432.122C320.626 432.253 320.798 432.601 320.43 432.889L309.59 440.906Z" fill="#5967A8"/>
<path d="M332.57 446.084C332.026 446.396 331.386 446.494 330.774 446.36L314.084 442.602C313.493 442.47 313.285 442.126 313.685 441.834L324.509 433.801C325.053 433.493 325.692 433.395 326.304 433.525L342.994 437.284C343.589 437.419 343.765 437.767 343.394 438.051L332.57 446.084Z" fill="#5967A8"/>
<path d="M355.541 451.258C354.999 451.571 354.36 451.669 353.75 451.534L337.072 447.78C336.472 447.644 336.296 447.3 336.672 447.008L347.496 438.975C348.04 438.666 348.679 438.567 349.291 438.699L365.973 442.458C366.573 442.594 366.745 442.942 366.373 443.225L355.541 451.258Z" fill="#5967A8"/>
<path d="M378.532 456.424C377.989 456.738 377.349 456.838 376.737 456.704L360.043 452.942C359.443 452.81 359.271 452.466 359.643 452.178L370.467 444.145C371.008 443.83 371.647 443.73 372.258 443.865L388.952 447.628C389.548 447.76 389.72 448.108 389.352 448.391L378.532 456.424Z" fill="#5967A8"/>
<path d="M401.505 461.598C400.964 461.912 400.325 462.012 399.713 461.878L383.032 458.12C382.424 457.984 382.232 457.64 382.632 457.352L393.452 449.319C393.995 449.005 394.635 448.907 395.247 449.043L411.929 452.802C412.529 452.934 412.697 453.281 412.329 453.565L401.505 461.598Z" fill="#5967A8"/>
<path d="M424.484 466.773C423.942 467.086 423.303 467.185 422.692 467.052L405.999 463.294C405.403 463.158 405.231 462.818 405.623 462.526L416.447 454.493C416.986 454.183 417.621 454.083 418.23 454.213L434.924 457.976C435.519 458.108 435.691 458.456 435.324 458.74L424.484 466.773Z" fill="#5967A8"/>
<path d="M296.071 423.441C295.526 423.757 294.882 423.857 294.267 423.721L277.582 419.962C276.986 419.83 276.818 419.486 277.21 419.19L288.034 411.161C288.574 410.85 289.211 410.75 289.821 410.882L306.507 414.64C307.111 414.776 307.279 415.124 306.907 415.408L296.071 423.441Z" fill="#5967A8"/>
<path d="M319.047 428.639C318.505 428.952 317.865 429.054 317.252 428.923L300.562 425.164C299.962 425.028 299.791 424.68 300.162 424.388L310.986 416.359C311.53 416.047 312.169 415.947 312.782 416.079L329.475 419.842C330.067 419.978 330.239 420.326 329.875 420.61L319.047 428.639Z" fill="#5967A8"/>
<path d="M342.03 433.797C341.484 434.114 340.839 434.215 340.222 434.081L323.537 430.322C322.941 430.186 322.769 429.842 323.165 429.55L333.989 421.517C334.53 421.208 335.166 421.108 335.776 421.238L352.462 424.996C353.066 425.132 353.237 425.48 352.862 425.764L342.03 433.797Z" fill="#5967A8"/>
<path d="M365 438.971C364.459 439.288 363.818 439.389 363.205 439.255L346.515 435.496C345.916 435.36 345.744 435.016 346.116 434.721L356.94 426.692C357.483 426.379 358.123 426.28 358.735 426.416L375.425 430.174C376.024 430.31 376.188 430.654 375.804 430.938L365 438.971Z" fill="#5967A8"/>
<path d="M387.988 444.137C387.446 444.453 386.805 444.554 386.192 444.421L369.503 440.662C368.899 440.526 368.735 440.182 369.127 439.89L379.951 431.857C380.493 431.546 381.131 431.448 381.742 431.582L398.432 435.34C399.024 435.472 399.195 435.82 398.812 436.104L387.988 444.137Z" fill="#5967A8"/>
<path d="M410.971 449.315C410.425 449.63 409.78 449.73 409.164 449.595L392.474 445.836C391.886 445.704 391.706 445.356 392.102 445.065L402.926 437.036C403.468 436.727 404.104 436.629 404.713 436.76L421.403 440.518C422.007 440.654 422.179 441.002 421.803 441.286L410.971 449.315Z" fill="#5967A8"/>
<path d="M433.944 454.489C433.401 454.804 432.761 454.905 432.148 454.773L415.443 451.03C414.843 450.894 414.671 450.547 415.067 450.255L425.891 442.222C426.433 441.91 427.071 441.812 427.682 441.946L444.372 445.704C444.968 445.84 445.136 446.188 444.752 446.472L433.944 454.489Z" fill="#5967A8"/>
<path d="M250.221 413.133C249.676 413.448 249.033 413.548 248.418 413.413L220.124 407.047C219.52 406.911 219.349 406.563 219.744 406.271L230.568 398.25C231.112 397.939 231.752 397.841 232.364 397.974L260.657 404.348C261.261 404.484 261.429 404.832 261.057 405.116L250.221 413.133Z" fill="#5967A8"/>
<path d="M471.821 448.603C471.278 448.919 470.636 449.019 470.022 448.883L441.725 442.514C441.133 442.378 440.957 442.03 441.325 441.742L452.145 433.713C452.689 433.399 453.33 433.299 453.944 433.433L482.241 439.803C482.841 439.939 483.013 440.282 482.641 440.574L471.821 448.603Z" fill="#5967A8"/>
<path d="M240.752 425.416C240.209 425.73 239.568 425.829 238.956 425.692L205.225 418.095C204.621 417.959 204.445 417.619 204.825 417.327L215.649 409.294C216.193 408.983 216.832 408.884 217.444 409.018L251.18 416.615C251.784 416.751 251.948 417.099 251.58 417.383L240.752 425.416Z" fill="#5967A8"/>
<path d="M214.612 433.945C214.066 434.255 213.426 434.354 212.812 434.221L190.329 429.155C189.725 429.023 189.557 428.675 189.929 428.387L200.749 420.354C201.294 420.04 201.937 419.94 202.552 420.074L225.044 425.14C225.644 425.276 225.816 425.624 225.444 425.912L214.612 433.945Z" fill="#5967A8"/>
<path d="M276.49 404.648C275.946 404.964 275.302 405.064 274.687 404.927L258.009 401.173C257.41 401.037 257.234 400.689 257.61 400.401L268.429 392.372C268.973 392.057 269.615 391.957 270.229 392.092L286.923 395.851C287.534 395.987 287.702 396.331 287.322 396.623L276.49 404.648Z" fill="#5967A8"/>
<path d="M299.367 409.774C298.823 410.09 298.181 410.19 297.567 410.054L280.878 406.295C280.282 406.163 280.106 405.815 280.478 405.523L291.274 397.498C291.818 397.184 292.459 397.083 293.073 397.214L309.763 400.973C310.363 401.109 310.539 401.457 310.163 401.745L299.367 409.774Z" fill="#5967A8"/>
<path d="M322.339 414.948C321.797 415.265 321.156 415.366 320.544 415.232L303.858 411.473C303.258 411.337 303.086 410.989 303.478 410.701L314.282 402.672C314.824 402.358 315.465 402.258 316.077 402.393L332.767 406.147C333.371 406.283 333.535 406.627 333.143 406.919L322.339 414.948Z" fill="#5967A8"/>
<path d="M345.321 420.126C344.777 420.438 344.136 420.538 343.522 420.406L326.844 416.648C326.241 416.512 326.069 416.168 326.444 415.876L337.28 407.847C337.826 407.533 338.469 407.433 339.084 407.567L355.762 411.326C356.361 411.458 356.537 411.805 356.161 412.097L345.321 420.126Z" fill="#5967A8"/>
<path d="M368.292 425.296C367.752 425.613 367.113 425.715 366.501 425.58L349.815 421.821C349.211 421.685 349.043 421.342 349.415 421.05L360.263 413.021C360.808 412.705 361.452 412.605 362.067 412.741L378.752 416.499C379.356 416.635 379.516 416.979 379.124 417.267L368.292 425.296Z" fill="#5967A8"/>
<path d="M391.284 430.466C390.741 430.779 390.101 430.879 389.488 430.746L372.795 426.987C372.199 426.855 372.031 426.507 372.423 426.22L383.243 418.191C383.784 417.876 384.422 417.775 385.034 417.907L401.728 421.665C402.32 421.801 402.495 422.145 402.104 422.437L391.284 430.466Z" fill="#5967A8"/>
<path d="M414.264 435.64C413.72 435.956 413.078 436.056 412.465 435.92L395.779 432.165C395.175 432.03 394.979 431.682 395.379 431.39L406.199 423.361C406.744 423.047 407.387 422.947 408.002 423.081L424.692 426.839C425.292 426.975 425.464 427.319 425.072 427.611L414.264 435.64Z" fill="#5967A8"/>
<path d="M437.234 440.814C436.694 441.127 436.057 441.228 435.447 441.098L418.745 437.336C418.153 437.204 417.981 436.856 418.373 436.568L429.193 428.539C429.734 428.225 430.373 428.123 430.984 428.255L447.682 432.018C448.278 432.15 448.446 432.494 448.054 432.785L437.234 440.814Z" fill="#5967A8"/>
<path d="M450.67 447.104C450.349 447.045 450.02 447.045 449.699 447.104C449.413 447.142 449.139 447.244 448.899 447.404L438.063 455.429C437.883 455.565 437.803 455.725 437.875 455.877C437.941 455.967 438.024 456.042 438.121 456.098C438.217 456.153 438.324 456.188 438.435 456.2L442.789 457.184L428.599 467.716C428.415 467.852 428.343 468.012 428.419 468.16C428.486 468.249 428.57 468.324 428.667 468.38C428.764 468.436 428.871 468.471 428.982 468.484L440.226 471.015C440.547 471.082 440.878 471.09 441.202 471.039C441.496 471.005 441.778 470.902 442.025 470.739L467.756 451.646C467.936 451.514 468.008 451.358 467.928 451.206C467.862 451.115 467.777 451.038 467.679 450.982C467.581 450.925 467.472 450.89 467.36 450.878L450.67 447.104Z" fill="#5967A8"/>
<path d="M211.551 430.238C211.496 430.257 211.435 430.257 211.379 430.238L198.624 427.367C198.552 427.367 198.512 427.323 198.536 427.303L199.336 426.719C199.392 426.7 199.452 426.7 199.508 426.719L212.263 429.59C212.335 429.59 212.375 429.634 212.351 429.654L211.551 430.238Z" fill="#5967A8"/>
<path d="M279.815 503.507L218.638 490.108C217.93 489.952 217.93 489.396 218.638 488.876L244.065 470.163C244.812 469.629 245.731 469.392 246.644 469.496L307.821 482.899C308.529 483.05 308.529 483.606 307.821 484.126L282.39 502.843C281.643 503.374 280.726 503.611 279.815 503.507Z" fill="#5967A8"/>
<path d="M505.058 258.174L247.506 202.163C244.011 201.404 241.16 203.007 241.136 205.762L240.98 223.212C240.938 223.428 240.914 223.647 240.908 223.867L241.108 348.961C241.084 351.704 245.467 356.834 248.961 357.593L504.034 415.94C507.529 416.703 510.384 415.096 510.408 412.341L510.152 389.521C510.195 389.305 510.218 389.086 510.22 388.866L511.347 264.512C511.367 261.769 508.552 258.934 505.058 258.174Z" fill="#BFC8E6"/>
<path d="M418.925 522.604C418.782 522.607 418.64 522.576 418.511 522.514C418.382 522.452 418.269 522.361 418.181 522.248C418.028 522.053 417.958 521.806 417.987 521.561C418.015 521.315 418.14 521.09 418.333 520.936L429.569 512.059C429.665 511.975 429.776 511.91 429.897 511.87C430.019 511.83 430.147 511.815 430.274 511.826C430.401 511.837 430.525 511.874 430.637 511.935C430.749 511.996 430.848 512.079 430.927 512.179C431.006 512.279 431.064 512.395 431.096 512.518C431.129 512.642 431.136 512.77 431.117 512.897C431.098 513.023 431.054 513.144 430.986 513.252C430.919 513.361 430.83 513.454 430.725 513.527L419.493 522.404C419.331 522.532 419.131 522.602 418.925 522.604Z" fill="#5967A8"/>
<path d="M404.89 533.883C404.748 533.886 404.606 533.856 404.477 533.795C404.348 533.734 404.235 533.643 404.147 533.531C403.993 533.336 403.923 533.089 403.952 532.842C403.98 532.596 404.105 532.371 404.299 532.216L415.534 523.339C415.73 523.195 415.974 523.132 416.214 523.165C416.455 523.197 416.674 523.321 416.824 523.512C416.975 523.702 417.045 523.944 417.021 524.186C416.997 524.427 416.879 524.65 416.694 524.807L405.458 533.683C405.297 533.812 405.097 533.882 404.89 533.883Z" fill="#5967A8"/>
<path d="M420.634 129.004C424.276 128.643 426.936 125.399 426.575 121.758C426.215 118.117 422.971 115.457 419.33 115.817C415.688 116.177 413.028 119.421 413.389 123.063C413.749 126.704 416.993 129.364 420.634 129.004Z" stroke="#2D4973" stroke-width="2" stroke-linecap="round" stroke-linejoin="round"/>
<path d="M572.356 241.753C576.015 241.753 578.982 238.786 578.982 235.127C578.982 231.468 576.015 228.501 572.356 228.501C568.697 228.501 565.73 231.468 565.73 235.127C565.73 238.786 568.697 241.753 572.356 241.753Z" stroke="#2D4973" stroke-width="2" stroke-linecap="round" stroke-linejoin="round"/>
<path d="M124.148 255.82C124.353 252.167 121.557 249.039 117.904 248.834C114.251 248.629 111.123 251.425 110.918 255.078C110.713 258.731 113.509 261.859 117.162 262.064C120.815 262.269 123.943 259.473 124.148 255.82Z" stroke="#2D4973" stroke-width="2" stroke-linecap="round" stroke-linejoin="round"/>
<path opacity="0.5" d="M339.568 516.073C404.532 515.109 456.877 492.913 456.485 466.495C456.093 440.078 403.112 419.444 338.149 420.407C273.185 421.371 220.839 443.568 221.231 469.985C221.623 496.403 274.604 517.037 339.568 516.073Z" fill="#262F5A"/>
<path d="M402.019 465.132C453.121 414.03 453.121 331.177 402.019 280.075C350.917 228.973 268.064 228.973 216.962 280.075C165.86 331.177 165.86 414.03 216.962 465.132C268.064 516.234 350.917 516.234 402.019 465.132Z" fill="#BFC8E6"/>
<path d="M431.795 326.061C426.409 323.722 371.018 300.47 353.065 328.18C334.224 357.249 308.889 345.03 309.481 380.257C310.073 415.484 330.585 441.162 363.497 445.156C401.319 449.747 317.314 485.909 343.388 499C413.042 481.359 459.785 404.136 431.795 326.061Z" fill="#7585E6"/>
<path d="M267.946 248.506C267.946 248.506 324.061 259.586 321.126 280.318C318.191 301.05 305.084 294.057 283.756 300.922C262.428 307.788 256.678 296.472 241.728 311.442C226.777 326.413 195.281 308.683 195.281 308.683C195.281 308.683 213.802 266.667 267.946 248.506Z" fill="#7585E6"/>
<path d="M179.391 363.803C179.391 363.803 222.315 365.611 229.74 398.086C237.165 430.562 251.86 421.918 258.109 437.112C259.865 441.386 258.393 446.037 255.366 450.511C243.739 467.704 218.744 468.904 205.133 453.218C191.39 437.372 177.392 409.774 179.391 363.803Z" fill="#7585E6"/>
<g style="mix-blend-mode:multiply" opacity="0.68">
<path d="M402.412 464.738C351.527 516.054 268.678 516.41 217.357 465.537C353.343 491.583 423.972 378.226 401.625 279.695C452.941 330.568 453.297 413.417 402.412 464.738Z" fill="#BABCDC"/>
</g>
<path d="M422.824 307.23C416.964 297.057 409.78 287.706 401.46 279.424C401.46 279.424 401.46 279.424 401.46 279.448C368.956 245.433 311.778 232.29 267.778 248.26C246.77 254.681 230.26 266.565 218.316 278.084" stroke="#8194DE" stroke-width="5.12" stroke-linecap="round" stroke-linejoin="round"/>
<path d="M316.477 341.715C290.958 333.718 275.76 355.338 275.58 355.534C270.382 360.836 259.642 377.746 258.142 380.129C255.575 383.484 253.228 385.995 250.945 387.798C246.403 390.597 240.789 390.845 233.292 388.53C220.728 384.651 212.04 372.476 212.168 358.941C212.304 343.954 221.916 336.825 236.083 341.199C243.248 343.411 250.401 352.731 257.019 362.659C261.417 358.225 267.567 352.127 271.354 348.377C265.596 339.356 252.653 322.039 235.367 316.705C209.745 308.792 192.347 323.066 192.075 352.227C191.815 380.617 209.049 406.607 233.056 414.012C241.505 416.619 249.402 416.175 256.587 412.697L260.034 410.757C263.895 408.204 267.335 405.065 270.23 401.453C271.366 399.965 272.415 398.412 273.373 396.803L274.037 396.003C280.366 384.407 295.329 373.06 295.329 373.06C299.791 369.357 305.349 365.434 311.043 365.143C311.243 365.184 311.446 365.205 311.651 365.206C312.856 365.206 314.054 365.387 315.205 365.742C329.372 370.117 338.796 383.12 338.656 398.106C338.533 411.657 328.78 417.627 317.12 414.368C316.649 414.236 316.205 414.08 315.753 413.932C313.095 412.906 310.626 411.446 308.448 409.61L312.622 403.272L284.861 398.174L291.49 433.477L295.888 426.508C302.286 433.277 309.004 437.543 316.901 439.983C328.94 443.701 339.368 441.722 346.809 435.252C354.251 428.783 358.757 417.915 358.889 403.696C359.137 374.535 342.095 349.752 316.477 341.715Z" fill="#9BA7F2"/>
<path d="M284.867 398.154L312.629 403.252L300.929 420.482" stroke="#8194DE" stroke-width="2.42" stroke-linecap="round" stroke-linejoin="round"/>
<path d="M65.938 393.336C66.8776 391.653 71.6678 382.708 71.6198 377.398C71.5878 373.919 72.7674 362.204 71.5159 357.382C74.0749 362.768 72.5275 368.445 74.6507 372.54C77.2977 377.646 81.2482 383.336 79.9967 388.934C77.8415 398.558 83.3115 405.68 90.3169 408.127C74.9226 406.923 64.8624 395.263 65.938 393.336Z" fill="#E3E8F9"/>
<path d="M59.8286 448.755H85.9629V430.874H59.8286V448.755Z" fill="#3B4F94"/>
<path d="M150.162 355.754C150.893 357.185 150.541 358.801 149.362 359.353L144.488 360.316C143.32 360.86 141.417 357.845 143.396 356.318L146.731 354.854C147.166 354.656 147.631 354.532 148.106 354.486C149.01 354.402 149.586 354.626 150.162 355.754Z" fill="#DE5840"/>
<path d="M88.6562 357.322L124.675 367.518L141.437 356.358L144.967 359.089C145.612 359.589 146.056 360.304 146.219 361.103C146.382 361.903 146.253 362.735 145.855 363.447L131.748 379.485C129.285 383.884 123.899 384.06 118.953 382.948L90.5635 375.751L88.6562 357.322Z" fill="#C5CCEB"/>
<path d="M29.986 533.536C39.1226 529.181 54.8248 528.869 65.0609 532.844C66.6066 533.428 68.0819 534.183 69.4593 535.095C75.9169 533.272 84.6976 533.496 90.7593 535.831C97.9567 538.63 98.5804 543.368 92.1588 546.431C85.9891 549.37 75.569 549.682 68.3837 547.231C67.9599 547.471 67.516 547.706 67.0362 547.934C57.8996 552.293 42.1975 552.601 31.9613 548.63C21.7251 544.66 20.8454 537.894 29.986 533.536Z" fill="#D7DDF0"/>
<path d="M94.7979 538.866L87.7085 530.721C87.0333 529.938 86.2034 529.303 85.271 528.856C84.3385 528.41 83.3238 528.161 82.2905 528.126C81.5474 528.099 80.8033 528.139 80.0674 528.245C79.655 528.273 79.2672 528.452 78.9776 528.746C78.6879 529.041 78.5166 529.432 78.496 529.845L78.2001 531.48C77.8002 534.227 77.4004 535.127 79.2037 536.055L89.9077 541.553C92.0869 543.212 98.4485 542.488 94.7979 538.866Z" fill="#3B4F94"/>
<path d="M79.7234 528.681C79.8673 530.529 81.3827 532.12 83.2221 532.04C84.1337 532 84.8215 531.512 85.1054 529.833C86.7247 510.888 90.1595 495.222 91.6869 477.513C93.3983 457.632 92.2747 463.454 94.8537 432.969L76.9204 428.063C78.6358 450.271 77.7201 478.072 77.7201 478.072C70.8667 498.117 77.8561 504.658 79.7234 528.681Z" fill="#DE5840"/>
<path d="M68.4355 414.404L75.8608 468.32C76.1247 473.362 77.3762 476.021 75.7328 481.915C73.7336 489.196 73.1178 503.991 77.4762 525.766C80.1792 528.218 83.226 528.345 86.5688 526.494C86.5688 526.494 93.8381 479.036 94.6698 469.851C95.5014 460.667 97.9965 411.073 97.9965 411.073L68.4355 414.404Z" fill="#3B4F94"/>
<path d="M28.9922 539.21L37.637 532.74C38.4624 532.118 39.4073 531.674 40.4126 531.434C41.4179 531.195 42.4618 531.166 43.4788 531.349C44.2118 531.479 44.9317 531.674 45.63 531.932C46.0273 532.048 46.3685 532.305 46.5895 532.655C46.8104 533.005 46.8958 533.423 46.8296 533.832L46.7696 535.495C46.5857 538.262 46.7696 539.23 44.8263 539.753L33.1867 542.872C30.7236 544.028 24.6578 541.981 28.9922 539.21Z" fill="#3B4F94"/>
<path d="M45.8717 532.428C45.3399 534.207 43.5246 535.443 41.7452 534.975C40.8616 534.743 40.3058 534.127 40.3657 532.42C42.7648 513.559 42.7209 497.525 44.96 479.892C47.4791 460.095 47.3591 466.025 51.2577 435.684L69.8187 434.665C63.4611 456.013 58.491 483.382 58.491 483.382C60.97 504.419 52.7771 509.345 45.8717 532.428Z" fill="#DE5840"/>
<path d="M79.0281 424.992L63.8977 473.546C62.5742 478.42 60.399 483.583 60.7349 488.677C61.2307 496.214 57.5361 509.705 48.6794 530.073C45.5206 531.9 42.5137 531.385 39.6348 528.874C39.6348 528.874 44.6169 482.151 45.7405 472.998C46.8641 463.846 52.7779 413.641 52.7779 413.641L79.0281 424.992Z" fill="#3B4F94"/>
<path d="M84.0674 356.134C81.5723 356.11 79.2692 355.798 78.6054 355.334C74.8108 352.791 70.3165 354.567 69.8367 354.882L57.2294 358.969C41.3153 363.303 43.8504 374.203 43.4785 381.117C43.4785 381.117 49.9521 389.945 50.212 396.455C50.4359 402.085 53.6707 414.724 52.7431 416.555C52.0473 417.927 51.9673 426.328 58.8328 428.447C64.8985 430.318 74.6629 435.852 79.8689 435.696C107.239 434.897 99.7855 420.61 99.3297 411.305C99.0418 405.452 97.8222 388.166 97.8542 383.516C97.8862 378.866 99.9894 367.434 92.6921 360.104C91.6405 359.249 88.3658 356.326 84.0674 356.134Z" fill="#C5CCEB"/>
<path d="M72.6671 360.264L73.2469 359.765C74.7784 360.216 76.1299 360.124 76.3977 358.793L77.9132 351.272C78.1811 349.936 77.1455 348.473 75.614 348.025L75.1582 347.893C73.6268 347.441 69.3844 347.333 69.1165 348.665L68.2208 356.662C67.9729 357.989 71.1357 359.817 72.6671 360.264Z" fill="#DE5840"/>
<path d="M77.0943 355.302C75.9864 355.093 74.9387 354.64 74.0268 353.977C73.1148 353.314 72.3612 352.457 71.8203 351.468C71.8203 351.468 73.7476 356.502 76.7185 357.321L77.0943 355.302Z" fill="#89502C"/>
<path d="M70.7961 339.228C72.0636 337.229 73.9109 336.957 75.5943 338.189C77.2857 337.541 79.2729 338.664 80.6804 341.387C82.6397 345.166 83.4554 351.076 81.6081 353.971C80.8084 355.234 78.953 355.922 77.7935 355.906C76.7139 355.886 73.9189 354.894 72.8873 354.459C69.1967 352.899 70.1083 353.699 68.8048 351.184C66.8336 347.393 68.9448 342.123 70.7961 339.228Z" fill="#DE5840"/>
<path d="M71.0477 340.952C69.5323 344.458 70.1481 350.524 69.9001 351.608C69.9001 351.608 64.3022 347.417 64.7021 344.25C66.1256 333.702 72.2033 339.588 72.2033 339.588L71.0477 340.952Z" fill="#3B4F94"/>
<path d="M71.1201 335.618C68.8929 336.069 67.5014 337.681 66.7217 340.564C66.6218 340.928 65.7861 342.563 65.7461 342.887L67.1816 342.527C66.8617 345.022 67.6094 341.963 70.1205 342.527C74.067 341.227 77.4937 338.321 81.8681 344.454C82.2679 344.994 83.7394 344.154 83.2356 342.915C81.2843 338.117 76.838 336.277 75.3865 335.861L74.6628 335.722C73.5024 335.466 72.3037 335.436 71.1321 335.634" fill="#3B4F94"/>
<path d="M78.9852 353.127C79.8609 352.975 80.4567 351.955 80.3207 350.848L77.1699 351.399C77.2939 352.507 78.1136 353.279 78.9852 353.127Z" fill="white"/>
<path d="M66.9745 349.316C66.9159 349.889 67.0808 350.462 67.4348 350.916C67.7887 351.369 68.3043 351.669 68.8738 351.752C69.1506 351.793 69.433 351.778 69.7039 351.707C69.9748 351.636 70.2285 351.512 70.4498 351.34C70.671 351.168 70.8552 350.954 70.9912 350.709C71.1271 350.464 71.2121 350.195 71.2409 349.916C71.3005 349.344 71.1359 348.77 70.7818 348.316C70.4277 347.862 69.9115 347.563 69.3416 347.481C69.0647 347.44 68.7823 347.455 68.5114 347.525C68.2406 347.596 67.9868 347.721 67.7656 347.893C67.5443 348.064 67.3602 348.279 67.2242 348.523C67.0882 348.768 67.0033 349.038 66.9745 349.316Z" fill="#DE5840"/>
<path d="M76.9168 355.77C77.7129 355.976 78.5543 355.92 79.3159 355.61C79.3159 355.61 80.2955 360.592 78.4722 362.06L75.1895 359.865C75.1895 359.865 76.9728 358.013 76.9168 355.77Z" fill="white"/>
<path d="M75.0418 359.769L72.8026 363.087C72.8026 363.087 64.9255 360.576 64.6816 356.658L68.1723 355.17C68.1723 355.17 71.9709 360.017 75.0418 359.769Z" fill="white"/>
<path d="M47.6336 421.714C48.0895 418.515 48.2774 402.177 48.0535 396.551C47.9055 392.864 47.5417 382.128 47.0898 376.674C49.7409 381.84 51.6481 383.8 51.92 385.071C54.0592 395.067 54.5351 400.533 59.3013 406.291C68.4499 417.335 70.857 424.429 79.8696 435.708C58.8415 435.66 54.9629 434.537 50.9964 432.234C46.0662 429.371 47.3977 423.341 47.6336 421.714Z" fill="#859CD6"/>
<path d="M97.7324 375.295L98.1523 381.912" stroke="#859CD6" stroke-width="2.94" stroke-linecap="round" stroke-linejoin="round"/>
<path d="M50.8069 427.107C49.2075 427.051 47.92 425.908 47.964 424.6L49.3275 419.726C49.3715 418.399 49.3875 417.431 50.9989 417.483C52.5983 417.539 53.4979 418.343 53.398 420.742L53.186 424.48C53.165 424.968 53.0637 425.449 52.8861 425.904C52.5383 426.744 52.0745 427.151 50.8069 427.107Z" fill="#DE5840"/>
<path d="M48.051 363.819C48.051 363.819 29.09 379.361 24.1559 394.072C19.2217 408.782 48.7347 421.633 48.7347 421.633L53.209 418.435C53.3669 418.314 53.4954 418.16 53.585 417.983C53.6746 417.805 53.7229 417.61 53.7264 417.412C53.7298 417.213 53.6883 417.017 53.605 416.836C53.5216 416.656 53.3986 416.497 53.245 416.371C49.1825 412.929 37.139 402.377 38.8184 399.838C41.6174 395.599 60.4343 377.162 60.4343 377.162L48.051 363.819Z" fill="#C5CCEB"/>
<path d="M51.6777 386.95L53.0452 377.294" stroke="#859CD6" stroke-width="2.94" stroke-linecap="round" stroke-linejoin="round"/>
</svg>
