<svg width="90" height="113" viewBox="0 0 90 113" fill="none" xmlns="http://www.w3.org/2000/svg">
<path d="M19.3807 75.1641H7.34375" stroke="white" stroke-width="3" stroke-linecap="round" stroke-linejoin="round"/>
<path d="M49.965 11.228H7.34375" stroke="white" stroke-width="3" stroke-linecap="round" stroke-linejoin="round"/>
<path d="M19.3802 89.7931H8.66868C6.90004 89.7931 5.20383 89.0906 3.95321 87.8399C2.70259 86.5893 2 84.8931 2 83.1245V8.66868C2 6.90004 2.70259 5.20383 3.95321 3.95321C5.20383 2.70259 6.90004 2 8.66868 2H48.6808C50.4494 2 52.1456 2.70259 53.3962 3.95321C54.6469 5.20383 55.3494 6.90004 55.3494 8.66868V63.6853" stroke="white" stroke-width="3" stroke-linecap="round" stroke-linejoin="round"/>
<path d="M23.374 6.66846H33.9356" stroke="white" stroke-width="3" stroke-linecap="round" stroke-linejoin="round"/>
<path d="M33.234 71.7963C33.234 72.5019 33.0248 73.1917 32.6328 73.7784C32.2407 74.3651 31.6836 74.8224 31.0316 75.0925C30.3797 75.3625 29.6623 75.4331 28.9703 75.2955C28.2782 75.1578 27.6425 74.818 27.1435 74.319C26.6446 73.8201 26.3049 73.1844 26.1672 72.4923C26.0295 71.8002 26.1002 71.0828 26.3702 70.4309C26.6402 69.779 27.0975 69.2218 27.6842 68.8298C28.2709 68.4378 28.9607 68.2285 29.6664 68.2285C30.6126 68.2285 31.52 68.6044 32.1891 69.2734C32.8582 69.9425 33.234 70.8501 33.234 71.7963Z" fill="#FFC524"/>
<path d="M70.4286 63.6519H24.8566C21.8319 63.6519 19.3799 66.1038 19.3799 69.1285V93.4525C19.3799 96.4772 21.8319 98.9291 24.8566 98.9291H70.4286C73.4533 98.9291 75.9053 96.4772 75.9053 93.4525V69.1285C75.9053 66.1038 73.4533 63.6519 70.4286 63.6519Z" stroke="white" stroke-width="3" stroke-linecap="round" stroke-linejoin="round"/>
<path d="M75.9059 75.6895H84.1584C85.1651 75.6917 86.1297 76.0931 86.8408 76.8057C87.5518 77.5183 87.9511 78.484 87.9511 79.4906V107.199C87.9511 108.206 87.5518 109.171 86.8408 109.884C86.1297 110.596 85.1651 110.998 84.1584 111H35.2185C34.2119 110.998 33.2472 110.596 32.5361 109.884C31.8251 109.171 31.4258 108.206 31.4258 107.199V98.9548" stroke="white" stroke-width="3" stroke-linecap="round" stroke-linejoin="round"/>
<path d="M67.3039 68.2285H61.744C60.6206 68.2285 59.71 69.1391 59.71 70.2624V73.3384C59.71 74.4617 60.6206 75.3723 61.744 75.3723H67.3039C68.4272 75.3723 69.3379 74.4617 69.3379 73.3384V70.2624C69.3379 69.1391 68.4272 68.2285 67.3039 68.2285Z" fill="#35B4CF"/>
<path d="M12.0029 35.4517V47.2635" stroke="white" stroke-width="3" stroke-linecap="round" stroke-linejoin="round"/>
<path d="M12.0029 35.4517H16.2625C17.1469 35.4517 17.995 35.8029 18.6203 36.4282C19.2456 37.0535 19.5969 37.9017 19.5969 38.786C19.5969 39.6703 19.2456 40.5184 18.6203 41.1437C17.995 41.769 17.1469 42.1203 16.2625 42.1203H12.0029" stroke="white" stroke-width="3" stroke-linecap="round" stroke-linejoin="round"/>
<path d="M23.7822 47.2635L27.6834 35.4517L32.2598 47.2635" stroke="white" stroke-width="3" stroke-linecap="round" stroke-linejoin="round"/>
<path d="M25.0654 43.3789H30.7588" stroke="white" stroke-width="3" stroke-linecap="round" stroke-linejoin="round"/>
<path d="M40.6367 47.2637V40.4033" stroke="white" stroke-width="3" stroke-linecap="round" stroke-linejoin="round"/>
<path d="M35.7012 35.4517L40.6526 40.4031L45.3041 35.7434" stroke="white" stroke-width="3" stroke-linecap="round" stroke-linejoin="round"/>
<path d="M30.291 89.7935H67.8773" stroke="white" stroke-width="3" stroke-linecap="round" stroke-linejoin="round" stroke-dasharray="0.01 8"/>
<path d="M42.1963 105.398H80.0828" stroke="white" stroke-width="3" stroke-linecap="round" stroke-linejoin="round" stroke-dasharray="0.01 8"/>
<path d="M35.6775 68.2282C35.0437 68.2327 34.4224 68.4053 33.877 68.7283C34.5268 69.6207 34.8769 70.6962 34.8769 71.8001C34.8769 72.904 34.5268 73.9794 33.877 74.8718C34.3504 75.1411 34.8794 75.2985 35.4231 75.3317C35.9669 75.365 36.511 75.2734 37.0138 75.0638C37.5166 74.8542 37.9647 74.5323 38.3238 74.1227C38.6829 73.7131 38.9434 73.2266 39.0854 72.7007C39.2274 72.1748 39.2471 71.6233 39.1429 71.0886C39.0388 70.5539 38.8137 70.0502 38.4847 69.616C38.1557 69.1818 37.7317 68.8288 37.2451 68.5839C36.7585 68.339 36.2222 68.2087 35.6775 68.2031V68.2282Z" fill="#35B4CF"/>
</svg>
