<svg width="75" height="120" viewBox="0 0 75 120" fill="none" xmlns="http://www.w3.org/2000/svg">
<path d="M66.5115 98.8496H8.19141" stroke="white" stroke-width="3" stroke-linecap="round" stroke-linejoin="round"/>
<path d="M8.19141 14.1904H64.6315" stroke="white" stroke-width="3" stroke-linecap="round" stroke-linejoin="round"/>
<path d="M66.4399 118.22H8.21997C6.57032 118.22 4.98825 117.565 3.82178 116.398C2.6553 115.232 2 113.65 2 112V9C2 7.14348 2.73742 5.36305 4.05017 4.05029C5.36293 2.73754 7.14348 2 9 2H65.53C67.3865 2 69.167 2.73754 70.4797 4.05029C71.7925 5.36305 72.53 7.14348 72.53 9V112C72.533 113.628 71.8963 115.192 70.7572 116.356C69.6182 117.519 68.0678 118.189 66.4399 118.22V118.22Z" stroke="white" stroke-width="3" stroke-linecap="round" stroke-linejoin="round"/>
<path d="M41.8106 108.64C41.8106 107.758 41.549 106.895 41.059 106.162C40.5689 105.428 39.8723 104.857 39.0574 104.519C38.2424 104.182 37.3456 104.093 36.4805 104.265C35.6153 104.437 34.8207 104.862 34.1969 105.486C33.5732 106.11 33.1484 106.904 32.9763 107.77C32.8042 108.635 32.8925 109.531 33.2301 110.346C33.5677 111.161 34.1392 111.858 34.8727 112.348C35.6061 112.838 36.4685 113.1 37.3506 113.1C38.5335 113.1 39.6679 112.63 40.5043 111.793C41.3407 110.957 41.8106 109.823 41.8106 108.64V108.64Z" stroke="white" stroke-width="3" stroke-linecap="round" stroke-linejoin="round"/>
<path d="M30.3516 8.14062H44.3516" stroke="white" stroke-width="3" stroke-linecap="round" stroke-linejoin="round"/>
<path d="M40.8398 19.6406H7.21985V69.4707L10.9099 56.5306C13.1516 48.6804 16.9589 41.365 22.1027 35.0251C27.2464 28.6853 33.6201 23.452 40.8398 19.6406Z" fill="#FFC524"/>
<path d="M10.2207 83.4102L32.3511 60.981L42.0903 70.8393L64.2207 48.4102" stroke="white" stroke-width="3" stroke-linecap="round" stroke-linejoin="round"/>
<path d="M54.2207 48.4102H64.2207V58.4102" stroke="white" stroke-width="3" stroke-linecap="round" stroke-linejoin="round"/>
</svg>
