<svg width="111" height="109" viewBox="0 0 111 109" fill="none" xmlns="http://www.w3.org/2000/svg">
<path d="M34.1484 55.4073C35.7066 57.4708 37.7659 59.1021 40.1314 60.1465C42.4968 61.1908 45.0899 61.6135 47.6646 61.3746C50.2393 61.1357 52.7103 60.2431 54.8432 58.7814C56.9761 57.3196 58.7001 55.3372 59.852 53.0222C61.0039 50.7072 61.5452 48.1363 61.4248 45.5534C61.3044 42.9705 60.5262 40.4611 59.164 38.2633C57.8017 36.0655 55.9006 34.2522 53.641 32.9952C51.3813 31.7382 48.838 31.0794 46.2523 31.0811" stroke="white" stroke-width="3" stroke-linecap="round" stroke-linejoin="round"/>
<path d="M47.4199 46.2519C47.4214 46.483 47.3544 46.7094 47.2272 46.9024C47.0999 47.0953 46.9182 47.2461 46.7051 47.3356C46.492 47.4252 46.257 47.4495 46.0301 47.4053C45.8032 47.3612 45.5944 47.2507 45.4304 47.0878C45.2664 46.9249 45.1546 46.7169 45.1089 46.4903C45.0633 46.2637 45.0859 46.0287 45.174 45.815C45.2621 45.6013 45.4116 45.4186 45.6037 45.29C45.7958 45.1614 46.0217 45.0928 46.2529 45.0928C46.561 45.0928 46.8566 45.2146 47.0753 45.4318C47.2939 45.6489 47.4178 45.9437 47.4199 46.2519V46.2519Z" stroke="white" stroke-width="3" stroke-linecap="round" stroke-linejoin="round"/>
<path d="M46.2534 17.6519V46.252L23.6699 63.3394" stroke="white" stroke-width="3" stroke-linecap="round" stroke-linejoin="round"/>
<path d="M59.0028 88.6203C49.6681 91.4244 39.6685 91.0672 30.5578 87.604C21.4471 84.1409 13.7352 77.7657 8.62018 69.4689C3.50517 61.1722 1.27346 51.4184 2.27177 41.7229C3.27009 32.0274 7.44254 22.9331 14.1409 15.8527C20.8392 8.77236 29.6884 4.10243 39.3137 2.56844C48.939 1.03446 58.8014 2.72237 67.3688 7.36981C75.9362 12.0173 82.7289 19.3641 86.6915 28.2689C90.6542 37.1738 91.565 47.1381 89.2824 56.6138" stroke="white" stroke-width="3" stroke-linecap="round" stroke-linejoin="round"/>
<path d="M2 46.252H7.98504" stroke="white" stroke-width="3" stroke-linecap="round" stroke-linejoin="round"/>
<path d="M84.5195 46.252H90.5125" stroke="white" stroke-width="3" stroke-linecap="round" stroke-linejoin="round"/>
<path d="M46.252 2V7.98494" stroke="white" stroke-width="3" stroke-linecap="round" stroke-linejoin="round"/>
<path d="M46.252 84.5195V90.5123" stroke="white" stroke-width="3" stroke-linecap="round" stroke-linejoin="round"/>
<path d="M105.841 84.5332C108.39 71.2935 99.7243 58.4937 86.4846 55.9441C73.2449 53.3945 60.4452 62.0608 57.8957 75.3004C55.3461 88.5401 64.0121 101.34 77.2518 103.889C90.4915 106.439 103.291 97.7729 105.841 84.5332Z" stroke="white" stroke-width="3" stroke-linecap="round" stroke-linejoin="round"/>
<path d="M66.6815 77.4547C66.6022 77.0015 66.6198 76.5367 66.7333 76.0908C66.8467 75.6449 67.0535 75.2282 67.3397 74.8679C67.6259 74.5077 67.985 74.2122 68.3937 74.001C68.8024 73.7897 69.2513 73.6674 69.7107 73.6421C70.1701 73.6169 70.6297 73.6892 71.059 73.8545C71.4884 74.0197 71.8778 74.274 72.2018 74.6007C72.5258 74.9274 72.7769 75.3191 72.9385 75.7498C73.1002 76.1806 73.1686 76.6408 73.1395 77.0999C72.8635 81.5788 65.8613 82.1702 66.5315 86.862H72.9424" stroke="white" stroke-width="3" stroke-linecap="round" stroke-linejoin="round"/>
<path d="M83.399 86.8618V73.0151H80.9782L77.209 80.8453V82.8639H79.9531" stroke="white" stroke-width="3" stroke-linecap="round" stroke-linejoin="round"/>
<path d="M90.9531 86.8612V81.2074C90.9531 80.3708 91.2855 79.5686 91.877 78.9771C92.4685 78.3856 93.2707 78.0532 94.1073 78.0532C94.9438 78.0532 95.7462 78.3856 96.3377 78.9771C96.9292 79.5686 97.2614 80.3708 97.2614 81.2074V86.8612" stroke="white" stroke-width="3" stroke-linecap="round" stroke-linejoin="round"/>
<path d="M90.9531 81.76V73.0151" stroke="white" stroke-width="3" stroke-linecap="round" stroke-linejoin="round"/>
<path d="M19.0251 44.7381C18.8669 47.6378 19.1704 50.5443 19.9241 53.3489L24.0955 50.4077C23.7664 48.6273 23.6498 46.814 23.7484 45.0061C23.9903 40.6965 25.4659 36.5472 27.9991 33.0522C30.5322 29.5573 34.0163 26.8639 38.0367 25.2928V20.2856C32.7596 21.9488 28.114 25.1793 24.7179 29.5473C21.3218 33.9154 19.3361 39.2139 19.0251 44.7381Z" fill="#FFC524"/>
</svg>
