<svg width="141" height="101" viewBox="0 0 141 101" fill="none" xmlns="http://www.w3.org/2000/svg">
<path d="M32.7168 31.6483V9.41016H134.077V70.5189H68.5315" stroke="white" stroke-width="3" stroke-linecap="round" stroke-linejoin="round"/>
<path d="M135.309 9.40998H31.4539C30.4723 9.41008 29.53 9.0239 28.8307 8.33497C28.1315 7.64604 27.7313 6.70969 27.7168 5.72817V5.72817C27.7168 5.23785 27.8136 4.75234 28.0015 4.29946C28.1894 3.84657 28.4647 3.43517 28.8119 3.08889C29.159 2.74261 29.5711 2.46821 30.0244 2.28142C30.4778 2.09462 30.9636 1.99908 31.4539 2.00029H135.272C135.763 1.99411 136.25 2.08632 136.705 2.27147C137.161 2.45662 137.574 2.73098 137.921 3.07838C138.269 3.42578 138.543 3.83921 138.728 4.29429C138.914 4.74936 139.006 5.23691 139 5.72817C138.988 6.70251 138.594 7.63339 137.905 8.32155C137.215 9.0097 136.283 9.40043 135.309 9.40998V9.40998Z" stroke="white" stroke-width="3" stroke-linecap="round" stroke-linejoin="round"/>
<path d="M72.875 53.2236L93.245 32.5787L102.209 41.6527L122.579 21.0078" stroke="white" stroke-width="3" stroke-linecap="round" stroke-linejoin="round"/>
<path d="M113.375 21.0078H122.58V30.2123" stroke="white" stroke-width="3" stroke-linecap="round" stroke-linejoin="round"/>
<path d="M32.2185 98.933C48.9077 98.933 62.4368 85.4037 62.4368 68.7146C62.4368 52.0254 48.9077 38.4961 32.2185 38.4961C15.5293 38.4961 2 52.0254 2 68.7146C2 85.4037 15.5293 98.933 32.2185 98.933Z" stroke="white" stroke-width="3" stroke-linecap="round" stroke-linejoin="round"/>
<path d="M32.2184 44.0186C31.0696 44.0222 29.9225 44.1053 28.7852 44.2672C34.6807 45.0941 40.0787 48.0236 43.985 52.516C47.8912 57.0084 50.0425 62.7612 50.0425 68.7144C50.0425 74.6676 47.8912 80.4203 43.985 84.9127C40.0787 89.4051 34.6807 92.3346 28.7852 93.1616C32.1442 93.6417 35.5662 93.4244 38.8375 92.5233C42.1089 91.6222 45.1595 90.0566 47.7989 87.9241C50.4384 85.7917 52.6101 83.1383 54.1785 80.1293C55.7469 77.1203 56.6784 73.8204 56.9149 70.4354C57.1514 67.0504 56.6879 63.6531 55.5531 60.4552C54.4183 57.2574 52.6365 54.3277 50.3192 51.849C48.0018 49.3703 45.1986 47.3957 42.0843 46.0485C38.97 44.7012 35.6116 44.0103 32.2184 44.0186Z" fill="#FFC524"/>
<path d="M25.9316 75.8393C25.9316 77.6628 26.6559 79.4117 27.9454 80.7011C29.2348 81.9906 30.9838 82.715 32.8074 82.715C34.631 82.715 36.3797 81.9906 37.6692 80.7011C38.9587 79.4117 39.6831 77.6628 39.6831 75.8393C39.6831 72.047 36.8666 70.3165 32.8074 68.9635C29.1992 67.7853 25.9316 65.8892 25.9316 62.0877C25.9316 60.2642 26.6559 58.5153 27.9454 57.2258C29.2348 55.9363 30.9838 55.2119 32.8074 55.2119C34.631 55.2119 36.3797 55.9363 37.6692 57.2258C38.9587 58.5153 39.6831 60.2642 39.6831 62.0877" stroke="white" stroke-width="3" stroke-linecap="round" stroke-linejoin="round"/>
<path d="M32.8086 51.3828V55.2579" stroke="white" stroke-width="3" stroke-linecap="round" stroke-linejoin="round"/>
<path d="M32.8086 82.7148V86.5992" stroke="white" stroke-width="3" stroke-linecap="round" stroke-linejoin="round"/>
</svg>
