<svg width="108" height="92" viewBox="0 0 108 92" fill="none" xmlns="http://www.w3.org/2000/svg">
<path d="M39.6691 66.4636H3.65143C3.21344 66.4636 2.79342 66.2896 2.48372 65.9799C2.17401 65.6702 2 65.2501 2 64.8121V3.65143C2 3.21344 2.17401 2.79342 2.48372 2.48372C2.79342 2.17401 3.21344 2 3.65143 2H104.579C105.017 2 105.437 2.17401 105.746 2.48372C106.056 2.79342 106.23 3.21344 106.23 3.65143V64.8121C106.23 65.2501 106.056 65.6702 105.746 65.9799C105.437 66.2896 105.017 66.4636 104.579 66.4636H68.5857" stroke="white" stroke-width="3" stroke-linecap="round" stroke-linejoin="round"/>
<path d="M54.1428 80.9554C62.137 80.9554 68.6175 74.4749 68.6175 66.4807C68.6175 58.4865 62.137 52.0059 54.1428 52.0059C46.1486 52.0059 39.668 58.4865 39.668 66.4807C39.668 74.4749 46.1486 80.9554 54.1428 80.9554Z" stroke="white" stroke-width="3" stroke-linecap="round" stroke-linejoin="round"/>
<path d="M54.1436 72.8463C57.6596 72.8463 60.5099 69.996 60.5099 66.4801C60.5099 62.9641 57.6596 60.1138 54.1436 60.1138C50.6276 60.1138 47.7773 62.9641 47.7773 66.4801C47.7773 69.996 50.6276 72.8463 54.1436 72.8463Z" fill="#FFC524"/>
<path d="M68.661 50.9731C66.7548 49.0667 64.4918 47.5543 62.0011 46.5225C59.5104 45.4908 56.8409 44.9597 54.145 44.9597C51.449 44.9597 48.7795 45.4908 46.2888 46.5225C43.7981 47.5543 41.5351 49.0667 39.6289 50.9731" stroke="white" stroke-width="3" stroke-linecap="round" stroke-linejoin="round"/>
<path d="M58.875 80.4434L68.1395 89.7161V80.4764H77.3792L68.1148 71.2036" stroke="white" stroke-width="3" stroke-linecap="round" stroke-linejoin="round"/>
<path d="M49.4207 80.4434L40.148 89.7161V80.4764H30.9082L40.181 71.2036" stroke="white" stroke-width="3" stroke-linecap="round" stroke-linejoin="round"/>
<path d="M76.5634 28.9019H32.1895" stroke="white" stroke-width="3" stroke-linecap="round" stroke-linejoin="round"/>
<path d="M24.3359 18.5393H84.3406" stroke="white" stroke-width="3" stroke-linecap="round" stroke-linejoin="round"/>
</svg>
