<svg width="106" height="98" viewBox="0 0 106 98" fill="none" xmlns="http://www.w3.org/2000/svg">
<path d="M2 86.1353L23.2643 66.6364C25.1799 64.8787 27.7063 63.9385 30.305 64.0162C32.9037 64.0939 35.3692 65.1833 37.1764 67.0523L64.8358 95.6533" stroke="white" stroke-width="3" stroke-linecap="round" stroke-linejoin="round"/>
<path d="M76.8799 47.7891C77.699 48.2705 78.4444 48.8678 79.0927 49.5624L104.029 76.1311" stroke="white" stroke-width="3" stroke-linecap="round" stroke-linejoin="round"/>
<path d="M41.5 71.5257L64.9145 49.1706C65.6426 48.4724 66.4734 47.8903 67.3782 47.4443" stroke="white" stroke-width="3" stroke-linecap="round" stroke-linejoin="round"/>
<path d="M34.3594 29.9458V64.4946" stroke="white" stroke-width="3" stroke-linecap="round" stroke-linejoin="round"/>
<path d="M41.5 71.5255V41.771" stroke="white" stroke-width="3" stroke-linecap="round" stroke-linejoin="round"/>
<path d="M48.6475 41.771V64.4949" stroke="white" stroke-width="3" stroke-linecap="round" stroke-linejoin="round"/>
<path d="M48.6475 29.9458V41.7707" stroke="white" stroke-width="3" stroke-linecap="round" stroke-linejoin="round"/>
<path d="M46.2551 14.2648C48.8812 11.6387 48.8813 7.38093 46.2551 4.75482C43.629 2.12871 39.3712 2.12876 36.7451 4.75487C34.119 7.38098 34.1191 11.6386 36.7452 14.2647C39.3713 16.8909 43.629 16.891 46.2551 14.2648Z" stroke="white" stroke-width="3" stroke-linecap="round" stroke-linejoin="round"/>
<path d="M28.7012 41.7712V24.7832C28.7001 24.2086 28.8123 23.6394 29.0314 23.1082C29.2506 22.5771 29.5724 22.0943 29.9784 21.6877C30.3843 21.281 30.8665 20.9584 31.3973 20.7382C31.9281 20.5181 32.497 20.4048 33.0716 20.4048H49.9341C50.5087 20.4048 51.0778 20.5181 51.6086 20.7382C52.1393 20.9584 52.6214 21.281 53.0273 21.6877C53.4333 22.0943 53.7551 22.5771 53.9742 23.1082C54.1934 23.6394 54.3057 24.2086 54.3047 24.7832V40.1313" stroke="white" stroke-width="3" stroke-linecap="round" stroke-linejoin="round"/>
<path d="M34.3594 41.771H48.6481" stroke="white" stroke-width="3" stroke-linecap="round" stroke-linejoin="round"/>
<path d="M41.5 20.4048V28.2044" stroke="white" stroke-width="3" stroke-linecap="round" stroke-linejoin="round"/>
<path d="M86.1625 35.156H96.4965V23.0016H88.383C87.85 23.0026 87.322 22.8984 86.8294 22.6948C86.3367 22.4913 85.889 22.1926 85.5121 21.8157C85.1352 21.4388 84.8365 20.9911 84.633 20.4985C84.4295 20.0058 84.3253 19.4779 84.3263 18.9448H72.1719V31.1228H84.3499V26.0303" stroke="white" stroke-width="3" stroke-linecap="round" stroke-linejoin="round"/>
<path d="M72.1572 31.0996V53.133" stroke="white" stroke-width="3" stroke-linecap="round" stroke-linejoin="round"/>
<path d="M30.0052 68.7085C28.6868 68.7105 27.4176 69.2092 26.4506 70.1052L14.4688 81.0905C16.2029 83.1385 17.8821 85.2728 20.4166 85.9398C22.5352 86.489 24.7792 85.8377 26.7958 84.9903C28.8124 84.1429 30.7741 83.0601 32.9398 82.707C37.1221 82.04 41.1708 84.1664 45.204 85.4925C46.6109 85.9493 48.0478 86.3084 49.5041 86.5675L33.8109 70.3249C33.3187 69.8123 32.7276 69.4047 32.0735 69.1269C31.4194 68.8491 30.7158 68.7067 30.0052 68.7085Z" fill="#FFC524"/>
</svg>
