<svg width="115" height="117" viewBox="0 0 115 117" fill="none" xmlns="http://www.w3.org/2000/svg">
<path d="M30.5672 103.847H19.4141V115H30.5672V103.847Z" stroke="white" stroke-width="3" stroke-linejoin="round"/>
<path d="M95.7977 103.847H84.6445V115H95.7977V103.847Z" stroke="white" stroke-width="3" stroke-linejoin="round"/>
<path d="M19.4152 109.419H2" stroke="white" stroke-width="3" stroke-linecap="round" stroke-linejoin="round"/>
<path d="M84.6448 109.419H30.5684" stroke="white" stroke-width="3" stroke-linecap="round" stroke-linejoin="round"/>
<path d="M90.2168 88.2178V103.846" stroke="white" stroke-width="3" stroke-linejoin="round"/>
<path d="M24.9883 88.2178V103.846" stroke="white" stroke-width="3" stroke-linejoin="round"/>
<path d="M113.214 109.419H95.7988" stroke="white" stroke-width="3" stroke-linecap="round" stroke-linejoin="round"/>
<path d="M57.7559 8.09375L38.9609 12.4454C38.9609 49.5931 57.7559 50.168 57.7559 50.168C57.7559 50.168 76.542 49.5842 76.542 12.4454L57.7559 8.09375Z" stroke="white" stroke-width="3" stroke-miterlimit="10" stroke-linecap="round"/>
<path d="M70.3439 4.90994L57.7579 2L45.1719 4.90994" stroke="white" stroke-width="3" stroke-miterlimit="10" stroke-linecap="round"/>
<path d="M57.7577 15.0898C56.6083 15.0898 55.506 15.5465 54.6932 16.3592C53.8804 17.172 53.4238 18.2743 53.4238 19.4238V21.0512H62.0828V19.4326C62.0851 18.8632 61.975 18.2988 61.7587 17.772C61.5423 17.2452 61.2241 16.7664 60.8223 16.3629C60.4204 15.9594 59.9428 15.6392 59.417 15.4208C58.8911 15.2023 58.3272 15.0898 57.7577 15.0898Z" stroke="white" stroke-width="3" stroke-linecap="round" stroke-linejoin="round"/>
<path d="M65.0617 21.043H50.4414V36.1674H65.0617V21.043Z" stroke="white" stroke-width="3" stroke-linecap="round" stroke-linejoin="round"/>
<path d="M57.7559 26.5708V30.7455" stroke="white" stroke-width="3" stroke-linecap="round" stroke-linejoin="round"/>
<path d="M75.3496 43.0752H111.799C112.247 43.0752 112.676 43.2532 112.993 43.57C113.31 43.8868 113.488 44.3165 113.488 44.7646V54.4937" stroke="white" stroke-width="3" stroke-miterlimit="10" stroke-linecap="round"/>
<path d="M66.9551 70.9532V61.0648C66.9551 60.6191 67.1321 60.1917 67.4473 59.8765C67.7624 59.5614 68.1899 59.3843 68.6356 59.3843H111.798C112.019 59.3831 112.239 59.4257 112.443 59.5097C112.648 59.5936 112.835 59.7172 112.992 59.8734C113.149 60.0296 113.273 60.2152 113.358 60.4197C113.443 60.6242 113.487 60.8434 113.487 61.0648V70.9532" stroke="white" stroke-width="3" stroke-miterlimit="10" stroke-linecap="round"/>
<path d="M111.807 75.6846H68.6356C67.7075 75.6846 66.9551 76.437 66.9551 77.3651V86.537C66.9551 87.4651 67.7075 88.2174 68.6356 88.2174H111.807C112.735 88.2174 113.487 87.4651 113.487 86.537V77.3651C113.487 76.437 112.735 75.6846 111.807 75.6846Z" stroke="white" stroke-width="3" stroke-linejoin="round"/>
<path d="M105.729 50.5223C105.731 50.6259 105.702 50.7277 105.646 50.8147C105.589 50.9017 105.508 50.9699 105.413 51.0108C105.318 51.0516 105.213 51.0632 105.111 51.0441C105.009 51.025 104.915 50.9759 104.842 50.9033C104.768 50.8307 104.717 50.7378 104.696 50.6363C104.675 50.5349 104.685 50.4294 104.724 50.3336C104.764 50.2377 104.83 50.1557 104.916 50.098C105.002 50.0403 105.104 50.0094 105.207 50.0094C105.275 50.0082 105.343 50.0206 105.406 50.0458C105.47 50.0711 105.527 50.1087 105.576 50.1564C105.624 50.2042 105.663 50.2611 105.689 50.324C105.716 50.3868 105.729 50.4542 105.729 50.5223V50.5223Z" stroke="white" stroke-width="3" stroke-linecap="round" stroke-linejoin="round"/>
<path d="M105.731 66.4155C105.74 66.4892 105.734 66.564 105.713 66.635C105.691 66.7061 105.654 66.7717 105.605 66.8275C105.556 66.8834 105.496 66.928 105.429 66.9586C105.361 66.9892 105.287 67.0051 105.213 67.0051C105.139 67.0051 105.066 66.9892 104.998 66.9586C104.93 66.928 104.87 66.8834 104.821 66.8275C104.772 66.7717 104.736 66.7061 104.714 66.635C104.692 66.564 104.686 66.4892 104.696 66.4155C104.712 66.29 104.774 66.1746 104.869 66.0911C104.964 66.0076 105.087 65.9614 105.213 65.9614C105.34 65.9614 105.462 66.0076 105.557 66.0911C105.653 66.1746 105.714 66.29 105.731 66.4155V66.4155Z" stroke="white" stroke-width="3" stroke-linecap="round" stroke-linejoin="round"/>
<path d="M105.731 82.469C105.714 82.5946 105.653 82.7099 105.557 82.7934C105.462 82.877 105.34 82.9231 105.213 82.9231C105.087 82.9231 104.964 82.877 104.869 82.7934C104.774 82.7099 104.712 82.5946 104.696 82.469C104.686 82.3954 104.692 82.3206 104.714 82.2495C104.736 82.1785 104.772 82.1129 104.821 82.0571C104.87 82.0013 104.93 81.9566 104.998 81.9259C105.066 81.8953 105.139 81.8794 105.213 81.8794C105.287 81.8794 105.361 81.8953 105.429 81.9259C105.496 81.9566 105.556 82.0013 105.605 82.0571C105.654 82.1129 105.691 82.1785 105.713 82.2495C105.734 82.3206 105.74 82.3954 105.731 82.469V82.469Z" stroke="white" stroke-width="3" stroke-linecap="round" stroke-linejoin="round"/>
<path d="M12.0039 71.4305V49.248H37.9808V62.3294" stroke="white" stroke-width="3" stroke-linecap="round" stroke-linejoin="round"/>
<path d="M45.9396 62.3296H28.6836V88.2179H45.9396V62.3296Z" stroke="white" stroke-width="3" stroke-linecap="round" stroke-linejoin="round"/>
<path d="M17.6026 71.4307H6.41406V88.2179H17.6026V71.4307Z" stroke="white" stroke-width="3" stroke-linecap="round" stroke-linejoin="round"/>
<path d="M17.5938 88.2178H28.685" stroke="white" stroke-width="3" stroke-linecap="round" stroke-linejoin="round"/>
<path d="M20.2559 49.2485V39.7759H29.7285V49.2485" stroke="white" stroke-width="3" stroke-linecap="round" stroke-linejoin="round"/>
<path d="M24.9883 39.776V32.541" stroke="white" stroke-width="3" stroke-linecap="round" stroke-linejoin="round"/>
<path d="M97.7355 79.4438H71.7852V84.4587H97.7355V79.4438Z" fill="#35B4CF"/>
<path d="M97.7355 63.9126H71.7852V68.9276H97.7355V63.9126Z" fill="#35B4CF"/>
</svg>
