<svg width="91" height="98" viewBox="0 0 91 98" fill="none" xmlns="http://www.w3.org/2000/svg">
<path d="M89.4224 95.9995H6.17188V14.7993" stroke="white" stroke-width="3" stroke-linecap="round" stroke-linejoin="round"/>
<path d="M62.5947 70.5405H83.2696" stroke="white" stroke-width="3" stroke-linecap="round" stroke-linejoin="round"/>
<path d="M62.5947 78.96H83.2696" stroke="white" stroke-width="3" stroke-linecap="round" stroke-linejoin="round"/>
<path d="M62.5947 87.3867H83.2696" stroke="white" stroke-width="3" stroke-linecap="round" stroke-linejoin="round"/>
<path d="M75.0533 12.9976C78.0902 12.9976 80.5522 10.5357 80.5522 7.49879C80.5522 4.4619 78.0902 2 75.0533 2C72.0164 2 69.5547 4.4619 69.5547 7.49879C69.5547 10.5357 72.0164 12.9976 75.0533 12.9976Z" stroke="white" stroke-width="3" stroke-linecap="round" stroke-linejoin="round"/>
<path d="M71.123 38.1235V57.2217" stroke="white" stroke-width="3" stroke-linecap="round" stroke-linejoin="round"/>
<path d="M78.9912 56.8955V38.1235" stroke="white" stroke-width="3" stroke-linecap="round" stroke-linejoin="round"/>
<path d="M75.054 21.9297V24.2209C75.054 25.2982 74.6261 26.3313 73.8643 27.0931C73.1026 27.8548 72.0693 28.2828 70.9921 28.2828H60.3984" stroke="white" stroke-width="3" stroke-linecap="round" stroke-linejoin="round"/>
<path d="M78.99 62.1444V56.9175H72.9242C71.5379 56.9175 70.2085 57.4681 69.2282 58.4484C68.248 59.4286 67.6973 60.7581 67.6973 62.1444V62.1444" stroke="white" stroke-width="3" stroke-linecap="round" stroke-linejoin="round"/>
<path d="M68.6855 25.2925V22.6518C68.6855 20.9628 69.3566 19.3429 70.551 18.1485C71.7453 16.9542 73.3651 16.2832 75.0542 16.2832C76.7439 16.2832 78.3648 16.9539 79.5604 18.148C80.7559 19.3422 81.4285 20.962 81.4305 22.6518V28.3603C81.4305 31.7653 80.5931 35.118 78.9919 38.123H71.1244C70.0195 36.0561 69.276 33.8155 68.9264 31.498" stroke="white" stroke-width="3" stroke-linecap="round" stroke-linejoin="round"/>
<path d="M62.5947 96.0002V62.1221H83.2696V96.0002" stroke="white" stroke-width="3" stroke-linecap="round" stroke-linejoin="round"/>
<path d="M2 13.0594L6.24055 8.81885L10.3491 12.9429" stroke="white" stroke-width="3" stroke-linecap="round" stroke-linejoin="round"/>
<path d="M45.5254 27.273L50.2942 23.6382L53.8125 28.2826" stroke="white" stroke-width="3" stroke-linecap="round" stroke-linejoin="round"/>
<path d="M2 21.8901H10.3491" stroke="white" stroke-width="3" stroke-linecap="round" stroke-linejoin="round"/>
<path d="M2 34.4106H10.3491" stroke="white" stroke-width="3" stroke-linecap="round" stroke-linejoin="round"/>
<path d="M2 46.938H10.3491" stroke="white" stroke-width="3" stroke-linecap="round" stroke-linejoin="round"/>
<path d="M2 59.4575H10.3491" stroke="white" stroke-width="3" stroke-linecap="round" stroke-linejoin="round"/>
<path d="M2 71.9854H10.3491" stroke="white" stroke-width="3" stroke-linecap="round" stroke-linejoin="round"/>
<path d="M2 84.5054H10.3491" stroke="white" stroke-width="3" stroke-linecap="round" stroke-linejoin="round"/>
<path d="M16.6572 84.5051L20.7347 72.1562H29.4722L35.4913 46.9379H45.7821L49.4557 29.3076" stroke="white" stroke-width="3" stroke-linecap="round" stroke-linejoin="round"/>
<path d="M25.1222 46.938H17.2236" stroke="white" stroke-width="3" stroke-linecap="round" stroke-linejoin="round" stroke-dasharray="0.01 6.77"/>
<path d="M37.6022 21.8901H16.8887" stroke="white" stroke-width="3" stroke-linecap="round" stroke-linejoin="round"/>
<path d="M53.1523 34.4106L50.3409 47.8858L49.5642 51.5982H45.774H39.1724L34.0076 73.2361L33.1532 76.8165H29.4719H24.1052L22.7305 80.995H37.2463L43.2654 55.4039H52.329L56.8881 34.4106H53.1523Z" fill="#35B4CF"/>
</svg>
