<svg width="110" height="109" viewBox="0 0 110 109" fill="none" xmlns="http://www.w3.org/2000/svg">
<path d="M14.3877 19.7159C14.3873 17.9864 14.812 16.2833 15.6245 14.7566C16.437 13.2298 17.6123 11.9262 19.047 10.9604C20.4817 9.99463 22.1318 9.39638 23.8521 9.21824C25.5724 9.04009 27.3101 9.28754 28.9122 9.93882C30.5144 10.5901 31.9319 11.6252 33.04 12.9531C34.1481 14.2809 34.9128 15.8609 35.2668 17.5537C35.6208 19.2466 35.5532 21.0005 35.07 22.6611C34.5868 24.3217 33.7028 25.8381 32.4959 27.0768C26.9975 32.7267 25.3132 32.9316 24.9389 40.9519" stroke="white" stroke-width="3" stroke-linecap="round" stroke-linejoin="round"/>
<path d="M24.9389 46.2722C25.1899 46.2722 25.3934 46.0687 25.3934 45.8177C25.3934 45.5667 25.1899 45.3633 24.9389 45.3633C24.6879 45.3633 24.4844 45.5667 24.4844 45.8177C24.4844 46.0687 24.6879 46.2722 24.9389 46.2722Z" stroke="white" stroke-width="3" stroke-linecap="round" stroke-linejoin="round"/>
<path d="M48.7856 96.3818V100.74C48.7955 101.545 48.5387 102.332 48.0552 102.977C47.5716 103.621 46.8885 104.088 46.1122 104.304V104.304C32.5593 107.914 18.2979 107.914 4.74501 104.304V104.304C3.96866 104.088 3.28557 103.621 2.80204 102.977C2.31851 102.332 2.06169 101.545 2.07156 100.74V96.3818" stroke="white" stroke-width="3" stroke-linecap="round" stroke-linejoin="round"/>
<path d="M48.7856 83.0059V87.3636C48.7955 88.1694 48.5387 88.9559 48.0552 89.6006C47.5716 90.2453 46.8885 90.712 46.1122 90.9282V90.9282C32.5604 94.5454 18.2968 94.5454 4.74501 90.9282V90.9282C3.96866 90.712 3.28557 90.2453 2.80204 89.6006C2.31851 88.9559 2.06169 88.1694 2.07156 87.3636V83.0059" stroke="white" stroke-width="3" stroke-linecap="round" stroke-linejoin="round"/>
<path d="M48.7857 69.6211V73.9788C48.7971 74.785 48.5409 75.5721 48.0571 76.2171C47.5733 76.8621 46.8894 77.3286 46.1123 77.5434V77.5434C32.5605 81.1606 18.2969 81.1606 4.7451 77.5434V77.5434C3.96798 77.3286 3.28404 76.8621 2.80028 76.2171C2.31652 75.5721 2.06026 74.785 2.07165 73.9788V69.6211" stroke="white" stroke-width="3" stroke-linecap="round" stroke-linejoin="round"/>
<path d="M25.3927 68.3196C38.3121 68.3196 48.7853 65.3552 48.7853 61.6984C48.7853 58.0416 38.3121 55.0771 25.3927 55.0771C12.4733 55.0771 2 58.0416 2 61.6984C2 65.3552 12.4733 68.3196 25.3927 68.3196Z" stroke="white" stroke-width="3" stroke-linecap="round" stroke-linejoin="round"/>
<path d="M53.8646 89.5108H104.776C105.745 89.5108 106.674 89.1258 107.36 88.4406C108.045 87.7554 108.43 86.8261 108.43 85.8571V5.65369C108.427 4.68539 108.042 3.7574 107.357 3.07271C106.672 2.38801 105.744 2.00235 104.776 2H48.7494C47.7804 2 46.8511 2.38489 46.1659 3.0701C45.4807 3.7553 45.0957 4.68467 45.0957 5.65369V52.4212" stroke="white" stroke-width="3" stroke-linecap="round" stroke-linejoin="round"/>
<path d="M99.5361 10.8584H53.9805V20.8838H99.5361V10.8584Z" fill="#35B4CF"/>
<path d="M52.1807 55.0775V32.9771H101.345V82.1506H54.6135H52.1807" stroke="white" stroke-width="3" stroke-linecap="round" stroke-linejoin="round"/>
<path d="M84.8945 45.4707H94.2249" stroke="white" stroke-width="3" stroke-linecap="round" stroke-linejoin="round"/>
<path d="M59.3018 45.4707H68.6321" stroke="white" stroke-width="3" stroke-linecap="round" stroke-linejoin="round"/>
<path d="M63.9697 40.8101V50.1316" stroke="white" stroke-width="3" stroke-linecap="round" stroke-linejoin="round"/>
<path d="M60.6641 67.4282L67.2675 74.0227" stroke="white" stroke-width="3" stroke-linecap="round" stroke-linejoin="round"/>
<path d="M67.2675 67.4282L60.6641 74.0227" stroke="white" stroke-width="3" stroke-linecap="round" stroke-linejoin="round"/>
<path d="M83.8965 70.6099H93.2268" stroke="white" stroke-width="3" stroke-linecap="round" stroke-linejoin="round"/>
<path d="M88.8774 66.4035C88.8325 66.4483 88.7753 66.4787 88.7131 66.491C88.6509 66.5033 88.5865 66.4968 88.5279 66.4725C88.4693 66.4482 88.4193 66.4071 88.3841 66.3544C88.3489 66.3016 88.3301 66.2397 88.3301 66.1763C88.3301 66.1129 88.3489 66.0508 88.3841 65.9981C88.4193 65.9454 88.4693 65.9043 88.5279 65.88C88.5865 65.8556 88.6509 65.8493 88.7131 65.8616C88.7753 65.8739 88.8325 65.9043 88.8774 65.949C88.9073 65.9788 88.931 66.0142 88.9472 66.0532C88.9634 66.0922 88.9717 66.1341 88.9717 66.1763C88.9717 66.2185 88.9634 66.2603 88.9472 66.2993C88.931 66.3383 88.9073 66.3737 88.8774 66.4035V66.4035Z" stroke="white" stroke-width="3" stroke-linecap="round" stroke-linejoin="round"/>
<path d="M88.8774 75.6003C88.8325 75.645 88.7753 75.6754 88.7131 75.6877C88.6509 75.7 88.5865 75.6937 88.5279 75.6694C88.4693 75.645 88.4193 75.6039 88.3841 75.5512C88.3489 75.4985 88.3301 75.4364 88.3301 75.373C88.3301 75.3096 88.3489 75.2477 88.3841 75.1949C88.4193 75.1422 88.4693 75.1011 88.5279 75.0768C88.5865 75.0525 88.6509 75.046 88.7131 75.0583C88.7753 75.0706 88.8325 75.101 88.8774 75.1458C88.9073 75.1756 88.931 75.211 88.9472 75.25C88.9634 75.289 88.9717 75.3308 88.9717 75.373C88.9717 75.4152 88.9634 75.4571 88.9472 75.4961C88.931 75.5351 88.9073 75.5705 88.8774 75.6003Z" stroke="white" stroke-width="3" stroke-linecap="round" stroke-linejoin="round"/>
<path d="M59.8447 57.5635H101.346" stroke="white" stroke-width="3" stroke-linecap="round" stroke-linejoin="round"/>
<path d="M77.0254 32.9771V82.1506" stroke="white" stroke-width="3" stroke-linecap="round" stroke-linejoin="round"/>
</svg>
