<svg width="78" height="117" viewBox="0 0 78 117" fill="none" xmlns="http://www.w3.org/2000/svg">
<path d="M45.1893 8.36562V8.00696C45.1893 6.41382 44.5564 4.88591 43.4299 3.75939C42.3034 2.63288 40.7755 2 39.1823 2V2C37.5908 2.00244 36.0652 2.6364 34.9407 3.76265C33.8162 4.88891 33.1846 6.41542 33.1846 8.00696V8.36562" stroke="white" stroke-width="3" stroke-linecap="round" stroke-linejoin="round"/>
<path d="M26.8818 10.0208V22.6786C26.8843 23.2528 27.114 23.8027 27.5209 24.2078C27.9278 24.613 28.4786 24.8404 29.0528 24.8404H29.9174C30.4439 24.8405 30.9525 24.6493 31.3485 24.3024C31.7445 23.9555 32.0009 23.4766 32.0701 22.9547V22.6879C32.3108 20.8644 33.2056 19.1905 34.588 17.9773C35.9704 16.7641 37.7463 16.0942 39.5856 16.0921V16.0921C41.4259 16.0902 43.204 16.7588 44.5872 17.9727C45.9704 19.1866 46.8641 20.8628 47.1012 22.6879V22.9547C47.1684 23.4774 47.4243 23.9574 47.8207 24.3046C48.2171 24.6519 48.7267 24.8425 49.2537 24.8404C49.827 24.8404 50.3769 24.6127 50.7823 24.2073C51.1877 23.8019 51.4154 23.252 51.4154 22.6786V10.0208C51.4154 9.57682 51.2391 9.15092 50.9252 8.83695C50.6112 8.52297 50.1853 8.34668 49.7413 8.34668H28.4917C28.0597 8.36558 27.6515 8.54995 27.3518 8.86165C27.0521 9.17335 26.8838 9.58843 26.8818 10.0208V10.0208Z" stroke="white" stroke-width="3" stroke-linecap="round" stroke-linejoin="round"/>
<path d="M26.451 13.4341H7.85975C6.30564 13.4341 4.81519 14.0514 3.71627 15.1504C2.61736 16.2493 2 17.7397 2 19.2938V109.14C2 110.694 2.61736 112.185 3.71627 113.284C4.81519 114.383 6.30564 115 7.85975 115H70.5048C72.0589 115 73.5493 114.383 74.6482 113.284C75.7472 112.185 76.3645 110.694 76.3645 109.14V19.2938C76.3645 17.7397 75.7472 16.2493 74.6482 15.1504C73.5493 14.0514 72.0589 13.4341 70.5048 13.4341H51.4813" stroke="white" stroke-width="3" stroke-linecap="round" stroke-linejoin="round"/>
<path d="M19.8273 22.1182H10.6836V106.316H54.8203L67.6896 93.447V22.1182H58.5366" stroke="white" stroke-width="3" stroke-linecap="round" stroke-linejoin="round"/>
<path d="M32.5316 57.9666L25.6415 65.2614L22.3115 61.9314" stroke="white" stroke-width="3" stroke-linecap="round" stroke-linejoin="round"/>
<path d="M22.6514 44.9777L30.866 36.7629" stroke="white" stroke-width="3" stroke-linecap="round" stroke-linejoin="round"/>
<path d="M30.866 44.9777L22.6514 36.7629" stroke="white" stroke-width="3" stroke-linecap="round" stroke-linejoin="round"/>
<path d="M22.6514 87.284L30.866 79.0693" stroke="white" stroke-width="3" stroke-linecap="round" stroke-linejoin="round"/>
<path d="M30.866 87.284L22.6514 79.0693" stroke="white" stroke-width="3" stroke-linecap="round" stroke-linejoin="round"/>
<path d="M60.4875 46.8173H36.7265C36.2386 46.8173 35.7706 46.6234 35.4256 46.2784C35.0806 45.9334 34.8867 45.4654 34.8867 44.9775C34.8867 44.4895 35.0806 44.0216 35.4256 43.6766C35.7706 43.3316 36.2386 43.1377 36.7265 43.1377H60.4875C60.9755 43.1377 61.4434 43.3316 61.7885 43.6766C62.1335 44.0216 62.3273 44.4895 62.3273 44.9775C62.3273 45.4654 62.1335 45.9334 61.7885 46.2784C61.4434 46.6234 60.9755 46.8173 60.4875 46.8173Z" fill="#35B4CF"/>
<path d="M60.4875 67.5795H36.7265C36.2386 67.5795 35.7706 67.3857 35.4256 67.0407C35.0806 66.6957 34.8867 66.2276 34.8867 65.7397C34.8867 65.2518 35.0806 64.7838 35.4256 64.4388C35.7706 64.0938 36.2386 63.8999 36.7265 63.8999H60.4875C60.9755 63.8999 61.4434 64.0938 61.7885 64.4388C62.1335 64.7838 62.3273 65.2518 62.3273 65.7397C62.3273 66.2276 62.1335 66.6957 61.7885 67.0407C61.4434 67.3857 60.9755 67.5795 60.4875 67.5795Z" fill="#FFC524"/>
<path d="M52.0791 101.091V90.7056H62.4555" stroke="white" stroke-width="3" stroke-linecap="round" stroke-linejoin="round"/>
</svg>
