<svg width="112" height="112" viewBox="0 0 112 112" fill="none" xmlns="http://www.w3.org/2000/svg">
<path d="M75.2891 41.967L87.734 19.3159" stroke="white" stroke-width="3" stroke-linecap="round" stroke-linejoin="round"/>
<path d="M90.1128 41.9671C89.5838 41.9671 89.06 41.8628 88.5713 41.66C88.0827 41.4573 87.6387 41.1602 87.265 40.7857C86.8914 40.4113 86.5952 39.9667 86.3936 39.4776C86.1919 38.9885 86.0887 38.4644 86.0899 37.9354V35.1455C86.0899 34.6172 86.194 34.0941 86.3961 33.606C86.5983 33.1179 86.8946 32.6744 87.2681 32.3009C87.6417 31.9273 88.0853 31.631 88.5734 31.4288C89.0614 31.2266 89.5845 31.1226 90.1128 31.1226V31.1226C90.6418 31.1214 91.1659 31.2246 91.655 31.4263C92.1441 31.628 92.5886 31.9241 92.9631 32.2978C93.3376 32.6715 93.6348 33.1153 93.8375 33.604C94.0402 34.0927 94.1446 34.6165 94.1446 35.1455V37.9354C94.1458 38.4652 94.0422 38.9899 93.84 39.4796C93.6378 39.9693 93.3409 40.4142 92.9663 40.7888C92.5917 41.1635 92.1467 41.4603 91.6571 41.6625C91.1674 41.8648 90.6426 41.9683 90.1128 41.9671Z" stroke="white" stroke-width="3" stroke-linecap="round" stroke-linejoin="round"/>
<path d="M73.1899 30.1613C72.1206 30.1613 71.0951 29.7365 70.3391 28.9804C69.583 28.2244 69.1582 27.1989 69.1582 26.1296V23.3135C69.1605 22.2457 69.5863 21.2225 70.3421 20.4683C71.098 19.7141 72.1221 19.2905 73.1899 19.2905V19.2905C74.2569 19.2905 75.2801 19.7144 76.0346 20.4688C76.789 21.2233 77.2129 22.2465 77.2129 23.3135V26.1034C77.2175 26.6346 77.1169 27.1615 76.9168 27.6536C76.7167 28.1457 76.4211 28.5934 76.0471 28.9707C75.673 29.3479 75.228 29.6474 74.7376 29.8518C74.2472 30.0561 73.7212 30.1613 73.1899 30.1613V30.1613Z" stroke="white" stroke-width="3" stroke-linecap="round" stroke-linejoin="round"/>
<path d="M51.4301 11.1479C41.652 11.1497 32.094 14.0509 23.9648 19.4848C15.8356 24.9186 9.50027 32.641 5.75996 41.6755C2.01964 50.7099 1.04239 60.6506 2.95169 70.2404C4.861 79.8303 9.57107 88.6386 16.4864 95.5515C23.4018 102.464 32.2118 107.171 41.8023 109.077C51.3929 110.983 61.3332 110.003 70.3663 106.259C79.3994 102.515 87.1196 96.1774 92.5506 88.0463C97.9816 79.9152 100.879 70.3561 100.878 60.5781H51.4476L51.4301 11.1479Z" stroke="white" stroke-width="3" stroke-linecap="round" stroke-linejoin="round"/>
<path d="M60.5703 2V51.4388H110C110.002 44.9468 108.724 38.5182 106.24 32.5201C103.757 26.5219 100.116 21.0718 95.5257 16.4808C90.9356 11.8899 85.4861 8.24812 79.4884 5.76348C73.4907 3.27884 67.0623 2 60.5703 2V2Z" stroke="white" stroke-width="3" stroke-linecap="round" stroke-linejoin="round"/>
<path d="M46.0784 42.7104C42.9845 43.6358 40.184 45.3485 37.9506 47.6808C35.7172 50.0132 34.1275 52.8854 33.337 56.0164C32.5466 59.1474 32.5824 62.4299 33.4411 65.5429C34.2998 68.6559 35.9519 71.4926 38.2357 73.7756C40.5196 76.0586 43.357 77.7097 46.4703 78.5672C49.5836 79.4247 52.8662 79.4593 55.9969 78.6677C59.1276 77.8761 61.9991 76.2853 64.3306 74.051C66.6621 71.8167 68.3738 69.0154 69.298 65.9212" stroke="white" stroke-width="3" stroke-linecap="round" stroke-linejoin="round"/>
<path d="M82.5125 68.2829C81.1587 73.7567 78.384 78.7763 74.4688 82.8343C70.5537 86.8923 65.6367 89.845 60.2149 91.3941C54.793 92.9431 49.0583 93.0336 43.5902 91.6564C38.1222 90.2792 33.1146 87.4831 29.0733 83.5507C25.032 79.6182 22.1004 74.6886 20.5745 69.2602C19.0487 63.8318 18.9826 58.0968 20.3831 52.6347C21.7837 47.1726 24.6012 42.1769 28.5509 38.1525C32.5006 34.128 37.4426 31.2175 42.8775 29.7148V24.3013C36.3769 25.8313 30.4064 29.0794 25.5904 33.706C20.7744 38.3326 17.2896 44.1679 15.5001 50.602C13.7106 57.036 13.6822 63.8327 15.4178 70.2815C17.1534 76.7303 20.5894 82.5945 25.3666 87.2612C30.1437 91.9279 36.0867 95.2258 42.5743 96.8102C49.0619 98.3945 55.856 98.2072 62.2465 96.2677C68.6369 94.3283 74.3891 90.7079 78.9019 85.785C83.4146 80.8622 86.5222 74.8175 87.8998 68.2829H82.5125Z" fill="#FFC524"/>
</svg>
