<svg width="93" height="120" viewBox="0 0 93 120" fill="none" xmlns="http://www.w3.org/2000/svg">
<path d="M6.57227 5.5625V46.8949H86.4381V5.5625" stroke="white" stroke-width="3" stroke-linecap="round" stroke-linejoin="round"/>
<path d="M90.3449 2C90.3449 3.96302 89.0362 5.56255 87.4094 5.56255H5.61706C3.99939 5.56255 2.68164 3.96302 2.68164 2" stroke="white" stroke-width="3" stroke-linecap="round" stroke-linejoin="round"/>
<path d="M24.8091 40.1787L43.594 21.3937L51.8642 29.6639L70.6582 10.8698" stroke="white" stroke-width="3" stroke-linecap="round" stroke-linejoin="round"/>
<path d="M62.4244 10.8695L70.6582 10.8695L70.6582 19.0942" stroke="white" stroke-width="3" stroke-linecap="round" stroke-linejoin="round"/>
<path d="M50.5361 77.1047C55.9244 74.8728 58.4833 68.6953 56.2514 63.307C54.0195 57.9187 47.8419 55.3599 42.4536 57.5918C37.0653 59.8238 34.5066 66.0012 36.7385 71.3895C38.9704 76.7778 45.1478 79.3367 50.5361 77.1047Z" stroke="white" stroke-width="3" stroke-linecap="round" stroke-linejoin="round"/>
<path d="M26.375 118V91.3268C26.375 90.4258 26.5525 89.5335 26.8973 88.7011C27.2421 87.8686 27.7476 87.1121 28.3848 86.475C29.0219 85.8378 29.7781 85.3324 30.6106 84.9876C31.4431 84.6428 32.3355 84.4653 33.2365 84.4653H59.7008C61.5214 84.4653 63.2677 85.1879 64.5559 86.4744C65.8441 87.7609 66.569 89.5062 66.5714 91.3268V118" stroke="white" stroke-width="3" stroke-linecap="round" stroke-linejoin="round"/>
<path d="M84.1465 93.0347V107.385" stroke="white" stroke-width="3" stroke-linecap="round" stroke-linejoin="round"/>
<path d="M83.63 68.2522C83.63 69.8699 83.1503 71.4513 82.2515 72.7964C81.3528 74.1414 80.0754 75.1898 78.5808 75.8089C77.0862 76.428 75.4417 76.5899 73.8551 76.2743C72.2684 75.9587 70.811 75.1797 69.6671 74.0358C68.5233 72.8919 67.7442 71.4345 67.4286 69.8479C67.113 68.2612 67.2751 66.6167 67.8941 65.1221C68.5132 63.6276 69.5615 62.3501 70.9065 61.4514C72.2516 60.5527 73.8331 60.073 75.4508 60.073C77.6201 60.073 79.7005 60.9347 81.2344 62.4686C82.7683 64.0025 83.63 66.083 83.63 68.2522Z" stroke="white" stroke-width="3" stroke-linecap="round" stroke-linejoin="round"/>
<path d="M68.3984 81.4663H85.7112C87.1172 81.4687 88.4649 82.029 89.4582 83.0241C90.4516 84.0192 91.0096 85.3678 91.0096 86.7738V107.385" stroke="white" stroke-width="3" stroke-linecap="round" stroke-linejoin="round"/>
<path d="M75.4844 81.4663V90.9179" stroke="white" stroke-width="3" stroke-linecap="round" stroke-linejoin="round"/>
<path d="M8.62695 93.0347V107.385" stroke="white" stroke-width="3" stroke-linecap="round" stroke-linejoin="round"/>
<path d="M25.6847 68.2522C25.6847 69.8699 25.2049 71.4513 24.3062 72.7964C23.4074 74.1414 22.13 75.1898 20.6355 75.8089C19.1409 76.428 17.4964 76.5899 15.9097 76.2743C14.3231 75.9587 12.8657 75.1797 11.7218 74.0358C10.5779 72.8919 9.79892 71.4345 9.48332 69.8479C9.16773 68.2612 9.32975 66.6167 9.94882 65.1221C10.5679 63.6276 11.6162 62.3501 12.9612 61.4514C14.3063 60.5527 15.8878 60.073 17.5055 60.073C19.6747 60.073 21.7552 60.9347 23.2891 62.4686C24.823 64.0025 25.6847 66.083 25.6847 68.2522Z" stroke="white" stroke-width="3" stroke-linecap="round" stroke-linejoin="round"/>
<path d="M2 107.385V86.7738C2.0024 85.3669 2.56231 84.0184 3.55713 83.0235C4.55194 82.0287 5.90062 81.4687 7.3075 81.4663H25.3744" stroke="white" stroke-width="3" stroke-linecap="round" stroke-linejoin="round"/>
<path d="M17.5312 81.4663V90.9179" stroke="white" stroke-width="3" stroke-linecap="round" stroke-linejoin="round"/>
<path d="M59.7265 89.918H33.2622C32.8886 89.918 32.5302 90.0664 32.266 90.3305C32.0018 90.5947 31.8535 90.9531 31.8535 91.3267V99.9603L31.9443 99.9057C37.8697 96.0524 43.1589 96.3432 46.4851 96.3432C49.6659 96.3432 54.9826 95.9706 61.1352 99.9784V91.3538C61.1376 91.1669 61.1029 90.9813 61.0333 90.8078C60.9637 90.6343 60.8605 90.4763 60.7296 90.3429C60.5986 90.2094 60.4427 90.1032 60.2705 90.0302C60.0984 89.9573 59.9134 89.9192 59.7265 89.918Z" fill="#FFC524"/>
</svg>
