<svg width="667" height="502" viewBox="0 0 667 502" fill="none" xmlns="http://www.w3.org/2000/svg">
<path d="M62.4433 351.855C18.0195 282.725 -51.3984 146.261 60.2708 41.4989C181.812 -72.5291 304.398 87.5023 406.645 60.6702C406.645 60.6702 534.042 -2.00586 629.937 145.139C725.831 292.284 628.666 450.778 418.909 483.454C318.661 499.068 128.092 454.017 62.4433 351.855Z" fill="#EEEFFA"/>
<path d="M519.81 175.617H128.504C119.357 175.617 111.941 183.032 111.941 192.18V451.146C111.941 460.293 119.357 467.709 128.504 467.709H519.81C528.957 467.709 536.373 460.293 536.373 451.146V192.18C536.373 183.032 528.957 175.617 519.81 175.617Z" fill="#5670A3"/>
<path d="M523.62 188.673H122.447V448.72H523.62V188.673Z" fill="#EBECF7"/>
<path d="M498.783 162.265H149.529V408.069H498.783V162.265Z" fill="#CAD0EB"/>
<path d="M498.783 162.265H149.529V195.314H498.783V162.265Z" fill="#A6ADD9"/>
<path d="M326.149 496.518C485.041 496.518 613.849 484.816 613.849 470.381C613.849 455.945 485.041 444.243 326.149 444.243C167.257 444.243 38.4492 455.945 38.4492 470.381C38.4492 484.816 167.257 496.518 326.149 496.518Z" fill="#EBECF7"/>
<path d="M70.5742 443.121H573.253V443.379C573.253 450.785 570.311 457.888 565.074 463.125C559.837 468.362 552.734 471.304 545.328 471.304H98.4989C91.0943 471.304 83.9928 468.363 78.7562 463.128C73.5195 457.893 70.5765 450.792 70.5742 443.388V443.129V443.121Z" fill="#2E4F91"/>
<path d="M600.709 377.347C601.046 373.268 598.013 369.687 593.934 369.35C589.855 369.012 586.275 372.045 585.937 376.124C585.6 380.204 588.633 383.784 592.712 384.121C596.791 384.459 600.371 381.426 600.709 377.347Z" stroke="#2D4E73" stroke-width="4.18" stroke-miterlimit="10" stroke-linecap="round"/>
<path d="M473.476 49.7996C473.814 45.7205 470.781 42.1402 466.702 41.8027C462.623 41.4652 459.042 44.4983 458.705 48.5774C458.367 52.6564 461.4 56.2367 465.48 56.5742C469.559 56.9118 473.139 53.8786 473.476 49.7996Z" stroke="#2D4E73" stroke-width="4.18" stroke-miterlimit="10" stroke-linecap="round"/>
<path d="M58.0539 137.86C58.7062 133.82 55.9593 130.015 51.9186 129.363C47.878 128.711 44.0736 131.458 43.4213 135.498C42.769 139.539 45.5159 143.343 49.5565 143.996C53.5972 144.648 57.4016 141.901 58.0539 137.86Z" stroke="#2D4E73" stroke-width="4.18" stroke-miterlimit="10" stroke-linecap="round"/>
<path d="M341.45 325.324C341.45 351.864 319.734 373.377 319.734 373.377C319.734 373.377 298.021 351.864 298.021 325.324C298.021 298.784 307.762 288.426 319.734 288.426C331.706 288.426 341.45 298.784 341.45 325.324Z" fill="white"/>
<path d="M341.517 305.331H300.227C296.897 305.322 293.706 303.996 291.351 301.641C288.996 299.287 287.668 296.096 287.658 292.766C287.668 289.436 288.996 286.245 291.351 283.89C293.706 281.535 296.897 280.207 300.227 280.197H341.517C344.847 280.207 348.038 281.535 350.392 283.89C352.747 286.245 354.073 289.436 354.082 292.766C354.072 296.096 352.745 299.286 350.391 301.64C348.037 303.994 344.847 305.321 341.517 305.331Z" fill="#6373D6"/>
<path d="M403.722 270.969C403.625 267.539 402.26 264.266 399.889 261.784L367.751 226.635L359.281 256.168L381.303 272.291L398.793 304.175C399.999 306.377 404.154 305.75 404.12 303.375L403.722 270.969Z" fill="#333D70"/>
<path d="M270.079 227.541L237.936 262.69C235.575 265.176 234.217 268.448 234.125 271.876L233.701 304.298C233.672 306.674 237.822 307.301 239.029 305.098L256.523 273.214L277.227 258.062L270.079 227.541Z" fill="#333D70"/>
<path d="M306.419 26.9945C280.628 72.1213 229.01 183.757 279.269 285.004C280.723 287.895 282.948 290.329 285.697 292.037C288.446 293.745 291.613 294.661 294.849 294.685L319.5 294.943L322.952 294.981L346.752 295.231C350.208 295.274 353.6 294.299 356.506 292.428C359.412 290.556 361.703 287.871 363.094 284.707C411.731 172.725 359.833 68.6445 333.098 26.3339C326.814 16.3947 312.25 16.7843 306.419 26.9945Z" fill="#7083FA"/>
<path d="M333.052 26.1477C331.61 23.848 329.587 21.9694 327.187 20.7017C350.123 81.6837 392.76 269.085 311.387 294.672L319.433 294.757L322.889 294.795L346.689 295.041C350.145 295.086 353.537 294.112 356.443 292.241C359.35 290.37 361.641 287.685 363.031 284.521C411.685 172.539 359.787 68.4583 333.052 26.1477Z" fill="#6373D6"/>
<path d="M350.347 188.54C365.69 172.45 364.812 146.708 348.386 131.043C331.959 115.378 306.204 115.723 290.86 131.813C275.517 147.903 276.395 173.645 292.821 189.31C309.248 204.975 335.003 204.63 350.347 188.54Z" fill="white"/>
<path d="M346.866 159.343C347.001 173.648 335.19 185.484 320.61 185.599C306.105 185.717 294.354 173.839 294.354 159.343C294.354 152.379 297.12 145.701 302.044 140.777C306.968 135.853 313.646 133.086 320.61 133.086C335.11 133.078 346.73 144.83 346.866 159.343Z" fill="#ED5353"/>
<path d="M314.033 162.4L319.479 168.981L332.053 148.946" stroke="white" stroke-width="3.78" stroke-linecap="round" stroke-linejoin="round"/>
<path d="M328.627 292.461L330.745 249.384L327.496 238.026L312.103 238.111L308.715 250.036L310.832 293.114C310.832 309.096 314.813 322.05 319.725 322.05C324.638 322.05 328.619 309.096 328.619 293.114" fill="#333D70"/>
<path d="M330.405 134.725C333.809 136.167 336.872 138.306 339.397 141.006C341.923 143.705 343.854 146.904 345.066 150.396C346.278 153.888 346.744 157.595 346.434 161.278C346.124 164.962 345.045 168.539 343.267 171.779C341.488 175.02 339.05 177.851 336.109 180.09C333.168 182.329 329.79 183.927 326.193 184.779C322.597 185.632 318.861 185.721 315.228 185.04C311.595 184.359 308.145 182.923 305.102 180.826" stroke="#233C59" stroke-width="3.24" stroke-miterlimit="10" stroke-linecap="round"/>
<path d="M352.075 294.685H331.053" stroke="#233C59" stroke-width="3.35" stroke-miterlimit="10" stroke-linecap="round"/>
<path d="M356.958 70.9608C350.118 55.5574 342.177 40.6671 333.196 26.4058C326.844 16.3649 312.14 16.763 306.245 27.0706C298.166 41.2611 290.933 55.9168 284.584 70.9608H356.958Z" fill="#333D70"/>
<path fill-rule="evenodd" clip-rule="evenodd" d="M437.268 337.148C433.528 344.123 426.46 347.735 417.931 344.347L380.482 319.742L387.567 314.737L418.905 328.144L437.268 337.148Z" fill="#C95836"/>
<path d="M388.862 321.424L380.9 323.219C379.309 323.578 377.641 323.356 376.2 322.593L370.364 319.488C369.893 319.238 369.49 318.878 369.19 318.438C368.889 317.998 368.7 317.492 368.638 316.963C368.576 316.433 368.643 315.897 368.834 315.399C369.024 314.902 369.333 314.458 369.733 314.106L379.871 312.412C382.254 312.069 384.682 312.572 386.732 313.835L390.348 315.986L388.862 321.424Z" fill="#C95836"/>
<path fill-rule="evenodd" clip-rule="evenodd" d="M396.833 316.554C396.833 316.554 393.064 330.656 394.021 331.058C394.978 331.46 414.806 344.101 414.806 344.101C414.806 344.101 430.254 351.614 443.865 348.175C457.476 344.737 473.619 335.471 473.619 335.471C473.619 335.471 473.988 313.568 468.195 314.771C463.214 315.808 469.889 317.591 457.883 319.853C455.93 320.221 435.116 328.682 433.206 328.564C419.536 327.687 396.833 316.554 396.833 316.554Z" fill="white"/>
<path d="M459.535 501.253C514.889 501.253 559.762 496.744 559.762 491.182C559.762 485.621 514.889 481.112 459.535 481.112C404.182 481.112 359.309 485.621 359.309 491.182C359.309 496.744 404.182 501.253 459.535 501.253Z" fill="#EBECF7"/>
<path d="M400.449 410.898C416.402 436.481 426.832 480.168 426.832 480.168L435.793 480.794C435.793 480.794 439.888 416.988 426.836 406.993C426.836 406.993 384.5 385.315 400.449 410.898Z" fill="#C95836"/>
<path d="M408.613 383.38L487.712 407.519C487.712 407.519 482.05 436.887 481.965 437.214C480.271 443.811 420.619 421.545 420.28 420.549C419.942 419.554 408.613 383.38 408.613 383.38Z" fill="#A3AEE0"/>
<path fill-rule="evenodd" clip-rule="evenodd" d="M426.409 477.961L418.828 483.556C417.342 484.936 409.186 487.646 409.186 487.646C408.381 489.34 409.977 490.238 411.328 490.454L435.442 489.81C435.442 489.81 441.002 488.62 435.997 477.919C431.618 479.884 427.573 481.294 426.409 477.961Z" fill="#4A2A1A"/>
<path d="M408.614 383.38C408.614 383.38 392.47 382.109 392.402 397.355C392.335 412.6 417.913 473.68 418.299 473.781C418.684 473.883 439.503 473.781 439.503 473.781C439.503 473.781 439.596 431.496 432.511 418.677C425.426 405.858 420.785 397.99 420.785 397.99L408.614 383.38Z" fill="#A3AEE0"/>
<path d="M526.133 467.196C526.133 467.196 493.304 457.537 476.979 463.521C471.651 465.473 452.688 489.052 452.688 489.052L519.196 476.039L526.133 467.196Z" fill="#C95836"/>
<path d="M473.421 337.343L429.006 362.155L431.915 372.831L480.172 362.875L473.421 337.343Z" fill="#D46D4E"/>
<path fill-rule="evenodd" clip-rule="evenodd" d="M442.163 362.231C439.821 369.786 433.566 374.681 424.554 372.996L383.107 355.967L389.108 349.704L422.424 356.903L442.163 362.231Z" fill="#C95836"/>
<path d="M391.65 355.989L384.172 359.271C382.678 359.918 381.003 360.012 379.445 359.537L373.127 357.602C372.618 357.446 372.154 357.168 371.775 356.793C371.396 356.418 371.114 355.957 370.953 355.448C370.792 354.94 370.756 354.401 370.85 353.876C370.943 353.351 371.162 352.857 371.488 352.435L381.118 348.849C383.392 348.058 385.871 348.091 388.123 348.942L392.082 350.36L391.65 355.989Z" fill="#C95836"/>
<path fill-rule="evenodd" clip-rule="evenodd" d="M515.604 476.632L512.051 484.576C511.526 486.694 510.679 486.694 510.679 486.694L505.792 488.743C504.729 489.082 504.415 490.297 504.598 491.284C504.648 491.542 510.492 491.284 511.543 491.284L517.51 490.924L527.987 478.52C527.987 478.52 531.595 469.322 523.557 465.731C522.96 468.526 520.22 476.161 515.604 476.632Z" fill="#4A2A1A"/>
<path d="M458.035 312.556L460.911 325.756L472.925 319.831L465.48 305.45L458.035 312.556Z" fill="#C95836"/>
<path d="M448.812 378.298C448.812 378.298 445.001 363.319 446.783 355.959C448.566 348.599 460.911 325.756 460.911 325.756L472.925 319.827C472.925 319.827 487.142 325.243 496.027 350.369C500.418 362.798 504.687 382.236 507.884 398.714C510.45 411.956 497.297 422.76 484.83 417.64L458.04 406.654L448.812 378.298Z" fill="white"/>
<path d="M455.934 406.659C455.51 420.104 460.931 417.813 456.658 431.221C453.63 440.72 444.423 459.675 440.057 474.48C439.13 478.004 439.34 481.73 440.659 485.127C442.806 490.564 448.955 493.262 454.523 491.479L480.674 483.162L465.153 472.528L495.343 448.241C495.343 448.241 516.056 432.043 512.575 418.707C509.094 405.371 507.819 398.418 507.819 398.418L455.934 406.659Z" fill="#A3AEE0"/>
<path fill-rule="evenodd" clip-rule="evenodd" d="M458.717 315.677L459.776 320.539L463.125 315.114L458.717 315.677Z" fill="#873B24"/>
<path d="M465.294 295.362C464.454 294.989 463.529 294.845 462.616 294.947C461.702 295.048 460.831 295.39 460.093 295.938C456.393 298.768 453.681 302.694 452.344 307.156C449.43 316.587 461.529 315.829 464.625 315.978C467.72 316.126 480.391 303.015 471.976 298.64C468.826 296.993 466.708 295.985 465.294 295.362Z" fill="#C95836"/>
<path fill-rule="evenodd" clip-rule="evenodd" d="M468.647 315.224C474.331 315.893 478.269 310.646 478.091 304.929C478.036 303.091 477.799 301.41 477.244 300.27C474.585 294.685 469.808 290.386 461.778 293.27C461.778 293.27 460.22 303.565 467.661 315.037L468.647 315.224Z" fill="#5C3420"/>
<path d="M465.991 309.722C467.346 308.504 467.632 306.613 466.63 305.498C465.628 304.383 463.717 304.466 462.362 305.684C461.007 306.902 460.721 308.793 461.723 309.908C462.725 311.023 464.636 310.94 465.991 309.722Z" fill="#C95836"/>
<path fill-rule="evenodd" clip-rule="evenodd" d="M507.206 324.227C506.973 323.588 506.877 322.906 506.926 322.228C506.975 321.549 507.167 320.888 507.49 320.289C512.432 310.29 497.809 306.348 493.354 304.129C488.695 301.816 492.308 293.808 482.995 292.385C473.683 290.962 471.62 296.07 471.176 296.002C470.524 295.909 473.717 304.34 473.717 304.34C473.717 304.34 478.354 304.997 479.794 313.814C481.234 322.631 479.692 327.607 486.315 333.586C492.939 339.566 512.97 326.929 512.97 326.929C509.383 327.492 507.854 325.836 507.206 324.227Z" fill="#5C3420"/>
<path d="M473.625 294.045C473.866 295.35 474.989 299.894 474.764 300.135" stroke="white" stroke-width="3.16" stroke-linecap="round" stroke-linejoin="round"/>
<path d="M478.787 460.268C479.342 459.768 508.452 457.93 517.858 462.271L511.759 478.597L482.776 483.166L458.756 475.357L478.787 460.268Z" fill="#A3AEE0"/>
<path fill-rule="evenodd" clip-rule="evenodd" d="M398.547 349.704C398.547 349.704 397.531 364.264 398.547 364.48C399.564 364.696 421.416 373.331 421.416 373.331C421.416 373.331 438.012 377.764 450.717 371.802C463.421 365.839 477.511 353.651 477.511 353.651C477.511 353.651 473.699 332.079 468.245 334.361C463.553 336.326 456.849 345.203 445.491 349.704C443.645 350.437 438.419 354.308 436.517 354.553C422.957 356.319 398.547 349.704 398.547 349.704Z" fill="white"/>
<path d="M470.879 332.392C468.419 332.578 463.125 336.936 463.125 336.936L450.734 345.935L438.614 353.854C436.649 355.138 434.263 355.612 431.957 355.176L400.195 349.124" stroke="#5677BA" stroke-width="2.29" stroke-linecap="round" stroke-linejoin="round"/>
<path d="M449.764 372.229L469.045 360.376" stroke="#5677BA" stroke-width="2.29" stroke-linecap="round" stroke-linejoin="round"/>
<path d="M463.126 417.488L458.76 431.213" stroke="#4E5794" stroke-width="2.85" stroke-linecap="round" stroke-linejoin="round"/>
<path fill-rule="evenodd" clip-rule="evenodd" d="M456.443 299.72C456.392 299.779 455.092 300.957 452.542 301.753C451.488 302.083 452.229 304.51 453.283 304.62C454.338 304.73 456.909 302.392 456.909 302.392L456.443 299.72Z" fill="#C95836"/>
<path fill-rule="evenodd" clip-rule="evenodd" d="M453.8 306.305L456.167 307.195C456.167 307.195 455.21 310.222 453.406 308.804C453.02 308.503 453.8 306.305 453.8 306.305Z" fill="white"/>
<path fill-rule="evenodd" clip-rule="evenodd" d="M115.582 268.522C108.251 266.925 101.183 270.152 98.1553 279.109L91.8242 324.761L100.489 322.182L110.292 288.9L115.582 268.522Z" fill="#A84F25"/>
<path d="M100.49 322.182L96.7635 329.682C96.0459 331.154 94.8416 332.333 93.3544 333.019L87.4595 335.661C85.4056 336.585 83.2246 335.047 83.2246 332.697L88.3742 323.541C89.5801 321.46 91.4637 319.856 93.7101 318.997L97.5215 317.502L100.49 322.182Z" fill="#A84F25"/>
<path fill-rule="evenodd" clip-rule="evenodd" d="M147.199 211.559C136.235 213.676 100.277 265.164 99.294 270.131C98.1887 275.717 90.7227 307.999 90.7227 307.999L107.018 309.99C107.018 309.99 116.992 283.039 119.101 280.913C121.209 278.787 147.372 236.303 147.372 236.303L147.199 211.559Z" fill="#7D92F5"/>
<path d="M148.187 500.66C184.732 500.66 214.357 498.453 214.357 495.731C214.357 493.008 184.732 490.801 148.187 490.801C111.643 490.801 82.0176 493.008 82.0176 495.731C82.0176 498.453 111.643 500.66 148.187 500.66Z" fill="#EBECF7"/>
<path fill-rule="evenodd" clip-rule="evenodd" d="M165.548 487.117C165.548 487.117 154.758 427.24 165.599 403.55L156.799 322.326L194.735 324.939L176.139 487.693L165.548 487.117Z" fill="#A84F25"/>
<path fill-rule="evenodd" clip-rule="evenodd" d="M176.472 484.762L182.1 490.238C183.62 491.589 191.76 494.219 191.76 494.219C192.607 495.913 191.074 496.76 189.748 497.001L165.944 496.506C165.944 496.506 160.417 495.367 164.966 484.775C169.332 486.689 175.447 488.057 176.472 484.762Z" fill="#4A2A1A"/>
<path fill-rule="evenodd" clip-rule="evenodd" d="M194.736 337.41L181.697 475.378H153.992C153.992 475.378 156.211 463.385 155.792 459.582C155.373 455.779 153.251 419.694 161.191 403.093L158.452 335.479L194.736 337.41Z" fill="#ABB6EB"/>
<path fill-rule="evenodd" clip-rule="evenodd" d="M160.997 403.093L158.257 335.479L171.428 336.203L173.435 385.713C173.75 394.989 172.876 404.266 170.835 413.32C166.892 431.335 168.391 456.444 168.738 459.582C169.162 463.393 166.939 475.378 166.939 475.378H153.811C153.811 475.378 156.03 463.385 155.606 459.582C155.183 455.779 153.061 419.694 160.997 403.093Z" fill="#919AC7"/>
<path fill-rule="evenodd" clip-rule="evenodd" d="M140.491 282.073L192.233 286.016C200.652 289.107 194.735 337.41 194.735 337.41L163.266 339.21C147.457 338.884 128.765 351.279 126.795 324.943C124.547 294.829 140.491 282.073 140.491 282.073Z" fill="#ABB6EB"/>
<path d="M104.645 468.043C104.687 468.103 104.725 468.162 105.238 468.801C104.247 475.348 105.238 477.932 104.264 484.47C107.033 484.894 107.825 489.239 110.616 489.599C111.404 489.7 110.997 485.991 111.742 485.529L119.708 468.318L104.645 468.043Z" fill="#A84F25"/>
<path d="M170.086 305.246C154.883 362.104 139.667 418.986 122.232 476.61C113.995 475.281 98.4531 475.725 98.4531 475.725C98.4531 475.725 101.362 465.536 101.621 464.079C107.774 429.353 104.89 424.373 112.708 397.516C120.716 358.745 122.024 332.138 131.172 300.643C144.973 301.757 155.967 304.454 169.709 305.92L170.306 305.996C170.471 306.178 170.632 306.322 170.086 305.246Z" fill="#ABB6EB"/>
<path fill-rule="evenodd" clip-rule="evenodd" d="M112.245 483.67C112.245 483.67 113.346 490.505 112.889 494.782C112.734 495.635 112.254 496.394 111.551 496.9C110.845 497.48 109.961 497.801 109.048 497.81L104.106 497.62C103.771 497.624 103.44 497.56 103.131 497.43C102.823 497.3 102.545 497.108 102.314 496.866L101.467 495.904C100.078 494.299 100.93 492.517 102.056 490.009C102.843 488.197 103.537 486.345 104.135 484.462C108.773 481.447 112.245 483.67 112.245 483.67Z" fill="#3D2213"/>
<path d="M216.72 179.801C224.512 166.893 226.884 161.591 234.409 148.463L243.031 149.806C231.873 178.438 235.036 187.132 225.008 195.542C211.295 193.2 215.589 183.176 216.72 179.801Z" fill="#A84F25"/>
<path d="M238.066 153.16L244.715 149.463C246.043 148.723 247.062 147.531 247.586 146.105L249.704 140.324C249.875 139.858 249.931 139.358 249.866 138.866C249.801 138.373 249.618 137.904 249.333 137.498C249.047 137.092 248.668 136.762 248.226 136.535C247.785 136.308 247.295 136.191 246.799 136.195L238.714 141.315C236.848 142.558 235.476 144.416 234.839 146.566L233.662 150.305L238.066 153.16Z" fill="#A84F25"/>
<path fill-rule="evenodd" clip-rule="evenodd" d="M242.819 155.976L229.106 153.24L216.825 175.782L182.946 207.12C177.166 207.324 165.232 205.85 161.636 208.895C159.29 210.894 188.451 250.083 188.451 250.083L219.112 209.09C219.112 209.09 229.119 198.079 231.211 191.706C234.899 180.441 242.819 155.976 242.819 155.976Z" fill="#7D92F5"/>
<path d="M200.734 283.496C200.069 275.653 200.366 243.108 200.688 235.244C201.23 222.044 196.571 225.927 194.725 220.71C192.879 215.493 181.741 229.103 178.963 224.191C177.074 220.862 174.186 213.218 170.679 211.681L162.667 207.125C162.667 207.125 147.845 208.971 141.205 215.594C136.805 219.982 137.232 225.296 134.509 236.557C127.679 264.846 124.799 304.607 124.799 304.607L168.202 309.989C177.095 311.544 200.658 305.356 202.161 296.438L200.734 283.496Z" fill="#7D92F5"/>
<path fill-rule="evenodd" clip-rule="evenodd" d="M159.715 207.62C159.715 207.62 165.822 222.828 171.229 223.149C176.637 223.471 172.474 210.28 172.474 210.28L164.081 206.701L159.715 207.62Z" fill="#A84F25"/>
<path d="M173.986 200.222L172.369 213.142L160.32 208.501L166.219 194.047L173.986 200.222Z" fill="#A84F25"/>
<path fill-rule="evenodd" clip-rule="evenodd" d="M173.604 203.275L173.007 208.039L168.434 200.323L173.604 203.275Z" fill="#873B24"/>
<path d="M174.265 182.067C174.265 182.067 180.575 187.411 180.842 197.575C181.108 207.739 169.323 203.622 166.189 202.902C163.055 202.182 154.162 185.662 163.728 183.663C173.295 181.665 174.265 182.067 174.265 182.067Z" fill="#A84F25"/>
<path fill-rule="evenodd" clip-rule="evenodd" d="M163.317 201.729C157.435 201.454 154.31 195.466 155.449 189.685C155.813 187.826 156.338 186.158 157.083 185.086C160.721 179.856 166.298 176.29 173.972 180.563C173.972 180.563 173.828 191.29 164.346 201.7L163.317 201.729Z" fill="#5C3420"/>
<path fill-rule="evenodd" clip-rule="evenodd" d="M166.985 196.69C168.188 198.13 170.115 198.485 171.288 197.482C172.461 196.478 172.444 194.517 171.242 193.065C170.039 191.612 168.125 191.269 166.935 192.26C165.745 193.251 165.783 195.25 166.985 196.69Z" fill="#A84F25"/>
<path d="M172.092 195.466C171.635 195.591 171.146 195.53 170.733 195.297C170.32 195.064 170.015 194.677 169.886 194.221L168.488 189.181C168.362 188.724 168.422 188.236 168.656 187.823C168.889 187.41 169.277 187.107 169.733 186.979C170.191 186.853 170.679 186.913 171.092 187.147C171.505 187.38 171.808 187.767 171.936 188.224L173.337 193.264C173.462 193.721 173.402 194.209 173.168 194.621C172.935 195.034 172.548 195.337 172.092 195.466Z" fill="#5C3420"/>
<path fill-rule="evenodd" clip-rule="evenodd" d="M179.185 190.393C180.274 191.325 181.421 192.187 182.62 192.972C183.649 193.67 182.036 196.038 180.816 195.881C179.596 195.724 177.5 192.493 177.5 192.493L179.185 190.393Z" fill="#A84F25"/>
<path d="M129.418 263.596L146.662 240.55" stroke="#4E5794" stroke-width="3.05" stroke-linecap="round" stroke-linejoin="round"/>
<path d="M199.861 244.315C198.315 236.883 198.493 237.514 197.125 230.708" stroke="#4E5794" stroke-width="3.05" stroke-linecap="round" stroke-linejoin="round"/>
<path fill-rule="evenodd" clip-rule="evenodd" d="M179.393 196.889L177.018 197.765C177.018 197.765 177.975 200.793 179.779 199.375C180.173 199.087 179.393 196.889 179.393 196.889Z" fill="white"/>
</svg>
