<svg width="579" height="581" viewBox="0 0 579 581" fill="none" xmlns="http://www.w3.org/2000/svg">
<path d="M8.87073 260.515C1.59287 195.884 5.11737 44.9716 141.932 5.69857C290.876 -37.0074 360.314 174.783 422.702 160.914C422.702 160.914 551.827 129.514 568.442 267.473C585.058 405.432 394.414 465.028 201.528 442.691C111.859 432.346 19.6273 356.043 8.87073 260.515Z" fill="#EFF1F7"/>
<path d="M198.096 249.759C191.322 242.893 196.082 231.175 205.603 231.221C216.405 231.267 225.102 222.387 225.056 211.401V205.771C225.01 194.786 216.268 185.86 205.466 185.86C195.945 185.814 191.139 174.096 197.867 167.276C205.466 159.541 205.42 146.953 197.776 139.172L193.839 135.19C186.195 127.408 173.837 127.362 166.238 135.098C159.51 141.918 147.975 137.021 147.975 127.362C147.929 116.377 139.187 107.451 128.384 107.451H122.846C112.043 107.406 103.347 116.285 103.392 127.271C103.438 136.975 91.9034 141.781 85.1749 134.915C77.5308 127.134 65.1722 127.088 57.5739 134.823L53.6832 138.806C46.085 146.541 46.1307 159.129 53.7748 166.91C60.5491 173.776 55.7888 185.494 46.268 185.448C35.4657 185.402 26.7689 194.282 26.8146 205.268V210.898C26.8604 221.883 35.603 230.809 46.4054 230.809C55.9261 230.855 60.7322 242.572 54.0036 249.393C46.4054 257.128 46.4511 269.716 54.0952 277.497L58.0316 281.525C65.6757 289.306 78.0343 289.352 85.6326 281.617C92.3612 274.796 103.896 279.694 103.896 289.352C103.942 300.338 112.684 309.263 123.487 309.263H129.025C139.827 309.309 148.524 300.429 148.479 289.444C148.433 279.74 159.967 274.934 166.696 281.8C174.34 289.581 186.699 289.627 194.297 281.891L198.188 277.909C205.786 270.128 205.74 257.54 198.096 249.759ZM91.7203 243.03C72.7247 223.714 72.6331 192.497 91.4915 173.318C110.35 154.14 141.063 154.231 160.013 173.547C179.009 192.863 179.1 224.08 160.242 243.259C141.384 262.438 110.716 262.346 91.7203 243.03Z" fill="#C3C6E3"/>
<path d="M430.072 99.7615H141.018V318.143H430.072V99.7615Z" fill="white"/>
<path d="M170.128 580.741C211.586 580.741 245.195 578.733 245.195 576.256C245.195 573.778 211.586 571.77 170.128 571.77C128.669 571.77 95.0605 573.778 95.0605 576.256C95.0605 578.733 128.669 580.741 170.128 580.741Z" fill="#DCDDF2"/>
<path d="M496.167 580.741C537.625 580.741 571.234 578.733 571.234 576.256C571.234 573.778 537.625 571.77 496.167 571.77C454.708 571.77 421.1 573.778 421.1 576.256C421.1 578.733 454.708 580.741 496.167 580.741Z" fill="#DCDDF2"/>
<path d="M322.142 347.804C322.188 348.765 322.371 349.681 322.783 350.596C324.431 354.258 328.779 355.86 332.441 354.212C335.188 352.977 336.744 350.23 336.698 347.438C336.652 346.477 336.469 345.561 336.057 344.646C334.409 340.984 330.061 339.382 326.399 341.03C323.653 342.266 322.051 344.966 322.142 347.804ZM333.952 345.516C335.05 347.987 333.998 350.871 331.526 352.015C329.054 353.114 326.17 352.061 325.026 349.589C323.928 347.118 324.98 344.234 327.452 343.09C329.924 341.945 332.853 343.044 333.952 345.516Z" fill="#8F93CC"/>
<path d="M339.674 363.504C339.719 364.466 339.903 365.381 340.314 366.296C341.962 369.958 346.311 371.56 349.973 369.913C352.719 368.677 354.275 365.93 354.229 363.138C354.184 362.177 354.001 361.262 353.589 360.346C351.941 356.684 347.592 355.082 343.931 356.73C341.184 357.966 339.582 360.712 339.674 363.504ZM351.483 361.216C352.582 363.687 351.529 366.571 349.057 367.715C346.585 368.814 343.702 367.761 342.557 365.29C341.459 362.818 342.512 359.934 344.983 358.79C347.455 357.691 350.384 358.79 351.483 361.216Z" fill="#8F93CC"/>
<path d="M348.418 345.104L328.415 369.043C327.866 369.73 326.859 369.775 326.172 369.226C325.486 368.677 325.44 367.67 325.989 366.983L345.992 343.044C346.541 342.357 347.548 342.312 348.235 342.861C348.876 343.456 348.967 344.463 348.418 345.104Z" fill="#8F93CC"/>
<path d="M157.142 209.971C159.109 191.572 145.788 175.061 127.389 173.094C108.99 171.127 92.4799 184.448 90.5128 202.847C88.5458 221.247 101.867 237.757 120.266 239.724C138.665 241.691 155.175 228.37 157.142 209.971Z" fill="#F9A56E"/>
<path d="M143.533 179.36C152.184 185.677 157.677 195.976 157.311 207.465C156.761 225.957 141.29 240.467 122.798 239.918C104.306 239.368 89.7959 223.897 90.3452 205.405C90.5283 199.088 92.4507 193.275 95.6548 188.332" stroke="#2D4E73" stroke-width="4.2646" stroke-miterlimit="10" stroke-linecap="round"/>
<path d="M124.859 172.952C128.796 173.09 132.549 173.868 135.982 175.195" stroke="#2D4E73" stroke-width="4.2646" stroke-miterlimit="10" stroke-linecap="round"/>
<path d="M109.525 201.469L123.486 218.084L142.253 193.229" stroke="white" stroke-width="7.3766" stroke-miterlimit="10" stroke-linecap="round" stroke-linejoin="round"/>
<path d="M353.218 126.676H319.529V295.165H353.218V126.676Z" fill="#CCD4EB"/>
<path d="M302.411 126.676H268.723V295.165H302.411V126.676Z" fill="#CCD4EB"/>
<path d="M251.603 126.676H217.914V295.165H251.603V126.676Z" fill="#CCD4EB"/>
<path d="M200.796 126.676H167.107V295.165H200.796V126.676Z" fill="#CCD4EB"/>
<path d="M251.603 201.926H217.914V295.165H251.603V201.926Z" fill="#8A9CDE"/>
<path d="M302.411 170.664H268.723V295.12H302.411V170.664Z" fill="#8A9CDE"/>
<path d="M353.218 205.176H319.529V295.165H353.218V205.176Z" fill="#8A9CDE"/>
<path d="M404.027 126.676H370.338V295.165H404.027V126.676Z" fill="#8A9CDE"/>
<path fill-rule="evenodd" clip-rule="evenodd" d="M474.43 383.69L509.995 481.323L542.311 564.447L549.909 560.19C544.05 528.881 553.433 502.013 532.653 468.965L512.192 400.947L490.816 381.493L474.43 383.69Z" fill="#C95836"/>
<path fill-rule="evenodd" clip-rule="evenodd" d="M474.43 383.69L509.995 481.323L533.751 553.782C534.483 555.933 536.772 557.169 538.923 556.436L553.525 551.722C555.127 551.218 556.042 549.525 555.631 547.877C554.028 541.332 550.824 531.49 550.367 527.6C547.941 508.421 549.497 495.65 532.698 468.965L514.71 398.109L490.862 381.493L474.43 383.69Z" fill="#607AD6"/>
<path fill-rule="evenodd" clip-rule="evenodd" d="M542.858 562.25C542.858 562.25 541.439 570.351 541.622 575.02C541.668 575.798 542.034 576.531 542.675 576.988C543.315 577.4 544.139 577.492 544.872 577.217C546.428 576.577 548.213 575.844 549.312 575.386C549.998 575.112 550.593 574.608 550.959 573.967C551.188 573.556 551.463 573.098 551.783 572.594C553.111 570.351 552.47 568.612 551.6 566.14C550.731 563.577 550.09 560.556 550.09 560.556C546.108 558.588 542.858 562.25 542.858 562.25Z" fill="#212526"/>
<path fill-rule="evenodd" clip-rule="evenodd" d="M514.159 292.145C513.93 290.726 514.433 289.307 515.303 288.208C522.535 279.099 508.529 271.867 504.455 268.663C500.244 265.276 505.645 257.907 496.49 254.428C487.336 250.949 484.086 255.664 483.674 255.526C483.033 255.298 484.452 264.589 484.452 264.589C484.452 264.589 489.029 266.283 488.572 275.575C488.114 284.867 485.413 289.581 490.86 297.134C496.307 304.686 519.468 296.218 519.468 296.218C515.669 295.944 514.479 293.93 514.159 292.145Z" fill="#2E203D"/>
<path fill-rule="evenodd" clip-rule="evenodd" d="M479.554 565.408C479.554 565.408 488.937 502.745 476.808 477.936L483.399 392.936L443.76 395.682L470.445 565.911L479.554 565.408Z" fill="#E3633D"/>
<path fill-rule="evenodd" clip-rule="evenodd" d="M470.217 562.936L462.344 568.658C460.788 570.077 452.365 572.823 452.365 572.823C451.541 574.562 453.189 575.524 454.563 575.752L479.463 575.249C479.463 575.249 485.23 574.059 480.104 562.982C475.572 564.95 471.407 566.415 470.217 562.936Z" fill="#212526"/>
<path fill-rule="evenodd" clip-rule="evenodd" d="M441.059 409.002L450.213 481.003L462.251 553.186H491.225C491.225 553.186 488.525 540.645 488.845 536.663C489.166 532.68 490.218 494.918 481.384 477.524L482.071 406.76L441.059 409.002Z" fill="#607AD6"/>
<path fill-rule="evenodd" clip-rule="evenodd" d="M481.615 477.478L482.301 406.714L468.524 407.446L468.02 459.261C467.929 468.919 469.256 478.623 471.636 488.143C476.351 507.002 475.573 533.275 475.298 536.571C474.978 540.553 477.678 553.095 477.678 553.095H491.41C491.41 553.095 488.709 540.553 489.03 536.571C489.396 532.634 490.449 494.872 481.615 477.478Z" fill="#4F64B0"/>
<path d="M422.752 314.07C412.728 302.215 409.432 297.18 399.637 285.05L388.926 286.194C404.946 313.52 405.267 324.506 416.847 331.418C430.487 326.84 424.491 317.32 422.752 314.07Z" fill="#C95836"/>
<path d="M399.636 285.095L393.868 279.786C392.724 278.733 391.213 278.138 389.657 278.046L383.295 277.863C381.098 277.772 379.496 279.969 380.182 282.029L387.826 288.3C389.52 289.673 391.808 290.405 394.234 290.405L398.262 290.359L399.636 285.095Z" fill="#C95836"/>
<path fill-rule="evenodd" clip-rule="evenodd" d="M461.932 286.332C461.932 286.332 410.666 318.144 413.23 324.918L414.283 327.939C415.656 331.876 420.325 333.478 423.803 331.189L449.665 314.253L454.791 311.095L461.932 286.332Z" fill="#C95836"/>
<path fill-rule="evenodd" clip-rule="evenodd" d="M500.474 350.825L446.325 354.945C437.536 358.195 441.015 408.957 441.015 408.957L476.626 410.604C493.15 410.238 512.741 423.238 514.801 395.682C517.181 364.191 500.474 350.825 500.474 350.825Z" fill="#607AD6"/>
<path fill-rule="evenodd" clip-rule="evenodd" d="M515.303 398.978C515.303 398.978 479.371 402.869 467.699 387.077L515.852 382.958C515.852 382.912 516.035 394.95 515.303 398.978Z" fill="#4F64B0"/>
<path fill-rule="evenodd" clip-rule="evenodd" d="M461.933 286.332L481.798 283.997L487.245 284.226L507.98 291.458C514.938 294.891 518.188 303.039 515.533 310.362L510.452 334.073C515.853 351.97 518.6 364.512 517.684 382.912C488.298 393.806 447.927 393.303 438.635 379.8C440.237 342.953 447.606 310.042 461.933 286.332Z" fill="#B2B4D6"/>
<path fill-rule="evenodd" clip-rule="evenodd" d="M472.002 273.561C472.002 273.561 473.055 281.388 473.924 287.888C474.153 289.627 475.298 291.092 476.9 291.733C478.502 292.374 480.333 292.099 481.66 291C482.118 290.634 482.53 290.314 482.942 289.948C484.773 288.437 485.596 286.011 485.047 283.677C483.628 277.726 481.019 266.878 481.019 266.878L472.002 273.561Z" fill="#C95836"/>
<path fill-rule="evenodd" clip-rule="evenodd" d="M472.23 277.864L473.238 282.533L477.082 277.864H472.23Z" fill="#873B24"/>
<path d="M470.949 285.325C470.949 285.325 464.45 301.437 475.527 302.169C486.604 302.856 492.646 286.103 492.646 286.103L484.544 282.532L470.949 285.325Z" fill="#C95836"/>
<path fill-rule="evenodd" clip-rule="evenodd" d="M485.002 265.139C485.735 262.942 484.59 260.561 482.393 259.829C480.059 259.051 477.175 258.044 474.841 257.266C472.69 256.533 470.63 257.861 469.577 259.875C468.341 262.301 466.922 267.748 466.373 271.822C466.053 274.11 467.105 276.673 469.257 277.406C471.591 278.184 479.235 278.321 481.341 274.385C482.943 271.364 483.904 268.389 485.002 265.139Z" fill="#C95836"/>
<path fill-rule="evenodd" clip-rule="evenodd" d="M491.456 275.896C491.456 275.896 491.41 264.04 488.572 260.15C484.773 254.977 479.051 251.499 471.361 256.03C471.361 256.03 474.062 265.642 488.526 275.529L491.456 275.896Z" fill="#2E203D"/>
<path fill-rule="evenodd" clip-rule="evenodd" d="M484.453 274.705C483.263 276.17 481.34 276.582 480.105 275.621C478.869 274.66 478.869 272.646 480.059 271.135C481.249 269.67 483.171 269.259 484.407 270.22C485.597 271.227 485.643 273.195 484.453 274.705Z" fill="#C95836"/>
<path fill-rule="evenodd" clip-rule="evenodd" d="M467.836 270.494L471.636 271.684C471.636 271.684 470.72 274.293 468.981 273.469C467.241 272.645 467.836 270.494 467.836 270.494Z" fill="white"/>
<path fill-rule="evenodd" clip-rule="evenodd" d="M500.105 352.565L498.87 312.697C498.137 302.718 504.317 296.264 511.869 299.194C514.844 300.338 517.087 304.32 516.95 308.119L515.119 351.466L500.105 352.565Z" fill="#C95836"/>
<path d="M483.994 255.71C483.994 255.71 489.029 255.389 490.036 262.53" stroke="#8B939C" stroke-width="1.9988" stroke-miterlimit="10" stroke-linecap="round" stroke-linejoin="round"/>
<path d="M466.145 354.487L457.31 350.871C455.846 350.368 454.198 350.368 452.733 350.963L446.828 353.297C444.769 354.121 444.174 356.73 445.638 358.378L455.159 361.079C457.265 361.674 459.645 361.445 461.888 360.438L465.595 358.79L466.145 354.487Z" fill="#C95836"/>
<path fill-rule="evenodd" clip-rule="evenodd" d="M495.255 354.487H444.859V350.688H491.41C493.516 350.688 495.255 352.382 495.255 354.487Z" fill="#FAD0B9"/>
<path fill-rule="evenodd" clip-rule="evenodd" d="M478.318 354.487H430.577L416.158 322.401H462.801C463.487 322.401 464.082 322.813 464.357 323.408L478.318 354.487Z" fill="#FAD0B9"/>
<path fill-rule="evenodd" clip-rule="evenodd" d="M476.442 354.487H428.701L414.969 323.865C414.649 323.179 415.152 322.401 415.93 322.401H461.383C461.795 322.401 462.161 322.629 462.344 323.041L476.442 354.487Z" fill="#2E203D"/>
<path fill-rule="evenodd" clip-rule="evenodd" d="M447.1 338.65C447.65 340.664 446.139 342.266 443.622 342.266C441.15 342.266 438.678 340.664 438.083 338.65C437.534 336.636 439.044 335.034 441.562 335.034C444.079 334.988 446.551 336.636 447.1 338.65Z" fill="white"/>
<path fill-rule="evenodd" clip-rule="evenodd" d="M515.121 351.42C516.632 359.385 510.498 367.258 501.664 367.349L458.912 360.575L460.514 354.487L496.675 352.564L515.121 351.42Z" fill="#C95836"/>
<path fill-rule="evenodd" clip-rule="evenodd" d="M515.072 297.546C515.072 297.546 518.826 304.457 519.466 324.414H495.253L492.689 295.074L515.072 297.546Z" fill="#B2B4D6"/>
<path fill-rule="evenodd" clip-rule="evenodd" d="M461.932 286.331C461.932 286.331 449.207 290.451 434.926 302.169L444.858 319.883L460.696 309.675L461.932 286.331Z" fill="#B2B4D6"/>
<path d="M496.948 320.798C496.857 320.203 497.726 309.767 497.726 309.767L498.825 309.264" stroke="#60709C" stroke-width="2.7915" stroke-miterlimit="10" stroke-linecap="round" stroke-linejoin="round"/>
<path d="M449.205 315.488C449.205 315.488 451.128 307.478 451.814 306.242" stroke="#60709C" stroke-width="2.7915" stroke-miterlimit="10" stroke-linecap="round" stroke-linejoin="round"/>
<path fill-rule="evenodd" clip-rule="evenodd" d="M154.199 335.354C154.199 335.354 156.625 342.632 162.255 341.67C167.931 340.709 164.681 324.506 164.681 324.506L154.199 335.354Z" fill="#572A22"/>
<path fill-rule="evenodd" clip-rule="evenodd" d="M198.918 432.483C206.516 440.036 218.509 443.103 230.364 447.588C243.455 452.578 246.339 463.014 246.155 472.855C245.927 483.52 237.047 492.217 226.382 492.217H225.787C210.91 492.171 198.918 480.133 198.918 465.302V432.483Z" fill="#8A9CDE"/>
<path fill-rule="evenodd" clip-rule="evenodd" d="M195.072 410.238C201.252 415.227 209.17 415.776 215.716 409.368L240.662 372.109L231.507 370.187L208.484 394.813L195.072 410.238Z" fill="#C95836"/>
<path d="M231.508 370.187L238.099 365.38C239.426 364.419 241.029 363.962 242.676 364.099L249.268 364.648C251.556 364.831 252.975 367.257 251.968 369.363L243.317 374.947C241.395 376.183 238.969 376.686 236.451 376.366L232.286 375.817L231.508 370.187Z" fill="#C95836"/>
<path fill-rule="evenodd" clip-rule="evenodd" d="M183.586 575.523C182.579 575.706 181.664 575.111 181.48 574.104L158.045 445.071C157.862 444.064 158.503 443.103 159.51 442.92C160.517 442.737 161.432 443.332 161.615 444.339L185.051 573.372C185.234 574.379 184.547 575.34 183.586 575.523Z" fill="#A7B1CC"/>
<path fill-rule="evenodd" clip-rule="evenodd" d="M111.63 576.347C110.623 576.21 109.936 575.294 110.119 574.287L129.756 443.606C129.893 442.599 130.854 441.912 131.816 442.05C132.823 442.187 133.509 443.102 133.326 444.109L113.69 574.791C113.552 575.798 112.591 576.484 111.63 576.347Z" fill="#A7B1CC"/>
<path fill-rule="evenodd" clip-rule="evenodd" d="M173.284 545.405H118.494C117.487 545.405 116.663 544.627 116.709 543.62C116.755 542.658 117.579 541.834 118.586 541.834H173.375C174.382 541.834 175.206 542.613 175.161 543.62C175.161 544.627 174.291 545.405 173.284 545.405Z" fill="#A7B1CC"/>
<path fill-rule="evenodd" clip-rule="evenodd" d="M229.815 575.523C228.808 575.706 227.892 575.111 227.709 574.104L204.273 445.071C204.09 444.064 204.594 443.927 205.601 443.744C205.601 443.744 207.661 443.377 207.844 444.339L231.279 573.372C231.462 574.379 230.822 575.34 229.815 575.523Z" fill="#A7B1CC"/>
<path fill-rule="evenodd" clip-rule="evenodd" d="M157.86 576.347C156.853 576.21 156.167 575.294 156.35 574.287L175.986 443.606C176.124 442.599 177.085 441.912 178.046 442.05C179.053 442.187 179.74 443.102 179.557 444.109L159.92 574.791C159.783 575.798 158.867 576.484 157.86 576.347Z" fill="#A7B1CC"/>
<path fill-rule="evenodd" clip-rule="evenodd" d="M222.172 545.405H163.446C162.347 545.405 161.523 544.627 161.523 543.62C161.569 542.658 162.439 541.834 163.537 541.834H222.264C223.362 541.834 224.186 542.613 224.186 543.62C224.141 544.627 223.225 545.405 222.172 545.405Z" fill="#A7B1CC"/>
<path fill-rule="evenodd" clip-rule="evenodd" d="M227.526 492.125C238.237 492.125 244.462 483.703 244.69 474.137C244.919 464.936 241.898 455.141 228.258 450.518C209.857 444.247 191.136 441.043 187.749 422.459C186.101 413.442 185.598 400.122 185.506 388.725C185.415 376.549 174.384 366.754 160.789 366.754H134.149C120.784 366.754 109.798 376.275 109.432 388.267L107.967 432.484C107.327 453.676 125.773 491.942 149.483 491.988L227.526 492.125Z" fill="#8A9CDE"/>
<path fill-rule="evenodd" clip-rule="evenodd" d="M203.952 452.12C201.664 453.493 201.16 456.514 202.671 459.444C205.371 464.662 218.645 473.038 211.963 490.523C207.111 503.202 205.097 543.025 207.065 562.112C207.34 564.904 206.47 563.21 209.354 564.492C212.832 566.048 213.702 571.129 214.709 568.245L244.965 481.094C245.834 478.485 245.697 475.418 244.69 472.306C242.722 466.172 237.504 461.137 231.37 458.803L218.188 453.768C218.188 453.768 216.219 460.588 213.793 462.098L203.952 452.12Z" fill="#C95836"/>
<path fill-rule="evenodd" clip-rule="evenodd" d="M216.404 563.76L223.087 569.298C224.46 570.671 232.104 573.509 232.104 573.509C232.791 575.157 231.28 575.935 229.953 576.118L207.066 574.699C207.066 574.699 201.802 573.372 206.929 563.394C211.048 565.408 215.168 566.872 216.404 563.76Z" fill="#4A2A1A"/>
<path fill-rule="evenodd" clip-rule="evenodd" d="M181.021 457.979C178.549 459.352 177.634 462.236 178.732 464.982C180.655 469.88 193.517 478.165 183.539 494.368C172.462 512.311 169.12 540.553 168.388 558.633C168.296 561.288 174.018 568.566 175.391 565.774L217.456 484.71C218.692 482.193 219.012 479.309 218.417 476.38C217.319 470.612 212.879 465.898 207.157 463.792L194.844 459.261C194.844 459.261 191.961 465.806 189.352 467.271L181.021 457.979Z" fill="#C95836"/>
<path fill-rule="evenodd" clip-rule="evenodd" d="M188.254 475.235C184.409 475.235 136.943 476.837 131.633 475.235C126.323 473.633 127.056 434.269 127.056 434.269L174.797 440.402C174.797 440.402 230.456 460.863 231.555 463.472C232.699 466.081 188.254 475.235 188.254 475.235Z" fill="#C95836"/>
<path fill-rule="evenodd" clip-rule="evenodd" d="M183.676 436.237C183.676 436.237 222.857 450.976 233.476 457.933C244.096 464.936 249.039 475.373 246.384 483.886C243.73 492.4 222.857 554.148 222.857 554.148C222.857 554.148 209.995 556.985 201.848 555.383L207.111 509.199C207.111 509.199 184.134 555.841 183.676 555.887C183.218 555.933 168.433 552.729 165.321 548.517C165.321 548.517 179.007 498.213 183.676 492.034C188.345 485.855 182.669 477.524 179.327 477.89C175.986 478.256 148.889 476.837 148.889 476.837C148.889 476.837 126.735 470.75 125.911 455.141C125.041 439.487 126.506 435.322 126.506 435.322L183.676 436.237Z" fill="#6C6E9C"/>
<path fill-rule="evenodd" clip-rule="evenodd" d="M211.872 405.523L199.605 368.356C196.081 358.698 184.683 349.497 177.589 354.853C174.796 356.958 173.973 361.49 175.803 365.06L198.369 409.185L211.872 405.523Z" fill="#C95836"/>
<path fill-rule="evenodd" clip-rule="evenodd" d="M186.834 352.701L173.377 348.033L161.796 346.659L156.12 346.888L134.561 354.395C127.284 357.965 123.942 366.433 126.689 374.031L131.952 398.703C126.368 417.287 123.301 421.956 124.263 441.089C152.413 445.986 196.629 442.324 198.872 439.761C197.27 401.449 196.538 372.017 186.834 352.701Z" fill="#CCD4EB"/>
<path d="M173.057 348.033C173.057 348.033 179.832 364.786 168.343 365.518C156.854 366.25 150.537 348.811 150.537 348.811L158.959 345.058L173.057 348.033Z" fill="#C95836"/>
<path fill-rule="evenodd" clip-rule="evenodd" d="M125.59 420.079L142.617 376.183C146.691 367.12 142.388 358.515 133.554 358.103C130.075 357.92 126.414 360.758 125.269 364.374L109.523 406.302L125.59 420.079Z" fill="#C95836"/>
<path fill-rule="evenodd" clip-rule="evenodd" d="M109.524 406.301C105.542 413.167 105.176 420.674 112.545 426.167L155.709 446.032L161.797 438.022L127.787 413.167L109.524 406.301Z" fill="#C95836"/>
<path fill-rule="evenodd" clip-rule="evenodd" d="M146.691 369.317L136.163 397.971L112.59 389.457C117.121 384.559 121.79 361.032 134.607 354.395C148.659 347.117 146.691 369.317 146.691 369.317Z" fill="#CCD4EB"/>
<path fill-rule="evenodd" clip-rule="evenodd" d="M186.834 352.702C186.834 352.702 199.421 356.272 204.227 371.972C209.034 387.672 209.72 387.947 209.72 387.947L192.51 394.904L179.281 362.36L186.834 352.702Z" fill="#CCD4EB"/>
<path d="M198.92 392.57C198.92 392.57 197.363 379.845 194.525 371.972" stroke="#60709C" stroke-width="2.7915" stroke-miterlimit="10" stroke-linecap="round" stroke-linejoin="round"/>
<path d="M133.875 395.224L141.016 371.468L140.787 368.356" stroke="#60709C" stroke-width="2.7915" stroke-miterlimit="10" stroke-linecap="round" stroke-linejoin="round"/>
<path d="M155.207 438.159L163.354 438.022C165.002 437.976 166.558 438.571 167.84 439.624L172.921 443.881C174.706 445.345 174.431 448.138 172.417 449.282L162.118 448.87C159.83 448.778 157.541 447.771 155.71 446.078L152.598 443.24L155.207 438.159Z" fill="#C95836"/>
<path fill-rule="evenodd" clip-rule="evenodd" d="M108.014 432.483C115.612 440.036 127.604 443.103 139.46 447.588C152.551 452.578 155.434 463.014 155.251 472.855C155.022 483.52 146.142 492.217 135.477 492.217H134.882C120.006 492.171 108.014 480.133 108.014 465.302V432.483Z" fill="#8A9CDE"/>
<path d="M209.766 505.171C210.27 504.621 219.241 481.46 219.699 477.02C220.157 472.58 216.358 461.458 189.764 456.148" stroke="#515382" stroke-width="4" stroke-miterlimit="10" stroke-linecap="round" stroke-linejoin="round"/>
<path fill-rule="evenodd" clip-rule="evenodd" d="M176.49 563.348L179.831 571.358C180.426 573.189 185.873 579.277 185.873 579.277C185.736 581.062 183.996 581.062 182.76 580.604L163.17 568.703C163.17 568.703 159.142 565.087 168.296 558.633C171.043 562.295 173.972 565.545 176.49 563.348Z" fill="#4A2A1A"/>
<path fill-rule="evenodd" clip-rule="evenodd" d="M171.913 336.956C171.913 336.956 170.723 344.6 169.716 350.962C169.441 352.656 168.113 354.075 166.237 354.716C164.36 355.357 162.209 355.036 160.653 353.983C160.149 353.617 159.645 353.297 159.142 352.976C156.991 351.512 156.029 349.132 156.67 346.843C158.318 341.03 161.339 330.456 161.339 330.456L171.913 336.956Z" fill="#C95836"/>
<path fill-rule="evenodd" clip-rule="evenodd" d="M171.364 341.213L170.403 345.744L166.604 341.213H171.364Z" fill="#873B24"/>
<path fill-rule="evenodd" clip-rule="evenodd" d="M174.337 330.365C174.337 330.365 178.502 323.545 170.538 318.738C162.573 313.932 164.45 328.671 164.724 328.808C164.953 328.946 174.337 330.365 174.337 330.365Z" fill="#572A22"/>
<path fill-rule="evenodd" clip-rule="evenodd" d="M156.808 329.083C155.893 326.84 156.991 324.277 159.188 323.361C161.569 322.4 164.544 321.21 166.924 320.249C169.167 319.333 171.364 320.615 172.6 322.721C174.064 325.192 175.804 330.777 176.628 335.033C177.085 337.414 176.17 340.16 173.927 341.03C171.547 341.991 163.537 342.586 161.111 338.558C159.326 335.491 158.136 332.424 156.808 329.083Z" fill="#C95836"/>
<path fill-rule="evenodd" clip-rule="evenodd" d="M153.33 337.047C153.33 337.047 150.034 328.259 152.78 324.094C156.488 318.464 162.255 314.481 170.54 318.784C170.54 318.784 174.889 320.249 162.896 324.689C161.386 325.238 165.322 332.287 163.491 333.386C160.974 334.804 157.678 336.086 153.33 337.047Z" fill="#572A22"/>
<path d="M162.428 339.84C163.68 338.776 163.646 336.679 162.352 335.158C161.058 333.637 158.995 333.266 157.743 334.331C156.491 335.395 156.525 337.491 157.819 339.013C159.113 340.534 161.176 340.905 162.428 339.84Z" fill="#C95836"/>
<path d="M233.49 60.6413C237.648 58.9192 239.622 54.1531 237.9 49.9957C236.178 45.8384 231.411 43.8642 227.254 45.5863C223.097 47.3083 221.123 52.0745 222.845 56.2319C224.567 60.3892 229.333 62.3634 233.49 60.6413Z" stroke="#2D4E73" stroke-width="4.2646" stroke-miterlimit="10" stroke-linecap="round"/>
<path d="M36.7207 473.1C41.0998 472.066 43.8116 467.678 42.7776 463.298C41.7435 458.919 37.3552 456.207 32.9761 457.241C28.5969 458.276 25.8851 462.664 26.9192 467.043C27.9532 471.422 32.3415 474.134 36.7207 473.1Z" stroke="#2D4E73" stroke-width="4.2646" stroke-miterlimit="10" stroke-linecap="round"/>
<path d="M568.487 275.666C572.987 275.666 576.635 272.018 576.635 267.518C576.635 263.019 572.987 259.371 568.487 259.371C563.988 259.371 560.34 263.019 560.34 267.518C560.34 272.018 563.988 275.666 568.487 275.666Z" stroke="#2D4E73" stroke-width="4.2646" stroke-miterlimit="10" stroke-linecap="round"/>
<path d="M21.0005 279.053C-27.839 334.026 25.2573 419.118 92.2228 410.559" stroke="#2D4E73" stroke-width="4" stroke-miterlimit="10" stroke-linecap="round" stroke-linejoin="round" stroke-dasharray="32.18 32.18"/>
<path d="M413.135 99.9903L430.116 99.7615V292.053" stroke="#2D4E73" stroke-width="4.2646" stroke-miterlimit="10" stroke-linecap="round"/>
<path d="M380.682 89.9661L398.67 91.5223L390.157 108.504" stroke="#E69057" stroke-width="20" stroke-miterlimit="10" stroke-linecap="round" stroke-linejoin="round"/>
<path d="M191.047 144.985L261.857 104.064L301.222 147.319L391.211 95.0925" stroke="#E69057" stroke-width="20" stroke-miterlimit="10" stroke-linecap="round" stroke-linejoin="round"/>
<path d="M141.018 132.123V99.7615H241.626" stroke="#2D4E73" stroke-width="4.2646" stroke-miterlimit="10" stroke-linecap="round"/>
<path d="M207.02 319.745H380.04" stroke="#2D4E73" stroke-width="4.2646" stroke-miterlimit="10" stroke-linecap="round"/>
<path d="M324.932 527.279C324.932 527.279 331.843 485.9 359.353 459.947C359.353 459.947 373.954 514.691 336.741 528.469C334.086 529.476 324.932 527.279 324.932 527.279Z" fill="#8A9CDE"/>
<path d="M317.975 479.904C317.975 479.904 316.876 443.057 288.039 433.994C288.039 433.994 280.99 491.164 314.908 527.279L321.911 530.803L317.975 479.904Z" fill="#8A9CDE"/>
<path d="M317.242 528.469C317.242 528.469 304.701 456.835 337.52 425.801C337.52 425.801 354.867 478.165 326.214 530.758L317.242 528.469Z" fill="#8A9CDE"/>
<path d="M334.864 580.604C374.755 580.604 407.093 578.268 407.093 575.386C407.093 572.504 374.755 570.168 334.864 570.168C294.973 570.168 262.635 572.504 262.635 575.386C262.635 578.268 294.973 580.604 334.864 580.604Z" fill="#DCDDF2"/>
<path d="M327.768 576.576H323.466C310.466 576.576 299.893 566.048 299.893 553.003V519.955H351.295V553.003C351.341 566.048 340.768 576.576 327.768 576.576Z" fill="#C0C0D1"/>
<path d="M351.341 554.971V519.955C344.613 555.475 336.786 565.911 312.068 573.28C316.005 575.34 320.674 576.576 325.663 576.576C339.852 576.576 351.341 566.918 351.341 554.971Z" fill="#9BAACF"/>
<path d="M316.828 471.024C316.828 471.024 312.709 496.474 316.004 518.719" stroke="#44538C" stroke-width="4" stroke-miterlimit="10" stroke-linecap="round" stroke-linejoin="round"/>
<path d="M340.905 483.154C340.905 483.154 338.845 502.47 336.557 512.723" stroke="#44538C" stroke-width="4" stroke-miterlimit="10" stroke-linecap="round" stroke-linejoin="round"/>
<path d="M191.322 150.111L259.066 111.433C259.981 110.93 261.126 111.067 261.858 111.845L298.11 150.981C299.209 152.171 300.994 152.446 302.367 151.622L380.638 105.941" stroke="#2D4E73" stroke-width="4.2646" stroke-miterlimit="10" stroke-linecap="round"/>
</svg>
