<svg width="622" height="512" viewBox="0 0 622 512" fill="none" xmlns="http://www.w3.org/2000/svg">
<path d="M386.677 1.49431C404.037 5.16446 420.553 15.7345 432.224 29.8279C447.932 48.876 472.118 85.6876 469.439 129.656C465.512 194.288 447.088 203.133 436.481 256.827C425.874 310.521 491.79 381.832 407.01 439.711C322.229 497.589 293.455 362.748 195.976 356.802C195.976 356.802 32.03 358.747 5.8985 286.482C-33.1152 178.469 131.271 201.041 209.225 130.023C281.784 63.9603 324.908 -11.6081 386.677 1.49431Z" fill="#EBEEF7"/>
<path d="M582.48 205.812C576.608 199.829 580.718 189.626 589.013 189.663C598.408 189.7 606.005 181.956 605.969 172.413V167.495C605.932 157.953 598.298 150.172 588.903 150.135C580.608 150.099 576.424 139.896 582.26 133.95C588.866 127.197 588.829 116.26 582.186 109.47L578.773 105.983C572.093 99.1935 561.34 99.1568 554.733 105.91C548.898 111.856 538.842 107.598 538.805 99.1568C538.768 89.6144 531.134 81.8337 521.739 81.797H516.894C507.499 81.7603 499.901 89.5043 499.938 99.0467C499.975 107.488 489.955 111.672 484.046 105.69C477.367 98.8999 466.613 98.8632 460.007 105.616L456.593 109.066C449.987 115.819 450.024 126.756 456.667 133.546C462.539 139.529 458.429 149.732 450.134 149.695C440.738 149.658 433.141 157.402 433.178 166.945V171.863C433.215 181.405 440.848 189.186 450.244 189.222C458.539 189.259 462.723 199.462 456.887 205.408C450.281 212.161 450.281 223.098 456.96 229.888L460.374 233.374C467.053 240.164 477.807 240.201 484.413 233.448C490.249 227.502 500.305 231.76 500.342 240.201C500.378 249.743 508.012 257.524 517.408 257.561H522.252C531.648 257.597 539.245 249.853 539.209 240.311C539.172 231.87 549.191 227.686 555.1 233.668C561.78 240.458 572.534 240.494 579.14 233.741L582.553 230.291C589.196 223.538 589.159 212.601 582.48 205.812ZM489.808 199.939C473.256 183.13 473.183 155.934 489.625 139.198C506.067 122.499 532.786 122.572 549.338 139.382C565.891 156.191 565.964 183.387 549.522 200.123C533.079 216.859 506.361 216.749 489.808 199.939Z" fill="#C3C6E3"/>
<path d="M429.287 493.552C507.346 493.552 570.625 488.507 570.625 482.284C570.625 476.062 507.346 471.017 429.287 471.017C351.228 471.017 287.949 476.062 287.949 482.284C287.949 488.507 351.228 493.552 429.287 493.552Z" fill="#DCDDF2"/>
<path d="M517.554 485.514H353.094C346.414 485.514 340.946 480.046 340.983 473.366L341.276 163.715C341.276 157.035 346.745 151.567 353.424 151.567H517.884C524.564 151.567 530.032 157.035 529.996 163.715L529.702 473.366C529.702 480.046 524.233 485.514 517.554 485.514Z" fill="#222445"/>
<path d="M507.132 485.514H342.672C335.993 485.514 330.524 480.046 330.561 473.366L330.854 163.715C330.854 157.035 336.323 151.567 343.003 151.567H507.462C514.142 151.567 519.61 157.035 519.574 163.715L519.28 473.366C519.28 480.046 513.811 485.514 507.132 485.514Z" fill="#6A76AB"/>
<path d="M508.636 468.888H336.396C335.405 468.888 334.598 468.081 334.598 467.09L334.855 168.119C334.855 167.128 335.662 166.321 336.653 166.321H508.893C509.884 166.321 510.692 167.128 510.692 168.119L510.435 467.09C510.398 468.081 509.591 468.888 508.636 468.888Z" fill="#E8E9F7"/>
<path d="M352.728 423.195H413.066C413.066 423.195 395.412 357.756 384.769 252.863L348.654 251.248L352.728 423.195Z" fill="#BCBDCF"/>
<path fill-rule="evenodd" clip-rule="evenodd" d="M420.809 279.619C412.735 284.757 365.06 273.159 361.536 270.663C357.536 267.837 333.863 252.166 333.863 252.166L343.663 241.743C343.663 241.743 364.913 252.203 367.445 252.276C370.014 252.349 407.487 254.074 407.487 254.074L420.809 279.619Z" fill="#F9A56E"/>
<path d="M558.291 511.72C593.216 511.72 621.528 509.682 621.528 507.169C621.528 504.655 593.216 502.618 558.291 502.618C523.367 502.618 495.055 504.655 495.055 507.169C495.055 509.682 523.367 511.72 558.291 511.72Z" fill="#DCDDF2"/>
<path d="M560.53 443.015C560.53 443.015 559.355 420.406 569.522 408.809C579.651 397.248 573.816 373.025 587.469 365.134C601.122 357.243 608.132 353.022 608.132 353.022C608.132 353.022 607.728 379.851 596.424 389.32C585.12 398.789 588.496 413.066 584.459 426.682C580.422 440.299 571.834 451.419 571.834 451.419L560.53 443.015Z" fill="#7A92E6"/>
<path d="M558.181 324.688C558.181 324.688 567.944 326.78 567.944 342.048C567.944 357.316 586.294 368.877 580.422 390.458C574.586 412.038 571.43 437.289 571.43 437.289L569.852 450.024L554.254 446.758C554.254 446.758 563.943 420.443 560.456 412.552C556.97 404.661 559.245 387.815 560.456 378.897C561.668 369.942 555.832 368.363 554.254 359.445C552.712 350.453 557.777 342.048 558.181 324.688Z" fill="#7A92E6"/>
<path d="M549.813 443.271C549.813 443.271 542.876 387.558 517.112 399.67C491.347 411.781 498.761 436.885 490.98 443.271C490.98 443.271 501.514 448.593 506.212 437.546C510.909 426.498 517.149 411.781 522.214 416.516C527.278 421.25 527.792 443.271 538.876 443.271H549.813Z" fill="#7A92E6"/>
<path d="M513.185 349.168C513.185 349.168 510.469 372.841 519.828 382.31C529.187 391.779 536.233 394.421 539.353 405.175C542.472 415.929 548.712 446.978 548.712 446.978L558.181 444.519C558.181 444.519 559.649 421.214 553.41 410.68C547.17 400.147 551.464 383.851 538.582 374.896C525.663 366.014 514.726 363.372 513.185 349.168Z" fill="#7A92E6"/>
<path d="M559.098 508.196H555.355C543.977 508.196 534.729 498.948 534.729 487.57V442.023H579.725V487.57C579.688 498.984 570.476 508.196 559.098 508.196Z" fill="#C7C7D1"/>
<path d="M579.688 489.295V445.767C570.66 477.734 552.529 498.14 545.299 505.297C548.749 507.095 552.823 508.159 557.19 508.159C569.632 508.196 579.688 499.755 579.688 489.295Z" fill="#9BAACF"/>
<path d="M549.814 443.271C549.814 443.271 549.557 423.929 541.189 412.552" stroke="#44538C" stroke-width="4" stroke-miterlimit="10" stroke-linecap="round" stroke-linejoin="round"/>
<path d="M562.512 440.666C562.512 440.666 573.302 429.949 570.99 417.507C568.678 405.065 570.146 401.725 573.522 396.037C576.899 390.348 578.77 376.585 580.349 373.575" stroke="#44538C" stroke-width="4" stroke-miterlimit="10" stroke-linecap="round" stroke-linejoin="round"/>
<path d="M405.984 137.621L349.243 137.804C346.527 137.804 344.325 135.676 344.325 132.997L343.885 55.4462C343.885 52.8037 346.05 50.6383 348.766 50.6016L405.507 50.3813C408.223 50.3813 410.425 52.51 410.425 55.1893L410.865 132.74C410.865 135.419 408.663 137.584 405.984 137.621Z" stroke="#2D4E73" stroke-width="4" stroke-miterlimit="10" stroke-linecap="round" stroke-linejoin="round"/>
<path d="M399.158 78.7145L354.456 78.898C352.694 78.898 351.3 77.5033 351.263 75.8151L351.189 61.2445C351.189 59.5196 352.584 58.1249 354.346 58.1249L399.048 57.9414C400.81 57.9414 402.205 59.3361 402.241 61.0243L402.315 75.5949C402.315 77.2831 400.883 78.6778 399.158 78.7145Z" stroke="#2D4E73" stroke-width="4" stroke-miterlimit="10" stroke-linecap="round" stroke-linejoin="round"/>
<path d="M363.778 96.772L351.923 96.8087L351.887 89.4317L363.741 89.395L363.778 96.772Z" fill="#8A9CDE"/>
<path d="M382.825 96.6988L370.97 96.7355L370.934 89.3585L382.788 89.3218L382.825 96.6988Z" fill="#8A9CDE"/>
<path d="M402.02 96.625L390.166 96.6985L390.129 89.3215L401.984 89.248L402.02 96.625Z" fill="#8A9CDE"/>
<path d="M363.85 110.571L352.032 110.608L351.959 103.231L363.814 103.194L363.85 110.571Z" fill="#8A9CDE"/>
<path d="M382.897 110.499L371.043 110.572L371.006 103.195L382.86 103.122L382.897 110.499Z" fill="#8A9CDE"/>
<path d="M402.094 110.425L390.277 110.498L390.203 103.121L402.058 103.048L402.094 110.425Z" fill="#8A9CDE"/>
<path d="M363.925 124.372L352.107 124.445L352.07 117.068L363.888 116.995L363.925 124.372Z" fill="#8A9CDE"/>
<path d="M382.973 124.298L371.119 124.371L371.082 116.994L382.937 116.921L382.973 124.298Z" fill="#8A9CDE"/>
<path d="M402.167 124.225L390.349 124.298L390.312 116.921L402.13 116.848L402.167 124.225Z" fill="#F9A56E"/>
<path d="M362.823 73.8701C361.502 73.8701 360.438 72.8424 360.438 71.5579C360.438 70.2733 361.502 69.209 362.786 69.209C364.108 69.209 365.172 70.2366 365.172 71.5212C365.209 72.8058 364.144 73.8334 362.823 73.8701Z" fill="#2D4E73"/>
<path d="M358.051 130.5L395.156 130.39" stroke="#2D4E73" stroke-width="4" stroke-miterlimit="10" stroke-linecap="round" stroke-linejoin="round"/>
<path d="M148.284 90.1715C148.723 86.5902 146.175 83.331 142.594 82.8919C139.013 82.4528 135.754 85.0001 135.315 88.5814C134.875 92.1627 137.423 95.4219 141.004 95.861C144.585 96.3001 147.845 93.7528 148.284 90.1715Z" stroke="#2D4E73" stroke-width="4.2646" stroke-miterlimit="10" stroke-linecap="round"/>
<path d="M585.767 297.378C589.278 296.549 591.452 293.03 590.623 289.519C589.794 286.008 586.275 283.833 582.764 284.662C579.253 285.491 577.078 289.01 577.907 292.521C578.737 296.033 582.255 298.207 585.767 297.378Z" stroke="#2D4E73" stroke-width="4.2646" stroke-miterlimit="10" stroke-linecap="round"/>
<path d="M220.52 492.964C220.959 489.383 218.412 486.123 214.831 485.684C211.249 485.245 207.99 487.793 207.551 491.374C207.112 494.955 209.659 498.214 213.24 498.653C216.822 499.093 220.081 496.545 220.52 492.964Z" stroke="#2D4E73" stroke-width="4.2646" stroke-miterlimit="10" stroke-linecap="round"/>
<path d="M218.879 225.887H239.945L239.872 189.259H218.842L218.879 225.887Z" fill="#C3CEE8"/>
<path d="M187.095 225.887H208.162L208.088 165.807H187.021L187.095 225.887Z" fill="#C3CEE8"/>
<path d="M155.311 225.888H176.378L176.268 131.308H155.201L155.311 225.888Z" fill="#C3CEE8"/>
<path d="M140.777 135.271L140.887 227.062H258.369" stroke="#2D4E73" stroke-width="4.2646" stroke-miterlimit="10" stroke-linecap="round"/>
<path d="M240.311 202.619L251.138 203.72L247.174 192.856" stroke="#E69057" stroke-width="11.3124" stroke-miterlimit="10" stroke-linecap="round" stroke-linejoin="round"/>
<path d="M150.393 164.376L183.461 191.241L209.702 170.358L247.909 201.445" stroke="#E69057" stroke-width="11.3124" stroke-miterlimit="10" stroke-linecap="round" stroke-linejoin="round"/>
<path d="M300.355 457.657H236.641L255.138 273.893C256.313 262.332 262.699 241.706 293.345 241.706H371.262C384.071 241.706 383.777 247.871 384.805 252.826C376.033 251.835 371.409 250.367 368.546 268.608L362.6 327.661L353.498 418.056C351.296 439.967 336.873 457.657 300.355 457.657Z" fill="white"/>
<path d="M146.428 299.438V339.296H254.882V304.796C254.882 293.015 250.734 271.985 221.3 271.985H146.465C136.923 272.425 134.244 273.636 128.041 276.609C136.519 275.618 145.437 280.83 146.428 299.438Z" fill="white"/>
<path d="M153.807 341.021V416.149C153.807 439.087 180.342 457.658 213.043 457.658H254.883V308.797C254.883 299.181 250.479 290.042 242.808 284.757C219.429 268.608 187.352 300.759 153.807 341.021Z" fill="#BCBDCF"/>
<path fill-rule="evenodd" clip-rule="evenodd" d="M334.451 259.689H274.884C273.857 259.689 273.086 258.845 273.196 257.818C273.306 256.79 274.224 255.946 275.251 255.946H334.818C335.846 255.946 336.616 256.79 336.506 257.818C336.396 258.845 335.479 259.689 334.451 259.689Z" fill="#C1C2D4"/>
<path fill-rule="evenodd" clip-rule="evenodd" d="M301.419 286.335H272.205C271.177 286.335 270.406 285.491 270.516 284.464C270.626 283.436 271.544 282.592 272.572 282.592H301.786C302.814 282.592 303.584 283.436 303.474 284.464C303.364 285.491 302.447 286.335 301.419 286.335Z" fill="#C1C2D4"/>
<path fill-rule="evenodd" clip-rule="evenodd" d="M331.771 286.335H314.375C313.347 286.335 312.576 285.491 312.686 284.464C312.796 283.436 313.714 282.592 314.742 282.592H332.138C333.166 282.592 333.936 283.436 333.826 284.464C333.716 285.491 332.799 286.335 331.771 286.335Z" fill="#C1C2D4"/>
<path fill-rule="evenodd" clip-rule="evenodd" d="M298.3 317.605H269.086C268.058 317.605 267.287 316.761 267.397 315.733C267.507 314.705 268.425 313.861 269.453 313.861H298.667C299.695 313.861 300.465 314.705 300.355 315.733C300.245 316.761 299.328 317.605 298.3 317.605Z" fill="#C1C2D4"/>
<path fill-rule="evenodd" clip-rule="evenodd" d="M328.617 317.605H311.22C310.193 317.605 309.422 316.761 309.532 315.733C309.642 314.705 310.56 313.861 311.587 313.861H328.984C330.011 313.861 330.782 314.705 330.672 315.733C330.562 316.761 329.644 317.605 328.617 317.605Z" fill="#C1C2D4"/>
<path fill-rule="evenodd" clip-rule="evenodd" d="M295.144 348.838H265.929C264.902 348.838 264.131 347.994 264.241 346.966C264.351 345.938 265.269 345.094 266.296 345.094H295.511C296.538 345.094 297.309 345.938 297.199 346.966C297.089 347.994 296.171 348.838 295.144 348.838Z" fill="#C1C2D4"/>
<path fill-rule="evenodd" clip-rule="evenodd" d="M325.496 348.838H308.099C307.071 348.838 306.301 347.994 306.411 346.966C306.521 345.938 307.438 345.094 308.466 345.094H325.863C326.89 345.094 327.661 345.938 327.551 346.966C327.441 347.994 326.523 348.838 325.496 348.838Z" fill="#C1C2D4"/>
<path fill-rule="evenodd" clip-rule="evenodd" d="M291.987 380.108H262.773C261.745 380.108 260.975 379.264 261.085 378.236C261.195 377.208 262.112 376.364 263.14 376.364H292.354C293.382 376.364 294.153 377.208 294.043 378.236C293.933 379.264 293.015 380.108 291.987 380.108Z" fill="#C1C2D4"/>
<path fill-rule="evenodd" clip-rule="evenodd" d="M322.339 380.108H304.943C303.915 380.108 303.145 379.264 303.255 378.236C303.365 377.208 304.282 376.364 305.31 376.364H322.706C323.734 376.364 324.505 377.208 324.395 378.236C324.285 379.264 323.367 380.108 322.339 380.108Z" fill="#C1C2D4"/>
<path fill-rule="evenodd" clip-rule="evenodd" d="M288.831 411.341H259.617C258.589 411.341 257.818 410.497 257.928 409.469C258.039 408.441 258.956 407.597 259.984 407.597H289.198C290.226 407.597 290.997 408.441 290.886 409.469C290.813 410.533 289.859 411.341 288.831 411.341Z" fill="#C1C2D4"/>
<path fill-rule="evenodd" clip-rule="evenodd" d="M319.183 411.341H301.787C300.759 411.341 299.988 410.497 300.098 409.469C300.208 408.441 301.126 407.597 302.154 407.597H319.55C320.578 407.597 321.349 408.441 321.238 409.469C321.128 410.533 320.211 411.341 319.183 411.341Z" fill="#C1C2D4"/>
<path fill-rule="evenodd" clip-rule="evenodd" d="M285.712 442.61H256.498C255.47 442.61 254.699 441.766 254.809 440.738C254.919 439.71 255.837 438.866 256.865 438.866H286.079C287.107 438.866 287.877 439.71 287.767 440.738C287.657 441.766 286.74 442.61 285.712 442.61Z" fill="#C1C2D4"/>
<path fill-rule="evenodd" clip-rule="evenodd" d="M316.027 442.61H298.63C297.603 442.61 296.832 441.766 296.942 440.738C297.052 439.71 297.97 438.866 298.997 438.866H316.394C317.422 438.866 318.192 439.71 318.082 440.738C318.009 441.766 317.055 442.61 316.027 442.61Z" fill="#C1C2D4"/>
<path d="M176.121 371.482H81.1738L128.005 276.535L234.843 280.352C205.996 276.535 182.36 314.815 176.121 371.482Z" fill="white"/>
<path fill-rule="evenodd" clip-rule="evenodd" d="M167.9 282.922H137.585C136.851 282.922 136.264 282.335 136.264 281.601V280.5C136.264 279.765 136.851 279.178 137.585 279.178H167.9C168.634 279.178 169.222 279.765 169.222 280.5V281.601C169.222 282.335 168.634 282.922 167.9 282.922Z" fill="#C1C2D4"/>
<path fill-rule="evenodd" clip-rule="evenodd" d="M198.25 282.922H179.753C179.019 282.922 178.432 282.335 178.432 281.601V280.5C178.432 279.765 179.019 279.178 179.753 279.178H198.25C198.985 279.178 199.572 279.765 199.572 280.5V281.601C199.572 282.335 198.985 282.922 198.25 282.922Z" fill="#C1C2D4"/>
<path fill-rule="evenodd" clip-rule="evenodd" d="M153.254 309.164H122.938C122.204 309.164 121.617 308.576 121.617 307.842V306.741C121.617 306.007 122.204 305.42 122.938 305.42H153.254C153.988 305.42 154.575 306.007 154.575 306.741V307.842C154.575 308.576 153.988 309.164 153.254 309.164Z" fill="#D1D1D1"/>
<path fill-rule="evenodd" clip-rule="evenodd" d="M183.608 309.164H165.11C164.376 309.164 163.789 308.576 163.789 307.842V306.741C163.789 306.007 164.376 305.42 165.11 305.42H183.608C184.342 305.42 184.929 306.007 184.929 306.741V307.842C184.929 308.576 184.305 309.164 183.608 309.164Z" fill="#D1D1D1"/>
<path fill-rule="evenodd" clip-rule="evenodd" d="M141.182 332.726H110.866C110.132 332.726 109.545 332.139 109.545 331.405V330.304C109.545 329.57 110.132 328.982 110.866 328.982H141.182C141.916 328.982 142.503 329.57 142.503 330.304V331.405C142.503 332.139 141.916 332.726 141.182 332.726Z" fill="#D1D1D1"/>
<path fill-rule="evenodd" clip-rule="evenodd" d="M171.534 332.726H153.036C152.302 332.726 151.715 332.139 151.715 331.405V330.304C151.715 329.57 152.302 328.982 153.036 328.982H171.534C172.268 328.982 172.855 329.57 172.855 330.304V331.405C172.855 332.139 172.231 332.726 171.534 332.726Z" fill="#C1C2D4"/>
<path d="M124.041 510.691C154.851 510.691 179.828 508.834 179.828 506.544C179.828 504.253 154.851 502.396 124.041 502.396C93.2313 502.396 68.2549 504.253 68.2549 506.544C68.2549 508.834 93.2313 510.691 124.041 510.691Z" fill="#DCDDF2"/>
<path fill-rule="evenodd" clip-rule="evenodd" d="M100.955 499.277C100.955 499.277 89.137 448.813 97.2114 428.847L93.0273 376.988L118.205 362.601L108.258 499.681L100.955 499.277Z" fill="#E3633D"/>
<path fill-rule="evenodd" clip-rule="evenodd" d="M108.296 497.295L115.012 501.92C116.37 503.058 123.344 505.26 123.344 505.26C124.151 506.691 122.866 507.425 121.765 507.609L101.69 507.205C101.69 507.205 96.9919 506.251 100.332 497.332C104.112 498.91 107.562 500.085 108.296 497.295Z" fill="#212526"/>
<path fill-rule="evenodd" clip-rule="evenodd" d="M121.545 373.281L120.224 431.269L116.591 489.404H93.2484C93.2484 489.404 94.3861 479.311 93.7622 476.082C93.1383 472.852 89.1378 442.463 94.7898 428.48L89.0645 365.793L121.545 373.281Z" fill="#B2B4D6"/>
<path fill-rule="evenodd" clip-rule="evenodd" d="M125.803 499.278C125.803 499.278 113.508 448.813 121.399 428.847L109.654 360.399L141.768 362.601L133.143 499.681L125.803 499.278Z" fill="#E3633D"/>
<path fill-rule="evenodd" clip-rule="evenodd" d="M125.765 263.69C125.765 263.69 124.481 269.929 123.416 275.068C123.123 276.426 122.132 277.563 120.811 277.967C119.489 278.408 118.058 278.077 117.03 277.086C116.7 276.756 116.37 276.462 116.076 276.169C114.681 274.847 114.168 272.866 114.755 271.03C116.26 266.333 118.976 257.781 118.976 257.781L125.765 263.69Z" fill="#C95836"/>
<path fill-rule="evenodd" clip-rule="evenodd" d="M125.324 267.14L124.26 270.81L121.434 266.846L125.324 267.14Z" fill="#873B24"/>
<path fill-rule="evenodd" clip-rule="evenodd" d="M115.819 256.203C115.342 254.404 116.406 252.569 118.205 252.092C120.113 251.578 122.499 250.954 124.407 250.477C126.206 250 127.747 251.174 128.481 252.899C129.362 254.918 130.169 259.359 130.353 262.662C130.463 264.534 129.509 266.516 127.71 266.993C125.802 267.507 119.636 267.176 118.168 263.873C117.104 261.304 116.516 258.845 115.819 256.203Z" fill="#C95836"/>
<path fill-rule="evenodd" clip-rule="evenodd" d="M109.984 264.424C109.984 264.424 110.718 254.882 113.214 251.946C116.591 247.982 121.362 245.56 127.271 249.597C127.271 249.597 127.161 257.965 118.683 265.672L109.984 264.424Z" fill="#212526"/>
<path fill-rule="evenodd" clip-rule="evenodd" d="M121.104 261.525C121.948 262.772 123.489 263.213 124.517 262.516C125.545 261.782 125.691 260.203 124.811 258.919C123.967 257.671 122.425 257.231 121.397 257.928C120.37 258.662 120.223 260.277 121.104 261.525Z" fill="#C95836"/>
<path fill-rule="evenodd" clip-rule="evenodd" d="M102.02 274.187C102.02 274.187 107.012 319.109 101.69 318.449L93.836 321.385C89.9089 322.853 84.8808 319.403 84.367 314.889C84.0734 312.393 84.0367 310.044 84.1835 308.98L88.8813 286.225L96.1849 277.563L102.02 274.187Z" fill="#C95836"/>
<path fill-rule="evenodd" clip-rule="evenodd" d="M95.8899 326.45L139.491 329.79C146.575 332.395 143.749 373.281 143.749 373.281L115.085 374.602C101.395 374.382 88.4028 377.391 87.7789 363.518C86.6778 338.121 95.8899 326.45 95.8899 326.45Z" fill="#B2B4D6"/>
<path fill-rule="evenodd" clip-rule="evenodd" d="M133.106 274.554L117.251 271.544L112.847 271.397L101.139 274.554C95.3401 276.939 91.2662 280.977 92.9545 287.032L91.3029 310.118C85.9445 324.174 84.6233 338.378 84.293 353.205C107.268 363.665 138.134 361.28 146.355 351.003C147.309 321.275 143.236 294.409 133.106 274.554Z" fill="#607AD6"/>
<path fill-rule="evenodd" clip-rule="evenodd" d="M133.143 497.295L139.896 501.92C141.254 503.058 148.264 505.26 148.264 505.26C149.071 506.691 147.823 507.425 146.722 507.609L126.647 507.205C126.647 507.205 121.912 506.251 125.179 497.332C128.959 498.91 132.445 500.085 133.143 497.295Z" fill="#212526"/>
<path d="M100.221 374.639L110.424 374.969" stroke="#666F8F" stroke-width="4" stroke-miterlimit="10" stroke-linecap="round" stroke-linejoin="round"/>
<path fill-rule="evenodd" clip-rule="evenodd" d="M144.007 369.354L143.053 431.269L138.795 489.405H115.453C115.453 489.405 116.701 479.312 116.114 476.082C115.563 472.889 111.856 442.463 117.655 428.48L111.746 371.483L144.007 369.354Z" fill="#B2B4D6"/>
<path d="M154.429 302.594C166.944 302.3 171.715 301.603 184.267 301.016L185.332 306.704C164.595 315.109 157.439 318.706 147.089 315.439C142.611 304.759 151.53 303.291 154.429 302.594Z" fill="#C95836"/>
<path d="M182.285 301.162L188.525 300.098C189.772 299.878 191.057 300.135 192.121 300.759L196.489 303.401C198.03 304.319 198.14 306.484 196.746 307.585L188.855 308.503C187.13 308.686 185.221 308.209 183.607 307.145L180.891 305.346L182.285 301.162Z" fill="#C95836"/>
<path fill-rule="evenodd" clip-rule="evenodd" d="M129.877 280.022C130.538 275.728 136.153 274.554 138.465 278.224C146.099 290.519 157.183 309.53 154.43 312.283L152.669 314.155C150.357 316.577 146.393 316.173 144.594 313.347L131.345 292.244L128.666 288.207L129.877 280.022Z" fill="#C95836"/>
<path d="M299.695 457.658C299.695 457.658 254.882 446.133 254.882 401.101L238.146 457.658H254.882H299.695Z" fill="#BCBDCF"/>
<path fill-rule="evenodd" clip-rule="evenodd" d="M94.9731 271.985L82.7148 297.199L97.6156 302.484L102.24 275.398L94.9731 271.985Z" fill="#607AD6"/>
<path fill-rule="evenodd" clip-rule="evenodd" d="M92.0737 276.279C92.3673 275.178 92.037 274.003 91.3764 273.049C86.0913 265.342 97.7624 260.313 101.212 257.965C104.809 255.506 100.845 249.266 108.443 246.991C116.003 244.715 118.315 248.716 118.682 248.606C119.196 248.459 117.545 255.836 117.545 255.836C117.545 255.836 113.764 256.937 113.618 264.424C113.471 271.911 115.343 275.875 110.535 281.6C105.727 287.362 87.6328 279.215 87.6328 279.215C90.6423 279.251 91.7434 277.71 92.0737 276.279Z" fill="#212526"/>
<path fill-rule="evenodd" clip-rule="evenodd" d="M122.977 283.656L138.098 310.264L150.649 294.006C150.649 294.006 140.63 274.774 133.143 274.554L122.977 283.656Z" fill="#607AD6"/>
<path d="M112.664 377.024L115.784 428.443C110.132 442.427 114.169 472.852 114.756 476.045C115.343 479.238 114.242 489.368 114.242 489.368" stroke="#666F8F" stroke-width="4" stroke-miterlimit="10" stroke-linecap="round" stroke-linejoin="round"/>
<path d="M126.023 289.015L135.346 305.457" stroke="#364C8A" stroke-width="4" stroke-miterlimit="10" stroke-linecap="round" stroke-linejoin="round"/>
<path d="M94.6805 288.463L92.2949 299.364" stroke="#364C8A" stroke-width="4" stroke-miterlimit="10" stroke-linecap="round" stroke-linejoin="round"/>
<path d="M188.673 101.653H237.009V134.024H187.021V109.727" stroke="#2D4E73" stroke-width="4.2646" stroke-miterlimit="10" stroke-linecap="round"/>
<path d="M190.986 105.617L212.64 121.618L237.01 101.653" stroke="#2D4E73" stroke-width="4.2646" stroke-miterlimit="10" stroke-linecap="round"/>
<path d="M120.26 196.747C62.5286 184.856 24.6893 255.8 57.4638 298.887" stroke="#2D4E73" stroke-width="4" stroke-miterlimit="10" stroke-linecap="round" stroke-linejoin="round" stroke-dasharray="32.18 32.18"/>
<path fill-rule="evenodd" clip-rule="evenodd" d="M412.553 238.916C412.553 238.916 408.626 233.631 414.792 229.08C420.957 224.529 420.517 236.751 420.333 236.898C420.15 237.008 412.553 238.916 412.553 238.916Z" fill="#572A22"/>
<path fill-rule="evenodd" clip-rule="evenodd" d="M429.435 241.449C429.435 241.449 428.003 247.615 423.306 247.211C418.608 246.844 420.039 233.301 420.039 233.301L429.435 241.449Z" fill="#572A22"/>
<path fill-rule="evenodd" clip-rule="evenodd" d="M414.938 242.917C414.938 242.917 415.415 249.707 415.818 255.359C415.928 256.864 416.919 258.148 418.461 258.772C419.966 259.396 421.801 259.213 423.159 258.295C423.599 258.002 424.039 257.708 424.48 257.451C426.388 256.203 427.343 254.148 426.976 252.129C425.985 246.954 424.186 237.485 424.186 237.485L414.938 242.917Z" fill="#C95836"/>
<path fill-rule="evenodd" clip-rule="evenodd" d="M414.826 247.285L415.524 251.102L419.561 247.468L414.826 247.285Z" fill="#633C1D"/>
<path fill-rule="evenodd" clip-rule="evenodd" d="M426.792 236.531C427.343 234.622 426.278 232.604 424.407 232.053C422.388 231.429 419.856 230.695 417.837 230.071C415.929 229.484 414.24 230.695 413.396 232.494C412.405 234.622 411.341 239.357 411.011 242.88C410.827 244.862 411.781 247.028 413.653 247.615C415.672 248.239 422.315 248.092 423.966 244.605C425.251 241.963 425.985 239.357 426.792 236.531Z" fill="#C95836"/>
<path fill-rule="evenodd" clip-rule="evenodd" d="M430.28 242.77C430.28 242.77 432.335 235.32 429.766 232.09C426.316 227.723 421.288 224.933 414.829 229.081C414.829 229.081 411.342 230.622 421.545 233.338C422.83 233.668 420.114 239.724 421.728 240.495C423.82 241.522 426.61 242.366 430.28 242.77Z" fill="#572A22"/>
<path fill-rule="evenodd" clip-rule="evenodd" d="M426.645 244.789C425.691 246.11 424.003 246.514 422.939 245.707C421.874 244.899 421.764 243.174 422.755 241.853C423.746 240.532 425.398 240.128 426.462 240.935C427.526 241.743 427.636 243.468 426.645 244.789Z" fill="#C95836"/>
<path d="M436.151 511.425C469.596 511.425 496.709 509.404 496.709 506.911C496.709 504.418 469.596 502.396 436.151 502.396C402.706 502.396 375.594 504.418 375.594 506.911C375.594 509.404 402.706 511.425 436.151 511.425Z" fill="#DCDDF2"/>
<path fill-rule="evenodd" clip-rule="evenodd" d="M409.248 497.883C409.248 497.883 422.167 443.087 413.469 421.433L425.654 347.113L390.824 349.498L399.559 498.433L409.248 497.883Z" fill="#E3633D"/>
<path fill-rule="evenodd" clip-rule="evenodd" d="M399.375 495.717L393.98 500.709C392.512 501.957 384.951 504.342 384.951 504.342C384.071 505.884 385.465 506.691 386.64 506.875L408.44 506.434C408.44 506.434 413.542 505.406 409.945 495.717C405.798 497.479 400.146 498.727 399.375 495.717Z" fill="#4A2A1A"/>
<path fill-rule="evenodd" clip-rule="evenodd" d="M388.586 361.096L389.944 424.039L395.045 487.129H420.406C420.406 487.129 418.975 476.156 419.562 472.669C420.149 469.182 423.93 436.188 417.507 420.993L423.452 359.114L388.586 361.096Z" fill="#8587A8"/>
<path fill-rule="evenodd" clip-rule="evenodd" d="M417.69 420.993L423.636 359.114L411.561 359.775L407.193 405.065C406.386 413.506 406.79 421.984 408.185 430.315C410.864 446.794 408.221 469.769 407.744 472.632C407.157 476.119 408.588 487.093 408.588 487.093H420.626C420.626 487.093 419.195 476.119 419.782 472.632C420.333 469.182 424.113 436.187 417.69 420.993Z" fill="#6F718C"/>
<path fill-rule="evenodd" clip-rule="evenodd" d="M481.219 493.993C481.219 493.993 477.182 438.39 461.951 418.828L451.197 344.36L417.615 352.838L472.117 496.158L481.219 493.993Z" fill="#E3633D"/>
<path fill-rule="evenodd" clip-rule="evenodd" d="M472.376 494.579L470.247 501.369C469.696 503.094 464.521 508.709 464.521 508.709C464.668 510.398 466.357 510.398 467.531 509.994L486.359 499.13C486.359 499.13 490.213 495.827 481.221 489.551C478.725 493.001 474.871 496.708 472.376 494.579Z" fill="#4A2A1A"/>
<path fill-rule="evenodd" clip-rule="evenodd" d="M415.744 358.894L439.637 425.544L463.97 486.065L488.927 481.587C488.927 481.587 484.156 471.164 483.679 467.677C483.202 464.191 476.779 431.379 465.805 417.726L452.666 350.342L415.744 358.894Z" fill="#8587A8"/>
<path fill-rule="evenodd" clip-rule="evenodd" d="M440.555 310.264L393.21 313.861C385.503 316.687 388.586 361.096 388.586 361.096L419.708 362.527C434.169 362.234 451.272 373.574 453.07 349.461C455.162 321.935 440.555 310.264 440.555 310.264Z" fill="#8587A8"/>
<path fill-rule="evenodd" clip-rule="evenodd" d="M453.512 352.324C453.512 352.324 422.096 355.701 411.893 341.901L454.026 338.268C453.989 338.304 454.173 348.801 453.512 352.324Z" fill="#6F718C"/>
<path fill-rule="evenodd" clip-rule="evenodd" d="M398.239 255.395L414.755 252.973L429.986 252.312L439.198 255.432C445.291 258.442 450.612 268.975 452.227 281.417L453.292 295.584C457.989 311.218 460.155 322.669 459.347 338.781C433.656 348.324 395.009 345.938 386.898 334.157C388.256 301.933 387.999 290.115 398.239 255.395Z" fill="#F9A56E"/>
<path d="M413.651 253.157C413.651 253.157 405.1 262.662 411.89 264.791C418.679 266.92 429.984 252.349 429.984 252.349L424.185 251.248L413.651 253.157Z" fill="#C95836"/>
<path fill-rule="evenodd" clip-rule="evenodd" d="M412.259 301.272C411.378 308.062 406.79 313.164 398.863 313.053L361.023 304.722L365.574 298.042L394.679 299.657L412.259 301.272Z" fill="#C95836"/>
<path fill-rule="evenodd" clip-rule="evenodd" d="M452.227 287.509C447.382 296.281 410.461 315.439 406.24 314.778C401.505 314.044 373.869 310.705 373.869 310.705L377.025 296.097C377.025 296.097 401.175 295.657 403.451 294.482C405.726 293.308 430.133 270.626 430.133 270.626L452.227 287.509Z" fill="#F9A56E"/>
<path d="M392.182 295.51C392.182 295.51 406.238 294.666 406.789 293.822C407.339 292.978 429.287 271.471 429.287 271.471" stroke="#C97E4C" stroke-width="4" stroke-miterlimit="10" stroke-linecap="round" stroke-linejoin="round"/>
<path d="M390.787 311.292C390.787 311.292 411.89 313.2 417.653 312.026C423.378 310.851 446.977 283.509 446.977 283.509" stroke="#C97E4C" stroke-width="4" stroke-miterlimit="10" stroke-linecap="round" stroke-linejoin="round"/>
<path d="M366.052 298.153L358.895 297.786C357.464 297.712 356.069 298.116 354.968 298.924L350.527 302.227C348.985 303.364 349.206 305.677 350.967 306.668H359.996C361.978 306.668 363.996 305.934 365.648 304.576L368.364 302.337L366.052 298.153Z" fill="#C95836"/>
<path d="M323.651 136.649C324.68 118.577 310.865 103.093 292.793 102.063C274.721 101.034 259.236 114.85 258.207 132.922C257.178 150.994 270.994 166.478 289.066 167.507C307.138 168.537 322.622 154.721 323.651 136.649Z" stroke="#2D4E73" stroke-width="4" stroke-miterlimit="10" stroke-linecap="round" stroke-linejoin="round"/>
<path d="M293.631 156.684C305.713 155.13 314.247 144.075 312.693 131.993C311.139 119.911 300.084 111.376 288.002 112.931C275.92 114.485 267.385 125.54 268.94 137.622C270.494 149.704 281.549 158.239 293.631 156.684Z" fill="#F9C4A2"/>
<path d="M289.157 145.585C286.845 145.292 284.533 144.044 283.064 142.539L284.533 140.521C286.037 141.915 287.872 143.09 290.111 143.163C292.827 143.273 294.222 141.805 294.295 139.53C294.515 133.621 284.276 134.538 284.533 127.381C284.643 124.115 286.845 121.876 290.038 121.509L290.185 117.802L292.387 117.876L292.24 121.509C294.552 121.839 296.057 123.051 297.341 124.482L295.653 126.207C294.332 124.849 293.231 124.042 291.286 123.968C289.047 123.895 287.579 125.216 287.505 127.345C287.322 132.63 297.562 131.565 297.268 139.419C297.158 142.906 294.882 145.218 291.359 145.585L291.212 149.292L289.01 149.219L289.157 145.585Z" fill="white"/>
<path d="M292.023 173.074V216.418" stroke="#2D4E73" stroke-width="4" stroke-miterlimit="10" stroke-linecap="round" stroke-linejoin="round"/>
<path d="M299.693 457.658C299.693 457.658 345.203 461.511 352.727 423.195" stroke="#2D4E73" stroke-width="4" stroke-miterlimit="10" stroke-linecap="round" stroke-linejoin="round"/>
</svg>
