<svg width="654" height="522" viewBox="0 0 654 522" fill="none" xmlns="http://www.w3.org/2000/svg">
<path d="M472.678 91.9901C502.022 176.19 533.902 199.531 584.944 247.574C639.277 298.705 689.904 357.763 619.589 441.805C564.356 507.859 449.352 435.605 273.561 437.958L77.4276 435.239C41.1025 433.371 5.6253 402.081 0.668652 366.047C-12.5354 270.052 173.909 255.985 198.415 142.427C238.558 -43.5091 429.055 -33.1961 472.678 91.9901Z" fill="#E3E8F9"/>
<path d="M316.065 103.132H291.469V133.081H316.065V103.132Z" fill="#B9C7ED"/>
<path d="M353.163 83.948H328.566V133.081H353.163V83.948Z" fill="#B9C7ED"/>
<path d="M390.261 55.7507H365.664V133.081H390.261V55.7507Z" fill="#B9C7ED"/>
<path d="M571.41 494.778C571.41 503.873 475.833 511.247 357.931 511.247C240.028 511.247 155.582 505.644 155.582 496.56C155.582 487.476 240.032 478.31 357.931 478.31C475.829 478.31 571.41 485.683 571.41 494.778Z" fill="#D7DDF0"/>
<path d="M383.029 378.684H324.109V484.674H383.029V378.684Z" fill="#333E69"/>
<path d="M426.032 492.679H282.797C282.797 483.367 286.496 474.436 293.081 467.852C299.665 461.267 308.596 457.568 317.908 457.568H390.935C400.248 457.568 409.178 461.267 415.763 467.852C422.347 474.436 426.047 483.367 426.047 492.679H426.032Z" fill="#57628C"/>
<path d="M537.388 430.226H157.889C155.917 430.226 153.965 429.838 152.143 429.083C150.322 428.328 148.667 427.222 147.273 425.828C145.878 424.433 144.773 422.778 144.019 420.956C143.264 419.135 142.876 417.182 142.877 415.21V163.404C142.877 159.422 144.459 155.604 147.274 152.789C150.089 149.973 153.907 148.392 157.889 148.392H537.388C539.36 148.391 541.312 148.779 543.134 149.533C544.956 150.288 546.611 151.393 548.005 152.787C549.4 154.181 550.506 155.837 551.261 157.658C552.015 159.48 552.404 161.432 552.404 163.404V415.21C552.404 419.193 550.822 423.012 548.006 425.828C545.19 428.644 541.37 430.226 537.388 430.226Z" fill="#333E69"/>
<path d="M527.336 430.226H149.79C147.691 430.226 145.613 429.813 143.674 429.009C141.735 428.206 139.973 427.029 138.489 425.544C137.006 424.06 135.829 422.298 135.026 420.359C134.223 418.42 133.81 416.342 133.811 414.243V164.356C133.815 160.121 135.5 156.06 138.496 153.067C141.492 150.073 145.554 148.392 149.79 148.392H527.336C529.434 148.391 531.513 148.804 533.452 149.607C535.391 150.41 537.153 151.587 538.637 153.071C540.121 154.555 541.299 156.316 542.102 158.255C542.905 160.194 543.319 162.272 543.319 164.371V414.258C543.315 418.494 541.629 422.556 538.632 425.55C535.635 428.544 531.572 430.226 527.336 430.226Z" fill="#5967A8"/>
<path d="M531.015 160.987H143.93V411.901H531.015V160.987Z" fill="#8FA1E6"/>
<path d="M324.109 430.226H383.029V451.528L324.109 430.226Z" fill="#1F2640"/>
<path d="M378.98 458.315H325.289C325.18 458.339 325.068 458.338 324.959 458.312C324.851 458.286 324.749 458.236 324.663 458.166C324.576 458.096 324.506 458.008 324.458 457.907C324.41 457.807 324.385 457.696 324.385 457.585C324.385 457.473 324.41 457.363 324.458 457.263C324.506 457.162 324.576 457.074 324.663 457.004C324.749 456.934 324.851 456.884 324.959 456.858C325.068 456.832 325.18 456.831 325.289 456.855H378.98C379.146 456.891 379.296 456.983 379.403 457.116C379.511 457.249 379.569 457.414 379.569 457.585C379.569 457.756 379.511 457.921 379.403 458.054C379.296 458.187 379.146 458.279 378.98 458.315Z" fill="#1F2640"/>
<path d="M517.542 412.069H159.838V211.607C159.843 202.155 163.601 193.093 170.286 186.411C176.971 179.73 186.035 175.977 195.487 175.977H481.897C491.35 175.978 500.416 179.733 507.101 186.418C513.785 193.102 517.541 202.168 517.542 211.622V412.069Z" fill="#6675BF"/>
<path d="M473.558 190.641H203.863C187.7 190.641 174.598 203.744 174.598 219.907V262.537C174.598 278.7 187.7 291.802 203.863 291.802H473.558C489.721 291.802 502.823 278.7 502.823 262.537V219.907C502.823 203.744 489.721 190.641 473.558 190.641Z" fill="white"/>
<path d="M480.845 306.837H196.576C184.438 306.837 174.598 316.677 174.598 328.815V372.707C174.598 384.846 184.438 394.686 196.576 394.686H480.845C492.983 394.686 502.823 384.846 502.823 372.707V328.815C502.823 316.677 492.983 306.837 480.845 306.837Z" fill="white"/>
<path d="M426.903 82.3158C425.836 82.3158 424.792 81.9993 423.905 81.4062C423.017 80.8131 422.325 79.9701 421.917 78.9839C421.508 77.9977 421.401 76.9124 421.61 75.8654C421.818 74.8184 422.332 73.8567 423.087 73.1019C423.842 72.347 424.803 71.833 425.85 71.6247C426.897 71.4164 427.983 71.5233 428.969 71.9318C429.955 72.3404 430.798 73.0322 431.391 73.9198C431.984 74.8074 432.301 75.8509 432.301 76.9184C432.3 78.3496 431.731 79.7219 430.719 80.7339C429.707 81.7458 428.334 82.3148 426.903 82.3158ZM426.903 72.9292C426.114 72.9299 425.344 73.1645 424.688 73.6033C424.032 74.0421 423.522 74.6654 423.22 75.3944C422.919 76.1234 422.841 76.9254 422.995 77.699C423.149 78.4725 423.529 79.183 424.088 79.7405C424.646 80.2981 425.356 80.6776 426.13 80.8312C426.904 80.9849 427.706 80.9057 428.434 80.6036C429.163 80.3016 429.786 79.7903 430.224 79.1343C430.662 78.4784 430.896 77.7072 430.896 76.9184C430.895 75.8601 430.474 74.8454 429.725 74.0974C428.977 73.3494 427.962 72.9292 426.903 72.9292Z" fill="#2D4973"/>
<path d="M597.561 418.744C596.494 418.744 595.45 418.427 594.563 417.834C593.675 417.241 592.983 416.398 592.575 415.412C592.166 414.426 592.06 413.341 592.268 412.294C592.476 411.247 592.99 410.285 593.745 409.53C594.5 408.775 595.461 408.261 596.508 408.053C597.555 407.845 598.641 407.952 599.627 408.36C600.613 408.769 601.456 409.46 602.049 410.348C602.642 411.236 602.959 412.279 602.959 413.347C602.958 414.778 602.389 416.15 601.377 417.162C600.365 418.174 598.993 418.743 597.561 418.744ZM597.561 409.357C596.771 409.357 595.999 409.59 595.342 410.029C594.684 410.467 594.172 411.091 593.869 411.821C593.567 412.55 593.487 413.354 593.641 414.128C593.795 414.903 594.176 415.615 594.734 416.174C595.293 416.732 596.005 417.113 596.78 417.267C597.555 417.421 598.358 417.341 599.087 417.039C599.817 416.736 600.441 416.224 600.879 415.566C601.318 414.909 601.551 414.137 601.551 413.347C601.549 412.289 601.128 411.276 600.38 410.528C599.632 409.78 598.619 409.359 597.561 409.357Z" fill="#2D4973"/>
<path d="M86.5908 209.351C85.5233 209.351 84.4797 209.034 83.5921 208.441C82.7045 207.848 82.0127 207.005 81.6042 206.019C81.1957 205.033 81.0888 203.948 81.2971 202.901C81.5053 201.854 82.0194 200.892 82.7742 200.137C83.5291 199.382 84.4908 198.868 85.5378 198.66C86.5848 198.452 87.67 198.558 88.6563 198.967C89.6425 199.376 90.4855 200.067 91.0785 200.955C91.6716 201.843 91.9882 202.886 91.9882 203.954C91.9862 205.384 91.4169 206.756 90.4051 207.768C89.3933 208.78 88.0216 209.349 86.5908 209.351ZM86.5908 199.964C85.8018 199.964 85.0305 200.198 84.3745 200.637C83.7185 201.075 83.2071 201.698 82.9052 202.427C82.6033 203.156 82.5243 203.958 82.6782 204.732C82.8321 205.506 83.2121 206.216 83.77 206.774C84.3279 207.332 85.0387 207.712 85.8125 207.866C86.5863 208.02 87.3884 207.941 88.1174 207.639C88.8463 207.337 89.4693 206.826 89.9077 206.17C90.346 205.514 90.58 204.743 90.58 203.954C90.579 202.896 90.1584 201.882 89.4105 201.134C88.6626 200.386 87.6485 199.965 86.5908 199.964Z" fill="#2D4973"/>
<path d="M194.071 204.865C209.279 189.657 209.279 164.999 194.071 149.791C178.862 134.582 154.205 134.582 138.996 149.791C123.788 164.999 123.788 189.657 138.996 204.865C154.205 220.073 178.862 220.073 194.071 204.865Z" fill="#F9A56E"/>
<path d="M165.762 192.434C165.435 192.434 165.114 192.351 164.827 192.194C164.541 192.037 164.298 191.81 164.123 191.534L150.325 169.72C150.06 169.286 149.976 168.765 150.092 168.27C150.207 167.774 150.513 167.344 150.943 167.072C151.373 166.8 151.892 166.708 152.389 166.816C152.887 166.923 153.321 167.222 153.6 167.647L165.617 186.637L179.392 160.685C179.512 160.46 179.674 160.261 179.871 160.098C180.067 159.936 180.294 159.815 180.537 159.74C180.78 159.665 181.036 159.64 181.29 159.664C181.543 159.688 181.789 159.762 182.014 159.882C182.239 160.001 182.438 160.164 182.601 160.36C182.763 160.556 182.884 160.783 182.959 161.026C183.034 161.27 183.059 161.526 183.035 161.779C183.011 162.033 182.937 162.279 182.817 162.504L167.473 191.403C167.315 191.703 167.08 191.956 166.793 192.137C166.506 192.318 166.176 192.42 165.837 192.434H165.762Z" fill="white"/>
<path d="M235.663 204.245C217.999 205.067 203.693 219.44 202.946 237.115C202.721 242.17 203.617 247.213 205.57 251.88C207.524 256.548 210.486 260.726 214.245 264.113C214.622 264.445 215.086 264.662 215.582 264.737C216.078 264.813 216.586 264.744 217.044 264.538C217.502 264.333 217.891 264.001 218.165 263.58C218.439 263.16 218.586 262.669 218.589 262.167C218.586 261.821 218.511 261.48 218.367 261.165C218.224 260.851 218.016 260.57 217.756 260.341C213.357 256.383 210.263 251.183 208.883 245.428C207.503 239.674 207.902 233.636 210.027 228.113C212.152 222.59 215.903 217.843 220.784 214.497C225.666 211.152 231.447 209.367 237.365 209.379C243.283 209.39 249.057 211.197 253.926 214.561C258.794 217.925 262.527 222.687 264.631 228.218C266.735 233.749 267.111 239.788 265.708 245.537C264.306 251.286 261.192 256.474 256.778 260.415C256.515 260.654 256.304 260.946 256.161 261.272C256.019 261.597 255.946 261.95 255.949 262.305C255.949 262.803 256.093 263.29 256.364 263.707C256.635 264.124 257.021 264.454 257.475 264.657C257.929 264.86 258.432 264.927 258.924 264.851C259.415 264.774 259.874 264.557 260.245 264.225C265.542 259.489 269.242 253.227 270.835 246.301C272.429 239.376 271.837 232.127 269.143 225.551C266.448 218.976 261.782 213.397 255.787 209.581C249.791 205.766 242.761 203.902 235.663 204.245Z" fill="#7387D1"/>
<path d="M270.61 230.018L265.422 230.589C266.925 235.868 266.911 241.462 265.383 246.733C263.854 252.004 260.872 256.738 256.779 260.393C256.515 260.631 256.305 260.923 256.162 261.249C256.019 261.575 255.946 261.927 255.949 262.283C255.95 262.78 256.094 263.267 256.364 263.684C256.635 264.102 257.021 264.432 257.475 264.635C257.929 264.838 258.432 264.905 258.924 264.828C259.415 264.752 259.874 264.534 260.245 264.203C264.943 260.001 268.395 254.588 270.223 248.556C272.051 242.524 272.185 236.106 270.61 230.003V230.018Z" fill="#AEBFE8"/>
<path d="M218.589 262.227C218.589 261.876 218.515 261.529 218.374 261.207C218.232 260.886 218.026 260.597 217.768 260.359C214.467 257.4 211.882 253.728 210.21 249.622C208.538 245.516 207.823 241.083 208.118 236.659C208.412 232.236 209.71 227.937 211.912 224.089C214.114 220.241 217.162 216.945 220.827 214.45C221.311 214.122 221.671 213.641 221.85 213.084C222.028 212.528 222.015 211.928 221.813 211.379C221.676 211.018 221.459 210.692 221.179 210.427C220.898 210.161 220.561 209.962 220.193 209.844C219.825 209.727 219.435 209.694 219.053 209.748C218.67 209.803 218.305 209.943 217.984 210.158C213.669 213.085 210.076 216.956 207.478 221.477C204.881 225.998 203.346 231.051 202.99 236.253C202.635 241.456 203.468 246.671 205.426 251.503C207.384 256.336 210.417 260.66 214.294 264.147C214.665 264.479 215.124 264.697 215.616 264.774C216.109 264.851 216.613 264.784 217.067 264.581C217.522 264.378 217.909 264.048 218.18 263.63C218.452 263.212 218.596 262.725 218.597 262.227H218.589Z" fill="#7387D1"/>
<path d="M334.618 204.245C316.954 205.066 302.648 219.44 301.901 237.115C301.676 242.17 302.573 247.212 304.526 251.879C306.48 256.547 309.442 260.725 313.2 264.113C313.576 264.445 314.041 264.662 314.537 264.737C315.033 264.812 315.54 264.743 315.998 264.538C316.457 264.333 316.846 264 317.12 263.58C317.394 263.159 317.541 262.669 317.544 262.167C317.541 261.821 317.465 261.48 317.322 261.165C317.178 260.85 316.97 260.569 316.711 260.34C312.312 256.382 309.218 251.182 307.838 245.428C306.458 239.673 306.857 233.636 308.982 228.113C311.107 222.59 314.858 217.842 319.739 214.497C324.621 211.152 330.402 209.367 336.32 209.378C342.237 209.39 348.012 211.197 352.881 214.561C357.749 217.924 361.482 222.687 363.586 228.217C365.69 233.748 366.065 239.788 364.663 245.537C363.261 251.286 360.147 256.474 355.733 260.415C355.47 260.654 355.26 260.946 355.118 261.272C354.975 261.597 354.902 261.949 354.904 262.305C354.904 262.802 355.048 263.289 355.319 263.707C355.59 264.124 355.975 264.454 356.43 264.657C356.884 264.86 357.387 264.927 357.878 264.85C358.37 264.774 358.829 264.557 359.199 264.225C364.494 259.488 368.191 253.227 369.783 246.303C371.375 239.379 370.782 232.131 368.088 225.558C365.394 218.984 360.729 213.406 354.736 209.591C348.742 205.776 341.714 203.911 334.618 204.252V204.245Z" fill="#AEBFE8"/>
<path d="M369.565 230.018L364.377 230.589C365.88 235.868 365.866 241.462 364.338 246.733C362.809 252.004 359.827 256.738 355.734 260.393C355.471 260.632 355.261 260.924 355.118 261.25C354.975 261.575 354.902 261.927 354.904 262.283C354.905 262.78 355.049 263.267 355.319 263.684C355.59 264.102 355.976 264.432 356.43 264.635C356.884 264.838 357.387 264.905 357.879 264.828C358.37 264.752 358.829 264.534 359.2 264.203C363.901 260.003 367.355 254.591 369.184 248.558C371.012 242.525 371.144 236.106 369.565 230.003V230.018Z" fill="#AEBFE8"/>
<path d="M317.542 262.227C317.541 261.875 317.468 261.528 317.326 261.207C317.185 260.886 316.979 260.597 316.72 260.359C313.42 257.399 310.837 253.727 309.166 249.621C307.494 245.514 306.779 241.082 307.074 236.658C307.369 232.235 308.667 227.937 310.869 224.089C313.071 220.241 316.119 216.945 319.783 214.449C320.27 214.124 320.631 213.643 320.81 213.085C320.988 212.528 320.973 211.926 320.766 211.379C320.628 211.018 320.411 210.692 320.13 210.426C319.849 210.16 319.512 209.961 319.144 209.844C318.776 209.727 318.386 209.694 318.003 209.748C317.62 209.802 317.254 209.942 316.933 210.158C312.618 213.085 309.026 216.956 306.428 221.477C303.831 225.999 302.296 231.052 301.941 236.254C301.586 241.456 302.419 246.671 304.378 251.504C306.337 256.336 309.369 260.66 313.247 264.147C313.617 264.479 314.076 264.698 314.569 264.775C315.061 264.852 315.565 264.785 316.019 264.582C316.474 264.379 316.861 264.048 317.131 263.63C317.402 263.212 317.546 262.725 317.546 262.227H317.542Z" fill="#7387D1"/>
<path d="M434.202 204.245C416.534 205.067 402.228 219.44 401.481 237.115C401.256 242.17 402.153 247.212 404.107 251.88C406.06 256.547 409.022 260.725 412.78 264.113C413.157 264.445 413.621 264.662 414.117 264.737C414.613 264.813 415.12 264.744 415.579 264.538C416.037 264.333 416.426 264 416.7 263.58C416.974 263.159 417.121 262.669 417.124 262.167C417.122 261.821 417.047 261.479 416.903 261.165C416.76 260.85 416.551 260.569 416.291 260.341C411.893 256.384 408.798 251.185 407.417 245.432C406.035 239.679 406.432 233.643 408.555 228.12C410.678 222.598 414.426 217.849 419.305 214.502C424.184 211.155 429.963 209.368 435.88 209.376C441.796 209.384 447.571 211.187 452.441 214.547C457.311 217.906 461.047 222.665 463.155 228.193C465.262 233.722 465.643 239.759 464.246 245.509C462.85 251.258 459.741 256.448 455.332 260.393C455.069 260.632 454.86 260.924 454.718 261.25C454.576 261.576 454.504 261.928 454.506 262.283C454.506 262.78 454.649 263.267 454.919 263.685C455.19 264.103 455.575 264.433 456.029 264.636C456.483 264.839 456.986 264.906 457.478 264.829C457.969 264.753 458.428 264.535 458.798 264.203C464.092 259.466 467.79 253.205 469.381 246.281C470.973 239.358 470.381 232.111 467.687 225.537C464.993 218.964 460.329 213.386 454.337 209.57C448.344 205.755 441.316 203.889 434.22 204.23L434.202 204.245Z" fill="#AEBFE8"/>
<path d="M226.251 352.205H209.256V374.526H226.251V352.205Z" fill="#8194DE"/>
<path d="M260.696 326.839H243.701V373.141H260.696V326.839Z" fill="#FFCCAB"/>
<path d="M295.144 341.093H278.148V373.697H295.144V341.093Z" fill="#ED9D69"/>
<path d="M329.589 331.754H312.594V373.697H329.589V331.754Z" fill="#C5D0ED"/>
<path d="M364.386 339.396H347.391V374.526H364.386V339.396Z" fill="#8194DE"/>
<path d="M398.833 326.839H381.838V373.141H398.833V326.839Z" fill="#C5D0ED"/>
<path d="M433.278 311.965H416.283V373.697H433.278V311.965Z" fill="#ED9D69"/>
<path d="M467.726 337.073H450.73V373.697H467.726V337.073Z" fill="#C5D0ED"/>
<path d="M222.944 244.91C222.292 244.918 221.643 244.817 221.024 244.612C220.468 244.433 219.952 244.149 219.504 243.775C219.088 243.42 218.748 242.986 218.503 242.498C218.253 241.998 218.125 241.446 218.129 240.888C218.125 240.434 218.208 239.984 218.372 239.562C218.525 239.161 218.734 238.784 218.992 238.441C219.243 238.111 219.538 237.817 219.87 237.567C220.19 237.317 220.533 237.097 220.893 236.91V236.816C220.35 236.428 219.869 235.959 219.466 235.427C219.042 234.852 218.822 234.151 218.842 233.436C218.835 232.922 218.939 232.413 219.145 231.942C219.352 231.472 219.658 231.051 220.041 230.709C220.425 230.37 220.87 230.108 221.353 229.936C222.442 229.562 223.625 229.562 224.714 229.936C225.199 230.113 225.642 230.386 226.018 230.739C226.38 231.089 226.662 231.513 226.843 231.983C227.04 232.485 227.138 233.02 227.131 233.559C227.135 233.941 227.069 234.321 226.937 234.68C226.81 235.025 226.649 235.357 226.455 235.67C226.269 235.968 226.053 236.246 225.809 236.499C225.593 236.725 225.358 236.933 225.106 237.119V237.235C225.435 237.423 225.751 237.634 226.051 237.866C226.354 238.101 226.628 238.372 226.866 238.673C227.109 238.982 227.303 239.327 227.441 239.696C227.593 240.116 227.668 240.56 227.661 241.007C227.665 241.541 227.548 242.068 227.318 242.55C227.085 243.027 226.755 243.45 226.35 243.794C225.909 244.16 225.402 244.44 224.856 244.619C224.239 244.821 223.593 244.92 222.944 244.91ZM222.989 243.51C223.748 243.544 224.493 243.289 225.073 242.796C225.333 242.562 225.539 242.273 225.676 241.951C225.813 241.628 225.877 241.279 225.865 240.929C225.877 240.499 225.765 240.075 225.543 239.707C225.314 239.357 225.017 239.056 224.669 238.822C224.267 238.551 223.839 238.32 223.392 238.131L221.898 237.5C221.335 237.878 220.839 238.349 220.434 238.893C220.046 239.414 219.84 240.048 219.847 240.697C219.843 241.084 219.926 241.467 220.09 241.818C220.251 242.155 220.478 242.456 220.759 242.703C221.051 242.962 221.391 243.161 221.76 243.289C222.157 243.435 222.577 243.509 223 243.51H222.989ZM223.978 236.629C224.427 236.227 224.806 235.752 225.099 235.225C225.363 234.754 225.502 234.223 225.502 233.682C225.528 232.997 225.288 232.328 224.834 231.815C224.593 231.56 224.3 231.36 223.974 231.231C223.648 231.102 223.297 231.046 222.947 231.068C222.635 231.057 222.323 231.108 222.031 231.219C221.738 231.33 221.471 231.498 221.244 231.714C221.019 231.939 220.844 232.209 220.729 232.507C220.615 232.804 220.564 233.122 220.579 233.44C220.57 233.831 220.665 234.218 220.856 234.56C221.049 234.885 221.303 235.17 221.603 235.401C221.937 235.658 222.299 235.877 222.682 236.054C223.108 236.282 223.534 236.461 223.978 236.629Z" fill="black"/>
<path d="M234.354 244.91C233.651 244.926 232.956 244.75 232.345 244.402C231.733 244.054 231.227 243.547 230.881 242.934C230.051 241.624 229.638 239.725 229.641 237.234C229.643 234.744 230.056 232.877 230.881 231.632C231.244 231.04 231.753 230.551 232.36 230.212C232.966 229.873 233.649 229.695 234.343 229.695C235.038 229.695 235.721 229.873 236.327 230.212C236.933 230.551 237.442 231.04 237.806 231.632C238.643 232.909 239.061 234.777 239.061 237.234C239.061 239.692 238.646 241.587 237.817 242.919C237.476 243.535 236.973 244.046 236.363 244.397C235.753 244.747 235.058 244.925 234.354 244.91ZM234.354 243.394C234.772 243.392 235.179 243.262 235.52 243.02C235.907 242.726 236.215 242.341 236.416 241.9C236.703 241.295 236.9 240.652 237.003 239.991C237.145 239.079 237.209 238.157 237.193 237.234C237.205 236.31 237.137 235.386 236.988 234.474C236.887 233.826 236.689 233.196 236.401 232.606C236.196 232.181 235.888 231.812 235.505 231.534C235.159 231.306 234.754 231.187 234.34 231.191C233.923 231.188 233.515 231.307 233.167 231.534C232.779 231.809 232.466 232.178 232.259 232.606C231.971 233.196 231.774 233.826 231.673 234.474C231.522 235.386 231.452 236.31 231.463 237.234C231.463 239.383 231.729 240.945 232.259 241.918C232.804 242.908 233.495 243.394 234.354 243.394Z" fill="black"/>
<path d="M244.29 238.792C243.804 238.806 243.321 238.699 242.885 238.482C242.45 238.265 242.074 237.945 241.791 237.548C241.171 236.723 240.861 235.539 240.861 234.007C240.861 232.476 241.171 231.318 241.791 230.496C242.085 230.114 242.462 229.805 242.894 229.592C243.326 229.379 243.801 229.268 244.283 229.268C244.764 229.268 245.24 229.379 245.672 229.592C246.104 229.805 246.481 230.114 246.774 230.496C247.402 231.318 247.715 232.488 247.715 234.007C247.715 235.539 247.402 236.723 246.774 237.548C246.492 237.941 246.118 238.26 245.686 238.476C245.253 238.693 244.774 238.801 244.29 238.792ZM244.29 237.619C244.588 237.612 244.879 237.524 245.13 237.363C245.381 237.202 245.583 236.976 245.713 236.708C246.084 236.103 246.269 235.202 246.266 234.007C246.264 232.812 246.079 231.918 245.713 231.325C245.578 231.063 245.375 230.842 245.124 230.686C244.874 230.53 244.585 230.445 244.29 230.44C243.991 230.442 243.698 230.526 243.443 230.682C243.188 230.838 242.98 231.06 242.841 231.325C242.47 231.915 242.286 232.809 242.288 234.007C242.291 235.205 242.475 236.105 242.841 236.708C242.977 236.976 243.184 237.202 243.439 237.361C243.695 237.52 243.989 237.605 244.29 237.608V237.619ZM253.031 229.267H254.319L245.994 244.91H244.701L253.031 229.267ZM254.805 244.91C254.319 244.925 253.836 244.819 253.4 244.603C252.965 244.386 252.589 244.066 252.306 243.67C251.693 242.841 251.387 241.659 251.387 240.125C251.387 238.591 251.697 237.422 252.317 236.618C252.61 236.235 252.987 235.924 253.419 235.71C253.851 235.496 254.327 235.385 254.809 235.385C255.291 235.385 255.766 235.496 256.199 235.71C256.631 235.924 257.008 236.235 257.3 236.618C257.93 237.44 258.245 238.609 258.245 240.125C258.245 241.642 257.93 242.823 257.3 243.67C257.018 244.064 256.644 244.383 256.211 244.6C255.777 244.816 255.297 244.922 254.812 244.91H254.805ZM254.805 243.737C255.104 243.733 255.396 243.647 255.65 243.488C255.903 243.33 256.108 243.104 256.243 242.837C256.617 242.232 256.796 241.343 256.796 240.133C256.796 238.923 256.609 238.045 256.243 237.455C256.11 237.187 255.905 236.962 255.651 236.805C255.397 236.647 255.104 236.564 254.805 236.564C254.506 236.564 254.213 236.647 253.959 236.805C253.705 236.962 253.5 237.187 253.367 237.455C252.996 238.045 252.812 238.938 252.814 240.133C252.817 241.328 253.001 242.23 253.367 242.837C253.503 243.105 253.71 243.33 253.964 243.489C254.219 243.647 254.512 243.733 254.812 243.737H254.805Z" fill="black"/>
<path d="M321.277 244.91C320.739 244.916 320.202 244.858 319.678 244.739C319.22 244.636 318.775 244.482 318.352 244.279C317.974 244.099 317.616 243.88 317.284 243.625C316.981 243.389 316.7 243.127 316.443 242.841L317.411 241.601C317.872 242.075 318.394 242.484 318.965 242.819C319.635 243.191 320.394 243.375 321.161 243.349C321.953 243.381 322.73 243.124 323.346 242.624C323.628 242.382 323.851 242.079 323.998 241.738C324.146 241.397 324.214 241.027 324.198 240.656C324.204 240.248 324.121 239.844 323.955 239.472C323.781 239.094 323.507 238.772 323.163 238.538C322.723 238.248 322.231 238.045 321.714 237.94C320.987 237.79 320.245 237.721 319.503 237.735V236.286C320.165 236.299 320.826 236.228 321.471 236.077C321.934 235.97 322.371 235.774 322.76 235.501C323.076 235.28 323.324 234.974 323.477 234.62C323.616 234.276 323.686 233.908 323.682 233.537C323.699 233.221 323.647 232.905 323.53 232.611C323.414 232.317 323.235 232.052 323.006 231.833C322.486 231.396 321.817 231.174 321.139 231.213C320.549 231.207 319.967 231.349 319.446 231.628C318.916 231.916 318.432 232.281 318.008 232.711L316.996 231.512C317.552 230.983 318.181 230.538 318.864 230.19C319.59 229.835 320.39 229.657 321.198 229.671C321.799 229.665 322.397 229.75 322.973 229.925C323.477 230.077 323.948 230.323 324.362 230.649C324.751 230.961 325.063 231.359 325.273 231.811C325.495 232.31 325.605 232.852 325.595 233.398C325.624 234.195 325.358 234.975 324.848 235.587C324.322 236.178 323.657 236.629 322.913 236.898V236.988C323.346 237.091 323.764 237.251 324.157 237.462C324.535 237.665 324.877 237.929 325.169 238.243C325.463 238.561 325.694 238.933 325.849 239.337C326.013 239.778 326.094 240.245 326.088 240.716C326.099 241.321 325.971 241.92 325.714 242.468C325.468 242.978 325.114 243.43 324.676 243.79C324.222 244.158 323.704 244.439 323.148 244.619C322.543 244.814 321.912 244.912 321.277 244.91Z" fill="black"/>
<path d="M333.014 244.91C332.31 244.926 331.615 244.75 331.003 244.402C330.39 244.055 329.884 243.547 329.537 242.934C328.713 241.624 328.299 239.724 328.297 237.234C328.294 234.744 328.708 232.876 329.537 231.631C329.901 231.04 330.411 230.551 331.017 230.212C331.623 229.873 332.307 229.695 333.001 229.695C333.696 229.695 334.379 229.873 334.986 230.212C335.592 230.551 336.102 231.04 336.466 231.631C337.293 232.919 337.706 234.798 337.706 237.268C337.706 239.738 337.293 241.633 336.466 242.953C336.12 243.56 335.617 244.062 335.009 244.406C334.402 244.751 333.713 244.925 333.014 244.91ZM333.014 243.394C333.431 243.391 333.836 243.261 334.176 243.02C334.563 242.726 334.871 242.341 335.073 241.9C335.359 241.295 335.556 240.652 335.659 239.991C335.808 239.073 335.876 238.145 335.864 237.216C335.877 236.291 335.808 235.368 335.659 234.455C335.558 233.807 335.36 233.177 335.073 232.588C334.867 232.162 334.559 231.794 334.176 231.516C333.832 231.288 333.427 231.169 333.014 231.172C332.597 231.169 332.188 231.288 331.838 231.516C331.45 231.791 331.138 232.159 330.93 232.588C330.643 233.177 330.445 233.807 330.344 234.455C330.193 235.367 330.123 236.291 330.135 237.216C330.135 239.365 330.4 240.926 330.93 241.9C331.461 242.908 332.152 243.394 333.014 243.394Z" fill="black"/>
<path d="M342.954 238.792C342.468 238.806 341.985 238.699 341.549 238.482C341.114 238.265 340.738 237.945 340.455 237.548C339.835 236.723 339.525 235.539 339.525 234.007C339.525 232.476 339.835 231.318 340.455 230.496C340.749 230.114 341.126 229.805 341.558 229.592C341.99 229.379 342.465 229.268 342.947 229.268C343.428 229.268 343.904 229.379 344.336 229.592C344.768 229.805 345.145 230.114 345.438 230.496C346.066 231.318 346.383 232.487 346.383 234.007C346.383 235.527 346.066 236.723 345.438 237.548C345.157 237.942 344.784 238.262 344.351 238.479C343.918 238.696 343.438 238.803 342.954 238.792ZM342.954 237.619C343.253 237.612 343.543 237.523 343.795 237.362C344.046 237.202 344.249 236.975 344.381 236.708C344.755 236.103 344.934 235.214 344.934 234.007C344.934 232.801 344.747 231.915 344.381 231.325C344.247 231.059 344.042 230.835 343.788 230.678C343.534 230.522 343.241 230.439 342.943 230.439C342.645 230.439 342.352 230.522 342.099 230.678C341.845 230.835 341.639 231.059 341.505 231.325C341.134 231.915 340.95 232.809 340.952 234.007C340.955 235.205 341.139 236.105 341.505 236.708C341.641 236.976 341.848 237.202 342.104 237.361C342.359 237.519 342.654 237.605 342.954 237.608V237.619ZM351.698 229.267H352.987L344.658 244.91H343.369L351.698 229.267ZM353.469 244.91C352.983 244.925 352.501 244.819 352.066 244.603C351.631 244.386 351.256 244.066 350.974 243.67C350.351 242.841 350.04 241.659 350.04 240.125C350.04 238.591 350.351 237.422 350.974 236.618C351.266 236.235 351.643 235.924 352.074 235.71C352.506 235.496 352.982 235.385 353.463 235.385C353.945 235.385 354.421 235.496 354.852 235.71C355.284 235.924 355.661 236.235 355.953 236.618C356.583 237.44 356.898 238.609 356.898 240.125C356.898 241.642 356.583 242.823 355.953 243.67C355.671 244.064 355.298 244.383 354.865 244.599C354.432 244.815 353.953 244.922 353.469 244.91ZM353.469 243.737C353.767 243.731 354.058 243.643 354.309 243.483C354.561 243.323 354.764 243.097 354.896 242.83C355.267 242.225 355.451 241.323 355.449 240.125C355.446 238.928 355.262 238.035 354.896 237.447C354.763 237.18 354.558 236.955 354.304 236.797C354.05 236.64 353.757 236.556 353.458 236.556C353.159 236.556 352.866 236.64 352.612 236.797C352.358 236.955 352.153 237.18 352.02 237.447C351.649 238.037 351.464 238.93 351.467 240.125C351.469 241.321 351.654 242.222 352.02 242.83C352.155 243.099 352.362 243.326 352.617 243.486C352.873 243.646 353.167 243.733 353.469 243.737Z" fill="black"/>
<path d="M416.32 243.073H419.682V232.24H417.011V231.023C417.61 230.919 418.199 230.769 418.774 230.574C419.244 230.411 419.695 230.198 420.119 229.939H421.568V243.058H424.605V244.623H416.324L416.32 243.073Z" fill="black"/>
<path d="M426.859 243.509C427.965 242.404 428.947 241.408 429.806 240.521C430.573 239.738 431.295 238.912 431.969 238.048C432.484 237.397 432.931 236.695 433.302 235.953C433.596 235.374 433.753 234.735 433.762 234.085C433.794 233.334 433.548 232.597 433.071 232.016C432.61 231.478 431.913 231.209 430.979 231.209C430.372 231.206 429.778 231.387 429.276 231.728C428.746 232.079 428.266 232.5 427.849 232.98L426.766 231.9C427.333 231.265 427.993 230.718 428.723 230.279C429.48 229.855 430.339 229.643 431.207 229.667C432.574 229.667 433.646 230.063 434.43 230.854C434.828 231.272 435.136 231.765 435.338 232.305C435.539 232.845 435.63 233.42 435.603 233.996C435.597 234.713 435.444 235.421 435.155 236.076C434.819 236.84 434.402 237.565 433.911 238.239C433.329 239.05 432.699 239.826 432.025 240.562C431.298 241.369 430.496 242.224 429.619 243.128L430.863 243.039C431.293 243.005 431.7 242.99 432.081 242.99H436.339V244.626H426.859V243.509Z" fill="black"/>
<path d="M441.609 238.792C441.122 238.804 440.641 238.696 440.205 238.48C439.77 238.263 439.394 237.943 439.11 237.548C438.49 236.723 438.18 235.539 438.18 234.007C438.18 232.476 438.49 231.318 439.11 230.496C439.403 230.114 439.78 229.805 440.212 229.592C440.644 229.379 441.12 229.268 441.601 229.268C442.083 229.268 442.558 229.379 442.99 229.592C443.422 229.805 443.799 230.114 444.093 230.496C444.723 231.318 445.038 232.488 445.038 234.007C445.038 235.539 444.724 236.723 444.093 237.548C443.812 237.942 443.438 238.262 443.005 238.479C442.572 238.696 442.093 238.803 441.609 238.792ZM441.609 237.619C441.907 237.612 442.198 237.523 442.449 237.362C442.701 237.202 442.903 236.975 443.035 236.708C443.409 236.103 443.588 235.214 443.588 234.007C443.588 232.801 443.402 231.915 443.035 231.325C442.901 231.059 442.696 230.835 442.442 230.678C442.188 230.522 441.896 230.439 441.597 230.439C441.299 230.439 441.007 230.522 440.753 230.678C440.499 230.835 440.293 231.059 440.159 231.325C439.788 231.915 439.604 232.809 439.607 234.007C439.609 235.205 439.793 236.105 440.159 236.708C440.295 236.976 440.503 237.202 440.758 237.361C441.014 237.519 441.308 237.605 441.609 237.608V237.619ZM450.353 229.267H451.641L443.312 244.91H442.023L450.353 229.267ZM452.123 244.91C451.638 244.925 451.156 244.819 450.72 244.603C450.285 244.386 449.91 244.066 449.628 243.67C449.003 242.841 448.692 241.659 448.694 240.125C448.697 238.591 449.008 237.422 449.628 236.618C449.92 236.235 450.297 235.924 450.729 235.71C451.16 235.496 451.636 235.385 452.118 235.385C452.6 235.385 453.075 235.496 453.507 235.71C453.939 235.924 454.315 236.235 454.607 236.618C455.24 237.44 455.555 238.609 455.552 240.125C455.55 241.642 455.235 242.823 454.607 243.67C454.326 244.064 453.952 244.383 453.519 244.599C453.086 244.815 452.607 244.922 452.123 244.91ZM452.123 243.737C452.421 243.731 452.712 243.643 452.963 243.483C453.215 243.323 453.418 243.097 453.55 242.83C453.921 242.225 454.105 241.323 454.103 240.125C454.1 238.928 453.916 238.035 453.55 237.447C453.415 237.184 453.211 236.962 452.96 236.805C452.708 236.649 452.419 236.563 452.123 236.558C451.824 236.561 451.531 236.646 451.276 236.802C451.021 236.959 450.813 237.182 450.674 237.447C450.301 238.037 450.121 238.941 450.121 240.125C450.121 241.309 450.308 242.225 450.674 242.83C450.81 243.099 451.017 243.326 451.272 243.486C451.527 243.646 451.822 243.733 452.123 243.737Z" fill="black"/>
<path d="M407.615 246.076H402.27C403.824 253.05 407.513 259.367 412.825 264.147C413.196 264.48 413.655 264.698 414.147 264.775C414.639 264.852 415.143 264.785 415.598 264.582C416.053 264.379 416.439 264.049 416.71 263.631C416.981 263.213 417.125 262.725 417.125 262.227C417.125 261.876 417.052 261.528 416.91 261.207C416.769 260.885 416.562 260.596 416.303 260.359C412.076 256.547 409.056 251.582 407.615 246.076Z" fill="#7387D1"/>
<path d="M253.757 277.474H221.107C220.485 277.472 219.888 277.224 219.448 276.784C219.008 276.343 218.76 275.747 218.758 275.124C218.76 274.502 219.008 273.905 219.448 273.465C219.888 273.025 220.485 272.777 221.107 272.775H253.757C254.379 272.777 254.976 273.025 255.416 273.465C255.856 273.905 256.104 274.502 256.106 275.124C256.104 275.747 255.856 276.343 255.416 276.784C254.976 277.224 254.379 277.472 253.757 277.474Z" fill="#AEBFE8"/>
<path d="M353.274 277.474H320.625C320.002 277.472 319.406 277.224 318.966 276.784C318.526 276.343 318.277 275.747 318.275 275.124C318.277 274.502 318.526 273.905 318.966 273.465C319.406 273.025 320.002 272.777 320.625 272.775H353.274C353.897 272.777 354.493 273.025 354.934 273.465C355.374 273.905 355.622 274.502 355.624 275.124C355.622 275.747 355.374 276.343 354.934 276.784C354.493 277.224 353.897 277.472 353.274 277.474Z" fill="#AEBFE8"/>
<path d="M453.415 277.474H420.765C420.143 277.472 419.546 277.224 419.106 276.784C418.666 276.343 418.418 275.747 418.416 275.124C418.418 274.502 418.666 273.905 419.106 273.465C419.546 273.025 420.143 272.777 420.765 272.775H453.415C454.038 272.777 454.634 273.025 455.074 273.465C455.514 273.905 455.763 274.502 455.765 275.124C455.763 275.747 455.514 276.343 455.074 276.784C454.634 277.224 454.038 277.472 453.415 277.474Z" fill="#AEBFE8"/>
<path d="M481.057 374.747H190.729C190.62 374.77 190.507 374.769 190.399 374.743C190.29 374.718 190.189 374.668 190.102 374.598C190.015 374.528 189.945 374.439 189.897 374.339C189.849 374.238 189.824 374.128 189.824 374.017C189.824 373.905 189.849 373.795 189.897 373.694C189.945 373.594 190.015 373.505 190.102 373.435C190.189 373.365 190.29 373.316 190.399 373.29C190.507 373.264 190.62 373.263 190.729 373.286H481.057C481.224 373.322 481.373 373.414 481.481 373.547C481.588 373.68 481.646 373.846 481.646 374.017C481.646 374.187 481.588 374.353 481.481 374.486C481.373 374.619 481.224 374.711 481.057 374.747Z" fill="#1F2640"/>
<path d="M243.413 276.331L231.345 263.822C230.827 263.283 230.544 262.561 230.557 261.814C230.57 261.067 230.879 260.356 231.416 259.836C231.955 259.319 232.677 259.037 233.423 259.05C234.17 259.063 234.881 259.371 235.401 259.907L247.47 272.417C247.987 272.956 248.269 273.677 248.256 274.424C248.243 275.171 247.935 275.882 247.399 276.402C246.859 276.918 246.138 277.2 245.392 277.187C244.645 277.173 243.934 276.866 243.413 276.331Z" fill="#E3E8F9"/>
<path d="M161.455 519.558C191.051 519.558 215.044 517.77 215.044 515.565C215.044 513.36 191.051 511.572 161.455 511.572C131.858 511.572 107.865 513.36 107.865 515.565C107.865 517.77 131.858 519.558 161.455 519.558Z" fill="#E3E7FA"/>
<path fill-rule="evenodd" clip-rule="evenodd" d="M111.4 315.73C105.487 318.21 102.017 323.675 104.056 330.88L120.898 363.31L125.799 357.509L117.178 331.388L111.4 315.73Z" fill="#B85031"/>
<path d="M125.8 357.509L126.674 364.12C126.848 365.44 126.549 366.78 125.829 367.9L122.897 372.42C122.665 372.784 122.346 373.086 121.97 373.299C121.594 373.513 121.171 373.63 120.739 373.642C120.307 373.655 119.878 373.561 119.491 373.369C119.103 373.177 118.769 372.894 118.516 372.543L117.881 364.169C117.777 362.206 118.363 360.269 119.536 358.693L121.526 355.903L125.8 357.509Z" fill="#B85031"/>
<path fill-rule="evenodd" clip-rule="evenodd" d="M126.722 354.95L115.677 357.938C115.677 357.938 103.1 334.268 102.095 331.5C101.09 328.732 100.78 322.909 104.426 318.292C107.31 314.651 117.873 298.473 122.191 291.847C124.017 288.942 126.718 286.692 129.904 285.419C133.856 283.925 138.951 283.865 142.376 290.794C146.832 299.814 118.717 326.79 118.717 326.79L126.722 354.95Z" fill="#B9C7ED"/>
<path fill-rule="evenodd" clip-rule="evenodd" d="M155.674 371.389C141.727 371.168 124.952 373.256 124.324 359.122C123.174 333.192 136.098 322.274 136.098 322.274" fill="#C2ADA0"/>
<path fill-rule="evenodd" clip-rule="evenodd" d="M176.893 506.918C176.893 506.918 158.027 455.958 166.251 435.527L150.586 367.172L184.438 364.979L184.356 507.291L176.893 506.918Z" fill="#B85031"/>
<path fill-rule="evenodd" clip-rule="evenodd" d="M184.527 504.412L191.12 509.114C192.424 510.28 199.416 512.536 199.416 512.536C200.144 513.981 198.818 514.739 197.675 514.93L177.217 514.504C177.217 514.504 172.47 513.522 176.403 504.419C180.157 506.063 183.623 507.239 184.527 504.412Z" fill="#4A2A1A"/>
<path fill-rule="evenodd" clip-rule="evenodd" d="M136.097 331.325L180.669 334.724C187.979 337.38 184.494 378.31 184.494 378.31L157.044 380.45C143.089 380.226 126.374 382.318 125.354 368.18C123.479 342.243 136.097 331.325 136.097 331.325Z" fill="#6678D4"/>
<path fill-rule="evenodd" clip-rule="evenodd" d="M185.055 363.007L186.904 437.338L189.29 494.315H165.478C165.478 494.315 166.834 483.972 166.296 480.693C165.758 477.413 157.784 447.748 161.202 434.148L150.246 372.704L185.055 363.007Z" fill="#6678D4"/>
<path fill-rule="evenodd" clip-rule="evenodd" d="M137.273 506.567C137.273 506.567 122.773 455.768 132.746 435.414L132.776 379.958L152.513 381.295L144.702 506.97L137.273 506.567Z" fill="#B85031"/>
<path fill-rule="evenodd" clip-rule="evenodd" d="M144.934 504.546L148.486 508.281C149.756 509.443 153.783 511.897 153.783 511.897C153.783 511.897 157.783 515.311 151.971 514.885L137.326 514.627C137.326 514.627 132.604 513.645 136.806 504.542C140.538 506.197 143.971 507.374 144.934 504.546Z" fill="#4A2A1A"/>
<path fill-rule="evenodd" clip-rule="evenodd" d="M153.383 371.098L151.541 435.904L148.702 494.353L130.176 493.583C130.176 493.583 129.459 485.056 129.201 481.784C128.943 478.512 121.996 448.708 129.279 434.436L126.523 370.029L153.383 371.098Z" fill="#6678D4"/>
<path d="M153.935 395.212C153.809 395.212 153.686 395.171 153.586 395.093C153.486 395.016 153.415 394.909 153.382 394.786L148.295 375.901L142.349 374.198C142.213 374.147 142.102 374.047 142.038 373.917C141.973 373.788 141.959 373.639 141.999 373.5C142.039 373.362 142.13 373.243 142.254 373.168C142.377 373.093 142.524 373.067 142.666 373.096L148.923 374.889C149.018 374.916 149.104 374.968 149.174 375.039C149.243 375.109 149.293 375.197 149.319 375.292L154.484 394.491C154.504 394.564 154.509 394.64 154.5 394.714C154.49 394.789 154.466 394.861 154.428 394.926C154.391 394.991 154.341 395.049 154.281 395.095C154.222 395.14 154.154 395.174 154.081 395.194C154.033 395.205 153.984 395.211 153.935 395.212Z" fill="#38447D"/>
<path fill-rule="evenodd" clip-rule="evenodd" d="M161.537 271.718C161.537 271.718 160.678 277.788 159.968 282.819C159.84 283.516 159.523 284.165 159.053 284.695C158.583 285.226 157.978 285.618 157.301 285.83C156.584 286.086 155.817 286.175 155.06 286.088C154.303 286.001 153.576 285.742 152.935 285.329L151.758 284.545C150.055 283.424 149.278 281.531 149.76 279.726C150.996 275.102 153.245 266.676 153.245 266.676L161.537 271.718Z" fill="#B85031"/>
<path fill-rule="evenodd" clip-rule="evenodd" d="M161.399 275.054L160.555 278.666L156.943 275.125L161.399 275.054Z" fill="#873B24"/>
<path fill-rule="evenodd" clip-rule="evenodd" d="M151.008 265.305C150.731 264.494 150.786 263.607 151.162 262.837C151.537 262.068 152.201 261.477 153.01 261.196L158.848 259.205C160.525 258.633 162.098 259.653 162.919 261.241C163.894 263.108 164.974 267.325 165.392 270.474C165.627 272.248 164.843 274.209 163.151 274.799C161.358 275.412 155.412 275.517 153.813 272.454C152.588 270.123 151.844 267.803 151 265.305H151.008Z" fill="#B85031"/>
<path fill-rule="evenodd" clip-rule="evenodd" d="M154.385 274.213C149.316 273.84 145.738 268.954 147.097 264.053C147.317 263.124 147.696 262.239 148.218 261.439C151.165 257.42 155.595 254.741 161.519 258.234C161.519 258.234 162.004 266.265 154.381 274.224L154.385 274.213Z" fill="#4A2A1A"/>
<path fill-rule="evenodd" clip-rule="evenodd" d="M156.435 270.052C157.347 271.203 158.848 271.516 159.797 270.758C160.746 270 160.757 268.45 159.845 267.299C158.934 266.149 157.432 265.835 156.484 266.593C155.535 267.351 155.524 268.902 156.435 270.052Z" fill="#B85031"/>
<path fill-rule="evenodd" clip-rule="evenodd" d="M160.006 280.473L152.032 279.939L149.574 279.995L131.951 284.761C126.55 287.432 123.864 294.645 125.93 300.33L124.705 312.189C121.343 326.043 124.44 346.247 123.495 360.478C146.235 368.924 180.55 367.68 187.741 357.247C187.102 342.217 187.389 318.341 184.125 305.6C181.831 296.662 183.531 292.09 179.77 285.714C177.032 281.067 162.457 281.471 160.006 280.473Z" fill="#B9C7ED"/>
<path d="M124.352 330.216H124.326C124.244 330.212 124.164 330.193 124.089 330.158C124.015 330.124 123.948 330.075 123.892 330.014C123.837 329.954 123.794 329.883 123.766 329.806C123.737 329.729 123.725 329.648 123.728 329.566L124.826 304.618L123.086 302.399C123.035 302.335 122.998 302.261 122.976 302.182C122.954 302.103 122.948 302.021 122.958 301.939C122.978 301.775 123.062 301.625 123.192 301.523C123.323 301.421 123.488 301.375 123.652 301.395C123.817 301.415 123.966 301.5 124.068 301.63L125.955 304.028C126.045 304.146 126.091 304.293 126.085 304.442L124.965 329.622C124.957 329.78 124.89 329.929 124.776 330.04C124.662 330.15 124.511 330.213 124.352 330.216Z" fill="#8097CF"/>
<path fill-rule="evenodd" clip-rule="evenodd" d="M163.416 264.382C164.476 265.445 165.598 266.443 166.778 267.37C167.787 268.188 166.117 270.564 164.91 270.302C163.704 270.041 161.676 266.481 161.676 266.481L163.416 264.382Z" fill="#B85031"/>
<path fill-rule="evenodd" clip-rule="evenodd" d="M199.018 304.129C204.213 308.237 210.847 308.656 216.271 303.225L236.814 271.849L228.324 271.139L210.111 291.111L199.018 304.129Z" fill="#B85031"/>
<path d="M228.424 271.068L233.571 266.56C234.607 265.659 235.933 265.162 237.306 265.159L242.834 265.129C243.283 265.125 243.727 265.23 244.126 265.435C244.525 265.641 244.868 265.94 245.126 266.308C245.383 266.676 245.547 267.101 245.603 267.546C245.66 267.991 245.607 268.444 245.449 268.864L238.655 274.135C237.035 275.335 235.045 275.927 233.033 275.808L229.515 275.659L228.424 271.068Z" fill="#B85031"/>
<path fill-rule="evenodd" clip-rule="evenodd" d="M226.415 270.743L234.633 279.252C234.633 279.252 219.782 302.41 217.824 304.689C215.867 306.967 210.787 310.161 204.829 309.171C198.872 308.181 168.878 306.691 168.878 306.691C168.878 306.691 155.099 280.148 169.651 281.751C180.782 282.976 207.545 289.068 207.545 289.068L226.415 270.743Z" fill="#B9C7ED"/>
<path d="M183.034 305.69C182.885 305.69 182.742 305.637 182.63 305.54L177.942 301.559C177.879 301.504 177.828 301.438 177.79 301.364C177.753 301.289 177.731 301.208 177.726 301.125L177.554 298.649C177.546 298.566 177.554 298.482 177.579 298.402C177.603 298.323 177.643 298.249 177.697 298.185C177.751 298.121 177.817 298.068 177.891 298.031C177.965 297.993 178.047 297.97 178.13 297.964C178.213 297.958 178.296 297.969 178.375 297.996C178.454 298.023 178.527 298.065 178.589 298.12C178.652 298.176 178.702 298.243 178.738 298.319C178.774 298.394 178.794 298.476 178.798 298.559L178.955 300.778L183.437 304.592C183.534 304.674 183.603 304.785 183.636 304.909C183.668 305.032 183.661 305.163 183.617 305.283C183.572 305.403 183.492 305.506 183.387 305.579C183.282 305.651 183.158 305.69 183.03 305.69H183.034Z" fill="#8097CF"/>
<path d="M402.809 134.28H279.92V56.6288C279.933 56.4509 280.013 56.2845 280.143 56.1631C280.274 56.0416 280.446 55.9741 280.624 55.9741C280.802 55.9741 280.974 56.0416 281.105 56.1631C281.235 56.2845 281.315 56.4509 281.328 56.6288V132.872H402.816C402.994 132.885 403.161 132.965 403.282 133.096C403.404 133.226 403.471 133.398 403.471 133.576C403.471 133.755 403.404 133.926 403.282 134.057C403.161 134.188 402.994 134.267 402.816 134.28H402.809Z" fill="#2D4973"/>
<path d="M277.494 62.8327C277.387 62.8332 277.282 62.8089 277.187 62.7618C277.104 62.7218 277.03 62.6659 276.968 62.5971C276.907 62.5284 276.859 62.4482 276.829 62.3611C276.798 62.274 276.785 62.1818 276.79 62.0897C276.795 61.9976 276.819 61.9073 276.859 61.8242L279.981 55.3772C280.038 55.2579 280.128 55.1572 280.239 55.0865C280.351 55.0158 280.48 54.978 280.612 54.9775C280.745 54.978 280.874 55.0158 280.986 55.0865C281.097 55.1572 281.187 55.2579 281.244 55.3772L284.351 61.8242C284.421 61.991 284.425 62.1783 284.361 62.3474C284.297 62.5165 284.17 62.6546 284.007 62.7332C283.844 62.8118 283.657 62.8249 283.485 62.7697C283.313 62.7145 283.168 62.5954 283.081 62.4368L280.609 57.3009L278.125 62.4256C278.069 62.5465 277.98 62.6491 277.869 62.7212C277.757 62.7934 277.627 62.832 277.494 62.8327Z" fill="#2D4973"/>
<path d="M397.786 137.392C397.626 137.393 397.47 137.34 397.344 137.241C397.219 137.142 397.131 137.002 397.095 136.846C397.059 136.69 397.078 136.527 397.148 136.383C397.218 136.239 397.335 136.123 397.48 136.055L402.616 133.582L397.48 131.098C397.391 131.061 397.311 131.006 397.245 130.937C397.178 130.868 397.127 130.787 397.093 130.697C397.059 130.607 397.043 130.512 397.048 130.416C397.052 130.32 397.075 130.227 397.117 130.14C397.159 130.054 397.217 129.977 397.29 129.914C397.362 129.851 397.446 129.804 397.538 129.775C397.629 129.745 397.725 129.735 397.82 129.744C397.916 129.753 398.008 129.782 398.092 129.828L404.539 132.951C404.657 133.009 404.757 133.099 404.826 133.211C404.896 133.323 404.933 133.452 404.933 133.584C404.933 133.715 404.896 133.845 404.826 133.956C404.757 134.068 404.657 134.159 404.539 134.217L398.092 137.325C397.996 137.368 397.892 137.391 397.786 137.392Z" fill="#2D4973"/>
<path d="M437.353 521.018C463.953 521.018 485.515 518.391 485.515 515.15C485.515 511.909 463.953 509.282 437.353 509.282C410.754 509.282 389.191 511.909 389.191 515.15C389.191 518.391 410.754 521.018 437.353 521.018Z" fill="#E3E7FA"/>
<path fill-rule="evenodd" clip-rule="evenodd" d="M420.762 506.612C420.762 506.612 426.663 461.225 418.55 442.425L417.568 380.917L395.975 388.735L413.93 506.985L420.762 506.612Z" fill="#E3633D"/>
<path fill-rule="evenodd" clip-rule="evenodd" d="M413.818 504.998L407.659 509.319C406.437 510.388 399.968 512.461 399.968 512.461C399.266 513.787 400.465 514.485 401.507 514.661L420.284 514.287C420.284 514.287 424.661 513.383 421.27 505.024C417.777 506.514 414.569 507.598 413.818 504.998Z" fill="#4A2A1A"/>
<path fill-rule="evenodd" clip-rule="evenodd" d="M394.279 388.937L402.291 445.175L408.32 497.651H425.823C425.823 497.651 424.288 488.186 424.703 485.183C425.117 482.18 427.426 453.687 421.472 440.58L424.863 387.2L394.279 388.937Z" fill="#9CB2FF"/>
<path fill-rule="evenodd" clip-rule="evenodd" d="M421.604 440.58L424.996 387.2L414.597 387.768L413.749 419.304C413.286 426.592 413.398 436.755 414.802 443.957C417.585 458.181 420.031 485.732 420.498 488.145C422.082 496.254 415.601 497.658 415.601 497.658H425.967C425.967 497.658 424.435 488.193 424.846 485.19C425.257 482.187 427.558 453.687 421.604 440.58Z" fill="#829BED"/>
<path fill-rule="evenodd" clip-rule="evenodd" d="M462.71 505.345C462.71 505.345 462.609 456.825 451.153 436.367L440.44 369.461L419.049 377.967L456.472 506.626L462.71 505.345Z" fill="#E3633D"/>
<path fill-rule="evenodd" clip-rule="evenodd" d="M416.803 378.127L434.541 439.363L449.109 496.455H467.441C467.441 496.455 464.345 486.157 464.292 482.889C464.24 479.621 462.19 448.622 453.886 434.361L449.03 376.282L416.803 378.127Z" fill="#9CB2FF"/>
<path fill-rule="evenodd" clip-rule="evenodd" d="M456.232 505.973C456.232 505.973 455.272 509.82 455.234 512.92C455.255 513.224 455.345 513.52 455.498 513.783C455.65 514.047 455.862 514.272 456.116 514.441C456.67 514.865 457.354 515.084 458.051 515.061L462.066 514.844C462.626 514.835 463.165 514.63 463.59 514.265L464.356 513.555C465.63 512.368 465.103 511.086 464.442 509.279C463.975 507.972 463.588 506.639 463.284 505.286C459.832 503.183 456.232 505.973 456.232 505.973Z" fill="#4A2A1A"/>
<path fill-rule="evenodd" clip-rule="evenodd" d="M449.334 300.853C449.259 300.321 449.298 299.78 449.448 299.265C449.598 298.75 449.856 298.273 450.204 297.865C455.654 291.01 445.087 285.564 442.039 283.125C438.856 280.582 442.947 275.035 436.04 272.398C429.134 269.761 426.702 273.343 426.373 273.216C425.888 273.037 426.949 280.036 426.949 280.036C426.949 280.036 430.396 281.31 430.038 288.31C429.679 295.31 427.673 298.869 431.767 304.554C435.861 310.239 453.312 303.852 453.312 303.852C450.477 303.721 449.565 302.194 449.334 300.853Z" fill="#4A2A1A"/>
<path d="M376.765 311.509C368.398 303.292 365.593 299.788 357.379 291.365L352.086 294.626C366.033 313.997 362.806 317.691 371.98 322.076C381.837 317.658 378.27 313.829 376.765 311.509Z" fill="#C95836"/>
<path fill-rule="evenodd" clip-rule="evenodd" d="M414.658 296.505C414.658 296.505 369.316 308.282 369.585 313.724L369.637 316.134C369.653 316.864 369.836 317.581 370.17 318.23C370.505 318.879 370.983 319.443 371.569 319.879C372.155 320.315 372.832 320.612 373.55 320.747C374.268 320.882 375.007 320.851 375.711 320.657L398.182 314.483L402.582 313.381L414.658 296.505Z" fill="#C95836"/>
<path fill-rule="evenodd" clip-rule="evenodd" d="M439.019 345.078L398.22 348.171C391.582 350.61 394.234 388.885 394.234 388.885L421.061 390.128C433.525 389.867 448.268 399.642 449.822 378.874C451.596 355.137 439.019 345.078 439.019 345.078Z" fill="#9CB2FF"/>
<path fill-rule="evenodd" clip-rule="evenodd" d="M449.357 381.672C449.357 381.672 423.14 384.257 414.328 372.371L448.984 367.045C448.984 367.045 450.982 377.526 449.357 381.672Z" fill="#829BED"/>
<path fill-rule="evenodd" clip-rule="evenodd" d="M409.961 296.471L424.946 294.716L429.055 294.88L444.672 300.322C447.211 301.578 449.196 303.727 450.246 306.358C451.296 308.988 451.337 311.914 450.361 314.572L446.54 332.445C445.244 348.133 448.18 360.209 451.99 369.252C429.847 377.47 399.412 377.074 392.424 366.914C393.604 339.143 399.177 314.344 409.961 296.471Z" fill="#F9AF7F"/>
<path fill-rule="evenodd" clip-rule="evenodd" d="M417.57 286.846C417.57 286.846 418.355 292.744 419.008 297.629C419.091 298.267 419.342 298.871 419.736 299.379C420.13 299.887 420.652 300.281 421.249 300.52C421.842 300.759 422.488 300.834 423.119 300.737C423.751 300.641 424.345 300.376 424.839 299.971L425.795 299.187C426.476 298.628 426.985 297.889 427.265 297.054C427.545 296.219 427.585 295.322 427.379 294.466L424.331 281.814L417.566 286.846H417.57Z" fill="#C95836"/>
<path fill-rule="evenodd" clip-rule="evenodd" d="M417.729 290.092L418.468 293.595L421.397 290.096L417.729 290.092Z" fill="#873B24"/>
<path d="M416.769 295.713C416.769 295.713 411.86 307.868 420.201 308.413C428.542 308.958 433.11 296.314 433.11 296.314L427.018 293.606L416.769 295.713Z" fill="#C95836"/>
<path fill-rule="evenodd" clip-rule="evenodd" d="M427.337 280.514C427.606 279.725 427.552 278.862 427.187 278.112C426.822 277.363 426.175 276.788 425.387 276.514L419.702 274.587C418.07 274.026 416.538 275.02 415.739 276.566C414.79 278.393 413.737 282.49 413.334 285.557C413.102 287.286 413.868 289.214 415.5 289.77C417.244 290.364 423.034 290.469 424.599 287.484C425.79 285.217 426.515 282.957 427.337 280.526V280.514Z" fill="#C95836"/>
<path fill-rule="evenodd" clip-rule="evenodd" d="M432.218 288.598C432.218 288.598 432.176 279.633 430.04 276.735C427.168 272.824 422.853 270.213 417.09 273.616C417.09 273.616 419.129 280.87 430.036 288.325L432.218 288.598Z" fill="#4A2A1A"/>
<path d="M426.968 287.629C427.833 286.491 427.776 284.991 426.84 284.28C425.904 283.568 424.444 283.913 423.579 285.051C422.713 286.189 422.77 287.689 423.706 288.401C424.642 289.112 426.103 288.767 426.968 287.629Z" fill="#C95836"/>
<path fill-rule="evenodd" clip-rule="evenodd" d="M414.421 284.53L417.275 285.441C417.275 285.441 416.599 287.395 415.28 286.793C413.962 286.192 414.421 284.53 414.421 284.53Z" fill="white"/>
<path d="M431.172 279.069C431.034 279.068 430.901 279.018 430.797 278.927C430.693 278.837 430.625 278.712 430.604 278.576C429.925 273.843 426.776 273.944 426.638 273.941C426.562 273.947 426.486 273.938 426.414 273.914C426.342 273.89 426.275 273.851 426.219 273.801C426.163 273.75 426.117 273.688 426.086 273.619C426.054 273.55 426.037 273.475 426.036 273.399C426.032 273.324 426.042 273.25 426.066 273.179C426.091 273.108 426.129 273.043 426.178 272.987C426.228 272.931 426.288 272.886 426.355 272.853C426.423 272.821 426.496 272.802 426.57 272.798C426.611 272.798 430.903 272.592 431.74 278.4C431.761 278.551 431.722 278.704 431.631 278.826C431.54 278.947 431.405 279.028 431.254 279.05L431.172 279.069Z" fill="#8B939C"/>
<path fill-rule="evenodd" clip-rule="evenodd" d="M415.155 296.199C415.155 296.199 411.005 295.452 401.682 298.372C389.894 302.082 371.427 309.451 369.186 311.662C366.944 313.874 380.279 321.318 380.279 321.318L401.002 315.147L415.155 296.199Z" fill="#F9AF7F"/>
<path d="M397.619 329.913C397.547 329.912 397.476 329.902 397.406 329.883C397.312 329.855 397.224 329.808 397.148 329.746C397.071 329.684 397.008 329.607 396.962 329.52C396.915 329.433 396.886 329.338 396.877 329.24C396.867 329.142 396.877 329.043 396.906 328.949L401.074 315.084L400.775 312.514C400.764 312.416 400.772 312.317 400.799 312.222C400.826 312.127 400.872 312.038 400.933 311.961C400.995 311.883 401.071 311.819 401.157 311.771C401.243 311.723 401.338 311.692 401.436 311.681C401.535 311.67 401.634 311.678 401.729 311.705C401.824 311.732 401.912 311.778 401.99 311.839C402.067 311.901 402.132 311.977 402.18 312.063C402.228 312.149 402.258 312.244 402.269 312.342L402.587 315.065C402.599 315.167 402.59 315.27 402.561 315.368L398.347 329.382C398.3 329.538 398.204 329.674 398.072 329.77C397.941 329.866 397.782 329.916 397.619 329.913Z" fill="#CC9068"/>
<path d="M355.778 295.9L349.783 294.574C348.587 294.307 347.527 293.621 346.794 292.639L343.806 288.661C343.567 288.339 343.41 287.965 343.347 287.569C343.284 287.173 343.318 286.768 343.446 286.388C343.574 286.009 343.791 285.665 344.08 285.388C344.369 285.111 344.721 284.907 345.106 284.795L352.543 286.891C354.274 287.419 355.763 288.541 356.749 290.058L358.519 292.673L355.778 295.9Z" fill="#C95836"/>
<path d="M380.273 321.318C380.273 321.318 370.991 326.835 365.44 321.292C359.89 315.749 353.305 300.625 353.305 300.625L364.981 295.612L376.052 309.608L380.273 321.318Z" fill="#F9AF7F"/>
<path d="M448.35 303.191C448.35 303.191 436.454 311.805 439.815 320.526C439.815 320.526 453.262 355.854 456.448 361.065C460.714 368.042 463.172 353.243 463.172 353.243L479.304 341.821L467.086 345.504L466.537 326.036L448.35 303.191Z" fill="#F9AF7F"/>
<path d="M465.936 364.733L440.847 365.823C439.562 365.876 438.852 364.908 439.274 363.664L452.482 324.792C452.732 324.151 453.154 323.591 453.702 323.174C454.249 322.758 454.901 322.501 455.586 322.431L480.679 321.344C481.964 321.288 482.67 322.259 482.248 323.5L469.044 362.365C468.795 363.008 468.373 363.569 467.825 363.987C467.276 364.405 466.622 364.663 465.936 364.733Z" fill="#252D70"/>
<path d="M474.451 349.683L478.347 346.247C479.133 345.543 479.644 344.584 479.789 343.539L480.405 339.247C480.461 338.907 480.435 338.559 480.329 338.231C480.224 337.903 480.041 337.605 479.797 337.362C479.553 337.119 479.255 336.937 478.927 336.832C478.599 336.728 478.25 336.703 477.91 336.759L473.26 341.372C472.176 342.499 471.516 343.967 471.392 345.526L471.284 346.647C471.238 347.122 471.345 347.6 471.589 348.011C471.834 348.421 472.203 348.743 472.644 348.929L474.451 349.683Z" fill="#C95836"/>
<path d="M444.097 333.977C443.908 333.977 443.727 333.907 443.588 333.78C443.45 333.652 443.365 333.477 443.35 333.289L442.016 316.612C442 316.414 442.064 316.217 442.193 316.066C442.321 315.915 442.505 315.821 442.703 315.805C442.901 315.789 443.098 315.853 443.249 315.981C443.4 316.11 443.494 316.294 443.51 316.492L444.844 333.17C444.852 333.268 444.841 333.366 444.811 333.46C444.781 333.553 444.733 333.64 444.669 333.715C444.606 333.79 444.528 333.852 444.441 333.897C444.353 333.942 444.258 333.969 444.16 333.977H444.097Z" fill="#CC9068"/>
<path d="M608.475 346.852C606.697 345.04 607.941 341.963 610.451 341.97C611.132 341.967 611.806 341.828 612.433 341.563C613.06 341.298 613.628 340.911 614.105 340.425C614.581 339.938 614.957 339.362 615.209 338.73C615.462 338.098 615.586 337.422 615.576 336.741V335.247C615.581 333.869 615.042 332.545 614.076 331.562C613.11 330.579 611.796 330.017 610.418 329.999C609.855 329.988 609.309 329.814 608.844 329.496C608.38 329.179 608.019 328.732 607.806 328.212C607.593 327.691 607.536 327.12 607.644 326.568C607.752 326.016 608.019 325.508 608.412 325.106C609.374 324.114 609.911 322.785 609.907 321.403C609.903 320.021 609.358 318.696 608.39 317.71L607.351 316.653C606.879 316.167 606.315 315.78 605.692 315.515C605.069 315.25 604.399 315.113 603.721 315.111C603.044 315.109 602.373 315.242 601.748 315.503C601.124 315.764 600.557 316.147 600.082 316.63C599.685 317.028 599.179 317.298 598.627 317.405C598.076 317.513 597.505 317.453 596.987 317.234C596.47 317.015 596.03 316.646 595.724 316.175C595.417 315.704 595.258 315.153 595.268 314.591C595.268 313.217 594.727 311.898 593.763 310.919C592.798 309.941 591.487 309.381 590.113 309.362H588.649C587.968 309.365 587.295 309.503 586.667 309.769C586.04 310.034 585.472 310.421 584.996 310.907C584.519 311.393 584.144 311.969 583.891 312.602C583.638 313.234 583.514 313.91 583.524 314.591C583.535 315.152 583.378 315.703 583.072 316.173C582.765 316.644 582.325 317.011 581.807 317.228C581.29 317.444 580.719 317.5 580.169 317.388C579.62 317.277 579.116 317.002 578.724 316.6C578.253 316.114 577.689 315.727 577.066 315.462C576.442 315.197 575.772 315.059 575.095 315.057C574.417 315.055 573.746 315.188 573.121 315.45C572.496 315.711 571.93 316.095 571.456 316.578L570.425 317.624C569.462 318.616 568.926 319.944 568.93 321.326C568.934 322.708 569.479 324.034 570.447 325.02C572.225 326.831 570.977 329.913 568.471 329.905C567.79 329.908 567.116 330.045 566.489 330.31C565.861 330.575 565.292 330.962 564.816 331.449C564.339 331.935 563.963 332.512 563.711 333.144C563.459 333.777 563.335 334.454 563.346 335.135V336.629C563.356 337.998 563.902 339.308 564.867 340.279C565.832 341.25 567.14 341.803 568.508 341.821C571.015 341.821 572.281 344.917 570.514 346.718C569.552 347.709 569.015 349.038 569.019 350.42C569.024 351.802 569.568 353.128 570.537 354.113L571.571 355.167C572.043 355.653 572.607 356.041 573.231 356.306C573.855 356.571 574.525 356.708 575.203 356.711C575.881 356.713 576.552 356.579 577.177 356.318C577.802 356.057 578.369 355.673 578.844 355.189C580.611 353.392 583.647 354.677 583.655 357.232C583.655 358.607 584.196 359.926 585.161 360.905C586.127 361.884 587.439 362.443 588.813 362.462H590.274C590.955 362.459 591.629 362.322 592.257 362.057C592.885 361.792 593.453 361.405 593.93 360.918C594.408 360.432 594.783 359.856 595.036 359.223C595.289 358.59 595.413 357.914 595.402 357.232C595.404 356.679 595.569 356.139 595.878 355.68C596.187 355.22 596.625 354.863 597.136 354.653C597.648 354.443 598.211 354.389 598.753 354.498C599.295 354.608 599.793 354.875 600.183 355.268C600.654 355.754 601.218 356.142 601.841 356.407C602.465 356.673 603.135 356.811 603.812 356.813C604.489 356.815 605.161 356.682 605.786 356.421C606.411 356.16 606.977 355.777 607.452 355.294L608.483 354.244C609.446 353.255 609.985 351.928 609.983 350.547C609.982 349.165 609.441 347.84 608.475 346.852ZM580.461 345.078C578.058 342.631 576.706 339.342 576.696 335.912C576.685 332.482 578.017 329.184 580.405 326.723C581.583 325.523 582.989 324.571 584.541 323.923C586.092 323.275 587.758 322.944 589.439 322.949C591.121 322.954 592.784 323.296 594.332 323.953C595.879 324.611 597.279 325.572 598.45 326.779C600.854 329.226 602.205 332.515 602.215 335.945C602.226 339.375 600.895 342.673 598.506 345.134C597.328 346.334 595.922 347.286 594.37 347.934C592.819 348.582 591.153 348.913 589.472 348.908C587.79 348.903 586.127 348.561 584.579 347.903C583.032 347.246 581.632 346.285 580.461 345.078Z" fill="#B9C7ED"/>
<path d="M162.516 270.851C162.516 270.851 162.833 272.607 164.365 272.476V270.706L162.516 270.851Z" fill="#E3E8F9"/>
</svg>
