<svg width="701" height="485" viewBox="0 0 701 485" fill="none" xmlns="http://www.w3.org/2000/svg">
<path d="M59.7297 264.512C59.7297 264.512 33.3867 174.61 90.4447 134.04C147.503 93.4695 194.927 157.845 249.555 128.103C304.183 98.3607 303.162 3.8859 433.821 11.4461C564.481 19.0063 550.444 184.105 602.687 193.964C602.687 193.964 711.25 212.183 700.211 329.331C689.172 446.48 473.983 449.363 397.007 288.314C320.03 127.265 144.252 476.665 59.7297 264.512Z" fill="#EFF1F7"/>
<path d="M259.225 73.3022C271.597 96.0763 262.915 114.458 304.683 151.746C320.582 165.939 332.047 192.846 340.158 220.73L309.284 300.835C270.095 273.488 225.948 218.123 228.628 190.613C231.304 162.962 219.52 143.386 196.781 119.553C155.428 76.1996 182.024 5.27075 182.024 5.27075C182.024 5.27075 239.065 36.1831 259.225 73.3022Z" fill="#CAD0EB"/>
<path d="M206.054 59.8086C206.222 59.7031 206.409 59.6319 206.605 59.599C206.8 59.5661 207 59.5722 207.193 59.6169C207.386 59.6616 207.568 59.7441 207.729 59.8596C207.89 59.975 208.027 60.1212 208.131 60.2897C249.91 127.21 286.575 188.225 318.592 260.303L317.062 264.273C284.824 191.146 247.829 129.536 205.598 61.8786C205.384 61.5433 205.313 61.1372 205.399 60.7493C205.484 60.3613 205.72 60.0231 206.054 59.8086Z" fill="#9FA8D6"/>
<path d="M241.794 200.002C249.587 215.157 256.807 240.738 262.63 266.399L243.058 341.278C172.441 273.115 142.799 169.861 142.799 169.861C71.8872 181.53 59.1934 121.561 59.1934 121.561C201.729 90.3406 241.794 200.002 241.794 200.002Z" fill="#B6BEE3"/>
<path d="M130.407 141.254C130.802 141.451 170.216 161.594 203.762 199.998C223.494 222.588 237.41 246.993 245.094 272.533C246.673 277.771 247.986 283.06 249.034 288.397L246.469 291.748C239.58 253.722 220.347 223.554 201.575 202.047C168.392 164.042 129.445 144.131 129.054 143.933C128.716 143.744 128.465 143.431 128.352 143.061C128.24 142.691 128.274 142.291 128.449 141.946C128.623 141.601 128.924 141.336 129.289 141.207C129.654 141.078 130.054 141.095 130.407 141.254Z" fill="#8D97C7"/>
<path d="M319.813 472.729C496.441 472.729 639.626 463.778 639.626 452.735C639.626 441.693 496.441 432.741 319.813 432.741C143.185 432.741 0 441.693 0 452.735C0 463.778 143.185 472.729 319.813 472.729Z" fill="#E3E7FA"/>
<path d="M489.72 484.52C584.37 484.52 661.099 475.568 661.099 464.525C661.099 453.483 584.37 444.531 489.72 444.531C395.071 444.531 318.342 453.483 318.342 464.525C318.342 475.568 395.071 484.52 489.72 484.52Z" fill="#E3E7FA"/>
<path d="M545.873 457.263H82.8074C77.4733 457.263 72.3577 455.144 68.586 451.372C64.8143 447.6 62.6953 442.485 62.6953 437.151V435.541H565.978V437.165C565.975 442.495 563.855 447.606 560.085 451.374C556.315 455.143 551.204 457.261 545.873 457.263Z" fill="#2E315E"/>
<path fill-rule="evenodd" clip-rule="evenodd" d="M73.8438 86.7194L166.442 88.4052C166.442 88.4052 165.937 51.5388 139.559 54.0797C122.338 55.7343 119.828 73.6067 119.828 73.6067C119.828 73.6067 94.572 52.9685 73.8438 86.7194Z" fill="#EFF1F7"/>
<path fill-rule="evenodd" clip-rule="evenodd" d="M500.365 107.572L623.54 108.285C623.54 108.285 631.128 70.2075 602.798 69.1136C580.9 68.2586 579.318 90.7799 579.318 90.7799C579.318 90.7799 575.143 77.0338 556.447 79.7027C541.832 81.8039 539.599 96.367 539.599 96.367C539.599 96.367 518.058 78.7681 500.365 107.572Z" fill="#CAD0EB"/>
<path d="M624.901 272.806C628.317 272.806 631.087 270.037 631.087 266.621C631.087 263.204 628.317 260.435 624.901 260.435C621.484 260.435 618.715 263.204 618.715 266.621C618.715 270.037 621.484 272.806 624.901 272.806Z" stroke="#2D4E73" stroke-width="2" stroke-miterlimit="10" stroke-linecap="round"/>
<path d="M302.331 13.2938C305.69 12.6694 307.907 9.4404 307.282 6.08154C306.658 2.72268 303.429 0.505913 300.07 1.13026C296.711 1.75461 294.494 4.98364 295.119 8.3425C295.743 11.7014 298.972 13.9181 302.331 13.2938Z" stroke="#2D4E73" stroke-width="2" stroke-miterlimit="10" stroke-linecap="round"/>
<path d="M41.8129 272.806C45.2293 272.806 47.9988 270.037 47.9988 266.621C47.9988 263.204 45.2293 260.435 41.8129 260.435C38.3965 260.435 35.627 263.204 35.627 266.621C35.627 270.037 38.3965 272.806 41.8129 272.806Z" stroke="#2D4E73" stroke-width="2" stroke-miterlimit="10" stroke-linecap="round"/>
<path d="M156.674 191.195H551.3C553.227 191.194 555.136 191.573 556.917 192.31C558.697 193.047 560.315 194.127 561.678 195.489C563.041 196.852 564.123 198.469 564.86 200.25C565.598 202.03 565.978 203.938 565.978 205.865V437.625H142.004V205.865C142.004 201.975 143.55 198.243 146.301 195.492C149.052 192.741 152.783 191.195 156.674 191.195Z" fill="#2E315E"/>
<path d="M552.877 204.024H154.188V435.06H552.877V204.024Z" fill="#B6C0F0"/>
<path d="M145.461 253.954C145.461 253.954 139.171 264.547 138.918 264.547C138.666 264.547 135.408 258.589 135.408 258.589L141.508 251.341L145.461 253.954Z" fill="#C95836"/>
<path fill-rule="evenodd" clip-rule="evenodd" d="M69.6837 267.008C69.7488 266.515 69.7097 266.014 69.569 265.537C69.4283 265.06 69.1891 264.618 68.8668 264.239C63.7678 257.824 73.6577 252.725 76.5135 250.441C79.4905 248.059 75.6619 242.867 82.1283 240.402C88.5946 237.937 90.8689 241.285 91.1804 241.167C91.6304 240.997 90.6404 247.55 90.6404 247.55C90.6404 247.55 87.4142 248.745 87.7465 255.297C88.0788 261.85 89.9585 265.184 86.1299 270.508C82.3013 275.832 65.959 269.85 65.959 269.85C68.6279 269.694 69.4656 268.265 69.6837 267.008Z" fill="#663A24"/>
<path d="M76.3564 469.78C103.336 469.78 125.207 468.151 125.207 466.142C125.207 464.133 103.336 462.504 76.3564 462.504C49.377 462.504 27.5059 464.133 27.5059 466.142C27.5059 468.151 49.377 469.78 76.3564 469.78Z" fill="#E3E7FA"/>
<path fill-rule="evenodd" clip-rule="evenodd" d="M94.1095 459.783C94.1095 459.783 87.4978 415.581 96.0376 398.093L91.3887 338.131L119.338 340.056L100.503 460.129L94.1095 459.783Z" fill="#E3633D"/>
<path fill-rule="evenodd" clip-rule="evenodd" d="M100.694 458.045L106.232 462.085C107.323 463.085 113.273 465.024 113.273 465.024C113.865 466.263 112.705 466.917 111.722 467.08L94.1649 466.713C94.1649 466.713 90.1113 465.872 93.7045 458.059C96.9273 459.464 99.8628 460.475 100.694 458.045Z" fill="#4A2A1A"/>
<path fill-rule="evenodd" clip-rule="evenodd" d="M121.264 349.426L114.801 400.208L106.296 451.115H85.8477C85.8477 451.115 87.7585 442.264 87.5335 439.456C87.3085 436.649 86.5642 410.008 92.7986 397.75L92.2967 347.854L121.264 349.426Z" fill="#5B6BB8"/>
<path fill-rule="evenodd" clip-rule="evenodd" d="M92.6464 397.75L92.1513 347.854L101.844 348.388L102.207 384.935C102.239 391.809 101.394 398.658 99.6942 405.318C96.378 418.614 96.9249 437.165 97.1015 439.47C97.3265 442.277 95.4191 451.129 95.4191 451.129H85.7266C85.7266 451.129 87.6339 442.277 87.4089 439.47C87.1839 436.663 86.412 410.008 92.6464 397.75Z" fill="#404B82"/>
<path fill-rule="evenodd" clip-rule="evenodd" d="M73.4476 403.788L47.5754 451.804C42.5525 453.621 42.2341 450.7 43.6533 446.034C49.5866 425.783 46.9834 413.425 63.6893 395.369L73.4476 403.788Z" fill="#E3633D"/>
<path fill-rule="evenodd" clip-rule="evenodd" d="M98.3103 345.362L83.0792 395.369C82.2713 398.085 81.2121 400.721 79.9152 403.241L55.303 446.823L42.3496 439.377C45.5828 418.524 49.5048 408.475 63.7044 388.39L69.243 340.055L82.4457 340.585L98.3103 345.362Z" fill="#5B6BB8"/>
<path fill-rule="evenodd" clip-rule="evenodd" d="M47.825 451.679L48.0189 458.54C47.8977 460.011 50.0024 465.906 50.0024 465.906C49.3827 467.135 48.1573 466.599 47.4269 465.938L36.9797 451.821C36.9797 451.821 35.1658 448.096 43.5568 446.165C44.3876 449.554 45.3915 452.507 47.825 451.679Z" fill="#4A2A1A"/>
<path d="M140.543 253.027L142.62 247.903C143.037 246.879 143.807 246.038 144.79 245.532L148.775 243.49C149.096 243.324 149.452 243.239 149.814 243.242C150.175 243.245 150.53 243.335 150.849 243.506C151.167 243.676 151.44 243.921 151.643 244.219C151.846 244.518 151.974 244.862 152.015 245.221L149.031 251.514C148.297 252.974 147.071 254.129 145.569 254.775L142.966 255.955L140.543 253.027Z" fill="#C95836"/>
<path fill-rule="evenodd" clip-rule="evenodd" d="M79.3366 308.413L117.532 311.324C123.763 313.605 121.264 349.426 121.264 349.426L96.1497 350.593C84.4805 350.347 70.679 359.499 69.2251 340.055C67.5635 317.832 79.3366 308.413 79.3366 308.413Z" fill="#5B6BB8"/>
<path fill-rule="evenodd" clip-rule="evenodd" d="M68.8864 342.364C68.8864 342.364 94.2359 345.092 102.464 333.963L68.4848 331.045C68.4848 331.045 68.3637 339.522 68.8864 342.364Z" fill="#404B82"/>
<path fill-rule="evenodd" clip-rule="evenodd" d="M106.542 262.906L92.5116 261.265L88.6658 261.417L79.5963 264.578C74.6739 267.001 70.3814 276.424 72.2646 281.606L72.2957 296.588C68.4879 309.209 66.5321 318.05 67.1933 331.045C87.9215 338.743 116.418 338.366 122.96 328.857C121.849 302.853 116.636 279.639 106.542 262.906Z" fill="#FFBA80"/>
<path fill-rule="evenodd" clip-rule="evenodd" d="M99.4183 253.899C99.4183 253.899 98.6844 259.42 98.0752 263.993C97.9986 264.587 97.7661 265.151 97.4014 265.626C97.0366 266.102 96.5525 266.472 95.9982 266.7C95.4431 266.923 94.8383 266.993 94.247 266.902C93.6558 266.811 93.0997 266.563 92.637 266.184L91.7335 265.468C91.0956 264.945 90.6182 264.253 90.3561 263.471C90.094 262.689 90.0579 261.849 90.2519 261.047L93.087 249.198L99.4183 253.913V253.899Z" fill="#C95836"/>
<path fill-rule="evenodd" clip-rule="evenodd" d="M99.2699 256.938L98.5775 260.216L95.8359 256.938H99.2699Z" fill="#873B24"/>
<path d="M100.166 262.2C100.166 262.2 104.763 273.578 96.9537 274.077C89.1443 274.575 84.8691 262.75 84.8691 262.75L90.5739 260.216L100.166 262.2Z" fill="#C95836"/>
<path fill-rule="evenodd" clip-rule="evenodd" d="M90.2754 247.969C90.0235 247.23 90.0739 246.422 90.4157 245.72C90.7574 245.019 91.3628 244.481 92.0997 244.223L97.4237 242.406C98.9503 241.887 100.383 242.815 101.135 244.262C102.021 245.972 103.004 249.8 103.385 252.677C103.599 254.297 102.883 256.1 101.356 256.623C99.7222 257.18 94.3048 257.277 92.837 254.484C91.7224 252.362 91.0439 250.247 90.2754 247.969Z" fill="#C95836"/>
<path fill-rule="evenodd" clip-rule="evenodd" d="M85.7051 255.536C85.7051 255.536 85.7466 247.156 87.744 244.431C90.4337 240.769 94.4734 238.325 99.8597 241.51C99.8597 241.51 97.9489 248.302 87.744 255.28L85.7051 255.536Z" fill="#663A24"/>
<path d="M93.6592 255.372C94.5358 254.705 94.5897 253.301 93.7797 252.236C92.9696 251.171 91.6024 250.847 90.7258 251.514C89.8493 252.181 89.7953 253.585 90.6054 254.65C91.4154 255.715 92.7827 256.038 93.6592 255.372Z" fill="#C95836"/>
<path fill-rule="evenodd" clip-rule="evenodd" d="M102.366 251.729L99.6934 252.584C99.6934 252.584 100.327 254.412 101.563 253.847C102.798 253.283 102.366 251.729 102.366 251.729Z" fill="white"/>
<path fill-rule="evenodd" clip-rule="evenodd" d="M144.276 259.67L136.695 253.954L127.781 264.973L106.389 262.968C106.389 262.968 104.1 262.792 102.581 263.64C101.061 264.488 115.783 278.179 115.783 278.179L125.805 279.868C125.805 279.868 129.848 280.024 135.089 272.848C140.33 265.672 144.276 259.67 144.276 259.67Z" fill="#FFBA80"/>
<path d="M115.622 284.005L112.303 275.77" stroke="#8B939C" stroke-width="3.04" stroke-linecap="round" stroke-linejoin="round"/>
<path d="M90.9607 241.288C90.9607 241.288 87.409 241.07 86.6855 246.086" stroke="#8B939C" stroke-width="3.04" stroke-linecap="round" stroke-linejoin="round"/>
<path d="M108.097 254.016L128.047 250.559L126.513 241.708L106.563 245.164L108.097 254.016Z" fill="#3A446B"/>
<path d="M108.075 254.034C109.785 253.738 110.828 251.516 110.404 249.071C109.981 246.625 108.251 244.884 106.54 245.18C104.83 245.476 103.787 247.699 104.21 250.144C104.634 252.589 106.364 254.331 108.075 254.034Z" fill="#3A446B"/>
<path d="M125.689 254.052L159.156 248.253L156.584 233.406L123.117 239.204L125.689 254.052Z" fill="#6C7FC7"/>
<path d="M125.653 254.081C128.52 253.584 130.268 249.857 129.558 245.756C128.847 241.655 125.947 238.734 123.08 239.23C120.213 239.727 118.465 243.454 119.175 247.555C119.886 251.656 122.786 254.578 125.653 254.081Z" fill="#6C7FC7"/>
<path d="M143.183 253.224L164.17 249.588L160.855 230.457L139.868 234.093L143.183 253.224Z" fill="#5B6BA8"/>
<path d="M164.137 249.613C167.833 248.973 170.087 244.172 169.172 238.89C168.257 233.608 164.519 229.845 160.823 230.485C157.127 231.126 154.873 235.927 155.788 241.209C156.703 246.491 160.441 250.253 164.137 249.613Z" fill="#CBD2F2"/>
<path d="M158.592 240.281C159.194 243.763 161.659 246.242 164.093 245.82C166.526 245.397 168.011 242.233 167.409 238.751C166.807 235.269 164.342 232.79 161.908 233.212C159.475 233.635 157.986 236.799 158.592 240.281Z" fill="#2E315E"/>
<path d="M143.151 253.25C146.847 252.61 149.101 247.809 148.186 242.527C147.27 237.245 143.532 233.482 139.837 234.122C136.141 234.763 133.886 239.564 134.802 244.846C135.717 250.128 139.455 253.89 143.151 253.25Z" fill="#5B6BA8"/>
<path fill-rule="evenodd" clip-rule="evenodd" d="M100.971 286.951C105.533 289.796 110.919 289.533 114.817 284.663L128.546 257.506L122.229 256.952L108.749 275.448L100.971 286.951Z" fill="#C95836"/>
<path d="M122.23 256.952L126.277 253.162C127.088 252.406 128.143 251.965 129.251 251.919L133.733 251.732C134.095 251.717 134.455 251.789 134.782 251.943C135.11 252.098 135.395 252.329 135.613 252.618C135.831 252.906 135.976 253.244 136.035 253.601C136.094 253.958 136.066 254.324 135.952 254.667L130.594 259.143C129.318 260.162 127.725 260.7 126.094 260.663H123.234L122.23 256.952Z" fill="#C95836"/>
<path fill-rule="evenodd" clip-rule="evenodd" d="M126.204 265.011L119.018 259.102L106.867 275.427C102.277 276.947 85.6096 265.08 83.903 264.862C80.656 264.45 73.3104 269.258 76.052 274.094C78.7936 278.93 84.8688 286.93 84.8688 286.93L106.442 290.856C106.442 290.856 113.164 291.375 117.315 282.856C121.465 274.337 126.204 265.011 126.204 265.011Z" fill="#FFBA80"/>
<path d="M125.171 267.022L116.711 284.005C116.711 284.005 113.27 291.347 106.44 290.866C99.6102 290.385 77.8262 281.308 77.8262 281.308" stroke="#C98851" stroke-linecap="round" stroke-linejoin="round"/>
<path d="M113.962 265.675L107.389 274.731" stroke="#C98851" stroke-linecap="round" stroke-linejoin="round"/>
<path d="M530.78 228.033H182.069C177.58 228.033 173.941 231.672 173.941 236.161V411.766C173.941 416.255 177.58 419.894 182.069 419.894H530.78C535.269 419.894 538.908 416.255 538.908 411.766V236.161C538.908 231.672 535.269 228.033 530.78 228.033Z" fill="white"/>
<path d="M238.288 326.109C263.723 326.109 284.341 305.49 284.341 280.055C284.341 254.62 263.723 234.001 238.288 234.001C212.853 234.001 192.234 254.62 192.234 280.055C192.234 305.49 212.853 326.109 238.288 326.109Z" fill="#7585E6"/>
<path d="M284.343 280.055C284.338 287.505 282.527 294.844 279.065 301.441C275.603 308.038 270.593 313.697 264.464 317.933C258.336 322.17 251.271 324.857 243.877 325.765C236.482 326.672 228.977 325.774 222.006 323.146" stroke="#1F1406" stroke-width="2" stroke-linecap="round" stroke-linejoin="round"/>
<path d="M264.915 306.398C279.62 291.693 279.62 267.85 264.915 253.145C250.209 238.44 226.367 238.44 211.662 253.145C196.956 267.85 196.956 291.693 211.662 306.398C226.367 321.103 250.209 321.103 264.915 306.398Z" fill="#5566A1"/>
<path d="M238.356 283.275C246.971 283.275 253.954 276.291 253.954 267.676C253.954 259.062 246.971 252.078 238.356 252.078C229.741 252.078 222.758 259.062 222.758 267.676C222.758 276.291 229.741 283.275 238.356 283.275Z" fill="white"/>
<path d="M250.767 283.575C249.312 285.495 247.431 287.05 245.273 288.12C243.115 289.189 240.738 289.744 238.33 289.74C235.921 289.736 233.546 289.173 231.392 288.096C229.237 287.02 227.362 285.458 225.913 283.534C217.7 286.404 210.731 292.021 206.182 299.437C209.548 304.933 214.268 309.474 219.891 312.624C225.514 315.774 231.852 317.428 238.297 317.428C244.742 317.428 251.08 315.774 256.703 312.624C262.326 309.474 267.046 304.933 270.412 299.437C265.88 292.051 258.943 286.45 250.767 283.575Z" fill="white"/>
<path d="M470.443 247.059H328.689C313.964 247.059 302.027 258.996 302.027 273.72V290.201C302.027 304.926 313.964 316.863 328.689 316.863H470.443C485.167 316.863 497.104 304.926 497.104 290.201V273.72C497.104 258.996 485.167 247.059 470.443 247.059Z" fill="#E3E6F7"/>
<path d="M384.469 358.239H204.042C202.101 358.234 200.241 357.461 198.868 356.088C197.496 354.716 196.722 352.856 196.717 350.915C196.723 348.974 197.497 347.115 198.869 345.742C200.242 344.37 202.101 343.596 204.042 343.59H384.469C386.409 343.596 388.269 344.37 389.641 345.742C391.013 347.115 391.787 348.974 391.794 350.915C391.788 352.856 391.015 354.716 389.642 356.088C388.27 357.461 386.41 358.234 384.469 358.239Z" fill="#E3E6F7"/>
<path d="M384.469 401.672H204.042C202.101 401.667 200.241 400.893 198.868 399.521C197.496 398.148 196.722 396.289 196.717 394.348C196.722 392.407 197.496 390.547 198.868 389.174C200.241 387.802 202.101 387.028 204.042 387.023H384.469C386.41 387.028 388.27 387.802 389.642 389.174C391.015 390.547 391.788 392.407 391.794 394.348C391.788 396.289 391.015 398.148 389.642 399.521C388.27 400.893 386.41 401.667 384.469 401.672Z" fill="#E3E6F7"/>
<path d="M401.202 113.329C393.711 104.471 391.27 100.736 383.952 91.6699L375.963 92.5319C387.926 112.924 388.176 121.118 396.816 126.29C406.944 122.849 402.465 115.756 401.202 113.329Z" fill="#C95836"/>
<path d="M383.931 91.6938L379.618 87.7406C378.757 86.9497 377.64 86.494 376.472 86.4564L371.736 86.304C371.355 86.2926 370.977 86.3734 370.634 86.5395C370.291 86.7057 369.994 86.9522 369.767 87.2582C369.539 87.5641 369.39 87.9204 369.33 88.2968C369.27 88.6731 369.302 89.0583 369.424 89.4195L375.125 94.0858C376.484 95.1483 378.174 95.6997 379.899 95.6435L382.914 95.5951L383.931 91.6938Z" fill="#C95836"/>
<path fill-rule="evenodd" clip-rule="evenodd" d="M377.785 100.552L386.238 93.1339L400.625 110.286L425.41 94.5497C425.41 94.5497 428.079 92.8985 430.423 92.625C432.766 92.3515 424.708 115.205 424.708 115.205L404.135 127.169C404.135 127.169 395.827 132.236 391.642 124.133C387.457 116.029 377.785 100.552 377.785 100.552Z" fill="#C5CCEB"/>
<path d="M393.141 68.8989L392.182 68.5112C392.883 69.3254 393.362 70.3063 393.574 71.3594C393.785 72.4126 393.722 73.5024 393.39 74.5241C393.031 75.6293 392.371 76.6127 391.485 77.3641C390.598 78.1155 389.52 78.6052 388.371 78.7784L389.804 79.1765C391.166 79.6197 392.648 79.5041 393.925 78.855C395.202 78.2059 396.169 77.0765 396.613 75.7149C396.833 75.0394 396.918 74.3272 396.862 73.619C396.806 72.9108 396.612 72.2205 396.29 71.5875C395.967 70.9545 395.523 70.3913 394.983 69.93C394.443 69.4686 393.817 69.1183 393.141 68.8989Z" fill="#31417A"/>
<path d="M366.25 100.755L366.756 100.963C369.05 101.909 371.677 100.815 372.622 98.5211L380.731 78.848C381.677 76.5537 380.583 73.9273 378.289 72.9816L377.783 72.7732C375.489 71.8276 372.863 72.9209 371.917 75.2152L363.808 94.8882C362.863 97.1825 363.956 99.809 366.25 100.755Z" fill="#31417A"/>
<path d="M361.497 74.7803L382.225 80.1805C384.493 80.9128 386.958 80.7162 389.08 79.6338C391.203 78.5515 392.81 76.6716 393.548 74.4065C394.28 72.1401 394.083 69.6763 393.002 67.5546C391.92 65.4329 390.042 63.8264 387.778 63.0869L367.354 54.2009C366.932 54.059 361.047 74.6384 361.497 74.7803Z" fill="#455DAD"/>
<path d="M385.485 75.4552L365.061 70.1382C364.586 71.816 363.612 73.3096 362.268 74.4202L382.857 79.7788C384.979 80.4645 387.279 80.3385 389.312 79.4253C391.346 78.512 392.969 76.8766 393.865 74.8356C391.262 76.1349 388.251 76.3575 385.485 75.4552Z" fill="#31417A"/>
<path d="M388.397 63.3465L386.801 62.7026C387.969 64.0557 388.767 65.6871 389.119 67.439C389.472 69.1909 389.366 71.0042 388.812 72.7033C388.217 74.5424 387.12 76.1788 385.645 77.4282C384.17 78.6776 382.375 79.4905 380.463 79.7754L382.848 80.4366C385.115 81.169 387.579 80.9729 389.702 79.8913C391.824 78.8096 393.432 76.9306 394.171 74.666C394.902 72.3992 394.705 69.935 393.623 67.8132C392.541 65.6915 390.661 64.0853 388.397 63.3465Z" fill="#526ECF"/>
<path d="M355.912 34.1028L371.324 55.9111C371.864 61.5189 369.52 70.7234 365.47 75.6008L339.463 84.7707C339.311 84.8363 339.143 84.8566 338.98 84.8293C338.817 84.8019 338.665 84.7281 338.543 84.6166C338.421 84.505 338.334 84.3606 338.292 84.2007C338.25 84.0407 338.255 83.872 338.306 83.7149L354.355 34.2862C354.405 34.1288 354.5 33.9893 354.628 33.8842C354.755 33.7791 354.91 33.713 355.075 33.6937C355.239 33.6743 355.405 33.7026 355.554 33.7751C355.702 33.8477 355.827 33.9614 355.912 34.1028Z" fill="#445BAB"/>
<path d="M357.322 62.5652C361.953 48.3058 361.038 35.2303 355.279 33.3603C349.521 31.4903 341.099 41.5339 336.468 55.7933C331.838 70.0528 332.752 83.1282 338.511 84.9982C344.27 86.8682 352.692 76.8246 357.322 62.5652Z" fill="#5775DB"/>
<path d="M355.646 62.9531C359.896 49.8647 359.283 37.9367 354.277 36.3111C349.272 34.6856 341.768 43.9781 337.518 57.0665C333.268 70.1549 333.88 82.0829 338.886 83.7084C343.892 85.334 351.396 76.0415 355.646 62.9531Z" fill="#3B4F94"/>
<path d="M357.869 53.7058C357.177 52.8266 356.139 52.0581 354.553 51.4073C351.216 50.0227 346.785 53.7682 344.802 59.3691C342.818 64.97 344.13 70.1001 347.374 71.6959C349.105 72.5544 350.51 72.6964 351.656 72.3294C353.404 69.0035 354.833 65.5193 355.924 61.9238C356.757 59.2315 357.407 56.4859 357.869 53.7058Z" fill="#283563"/>
<path d="M354.262 36.3078C350.174 34.982 344.424 40.9325 340.139 50.2824C344.21 47.198 350.177 45.9588 358.039 52.6363C359.212 44.093 357.893 37.4847 354.262 36.3078Z" fill="#31417A"/>
<path d="M354.791 79.3705C359.482 75.4104 366.1 57.6384 364.518 46.2808L367.509 50.5178C368.755 52.2798 366.668 71.2876 359.866 77.5843L354.791 79.3705Z" fill="#5877DE"/>
<g style="mix-blend-mode:multiply" opacity="0.21">
<path d="M386.9 75.8258C385.282 77.6275 383.088 78.8108 380.693 79.1732L382.985 79.8136L383.065 79.8344C385.186 80.5198 387.487 80.3933 389.521 79.4794C391.554 78.5655 393.176 76.9293 394.073 74.8877C391.854 75.9942 389.329 76.3245 386.9 75.8258Z" fill="#8B92E3"/>
</g>
<g style="mix-blend-mode:multiply" opacity="0.21">
<path d="M362.018 74.9672C363.012 73.3977 363.84 71.7295 364.49 69.9893L360.793 69.0339C360.101 70.8435 359.303 72.6108 358.404 74.3268L362.018 74.9672Z" fill="#8B92E3"/>
</g>
<path fill-rule="evenodd" clip-rule="evenodd" d="M478.316 151.539C478.316 151.539 488.466 140.949 491.633 148.849L499.166 189.374L492.391 190.659L480.729 158.85L478.316 151.539Z" fill="#C95836"/>
<path d="M492.552 191.022L492.988 191.42C494.293 192.14 498.69 191.766 502.525 191.576L507.638 191.461C509.583 191.008 509.303 189.409 508.092 187.619L499.666 183.565C497.738 182.664 495.545 182.505 493.508 183.119L490.004 184.119L489.977 185.002C489.95 186.131 490.167 187.253 490.611 188.291C491.055 189.33 491.717 190.261 492.552 191.022Z" fill="#C95836"/>
<path fill-rule="evenodd" clip-rule="evenodd" d="M474.291 100.6C481.249 101.293 500.748 181.052 500.748 181.052L487.397 182.226L466.734 121.567L474.291 100.6Z" fill="#C5CCEB"/>
<path d="M389.644 128.964C390.274 125.024 387.59 121.32 383.65 120.69C379.711 120.06 376.006 122.744 375.376 126.684C374.747 130.624 377.43 134.328 381.37 134.958C385.31 135.587 389.015 132.904 389.644 128.964Z" fill="#324463"/>
<path fill-rule="evenodd" clip-rule="evenodd" d="M397.495 129.934C397.495 129.934 389.73 129.547 390.412 150.791C390.786 162.432 381.817 186.543 381.817 186.543L374.772 183.496L372.18 130.81C372.18 126.539 377.777 122.502 382.163 121.869L390.686 125.936L397.495 129.934Z" fill="#C95836"/>
<path fill-rule="evenodd" clip-rule="evenodd" d="M374.733 181.073L368.184 185.781C366.83 186.955 359.564 189.111 359.564 189.111C358.806 190.593 360.191 191.424 361.375 191.652L382.643 191.773C382.643 191.773 387.579 190.883 383.477 181.305C379.562 182.911 375.664 184.04 374.733 181.073Z" fill="#915334"/>
<path fill-rule="evenodd" clip-rule="evenodd" d="M413.085 196.45C413.085 196.45 403.535 197.017 393.136 224.794C387.438 240.025 362.909 270.266 362.909 270.266L356.18 268.144L382.093 192.49C384.35 186.889 389.584 182.344 395.428 180.914L411.746 176.916L413.085 196.45Z" fill="#C95836"/>
<path fill-rule="evenodd" clip-rule="evenodd" d="M356.849 266.506L350.317 271.242C348.97 272.422 341.715 274.617 341.715 274.617C340.964 276.102 342.352 276.922 343.539 277.144H364.807C364.807 277.144 369.74 276.227 365.586 266.672C361.688 268.31 357.794 269.459 356.849 266.506Z" fill="#915334"/>
<path fill-rule="evenodd" clip-rule="evenodd" d="M471.316 165.427C469.61 187.9 451.114 193.137 451.114 193.137L405.625 207.261C405.625 207.261 400.405 225.818 393.71 237.747C387.015 249.676 376.973 263.287 376.973 263.287L357.588 258.198C357.588 258.198 373.068 221.446 377.437 202.67C381.805 183.895 390.335 182.164 390.335 182.164L436.028 152.321C436.028 152.321 473.013 143.044 471.316 165.427Z" fill="#3B4F94"/>
<path fill-rule="evenodd" clip-rule="evenodd" d="M371.086 174.323L387.356 176.847C387.356 176.847 392.645 159.009 391.035 143.961L412.972 173.735L441.191 151.926C441.191 151.926 392.108 121.329 389.163 119.214C386.217 117.099 372.81 115.652 371.948 125.313C371.564 129.571 371.086 174.323 371.086 174.323Z" fill="#3B4F94"/>
<path d="M408.764 170.688L427.121 161.234L428.042 158.237" stroke="#83A5C7" stroke-linecap="round" stroke-linejoin="round"/>
<path fill-rule="evenodd" clip-rule="evenodd" d="M442.513 81.4369C442.513 81.4369 438.705 77.6291 443.125 73.1878C447.546 68.7466 448.723 78.7057 448.577 78.8407C448.432 78.9757 442.513 81.4369 442.513 81.4369Z" fill="#572A22"/>
<path fill-rule="evenodd" clip-rule="evenodd" d="M456.513 81.4335C456.513 81.4335 456.108 86.6017 452.238 86.8717C448.368 87.1417 447.873 76.0022 447.873 76.0022L456.513 81.4335Z" fill="#572A22"/>
<path fill-rule="evenodd" clip-rule="evenodd" d="M444.473 84.5144C444.473 84.5144 445.068 90.0738 445.563 94.6778C445.645 95.2993 445.901 95.885 446.301 96.3671C446.702 96.8492 447.231 97.208 447.827 97.4021C448.464 97.6254 449.144 97.6944 449.813 97.6036C450.481 97.5127 451.119 97.2645 451.673 96.8794L452.711 96.142C454.238 95.0758 454.968 93.3416 454.591 91.6938C453.629 87.4672 451.87 79.772 451.87 79.772L444.473 84.5144Z" fill="#C95836"/>
<path fill-rule="evenodd" clip-rule="evenodd" d="M444.484 88.0938L445.187 91.1954L448.396 88.0938H444.484Z" fill="#633C1D"/>
<path fill-rule="evenodd" clip-rule="evenodd" d="M453.789 77.7642C453.9 76.9888 453.699 76.2009 453.231 75.573C452.762 74.945 452.064 74.5281 451.289 74.4134L445.706 73.6137C444.1 73.3853 442.864 74.5691 442.393 76.1373C441.839 77.9858 441.583 81.9528 441.746 84.8537C441.836 86.4875 442.878 88.1318 444.48 88.3637C446.211 88.6061 451.556 87.6887 452.48 84.6667C453.172 82.3613 453.456 80.1666 453.789 77.7642Z" fill="#C95836"/>
<path fill-rule="evenodd" clip-rule="evenodd" d="M457.362 82.3995C457.362 82.3995 458.106 76.1166 455.631 73.8043C452.297 70.6888 447.859 69.0376 443.134 73.1881C443.134 73.1881 440.507 74.8531 449.099 75.8189C450.189 75.9401 448.728 81.1845 450.116 81.6102C451.989 82.1849 454.36 82.5033 457.386 82.3995H457.362Z" fill="#572A22"/>
<path fill-rule="evenodd" clip-rule="evenodd" d="M454.681 84.4589C454.058 85.6497 452.76 86.1898 451.787 85.6636C450.815 85.1374 450.531 83.7528 451.157 82.5481C451.784 81.3435 453.075 80.8173 454.048 81.3435C455.02 81.8696 455.304 83.2716 454.681 84.4589Z" fill="#C95836"/>
<path fill-rule="evenodd" clip-rule="evenodd" d="M428.871 92.9019L442.523 91.7492L454.248 91.6799L472.56 99.1432C477.406 101.913 475.568 106.513 473.332 111.654L473.733 128.616C476.797 141.666 476.157 151.133 474.678 164.27C463.861 167.542 450.513 168.179 439.145 166.725C425.468 164.977 415.883 152.335 417.503 138.64C419.23 124.036 421.425 113.364 428.871 92.9019Z" fill="#C5CCEB"/>
<path d="M442.526 91.7491C442.526 91.7491 437.143 103.01 445.039 104.01C452.935 105.011 458.02 93.2792 458.02 93.2792L452.388 90.3472L442.526 91.7491Z" fill="#C95836"/>
<path d="M473.43 139.084L466.527 120.588L467.853 118.636" stroke="#AAB5E0" stroke-width="3.61" stroke-linecap="round" stroke-linejoin="round"/>
<path d="M422.277 115.873C422.464 115.261 424.15 111.657 424.15 111.657" stroke="#AAB5E0" stroke-width="3.61" stroke-linecap="round" stroke-linejoin="round"/>
<path fill-rule="evenodd" clip-rule="evenodd" d="M442.462 83.5557L445.788 83.8637C445.788 83.8637 445.553 86.2177 443.967 85.875C442.382 85.5323 442.462 83.5557 442.462 83.5557Z" fill="white"/>
<path d="M388.824 467.367H619.715C621.468 467.367 623.204 467.023 624.824 466.352C626.444 465.681 627.916 464.698 629.156 463.459C630.395 462.219 631.379 460.748 632.05 459.128C632.721 457.508 633.066 455.772 633.066 454.019V313.446C633.066 307.197 630.584 301.205 626.166 296.786C621.747 292.368 615.755 289.886 609.506 289.886H394.581C390.284 289.886 386.029 290.732 382.059 292.377C378.089 294.021 374.482 296.432 371.443 299.47C368.405 302.509 365.995 306.116 364.351 310.086C362.707 314.056 361.861 318.311 361.861 322.609V440.404C361.861 447.555 364.702 454.413 369.759 459.47C374.815 464.526 381.673 467.367 388.824 467.367Z" fill="#7585E6"/>
<path d="M549.552 262.532V291.852H533.846V265.149H464.344V291.852H446.689V262.532C446.693 257.711 448.61 253.089 452.018 249.681C455.427 246.272 460.049 244.355 464.87 244.352H531.361C536.183 244.352 540.808 246.268 544.219 249.677C547.63 253.086 549.548 257.71 549.552 262.532Z" fill="#4657C7"/>
<path d="M609.495 289.886H595.863V467.367H619.704C621.457 467.367 623.193 467.023 624.813 466.352C626.433 465.681 627.904 464.698 629.144 463.459C630.384 462.219 631.368 460.748 632.039 459.128C632.71 457.508 633.055 455.772 633.055 454.019V313.446C633.055 307.197 630.573 301.205 626.155 296.786C621.736 292.368 615.744 289.886 609.495 289.886Z" fill="#4D60DB"/>
<path d="M614.342 333.353L633.056 313.446C633.056 307.197 630.574 301.205 626.155 296.786C621.737 292.368 615.745 289.886 609.496 289.886H394.581C390.284 289.886 386.029 290.732 382.059 292.377C378.089 294.021 374.482 296.432 371.443 299.47C368.405 302.509 365.995 306.116 364.351 310.086C362.707 314.056 361.861 318.311 361.861 322.609L367.327 328.864C432.164 403.06 546.854 405.144 614.342 333.353Z" fill="#9BA7F2"/>
<path d="M506.987 364.751H452.695C443.715 364.751 436.436 372.03 436.436 381.01C436.436 389.99 443.715 397.27 452.695 397.27H506.987C515.967 397.27 523.246 389.99 523.246 381.01C523.246 372.03 515.967 364.751 506.987 364.751Z" fill="white"/>
<path d="M498.713 389.283H458.8C457.713 389.284 456.637 389.07 455.633 388.655C454.629 388.239 453.716 387.63 452.948 386.861C452.179 386.093 451.57 385.181 451.154 384.177C450.738 383.173 450.523 382.097 450.523 381.01C450.523 379.923 450.737 378.847 451.153 377.842C451.568 376.838 452.178 375.925 452.947 375.157C453.715 374.388 454.628 373.778 455.632 373.363C456.637 372.947 457.713 372.733 458.8 372.733H498.713C499.8 372.733 500.876 372.947 501.88 373.363C502.884 373.779 503.796 374.389 504.564 375.158C505.332 375.926 505.942 376.839 506.357 377.843C506.773 378.847 506.987 379.923 506.986 381.01C506.986 383.204 506.114 385.309 504.563 386.86C503.011 388.412 500.907 389.283 498.713 389.283Z" fill="#4D60DB"/>
</svg>
