<svg width="620" height="561" viewBox="0 0 620 561" fill="none" xmlns="http://www.w3.org/2000/svg">
<path d="M0.032127 191.348C0.032127 191.348 -3.88408 106.236 74.7591 70.2598C144.433 38.3898 165.439 82.2554 229.812 64.3829C294.185 46.5104 333.47 -31.191 458.82 13.8479C584.169 58.8869 510.281 239.166 557.929 264.804C557.929 264.804 657.718 315.555 604.244 443.159C550.771 570.762 318.253 514.355 321.953 312.447C323.327 238.78 5.66199 451.727 0.032127 191.348Z" fill="#EEEFFA"/>
<path d="M322.767 353.39C322.767 353.39 359.963 193.345 493.16 161.511L372.638 355.397C372.638 355.397 442.744 254.733 571.469 320.449C571.469 320.449 438.699 347.919 388.555 409.637C388.555 409.637 363.087 442.346 349.259 464.289C305.234 534.168 322.767 353.39 322.767 353.39Z" fill="#D2D6FF"/>
<path d="M281.067 560.074C373.516 560.074 448.46 553.175 448.46 544.666C448.46 536.157 373.516 529.259 281.067 529.259C188.618 529.259 113.674 536.157 113.674 544.666C113.674 553.175 188.618 560.074 281.067 560.074Z" fill="#EBECF7"/>
<path d="M193.754 546.174L355.018 544.63C363.288 544.547 371.186 541.183 376.976 535.278C382.766 529.373 385.974 521.411 385.895 513.141L382.225 132.101C382.143 123.831 378.779 115.933 372.874 110.143C366.969 104.353 359.006 101.145 350.736 101.224L189.472 102.768C181.202 102.849 173.303 106.213 167.512 112.118C161.722 118.023 158.514 125.987 158.595 134.257L162.264 515.292C162.346 523.563 165.709 531.462 171.614 537.253C177.519 543.045 185.483 546.253 193.754 546.174Z" fill="#5670A3"/>
<path d="M190.218 507.696L357.065 506.085C359.341 506.064 361.591 505.594 363.685 504.703C365.779 503.812 367.678 502.517 369.271 500.892C370.865 499.268 372.123 497.345 372.973 495.233C373.824 493.122 374.25 490.864 374.228 488.589L370.77 129.538C370.747 127.262 370.277 125.014 369.386 122.92C368.495 120.826 367.199 118.929 365.575 117.335C363.95 115.742 362.027 114.485 359.917 113.634C357.806 112.784 355.548 112.358 353.273 112.381L186.425 113.986C184.149 114.008 181.9 114.478 179.805 115.369C177.711 116.26 175.813 117.554 174.219 119.179C172.625 120.804 171.367 122.727 170.517 124.838C169.666 126.949 169.24 129.207 169.263 131.483L172.721 490.534C172.742 492.81 173.212 495.059 174.103 497.153C174.994 499.248 176.289 501.146 177.914 502.74C179.539 504.333 181.461 505.591 183.573 506.442C185.684 507.292 187.942 507.718 190.218 507.696Z" fill="#CAD0EB"/>
<path d="M327.949 491.54C350.966 478.214 358.822 448.751 345.496 425.734C332.169 402.717 302.707 394.861 279.69 408.188C256.673 421.514 248.817 450.976 262.143 473.994C275.47 497.011 304.932 504.866 327.949 491.54Z" fill="#DB6246"/>
<path d="M290.315 429.923C287.544 432.209 285.736 435.456 285.251 439.016C284.68 442.946 284.937 446.953 286.007 450.779C287.077 454.604 288.935 458.163 291.463 461.227C298.034 469.275 305.97 470.901 311.281 470.912C314.58 470.905 317.775 469.756 320.322 467.659L322.561 465.832C323.863 464.77 324.69 463.233 324.86 461.561C325.03 459.888 324.529 458.217 323.467 456.914C322.402 455.614 320.866 454.788 319.194 454.62C317.522 454.451 315.851 454.952 314.548 456.014L310.663 459.189C310.411 459.395 310.115 459.542 309.797 459.618C309.48 459.694 309.15 459.697 308.831 459.626C300.18 457.64 295.647 452.473 295.806 443.673C295.815 443.362 295.892 443.056 296.03 442.777C296.169 442.498 296.366 442.253 296.609 442.057L300.551 438.856C301.854 437.798 302.684 436.267 302.858 434.598C303.033 432.928 302.538 431.258 301.482 429.954L301.014 429.377C300.487 428.725 299.835 428.183 299.096 427.785C298.358 427.386 297.548 427.138 296.713 427.056C295.878 426.973 295.035 427.057 294.232 427.302C293.43 427.548 292.685 427.951 292.039 428.487L290.315 429.923Z" fill="#F6FAF3"/>
<path d="M300.771 313.595L331.561 331.39L331.319 291.291L300.771 313.595Z" fill="#7083FA"/>
<path d="M317.029 307.815H229.761C205.654 307.815 186.111 327.358 186.111 351.465C186.111 375.572 205.654 395.114 229.761 395.114H317.029C341.136 395.114 360.678 375.572 360.678 351.465C360.678 327.358 341.136 307.815 317.029 307.815Z" fill="#7083FA"/>
<path d="M297.107 343.174H216.771C216.056 343.172 215.372 342.887 214.867 342.382C214.362 341.876 214.077 341.192 214.074 340.478C214.077 339.763 214.362 339.079 214.867 338.574C215.372 338.069 216.056 337.784 216.771 337.781H297.107C297.821 337.784 298.506 338.069 299.011 338.574C299.516 339.079 299.801 339.763 299.804 340.478C299.801 341.192 299.516 341.876 299.011 342.382C298.506 342.887 297.821 343.172 297.107 343.174Z" fill="white"/>
<path d="M330.023 343.174H311.538C310.824 343.172 310.14 342.887 309.635 342.382C309.129 341.876 308.845 341.192 308.842 340.478C308.845 339.763 309.129 339.079 309.635 338.574C310.14 338.069 310.824 337.784 311.538 337.781H330.023C330.738 337.784 331.422 338.069 331.927 338.574C332.432 339.079 332.717 339.763 332.72 340.478C332.717 341.192 332.432 341.876 331.927 342.382C331.422 342.887 330.738 343.172 330.023 343.174Z" fill="white"/>
<path d="M277.377 361.258H218.495C217.781 361.257 217.096 360.972 216.59 360.467C216.085 359.961 215.8 359.276 215.799 358.561C215.8 357.847 216.085 357.161 216.59 356.656C217.096 356.151 217.781 355.866 218.495 355.865H277.377C278.092 355.866 278.777 356.151 279.283 356.656C279.788 357.161 280.073 357.847 280.074 358.561C280.071 359.276 279.786 359.96 279.281 360.465C278.776 360.97 278.092 361.255 277.377 361.258Z" fill="white"/>
<path d="M235.662 369.471H195.147C173.029 369.471 155.1 387.401 155.1 409.518V409.523C155.1 431.641 173.029 449.571 195.147 449.571H235.662C257.78 449.571 275.709 431.641 275.709 409.523V409.518C275.709 387.401 257.78 369.471 235.662 369.471Z" fill="#29BA8C"/>
<path d="M194.717 368.869H235.232C245.844 368.9 256.012 373.13 263.515 380.633C271.019 388.137 275.248 398.305 275.279 408.916" stroke="#401E1E" stroke-width="2.54" stroke-linecap="round" stroke-linejoin="round"/>
<path d="M90.8303 139.352C95.2811 139.352 98.8892 135.744 98.8892 131.293C98.8892 126.842 95.2811 123.234 90.8303 123.234C86.3796 123.234 82.7715 126.842 82.7715 131.293C82.7715 135.744 86.3796 139.352 90.8303 139.352Z" stroke="#2D4E73" stroke-width="2.96" stroke-linecap="round" stroke-linejoin="round"/>
<path d="M428.727 55.6499C433.178 55.6499 436.786 52.0418 436.786 47.5911C436.786 43.1403 433.178 39.5322 428.727 39.5322C424.276 39.5322 420.668 43.1403 420.668 47.5911C420.668 52.0418 424.276 55.6499 428.727 55.6499Z" stroke="#2D4E73" stroke-width="2.96" stroke-linecap="round" stroke-linejoin="round"/>
<path d="M518.623 387.349C523.074 387.349 526.682 383.741 526.682 379.29C526.682 374.839 523.074 371.231 518.623 371.231C514.173 371.231 510.564 374.839 510.564 379.29C510.564 383.741 514.173 387.349 518.623 387.349Z" stroke="#2D4E73" stroke-width="2.96" stroke-linecap="round" stroke-linejoin="round"/>
<path fill-rule="evenodd" clip-rule="evenodd" d="M131.516 301.517C136.147 302.283 137.691 294.564 135.798 290.267L122.994 257.27C119.505 248.486 111.673 243.057 106.526 245.856C104.468 246.957 104.221 250.529 105.914 253.874L125.562 307.908L131.516 301.517Z" fill="#C95836"/>
<path fill-rule="evenodd" clip-rule="evenodd" d="M50.0575 226.502C50.5309 225.919 50.8764 225.244 51.0714 224.52C51.2665 223.795 51.3068 223.038 51.1897 222.297C49.6458 210.085 66.3244 211.279 71.7742 210.585C77.4349 209.854 76.6013 200.205 86.8266 202.099C97.052 203.992 97.3402 210.06 97.829 210.152C98.5443 210.286 92.1683 217.918 92.1683 217.918C92.1683 217.918 87.0994 216.919 82.3907 225.585C77.6819 234.252 77.4967 239.995 68.4292 243.823C59.3617 247.652 43.0742 227.212 43.0742 227.212C46.6045 229.121 48.7967 227.973 50.0575 226.502Z" fill="#663A24"/>
<path d="M87.9486 559.343C128.46 559.343 161.302 554.963 161.302 549.56C161.302 544.157 128.46 539.777 87.9486 539.777C47.4369 539.777 14.5957 544.157 14.5957 549.56C14.5957 554.963 47.4369 559.343 87.9486 559.343Z" fill="#EBECF7"/>
<path fill-rule="evenodd" clip-rule="evenodd" d="M88.8488 537.503C88.8488 537.503 78.9219 471.117 91.7409 444.872L84.7422 354.815L126.709 357.707L98.4309 538.027L88.8488 537.503Z" fill="#E3633D"/>
<path fill-rule="evenodd" clip-rule="evenodd" d="M98.7356 534.899L107.067 540.966C108.704 542.463 117.642 545.376 117.642 545.376C118.533 547.239 116.793 548.217 115.316 548.464L88.9476 547.913C88.9476 547.913 82.8597 546.647 88.258 534.909C93.0594 537.029 97.485 538.547 98.7356 534.899Z" fill="#4A2A1A"/>
<path fill-rule="evenodd" clip-rule="evenodd" d="M129.628 371.792L119.907 448.042L107.134 524.488H76.4375C76.4375 524.488 79.3039 511.196 78.9643 506.991C78.6246 502.787 77.513 462.77 86.8738 444.368L86.1277 369.415L129.628 371.792Z" fill="#607AD6"/>
<path fill-rule="evenodd" clip-rule="evenodd" d="M86.6571 444.358L85.9109 369.405L100.49 370.207L101.035 425.07C101.063 435.392 99.7786 445.676 97.2118 455.674C92.2303 475.646 93.0383 503.482 93.3161 506.961C93.6558 511.175 90.7894 524.457 90.7894 524.457H76.2207C76.2207 524.457 79.0871 511.165 78.7475 506.961C78.4078 502.756 77.2962 462.76 86.6571 444.358Z" fill="#4F64B0"/>
<path fill-rule="evenodd" clip-rule="evenodd" d="M47.6284 537.374C47.6284 537.374 40.5936 470.202 54.5499 443.622L51.4623 352.499L93.3003 355.427L57.1642 537.899L47.6284 537.374Z" fill="#E3633D"/>
<path fill-rule="evenodd" clip-rule="evenodd" d="M57.6385 534.734L65.6973 540.858C67.272 542.402 76.0822 545.325 76.0822 545.325C76.8901 547.208 75.1044 548.201 73.6172 548.448L47.2742 547.887C47.2742 547.887 41.2429 546.611 47.1507 534.734C51.8594 536.89 56.2233 538.429 57.6385 534.734Z" fill="#4A2A1A"/>
<path fill-rule="evenodd" clip-rule="evenodd" d="M95.6314 369.667L82.6014 446.859L66.4992 524.22H35.7871C35.7871 524.22 39.2299 510.768 39.0755 506.502C38.9211 502.236 39.5489 461.731 49.7125 443.128L50.9991 359.982L95.6314 369.667Z" fill="#607AD6"/>
<path fill-rule="evenodd" clip-rule="evenodd" d="M66.6641 310.203L124.023 314.572C133.353 318 129.622 371.792 129.622 371.792L91.9059 373.537C74.409 373.171 53.6598 386.916 51.4779 357.717C48.9923 324.34 66.6641 310.203 66.6641 310.203Z" fill="#607AD6"/>
<path fill-rule="evenodd" clip-rule="evenodd" d="M50.9487 361.186C50.9487 361.186 89.0301 365.303 101.381 348.568L50.3827 344.188C50.3827 344.188 50.1923 356.92 50.9487 361.186Z" fill="#4F64B0"/>
<path fill-rule="evenodd" clip-rule="evenodd" d="M110.711 245.161L97.9488 240.802L80.6784 239.629L58.725 247.281C55.1551 249.046 52.3633 252.067 50.8862 255.765C49.4091 259.464 49.3509 263.577 50.7228 267.315L56.0953 292.439C50.3883 311.392 47.4447 324.684 48.4328 344.188C79.5617 355.746 122.352 355.18 132.176 340.9C130.519 301.856 125.872 270.285 110.711 245.161Z" fill="#B2B4D6"/>
<path fill-rule="evenodd" clip-rule="evenodd" d="M97.7786 229.63L93.1779 244.219C92.9082 245.08 92.4151 245.854 91.7489 246.463C91.0826 247.071 90.2671 247.492 89.3852 247.683C88.5063 247.869 87.5934 247.816 86.7423 247.528C85.8912 247.24 85.1332 246.728 84.5479 246.046L83.4106 244.734C82.6067 243.793 82.0838 242.645 81.9018 241.421C81.7198 240.197 81.886 238.947 82.3814 237.813L89.6477 221.026L97.7786 229.63Z" fill="#C95836"/>
<path fill-rule="evenodd" clip-rule="evenodd" d="M96.7902 234.092L94.917 238.759L91.7109 233.202L96.7902 234.092Z" fill="#873B24"/>
<path d="M97.9482 240.803C97.9482 240.803 104.849 257.888 93.1211 258.639C81.3931 259.39 74.9707 241.657 74.9707 241.657L83.539 237.849L97.9482 240.803Z" fill="#C95836"/>
<path fill-rule="evenodd" clip-rule="evenodd" d="M91.3461 218.195C91.5987 217.051 92.2945 216.053 93.2812 215.42C94.2678 214.788 95.4651 214.572 96.6106 214.82L104.844 216.646C107.212 217.161 108.323 219.487 108.153 221.932C107.953 224.813 106.218 230.5 104.464 234.478C103.47 236.722 101.144 238.476 98.8029 237.951C96.2761 237.391 89.2517 233.274 89.5399 228.549C89.7714 224.947 90.5691 221.71 91.3513 218.195H91.3461Z" fill="#C95836"/>
<path fill-rule="evenodd" clip-rule="evenodd" d="M79.5664 224.314C79.5664 224.314 86.1689 213.605 90.8622 211.67C97.1713 209.097 104.242 209.097 108.694 217.403C108.694 217.403 100.938 224.608 82.3865 225.585L79.5664 224.314Z" fill="#663A24"/>
<path fill-rule="evenodd" clip-rule="evenodd" d="M86.5631 227.098C86.8101 229.095 88.3385 230.531 89.975 230.315C91.6115 230.099 92.7436 228.297 92.4966 226.306C92.2496 224.314 90.7212 222.873 89.0847 223.095C87.4483 223.316 86.3161 225.107 86.5631 227.098Z" fill="#C95836"/>
<path fill-rule="evenodd" clip-rule="evenodd" d="M103.907 232.461L99.8362 231.468C99.8362 231.468 99.2136 234.308 101.241 234.555C103.269 234.802 103.907 232.461 103.907 232.461Z" fill="white"/>
<path fill-rule="evenodd" clip-rule="evenodd" d="M63.721 310.584L67.2564 267.727C68.2444 257.409 62.3418 249.927 54.8542 252.006C51.9055 252.824 49.7081 259.267 49.7081 263.265L48.4473 311.124L63.721 310.584Z" fill="#C95836"/>
<path fill-rule="evenodd" clip-rule="evenodd" d="M48.4668 311.145C51.3795 318.674 58.0849 323.218 67.137 320.871L108.131 300.642L101.04 294.286L68.1816 304.342L48.4668 311.145Z" fill="#C95836"/>
<path d="M101.04 294.286L109.321 293.391C110.975 293.21 112.639 293.63 114.009 294.574L119.561 298.393C120.008 298.702 120.373 299.115 120.626 299.596C120.878 300.078 121.01 300.613 121.01 301.156C121.01 301.7 120.878 302.235 120.626 302.716C120.373 303.198 120.008 303.611 119.561 303.92L109.094 304.434C106.641 304.507 104.24 303.715 102.312 302.196L98.8945 299.623L101.04 294.286Z" fill="#C95836"/>
<path d="M97.4379 210.157C97.4379 210.157 93.0534 207.101 88.2109 212.967" stroke="white" stroke-width="2.54" stroke-linecap="round" stroke-linejoin="round"/>
<path fill-rule="evenodd" clip-rule="evenodd" d="M119.103 310.162L124.985 310.208C127.373 310.208 129.905 308.464 130.61 306.287L136.044 289.5C136.749 287.324 135.375 285.528 132.987 285.512L127.105 285.461C124.717 285.461 122.186 287.21 121.481 289.382L116.046 306.194C115.341 308.346 116.715 310.142 119.103 310.162Z" fill="#3D2213"/>
<path fill-rule="evenodd" clip-rule="evenodd" d="M130.553 304.45C131.228 304.65 131.951 304.609 132.599 304.334C133.247 304.059 133.779 303.567 134.104 302.942C135.647 299.921 137.876 294.317 134.315 291.878C129.318 288.451 124.887 297.194 125.638 300.683C126.081 302.762 128.597 303.884 130.553 304.45Z" fill="#E3633D"/>
<path d="M380.588 248.212C419.948 208.852 419.948 145.037 380.588 105.678C341.229 66.318 277.414 66.318 238.054 105.678C198.694 145.037 198.694 208.852 238.054 248.212C277.414 287.572 341.229 287.572 380.588 248.212Z" fill="#8A9CDE"/>
<path d="M309.825 277.649C331.602 277.36 352.674 269.886 369.767 256.39L373.369 253.416L333.168 230.31C333.168 230.31 329.488 251.584 304.668 251.882C280.893 252.17 282.447 228.627 282.447 228.627L242.977 252.814C261.394 269.119 285.229 277.974 309.825 277.649Z" fill="#7083FA"/>
<path fill-rule="evenodd" clip-rule="evenodd" d="M270.033 159.998C270.033 159.998 274.731 152.026 273.527 129.841L280.978 106.01C280.978 106.01 262.643 102.454 261.665 124.973C261.403 130.989 262.18 147.894 263.929 154.183C266.358 162.797 270.033 159.998 270.033 159.998Z" fill="#42271B"/>
<path fill-rule="evenodd" clip-rule="evenodd" d="M339.718 163.029C339.718 163.029 335.73 154.677 338.854 132.667L333.471 108.305C333.471 108.305 352.048 106.355 351.07 128.89C350.453 143.119 339.718 163.029 339.718 163.029Z" fill="#42271B"/>
<path d="M270.035 159.998C270.411 153.272 269.253 127.063 271.698 120.435C275.928 108.954 282.947 102.84 291.351 100.185L314.987 98.8054C326.185 100.082 335.793 106.036 341.119 120.306C343.594 126.924 342.549 153.133 342.951 159.859C344.279 181.658 346.774 212.535 316.489 212.422H315.254V205.701L298.005 205.742V212.463H296.769C266.438 212.73 268.816 181.807 270.035 159.998Z" fill="#C76146"/>
<path d="M279.95 230.078L283.161 178.617C283.208 177.865 283.41 177.13 283.753 176.46C284.096 175.789 284.573 175.196 285.156 174.717C285.738 174.239 286.412 173.886 287.137 173.679C287.861 173.472 288.621 173.417 289.368 173.517L325.694 178.385C326.945 178.552 328.1 179.145 328.965 180.063C329.83 180.982 330.352 182.17 330.444 183.428L333.825 229.821C334.064 233.114 333.624 236.422 332.531 239.538C331.439 242.654 329.717 245.512 327.474 247.935C325.23 250.358 322.513 252.294 319.49 253.623C316.467 254.952 313.203 255.645 309.901 255.659L304.096 255.685C300.796 255.7 297.528 255.036 294.495 253.735C291.462 252.434 288.729 250.523 286.465 248.122C284.201 245.721 282.455 242.881 281.334 239.777C280.213 236.673 279.742 233.372 279.95 230.078Z" fill="#C76146"/>
<path d="M319.719 148.389C319.355 148.374 319 148.269 318.687 148.082C318.374 147.895 318.113 147.632 317.928 147.318C317.527 146.505 318.036 145.635 319.071 145.378C319.39 145.301 326.836 143.484 332.718 146.243C333.691 146.701 334.051 147.658 333.516 148.378C332.981 149.099 331.766 149.315 330.783 148.857C326.558 146.876 320.594 148.311 320.532 148.342C320.266 148.403 319.991 148.419 319.719 148.389Z" fill="#4F261F"/>
<path d="M323.075 159.663C323.013 161.516 324.14 163.06 325.596 163.111C327.053 163.163 328.277 161.701 328.344 159.844C328.411 157.986 327.274 156.442 325.823 156.39C324.372 156.339 323.136 157.806 323.075 159.663Z" fill="#572A22"/>
<path d="M319.186 158.634C319.186 158.634 324.985 153.195 332.133 158.454" stroke="#4F261F" stroke-width="3.63" stroke-miterlimit="10" stroke-linecap="round"/>
<path d="M293.237 148.445C293.601 148.429 293.954 148.322 294.266 148.134C294.578 147.946 294.838 147.683 295.023 147.37C295.419 146.551 294.904 145.687 293.87 145.435C293.551 145.352 286.099 143.572 280.228 146.356C279.255 146.819 278.9 147.776 279.44 148.497C279.981 149.217 281.195 149.423 282.173 148.96C286.388 146.963 292.362 148.373 292.424 148.389C292.69 148.453 292.965 148.473 293.237 148.445Z" fill="#4F261F"/>
<path d="M289.93 159.731C290.002 161.588 288.9 163.137 287.423 163.194C285.946 163.25 284.732 161.794 284.665 159.936C284.598 158.079 285.694 156.535 287.171 156.478C288.648 156.422 289.857 157.878 289.93 159.731Z" fill="#572A22"/>
<path d="M293.815 158.686C293.815 158.686 287.995 153.272 280.867 158.562" stroke="#4F261F" stroke-width="3.63" stroke-miterlimit="10" stroke-linecap="round"/>
<path d="M332.442 208.145C332.442 208.145 317.879 216.796 294.938 211.315C294.938 211.315 333.364 223.851 333.904 231.303L332.442 208.145Z" fill="#94412B"/>
<path d="M277.109 182.957C282.773 179.57 283.274 169.985 278.229 161.547C273.183 153.11 264.501 149.016 258.837 152.403C253.174 155.79 252.672 165.376 257.718 173.813C262.764 182.25 271.445 186.344 277.109 182.957Z" fill="#C76146"/>
<path d="M354.496 173.628C359.464 165.148 358.918 155.595 353.278 152.291C347.637 148.987 339.038 153.183 334.07 161.664C329.103 170.144 329.649 179.697 335.289 183.001C340.93 186.305 349.529 182.109 354.496 173.628Z" fill="#C76146"/>
<path d="M305.064 177.747L302.408 176.98" stroke="#853A27" stroke-width="2.52" stroke-linecap="round" stroke-linejoin="round"/>
<path fill-rule="evenodd" clip-rule="evenodd" d="M269.252 118.361L269.499 112.751C269.499 112.751 289.172 120.378 307.678 120.028C326.183 119.678 347.416 113.956 347.416 113.956C347.416 113.956 334.232 90.2319 308.11 88.8065C282.436 87.4273 266.416 103.787 269.252 118.361Z" fill="#42271B"/>
<path d="M339.615 155.387L346.377 152.212" stroke="#6E3020" stroke-width="3.09" stroke-linecap="round" stroke-linejoin="round"/>
<path d="M274.322 155.294L266.947 151.296" stroke="#6E3020" stroke-width="3.09" stroke-linecap="round" stroke-linejoin="round"/>
<path d="M268.348 113.312C268.348 113.312 303.954 80.3051 332.978 104.564C351.087 119.714 349.162 141.523 342.848 136.547C336.951 131.916 331.413 131.324 324.893 129.857C317.498 128.18 305.544 136.913 294.449 131.175C276.864 122.092 268.348 113.312 268.348 113.312Z" fill="#42271B"/>
<path d="M306.921 195.784C305.796 195.788 304.681 195.571 303.64 195.144C302.599 194.717 301.652 194.089 300.854 193.296C300.055 192.504 299.421 191.561 298.986 190.523C298.552 189.485 298.326 188.372 298.322 187.247V186.804L315.464 186.742V187.185C315.469 188.311 315.251 189.427 314.825 190.468C314.398 191.51 313.769 192.457 312.976 193.256C312.182 194.055 311.239 194.689 310.2 195.123C309.162 195.557 308.047 195.781 306.921 195.784Z" fill="white"/>
<path d="M312.325 177.896C312.989 177.908 313.633 177.671 314.131 177.232C314.682 176.665 315.051 175.946 315.192 175.168C315.333 174.39 315.24 173.588 314.924 172.863L313.118 168.381L310.313 161.362C310.313 161.362 307.838 152.217 311.949 148.918" stroke="#853A27" stroke-width="2.52" stroke-linecap="round" stroke-linejoin="round"/>
<path opacity="0.23" d="M279.222 153.002L297.802 153.297C299.153 153.318 300.441 153.876 301.381 154.846C302.321 155.817 302.837 157.121 302.816 158.472L302.79 160.093C302.738 163.368 301.387 166.488 299.034 168.767C296.681 171.046 293.52 172.298 290.245 172.246L287.847 172.207C284.35 172.151 281.019 170.707 278.586 168.195C276.153 165.683 274.818 162.307 274.873 158.81L274.899 157.189C274.917 156.061 275.383 154.986 276.193 154.2C277.004 153.415 278.094 152.984 279.222 153.002Z" fill="#DADDED"/>
<path opacity="0.23" d="M317.46 153.918L336.04 154.213C337.391 154.234 338.678 154.792 339.618 155.762C340.558 156.733 341.075 158.037 341.053 159.388L341.027 161.009C340.975 164.284 339.624 167.404 337.272 169.683C334.919 171.963 331.757 173.214 328.482 173.162L326.084 173.124C322.587 173.068 319.254 171.625 316.82 169.113C314.386 166.6 313.05 163.224 313.106 159.726L313.132 158.105C313.15 156.977 313.615 155.902 314.426 155.116C315.236 154.331 316.326 153.9 317.455 153.918L317.46 153.918Z" fill="#DADDED"/>
<path d="M316.841 153.388L335.421 153.683C336.772 153.705 338.059 154.262 338.999 155.232C339.939 156.203 340.455 157.507 340.434 158.858L340.408 160.479C340.356 163.754 339.005 166.874 336.653 169.154C334.3 171.433 331.138 172.684 327.863 172.632L325.465 172.594C321.967 172.538 318.635 171.096 316.201 168.583C313.767 166.071 312.431 162.694 312.487 159.196L312.512 157.576C312.53 156.447 312.996 155.372 313.807 154.586C314.617 153.801 315.707 153.37 316.835 153.388L316.841 153.388Z" stroke="#6E3020" stroke-width="3.09" stroke-linecap="round" stroke-linejoin="round"/>
<path d="M279.128 152.784L297.708 153.079C299.059 153.101 300.346 153.658 301.286 154.629C302.226 155.599 302.743 156.903 302.721 158.254L302.695 159.875C302.643 163.15 301.292 166.271 298.94 168.55C296.587 170.829 293.425 172.08 290.15 172.028L287.752 171.99C284.255 171.934 280.922 170.492 278.488 167.979C276.054 165.467 274.718 162.09 274.774 158.593L274.8 156.972C274.808 156.413 274.928 155.861 275.15 155.347C275.372 154.834 275.694 154.37 276.096 153.981C276.498 153.592 276.972 153.286 277.492 153.081C278.013 152.875 278.568 152.775 279.128 152.784Z" stroke="#6E3020" stroke-width="3.09" stroke-linecap="round" stroke-linejoin="round"/>
<path d="M313.458 154.528L301.596 154.337" stroke="#6E3020" stroke-width="3.09" stroke-linecap="round" stroke-linejoin="round"/>
<path d="M261.141 179.877C259.87 185.106 265.772 204.095 283.037 202.793" stroke="white" stroke-width="7.56" stroke-linecap="round" stroke-linejoin="round"/>
<path d="M284.463 206.421C287.644 206.388 290.202 204.479 290.178 202.157C290.153 199.835 287.556 197.98 284.375 198.013C281.195 198.046 278.637 199.956 278.661 202.278C278.686 204.6 281.283 206.455 284.463 206.421Z" fill="white"/>
<path d="M260.215 160.26C260.215 160.26 252.326 101.245 298.991 99.7316C355.938 97.879 347.755 157.667 347.755 157.667" stroke="white" stroke-width="6.18" stroke-linecap="round" stroke-linejoin="round"/>
<path d="M260.909 185.193C258.911 185.495 256.875 184.993 255.246 183.797C253.617 182.601 252.528 180.809 252.217 178.812L249.433 160.688C249.132 158.689 249.634 156.653 250.83 155.024C252.025 153.395 253.818 152.306 255.815 151.996C257.813 151.691 259.85 152.191 261.481 153.386C263.111 154.582 264.201 156.374 264.511 158.372L267.28 176.512C267.578 178.507 267.075 180.538 265.882 182.164C264.689 183.79 262.901 184.879 260.909 185.193Z" fill="white"/>
<path d="M343.249 175.545C343.108 177.585 343.781 179.597 345.122 181.141C346.463 182.685 348.362 183.633 350.402 183.778C352.441 183.913 354.451 183.236 355.993 181.895C357.536 180.554 358.486 178.658 358.636 176.62L359.917 158.521C360.059 156.481 359.385 154.468 358.044 152.925C356.703 151.381 354.804 150.432 352.764 150.287C350.725 150.153 348.715 150.83 347.173 152.171C345.631 153.511 344.681 155.407 344.53 157.446" fill="white"/>
<path d="M229.92 238.703C234.091 244.215 238.814 249.286 244.015 253.838V253.838C259.65 267.66 279.25 276.191 300.02 278.215C303.884 278.61 307.767 278.781 311.651 278.73C367.306 278.004 411.841 232.301 411.12 176.641" stroke="#401E1E" stroke-width="2.54" stroke-linecap="round" stroke-linejoin="round"/>
<path d="M197.112 409.769C197.889 406.478 195.85 403.179 192.559 402.402C189.267 401.626 185.969 403.664 185.192 406.956C184.415 410.248 186.454 413.546 189.745 414.323C193.037 415.1 196.335 413.061 197.112 409.769Z" fill="white"/>
<path d="M216.452 414.041C219.577 412.747 221.061 409.164 219.766 406.04C218.472 402.915 214.89 401.431 211.765 402.725C208.64 404.02 207.157 407.602 208.451 410.727C209.745 413.851 213.327 415.335 216.452 414.041Z" fill="white"/>
<path d="M241.133 412.713C243.525 410.322 243.525 406.444 241.133 404.053C238.742 401.661 234.864 401.661 232.473 404.053C230.081 406.444 230.081 410.322 232.473 412.713C234.864 415.105 238.742 415.105 241.133 412.713Z" fill="white"/>
<path d="M255.924 116.307C262.607 94.2714 250.16 70.9906 228.124 64.3081C206.088 57.6257 182.807 70.0722 176.125 92.1082C169.443 114.144 181.889 137.425 203.925 144.107C225.961 150.79 249.242 138.343 255.924 116.307Z" fill="#25A87F"/>
<path d="M200.975 99.2633L214.792 118.227L230.22 89.1409" stroke="white" stroke-width="7.87" stroke-linecap="round" stroke-linejoin="round"/>
<path d="M54.323 250.426C54.323 250.426 46.5266 255.16 47.8183 284.483L75.3295 286.418C75.3295 286.418 68.3565 254.255 68.2278 253.869C68.0992 253.483 62.7215 245.522 54.323 250.426Z" fill="#B2B4D6"/>
<path fill-rule="evenodd" clip-rule="evenodd" d="M123.123 279.486L131.476 275.786C131.476 275.786 126.288 247.528 110.711 245.161L120.195 284.827L123.123 279.486Z" fill="#B2B4D6"/>
<path d="M70.0341 284.612L68.8711 266.528" stroke="#60709C" stroke-width="2.78" stroke-linecap="round" stroke-linejoin="round"/>
<path d="M123.9 278.024L117.57 263.039" stroke="#60709C" stroke-width="2.78" stroke-linecap="round" stroke-linejoin="round"/>
</svg>
